<svg id="Back" xmlns="http://www.w3.org/2000/svg" viewBox="0 0 500 500"><defs><style>.cls-1{fill:#a0680d;}.cls-2{fill:#b38c3e;}.cls-3{fill:#7f7979;}.cls-4{fill:#6b6a6a;}.cls-5{fill:#56504b;}</style></defs><g id="back-2" data-name="back"><g id="back-shape"><circle id="back-shape-2" data-name="back-shape" class="cls-1" cx="250" cy="250" r="231"/><path id="back-ring-intermediate" class="cls-2" d="M250,24.76C125.61,24.76,24.77,125.62,24.77,250S125.61,475.24,250,475.24,475.23,374.39,475.23,250,374.4,24.76,250,24.76Zm0,394.31A168.85,168.85,0,1,1,418.85,250.23,168.85,168.85,0,0,1,250,419.07Z"/><g id="details"><path class="cls-1" d="M324,90.61a.63.63,0,0,1,.12.07l13.54-35.89q-3.19-1.44-6.45-2.76l-14.4,35.38C318.93,88.3,321.89,89.64,324,90.61Z"/><path class="cls-1" d="M329.76,93.42c2.06,1,4.08,2.12,6.09,3.24l13.52-34.22.64-1.63c-2-1.09-4.07-2.12-6.13-3.12l-.15-.07-.65,1.63L329.61,93.34Z"/><path class="cls-1" d="M346,102.75l.45.31,1.35-3.28,3.76,1.28-1.73,4.25c1.82,1.26,3.63,2.56,5.4,3.88l.45.34,2.54-6.2,3.76,1.29-3,7.42c1.78,1.39,3.51,2.81,5.24,4.28.13.13.29.25.43.37l4-9.79,3.78,1.28-4.62,11.29q3.59,3.23,7,6.68c.29.28.56.56.84.85l21.13-10.5,2.48.85L377,128.4c1.42,1.47,2.8,3,4.17,4.5l.78.88,26.64-13.24,2.65.92-27.93,13.88,4.57,5.56,5.05-2.51,11.81,23.8-1,2.43c1.33,2.39,2.61,4.81,3.82,7.27l.38.77.95-2.2,3.51,7.06L411.28,180l3.71,9.2,19.75-46.32.26-.61c-.11-.2-.22-.4-.34-.6-1.34-2.29-2.72-4.55-4.13-6.76l-.28.63L421.54,156,418,148.89l8.25-19.32.27-.66-.37-.56c-.74-1.07-1.47-2.12-2.22-3.16l-2-2.79c-.07-.11-.16-.21-.24-.32-.68-.91-1.37-1.81-2.06-2.71-.85-1.1-1.69-2.18-2.56-3.26a.87.87,0,0,1-.08-.1h0l-1.24-.42-65.3-22.31.66-1.61L413.63,113l1.27.43a.12.12,0,0,1-.06-.08c-.07-.07-.12-.14-.19-.22-.37-.45-.73-.9-1.11-1.34l-1.17-1.37-.2-.23c-.86-1-1.73-2-2.6-3q-2-2.25-4.08-4.42l-1.59-.55L353.76,85.16l1.57-3.85L398,96.38l1.84.66c-.64-.64-1.28-1.26-1.94-1.87q-5.7-5.44-11.77-10.42l-2.52-.9L358,74.8l2.19-5.38,6.53,2.31,3.73,1.32q-1.9-1.29-3.82-2.54-5.7-3.67-11.58-7l-.4.94L340.39,99.29C342.27,100.4,344.14,101.56,346,102.75Zm62.36,50.95-9.15-18.43,3.4-1.69,7.72,15.53ZM416,169,412.45,162l2-4.58,3.52,7.08Zm4.59-44.39.15,0-6.78,15.94-5.06-10.17ZM379,110.46l8.39,2.85-12,6Z"/><path class="cls-1" d="M420.6,207.27l21.81-51.13c-.2-.43-.41-.85-.62-1.27q-1.73-3.47-3.55-6.83l-20.7,48.54Q419.25,201.9,420.6,207.27Z"/><path class="cls-1" d="M463.84,238l0,.1-11.09,27.23-4.82-1.61,15.18-35.1,0-.06c-.2-1.93-.43-3.85-.68-5.78a0,0,0,0,1,0,0c-.31-2.39-.66-4.79-1.05-7.16-.07-.47-.14-.93-.22-1.4l-27.8-9.5,2.5-5.81,23.95,8.22h0a3,3,0,0,0-.09-.41c-.18-.82-.35-1.64-.53-2.47-.1-.49-.21-1-.32-1.47-.16-.71-.33-1.42-.49-2.12-.14-.53-.26-1.06-.39-1.58h0l-19.31-6.63,2.25-5.21,15.36,5.3c-.07-.26-.15-.51-.22-.77-.31-1.12-.65-2.25-1-3.36,0,0,0-.05,0-.07-.42-1.37-.84-2.74-1.28-4.09L443.7,180.7l1.47-3.41,7.1,2.45c-1-2.85-2.07-5.7-3.19-8.53l-1.1-.37.5-1.16q-1.83-4.44-3.84-8.83L422,213.24a172.34,172.34,0,0,1,3.48,24.82l18.73,37.7-2.55-.92-15.91-32q.31,7.84-.07,15.64l6.43,12.93-7.23-2.63c-.25,2.38-.55,4.75-.91,7.13l36.56,13.29a2.45,2.45,0,0,0,.08-.39c.16-.81.3-1.63.44-2.45,0-.09,0-.17,0-.26.23-1.32.45-2.62.65-3.94l-8-2.89-3.71-7.45L462.57,276c.09-.72.17-1.43.25-2.14s.14-1.29.21-1.95q.17-1.53.3-3.06h0l-3.95-1.33L464,256.05l0-.1C464.25,250,464.18,244,463.84,238Zm-16.55-21.13-5.27,13L433.17,212Zm-11,27.2-10.65-21.48,2.3-5.34,10.59,21.31Zm6.68,13.43-2.5-5,13.49-33.33,4.88,1.67Z"/><path class="cls-1" d="M421.9,287.11l36.24,13.18q.84-3.44,1.57-6.9l-36.45-13.24C422.85,282.49,422.4,284.8,421.9,287.11Z"/><path class="cls-1" d="M291.67,420.8l17.38,35c2.27-.65,4.53-1.35,6.8-2.08L298.59,419C296.29,419.63,294,420.25,291.67,420.8Z"/><path class="cls-1" d="M300.93,418.27,318.15,453c2.23-.74,4.46-1.53,6.67-2.36l-17.15-34.51C305.43,416.86,303.19,417.59,300.93,418.27Z"/><path class="cls-1" d="M416.11,307.72l6.06,13.06-5.26,2.61-3.67-7.95c-1.17,2.9-2.41,5.79-3.74,8.64l1.13,2.42-3,1.51c-1.8,3.61-3.72,7.19-5.76,10.68l4.82-2.39,3.8,1.37-8.06,4-1.92-.7a172.94,172.94,0,0,1-15.32,21.54l-1,2.52-.42-.81q-2.43,2.85-5,5.63l1.92,3.84-1.87,4.6L376,372.73c-1.71,1.76-3.46,3.48-5.25,5.18l4.5,9.06-1.68,4.14-5.39-10.84c-1.78,1.61-3.61,3.19-5.47,4.75L370,399.78l-1.2,2.94-8-16.16q-2.76,2.25-5.66,4.39l10.16,20.43-1.76,4.32-7.36-14.8-.38-.78L352.29,393c-1.92,1.38-3.86,2.7-5.85,4l2.06,4.14-11.14,27.38L327.13,408q-3.17,1.56-6.37,2.95l13.07,26.3-1.33,3.26L318.34,412q-3.25,1.38-6.53,2.6L328.9,449q4.69-1.85,9.32-3.95l14.45-35.5.71,1.45-13.56,33.31c1.85-.84,3.68-1.72,5.52-2.63q2-1,4-2l8.23-20.27,2.48,5-5,12.16c3.41-1.9,6.75-3.91,10-6L392,364.49l2.16,4.36L370.43,427q3.92-2.66,7.69-5.45c1-.77,2.05-1.55,3.06-2.34l17.1-42,5.09,10.24-7.12,18.94,0,.06c.88-.81,1.74-1.63,2.6-2.46,3.28-3.16,6.46-6.42,9.5-9.78l0-.09,10.58-28.09,4.58,1.68-5.79,15.4,0,.11q4.41-5.57,8.43-11.39l.89-1.3q.6-.87,1.17-1.74c1.22-1.82,2.43-3.68,3.58-5.55l-32.92-12,4-2,30.63,11.12a2.82,2.82,0,0,1,.18-.29c.59-1,1.18-2,1.75-3s1.1-1.91,1.63-2.88L411.53,345l8.07-4,20.56,7.48q1.62-3.13,3.14-6.32l-4.22-1.55-3.5-7.55,14.71-7.31q1.79-4.71,3.33-9.48l-21,10.42L431.41,324l23.44-11.64c.8-2.63,1.54-5.28,2.25-7.95l-36.16-13.12Q418.95,299.62,416.11,307.72Zm-3.79,55.94-5.57,14.84-10.22-20.58Zm8.77-31.26-1.23-2.65,5.26-2.6,1.22,2.65Zm7.19,4.27,1-.5.49,1Zm.18-19-9-19.42,27.78,10.09Z"/><path class="cls-1" d="M281.64,422.94l12.12,24.4-5.42,13.3c2.76-.49,5.51-1.06,8.25-1.67l1.33-3.25,1.31,2.65c2.33-.55,4.64-1.14,7-1.78l-17.44-35.1C286.39,422,284,422.51,281.64,422.94Z"/><path class="cls-1" d="M281.26,441.58l-36.27,18,13.14-34c-2.55.12-5.12.18-7.69.17l-15.05,37.76.41,0c5.3.38,10.63.54,16,.5L279,450.55l-5,12.19c2.67-.3,5.33-.64,8-1.05L287.6,448l-2.88-5.79Z"/><path class="cls-1" d="M236.14,425.46l-10.77,37.27c2.62.3,5.25.56,7.9.76l10.86-37.59C241.45,425.82,238.79,425.66,236.14,425.46Z"/><path class="cls-1" d="M225.06,424.26l-9.91,32.09-3.63-4.94,9.26-27.81c-3.31-.55-6.6-1.19-9.85-1.92l-13.66,10.26-2.67-3.65,10.64-8q-4.73-1.24-9.35-2.72L190,422l-3.25-4.44,2.85-2.14c-2.89-1-5.74-2.16-8.54-3.35l-30.17,22.67,2.74-5.68L178,410.75c-2.69-1.19-5.34-2.44-7.95-3.77L161,413.79l4.46-9.25c-2.3-1.23-4.56-2.54-6.79-3.87L147.43,424l-7,5.22,15.16-30.74c-1.89-1.21-3.77-2.46-5.61-3.74L133,429.35a213.92,213.92,0,0,0,21.59,12.39l3.86-2.89,5.25,7.17q6.71,3,13.68,5.47l-12.69-17.33,4.81-3.61,17.74,24.23q6,1.83,12.1,3.32L175.7,425.86l4.81-3.61,22.35,30.5-1.92,5.74q10.09,2.37,20.55,3.76l11.44-37.07C230.29,424.93,227.66,424.63,225.06,424.26Zm-19.18,19.43-4-5.47,7.77-5.83Z"/><path class="cls-1" d="M313.38,85.77l15-35.1q-3.69-1.45-7.45-2.78L303.86,82.53C306,83.22,311.26,85,313.38,85.77Z"/><path class="cls-1" d="M141.64,388.54l-17.21,34.93c1.83,1.32,3.66,2.62,5.53,3.89l17.12-34.73C145.24,391.3,143.42,390,141.64,388.54Z"/><path class="cls-1" d="M300.4,81.46l17.12-34.72q-3.21-1.08-6.45-2L293.86,79.63C296.06,80.19,298.24,80.82,300.4,81.46Z"/><path class="cls-1" d="M133.55,381.79l-17.42,35.34c1.77,1.43,3.57,2.82,5.38,4.18l17.28-35.05C137,384.8,135.26,383.32,133.55,381.79Z"/><path class="cls-1" d="M290.32,78.77,307.6,43.71c-2.19-.62-4.39-1.19-6.61-1.74L283.57,77.33C285.83,77.77,288.08,78.24,290.32,78.77Z"/><path class="cls-1" d="M279.92,76.66l17.51-35.53c-2.24-.5-4.5-1-6.76-1.41L273,75.62C275.32,75.92,277.62,76.27,279.92,76.66Z"/><path class="cls-1" d="M125.73,374.47l-17.67,35.86c1.72,1.53,3.46,3,5.23,4.49l17.5-35.51Q128.21,376.94,125.73,374.47Z"/><path class="cls-1" d="M118.24,366.49l-18,36.55c1.66,1.64,3.36,3.23,5.07,4.81l17.78-36.09Q120.61,369.18,118.24,366.49Z"/><path class="cls-1" d="M269.24,75.17,287,39.05c-2.29-.4-4.59-.75-6.9-1.08l-18,36.57C264.49,74.7,266.87,74.9,269.24,75.17Z"/><path class="cls-1" d="M258.23,74.31l18.15-36.84q-3.53-.42-7.07-.74l-18.43,37.4Q254.57,74.15,258.23,74.31Z"/><path class="cls-1" d="M111.07,357.86,92.65,395.23c1.61,1.75,3.24,3.47,4.91,5.15l18.14-36.82C114.12,361.7,112.57,359.79,111.07,357.86Z"/><path class="cls-1" d="M246.88,74.16l18.6-37.74c-2.41-.17-4.82-.31-7.25-.4L239.29,74.45Q243.07,74.22,246.88,74.16Z"/><path class="cls-1" d="M104.25,348.49,85.34,386.88q2.3,2.81,4.73,5.51l18.58-37.71Q106.4,351.64,104.25,348.49Z"/><path class="cls-1" d="M97.86,338.29,78.3,378c1.48,2,3,3.95,4.55,5.87L102,345Q99.85,341.73,97.86,338.29Z"/><path class="cls-1" d="M235.17,74.75,254.3,35.91c-1.43,0-2.86,0-4.3,0-1.05,0-2.08,0-3.13,0h0L227.32,75.57C229.91,75.24,232.54,75,235.17,74.75Z"/><path class="cls-1" d="M223,76.17,242.84,36c-2.56.08-5.09.21-7.63.38h0L214.88,77.63C217.58,77.08,220.31,76.6,223,76.17Z"/><path class="cls-1" d="M91.92,327.17,71.58,368.43v0c1.41,2.12,2.86,4.21,4.35,6.29l19.81-40.21C94.4,332.11,93.13,329.65,91.92,327.17Z"/><path class="cls-1" d="M86.51,315,65.18,358.22c1.34,2.28,2.71,4.52,4.14,6.74L90,323.05C88.74,320.39,87.6,317.7,86.51,315Z"/><path class="cls-1" d="M210.43,78.59l20.64-41.9c-2.63.24-5.25.51-7.86.84L201.9,80.77C204.72,80,207.56,79.25,210.43,78.59Z"/><path class="cls-1" d="M81.76,301.42,59.17,347.26q1.88,3.66,3.88,7.23l21.72-44.08Q83.15,306,81.76,301.42Z"/><path class="cls-1" d="M197.24,82.18,219,38.11c-2.72.39-5.41.83-8.1,1.33h0L188.26,85.27C191.22,84.16,194.21,83.12,197.24,82.18Z"/><path class="cls-1" d="M183.34,87.21l23.1-46.9c-2.81.57-5.61,1.2-8.38,1.89L173.8,91.44C176.93,89.92,180.11,88.52,183.34,87.21Z"/><path class="cls-1" d="M77.84,286.16,53.58,335.41c1.15,2.64,2.34,5.24,3.6,7.83l23.11-46.92Q78.92,291.31,77.84,286.16Z"/><path class="cls-1" d="M75.09,268.57l-26.61,54c1,2.86,2.12,5.68,3.27,8.49l25-50.71Q75.72,274.53,75.09,268.57Z"/><path class="cls-1" d="M168.51,94.11l25-50.7c-2.94.79-5.84,1.66-8.71,2.57l-26.6,54Q163.22,96.87,168.51,94.11Z"/><path class="cls-1" d="M152.36,103.7,180,47.56c-3.07,1.07-6.11,2.19-9.12,3.39l-30.17,61.22Q146.37,107.72,152.36,103.7Z"/><path class="cls-1" d="M74.11,250c0-.9,0-1.8,0-2.69L44,308.55q1.34,4.69,2.88,9.29l27.67-56.16C74.26,257.82,74.11,253.93,74.11,250Z"/><path class="cls-1" d="M76.94,218.45,40.2,293h0q1,5.22,2.36,10.32L74.5,238.52A176.85,176.85,0,0,1,76.94,218.45Z"/><path class="cls-1" d="M134,117.83,165.9,53c-3.25,1.39-6.43,2.84-9.59,4.39L119.5,132.09A175.42,175.42,0,0,1,134,117.83Z"/></g></g></g><g id="back-internal"><path id="back-internal-shape" class="cls-3" d="M410.33,250c0,3.44-.11,6.86-.32,10.24q-.21,3.19-.53,6.35c-.29,2.78-.64,5.53-1.07,8.27a159.49,159.49,0,0,1-5.13,22.3A157.28,157.28,0,0,1,396,316.27c-1,2.2-2.06,4.39-3.16,6.54q-3.53,6.93-7.7,13.45c-1.25,2-2.55,3.88-3.89,5.79a160.55,160.55,0,0,1-169.91,63.59,159.21,159.21,0,0,1-48.73-21.18l-.26-.18c-1.8-1.17-3.57-2.37-5.32-3.62l-.29-.21c-.88-.63-1.77-1.27-2.64-1.93l-.13-.1c-1.78-1.33-3.53-2.69-5.25-4.1l-.16-.13c-.89-.72-1.78-1.46-2.65-2.22l-.18-.16c-1.7-1.45-3.37-2.93-5-4.46l-.21-.19c-.84-.77-1.67-1.58-2.49-2.38l-.22-.22c-1.62-1.58-3.21-3.19-4.75-4.83l-.24-.26c-.79-.84-1.58-1.7-2.34-2.56l-.25-.28q-2.31-2.58-4.47-5.25l-.27-.33c-.75-.91-1.48-1.82-2.19-2.76-.09-.12-.19-.24-.27-.36-1.46-1.85-2.86-3.75-4.21-5.68l-.29-.42c-.69-1-1.37-1.95-2-2.95l-.29-.44c-1.34-2-2.64-4.08-3.89-6.18l-.31-.52c-.63-1.06-1.24-2.11-1.84-3.18l-.31-.56q-1.86-3.31-3.56-6.73c-.1-.21-.2-.42-.31-.63-.55-1.14-1.11-2.3-1.64-3.46-.1-.23-.21-.45-.31-.68-1.12-2.44-2.17-4.9-3.16-7.4l-.31-.78c-.49-1.25-1-2.51-1.41-3.79l-.3-.84c-1-2.71-1.87-5.46-2.68-8.23-.1-.32-.19-.64-.28-1h0c-.42-1.38-.8-2.77-1.15-4.17l-.27-1.05h0q-1.17-4.62-2.06-9.35c-.08-.41-.15-.82-.22-1.23-.3-1.58-.56-3.16-.8-4.76-.07-.45-.13-.9-.19-1.35-.53-3.64-.9-7.31-1.17-11,0-.54-.08-1.08-.11-1.62-.12-1.9-.2-3.81-.25-5.73l0-1.81h0c0-.8,0-1.59,0-2.39q0-5.88.42-11.65c0-.79.12-1.56.18-2.34h0q.35-4,.88-7.87c.13-1,.27-1.92.42-2.87a159.4,159.4,0,0,1,6.13-25.55c.88-2.66,1.82-5.29,2.84-7.88l0-.08a159.06,159.06,0,0,1,12.06-24.49q2.2-3.64,4.59-7.16a161.51,161.51,0,0,1,16.52-20.51h0c.7-.74,1.39-1.45,2.1-2.17,1.84-1.87,3.71-3.68,5.64-5.44.61-.57,1.22-1.12,1.84-1.67q5.21-4.65,10.81-8.83l1.55-1.14c1.51-1.11,3.05-2.19,4.6-3.23l1.45-1q4.56-3,9.33-5.71l1.29-.73q2.05-1.14,4.16-2.21c.4-.22.81-.43,1.22-.63,2.8-1.42,5.65-2.77,8.55-4,.37-.17.74-.32,1.11-.48,1.29-.55,2.6-1.09,3.91-1.59l1.06-.41c1.54-.62,3.11-1.19,4.68-1.74,1.11-.39,2.23-.76,3.35-1.13h0l1-.31c1.24-.4,2.49-.78,3.74-1.14l.93-.27,2.75-.76q2.43-.65,4.91-1.2l.86-.2c1.2-.27,2.41-.53,3.62-.78l.82-.17q3.65-.7,7.37-1.26l.75-.11c1.17-.17,2.33-.33,3.52-.46h0l.72-.09c2.36-.27,4.74-.5,7.13-.67l.66,0c1.15-.07,2.3-.13,3.46-.18l.63,0c2.24-.1,4.49-.14,6.75-.14h.77c1.13,0,2.26,0,3.39.06h.56c2.27.06,4.51.18,6.75.34l.51,0c1.12.08,2.23.17,3.34.28l.48,0c2.22.22,4.43.48,6.61.78l.42.06c1.1.16,2.19.33,3.28.51l.41.06c2.17.36,4.31.76,6.45,1.22l.36.07c1.1.23,2.17.46,3.25.72l.34.08c2.11.51,4.22,1,6.3,1.63l.3.08c1,.28,2,.58,3,.87l.46.14c2,.63,4,1.28,6,2l.42.15L304,99a159.87,159.87,0,0,1,54,32.53q5.11,4.65,9.79,9.74c1.55,1.68,3.06,3.38,4.54,5.13t0,0c.72.85,1.43,1.72,2.13,2.58q3.09,3.79,6,7.79c1.69,2.37,3.33,4.78,4.89,7.26a159.27,159.27,0,0,1,22.51,57.87c.13.77.27,1.54.39,2.31A160.74,160.74,0,0,1,410.33,250Z"/><g id="back-internal-sign"><g id="back-internal-sign-shape"><polygon class="cls-4" points="340.88 152.02 342.78 151.02 348.01 148.28 349.55 149.08 355.13 152.02 355.11 151.96 353.76 144.09 359.02 138.96 359.52 138.46 352.85 137.49 351.56 137.3 349 132.09 348.01 130.08 344.45 137.3 336.48 138.46 342.24 144.09 340.88 152.02"/><polygon class="cls-4" points="368.03 188.28 373.99 187.83 378.81 193.82 380.63 186.34 387.17 183.86 387.83 183.6 382.11 180.06 381.28 179.55 380.98 173.71 380.89 171.85 375.03 176.84 367.59 174.82 370.51 181.96 366.31 188.4 368.03 188.28"/><path class="cls-4" d="M250.19,346.46a7.44,7.44,0,0,0-2.63-3.13l-.08-.05a7,7,0,0,0-3.88-1.09,7.1,7.1,0,0,0-3.88,1.09,7.31,7.31,0,0,0-2.69,3.18,13.45,13.45,0,0,0,0,10.13,7.34,7.34,0,0,0,2.69,3.17c.27.17.54.31.82.45a7.35,7.35,0,0,0,3.06.64,7,7,0,0,0,3.88-1.09,7.51,7.51,0,0,0,2.71-3.17,13.33,13.33,0,0,0,0-10.13Zm-2.93,8.66a4.4,4.4,0,0,1-1.46,2.11,3.58,3.58,0,0,1-2.2.69,3.52,3.52,0,0,1-1.37-.27,3,3,0,0,1-.79-.42,4.43,4.43,0,0,1-1.48-2.11,12.53,12.53,0,0,1,0-7.21,4.45,4.45,0,0,1,1.48-2.1,3.79,3.79,0,0,1,4.36,0s0,0,.07.06a4.56,4.56,0,0,1,1.39,2,12.53,12.53,0,0,1,0,7.21Z"/><polygon class="cls-4" points="326.71 160.84 320.64 159.95 319.09 159.73 316.77 155 315.69 152.81 312.28 159.73 304.67 160.84 310.17 166.22 308.88 173.81 310.98 172.7 315.69 170.23 317.28 171.07 322.5 173.81 322.45 173.57 321.2 166.22 326.29 161.24 326.71 160.84"/><polygon class="cls-4" points="350.1 189.9 346.2 189.33 345.27 189.2 343.88 186.37 343.12 184.83 340.95 189.2 336.13 189.9 339.62 193.31 338.81 198.12 340.24 197.36 343.12 195.84 347.44 198.12 346.61 193.31 349.66 190.33 350.1 189.9"/><path class="cls-4" d="M382,244.13a97.68,97.68,0,0,0-7.07-10.64C370.58,183.77,338,139.29,292,121l1-1.95,10-20.37c-2-.7-4-1.35-6-2l-.46-.14-37.8,76.8q3.48.38,7.09.84l21.68-44,1-2c39.64,15.87,69.56,52.69,77.09,94.7-24.23-24.56-60.07-39.64-88.93-44.7a291.41,291.41,0,0,0-53.89-4.24c-1.43,0-2.74,0-3.94.09l19-59.49.26-.79L153.3,129.85l1,4.32s1.46-.39,3.72-.79a48.72,48.72,0,0,1,11.07-.83c8.65.43,17.07,4.23,12.6,18.66-8.25,26.63-31.65,101.17-31.65,101.17s-5.72,21.3-16.22,23.43-15.17,2.93-15.17,2.93l-1.72,4.8H208.3l2-5.59.1-.27s-1.45.18-3.59.25c-5.43.21-15.22-.23-16.08-6-1.2-8,2.26-17.31,2.26-17.31l3-9.22.56-1.78,4-.18c11.89-.49,34.84-1,52.1,1.47,1.7.24,3.62.52,5.75.87,21.13,3.4,61.78,12.54,89.68,42.42a103.81,103.81,0,0,1,8,9.65,124.57,124.57,0,0,1-25.69,36.49v-6.77H307.19V290.28H299v44.27h31.15l-.11.11a122.09,122.09,0,0,1-30.67,21.94,119.49,119.49,0,0,1-24.66,9.14c-1.08-.43-2.2-.87-3.38-1.27h0a38.61,38.61,0,0,0-12.71-2.21h-.26c-9.07,0-17,3.28-24.09,6.66a129.08,129.08,0,0,1-39.33-8.35q-2-.8-3.87-1.65a119.56,119.56,0,0,1-12.71-7l1-2,8.53-17.35-4.38-6.3-26.66,54.15.29.21c1.75,1.25,3.52,2.45,5.32,3.62l11.26-22.87,1.06-2.14c.57.41,1.47,1.08,1.81,1.27a99.15,99.15,0,0,0,21.33,9.78l3.57,6c3.75,6.25,16.62,26.81,24.92,28.75a14.23,14.23,0,0,0,3.26.37c6.31,0,13.21-3.86,21.62-8.55,2.5-1.39,5.06-2.83,7.77-4.25,5.81-3,13.88-1.66,21.55.53h0c2.55.71,5.06,1.53,7.43,2.29a71.17,71.17,0,0,0,10.59,2.93c5,.76,8.84-.07,11.46-2.47,3.89-3.58,3.51-9.39,3.39-11.3-.39-6-4.92-17.73-5.45-19.05l-1.51-3.8a131.24,131.24,0,0,0,17.33-11.27c15.88-1.71,43-6.61,53.15-16.6C393.69,317.34,403.26,281.4,382,244.13ZM212.09,374c2.15.44,4.33.83,6.57,1.17A15.51,15.51,0,0,1,212.09,374ZM224.41,382c1.76-.62,3.53-1.37,5.34-2.2l0,0c1.52-.7,3.08-1.46,4.66-2.23.43-.2.84-.42,1.28-.63,6.86-3.33,14.57-6.82,22.78-6.79,6.42.05,11,2,15.48,3.86h0c4.51,1.9,9.19,3.86,15.05,3.4.72-.05,1.43-.13,2.11-.23,1-.15,2-.34,2.92-.56a30.2,30.2,0,0,0,8.26-3.31l.05,0h0c1.41,4,3,9.15,3.17,11.86.22,3.45-.46,4.62-.88,5a3.51,3.51,0,0,1-2.11.66,13.58,13.58,0,0,1-2.88-.16,70.48,70.48,0,0,1-9.35-2.64c-10.29-3.33-24.37-7.89-35-2.31-2.8,1.47-5.42,2.94-8,4.35-8.06,4.51-15,8.39-19.28,7.4-2.15-.51-7.45-6.54-13.05-14.51A20.16,20.16,0,0,0,224.41,382Zm64.81-12.49a124.65,124.65,0,0,0,12.19-5.15A21.23,21.23,0,0,1,289.22,369.47Zm71.83-64a106.33,106.33,0,0,1,9.77,21.1c-7.84,7.72-22.41,11.89-35.72,14.14A132.64,132.64,0,0,0,361.05,305.43Z"/><path class="cls-4" d="M190.75,320c.22-.08.45-.15.67-.24a14.39,14.39,0,0,0,6.46-5.38,16.53,16.53,0,0,0,0-16.79,14.39,14.39,0,0,0-5.94-5.18c-.17-.09-.35-.18-.52-.25a24.31,24.31,0,0,0-10.08-1.9h-18.2v44.27h8.22V321.64h10c.58,0,1.14,0,1.7-.06l.6.85,8.44,12.12h8.84Zm-19.39-22.79H181a14.15,14.15,0,0,1,7,1.49,6.75,6.75,0,0,1,1.18.79,8,8,0,0,1,2.75,6.51,8.08,8.08,0,0,1-2.75,6.51q-2.74,2.36-8.18,2.35h-9.6Z"/><polygon class="cls-4" points="241.6 297.17 241.6 291.08 241.6 290.28 209.32 290.28 209.32 334.55 211.18 334.55 242.49 334.55 242.49 327.65 217.54 327.65 217.54 315.45 238.88 315.45 238.88 308.68 217.54 308.68 217.54 297.17 241.6 297.17"/><path class="cls-4" d="M273.74,291.08l-.36-.8H265.3l-19.9,44.27h8.46l4.38-10.25h22.13l.33.79,4.05,9.46h8.6ZM261,317.84l8.29-19.37,1.1,2.58,7.2,16.79Z"/><path class="cls-4" d="M229.28,350a9.24,9.24,0,0,1-1.34,1.5l-7.2,6.85v2.25h13.37v-2.85h-8.57l4.86-4.61a14.4,14.4,0,0,0,1.89-2.15,6.34,6.34,0,0,0,.88-1.83,7,7,0,0,0,.23-1.75,4.92,4.92,0,0,0-.78-2.78,4.69,4.69,0,0,0-1.36-1.3,6.46,6.46,0,0,0-.9-.49,8.47,8.47,0,0,0-3.43-.64,9.89,9.89,0,0,0-4,.8,6.89,6.89,0,0,0-2.85,2.2L222.4,347a1,1,0,0,1,.1-.11,4.67,4.67,0,0,1,1.76-1.31,5.76,5.76,0,0,1,2.39-.47,3.93,3.93,0,0,1,2.51.69.12.12,0,0,1,.05.05,2.31,2.31,0,0,1,.8,1.88,4.15,4.15,0,0,1-.15,1.05A3.64,3.64,0,0,1,229.28,350Z"/><path class="cls-4" d="M261.74,350a9.24,9.24,0,0,1-1.34,1.5l-7.2,6.85v2.25h13.35v-2.85H258l4.86-4.61a13.71,13.71,0,0,0,1.88-2.15,6.14,6.14,0,0,0,.89-1.83,7,7,0,0,0,.23-1.75,4.93,4.93,0,0,0-.79-2.78,4.69,4.69,0,0,0-1.36-1.3,5.83,5.83,0,0,0-.89-.49,8.47,8.47,0,0,0-3.43-.64,9.86,9.86,0,0,0-4,.8,6.89,6.89,0,0,0-2.85,2.2l2.35,1.82s0-.08.1-.11a4.61,4.61,0,0,1,1.74-1.31,5.88,5.88,0,0,1,2.4-.47,3.94,3.94,0,0,1,2.52.69.12.12,0,0,1,.05.05,2.31,2.31,0,0,1,.8,1.88,4.15,4.15,0,0,1-.15,1.05A3.85,3.85,0,0,1,261.74,350Z"/><path class="cls-4" d="M276.81,350a8.91,8.91,0,0,1-1.35,1.5l-7.19,6.85v2.25h13.35v-2.85h-8.55l4.85-4.61a15,15,0,0,0,1.89-2.15,6.34,6.34,0,0,0,.88-1.83,6.59,6.59,0,0,0,.24-1.75,4.86,4.86,0,0,0-.8-2.78,4.66,4.66,0,0,0-1.35-1.3,5.49,5.49,0,0,0-.9-.49,8.38,8.38,0,0,0-3.42-.64,9.83,9.83,0,0,0-4,.8,7.08,7.08,0,0,0-2.87,2.2l2.36,1.82s.06-.08.1-.11a4.72,4.72,0,0,1,1.75-1.31,5.81,5.81,0,0,1,2.4-.47,3.88,3.88,0,0,1,2.5.69.1.1,0,0,1,.06.05,2.31,2.31,0,0,1,.8,1.88,4.61,4.61,0,0,1-.14,1.05A3.85,3.85,0,0,1,276.81,350Z"/><path class="cls-4" d="M210.06,285.81h-6.49l-4.63,9.42a13.73,13.73,0,0,1,.83,1.17,16.55,16.55,0,0,1,2.5,7.28l4.82-9.78L210,288l20.95-42.54c-2.39-.08-4.86-.13-7.43-.15l-14.92,30.3c1.09-.08,1.77-.16,1.78-.17L214,275l-1.4,3.72Z"/><path class="cls-4" d="M180.84,323.88,154,378.42c-1.78-1.33-3.53-2.69-5.25-4.1l-.16-.13,18.4-37.4h6.61V323.88Z"/><path class="cls-4" d="M187,311.31l2.63-5.33a5.75,5.75,0,0,0-1.94-4.74,4.4,4.4,0,0,0-.79-.54,7.61,7.61,0,0,0-1.81-.73l-6.22,12.66H181A11.43,11.43,0,0,0,187,311.31Z"/><path class="cls-4" d="M190.34,289.36a17.5,17.5,0,0,1,2,.78c.22.09.45.2.66.31a17,17,0,0,1,3.28,2.07l3.3-6.71h-7.48Z"/><path class="cls-4" d="M219.5,245.33c-2.62,0-5.14,0-7.51.07l-14.54,29.53a28,28,0,0,0,7.07.82Z"/><path class="cls-4" d="M293.22,95.57,255.13,173c-2.48-.23-4.87-.44-7.19-.59l38.64-78.51.34.08C289,94.45,291.14,95,293.22,95.57Z"/><path class="cls-4" d="M163,336.79l-17.24,35c-1.7-1.45-3.37-2.93-5-4.46l-.21-.19,20.34-41.32v11Z"/><path class="cls-4" d="M181,299.47h-7.07l-.29.59v12.57h1.29l6.47-13.15Z"/><path class="cls-4" d="M186.78,288.49l1.31-2.68h-7.48l-1.1,2.23h1.83A31.19,31.19,0,0,1,186.78,288.49Z"/><path class="cls-4" d="M200.32,245.74l-5.49,11.19c-.89,2.88-2.5,9.23-1.67,14.72a2.92,2.92,0,0,0,1,1.75l13.74-27.9c-2.78.07-5.21.15-7.16.23Z"/><path class="cls-4" d="M283,93.07l-38.9,79c-2.58-.15-5-.26-7.33-.34l39.37-80,.41.06C278.69,92.21,280.83,92.61,283,93.07Z"/><path class="cls-4" d="M160.9,302.51v15.22l-23.05,46.83c-1.62-1.58-3.21-3.19-4.75-4.83l-.24-.26Z"/><polygon class="cls-4" points="169.12 285.81 168.02 288.04 175.52 288.04 176.62 285.81 169.12 285.81"/><path class="cls-4" d="M272.41,91.22,232.8,171.68c-2,0-3.89-.06-5.62-.06h-1.85l40-81.24.48,0C268,90.66,270.23,90.92,272.41,91.22Z"/><path class="cls-4" d="M165.12,285.81,164,288H160.9v6.35l-30.63,62.24q-2.31-2.58-4.47-5.25l-.27-.33,32.12-65.24Z"/><path class="cls-4" d="M261.47,90.08l-37.9,77,13.87-43.39,16.72-34h.56C257,89.8,259.23,89.92,261.47,90.08Z"/><path class="cls-4" d="M153.64,285.81l-30.57,62.12c-1.46-1.85-2.86-3.75-4.21-5.68l-.29-.42,27.58-56Z"/><path class="cls-4" d="M250.18,89.67l-10.58,21.5-8.26,1.57,11.28-22.9.63,0c2.24-.1,4.49-.14,6.75-.14Z"/><path class="cls-4" d="M142.15,285.81l-25.9,52.63c-1.34-2-2.64-4.08-3.89-6.18l-.31-.52,22.62-45.93Z"/><path class="cls-4" d="M238.5,90.07l-11.57,23.52-8.26,1.57,12-24.33h0l.72-.09C233.73,90.47,236.11,90.24,238.5,90.07Z"/><path class="cls-4" d="M130.67,285.81,109.9,328q-1.86-3.31-3.56-6.73c-.1-.21-.2-.42-.31-.63l17.14-34.83Z"/><path class="cls-4" d="M137.79,271.34,149.3,248c2.27-7.27,7.5-23.9,13.14-41.94l-33.76,68.58,4.9-1A9.08,9.08,0,0,0,137.79,271.34Z"/><path class="cls-4" d="M226.37,91.4,214.25,116,206,117.58l12.19-24.75.82-.17Q222.65,92,226.37,91.4Z"/><path class="cls-4" d="M180.85,145.32a23.82,23.82,0,0,1-1.09,5.27c-2.43,7.85-6.22,20-10.33,33.14l-45.16,91.76h0c-3.9.75-5.76,1.07-5.78,1.08l-1.29.21-3.24,9h5.23l-15.1,30.69c-1.12-2.44-2.17-4.9-3.16-7.4l-.31-.78Z"/><path class="cls-4" d="M213.7,93.81l-12.12,24.62L193.32,120l11.79-24,.93-.27,2.75-.76Q211.22,94.37,213.7,93.81Z"/><path class="cls-4" d="M179.77,139.39,98.9,303.69c-1-2.71-1.87-5.46-2.68-8.23-.1-.32-.19-.64-.28-1h0l78.24-158.92a9.32,9.32,0,0,1,5.33,3.39A3.28,3.28,0,0,1,179.77,139.39Z"/><path class="cls-4" d="M200.4,97.49l-11.49,23.36-8.26,1.57,10.66-21.65,1.06-.41c1.54-.62,3.11-1.19,4.68-1.74C198.16,98.23,199.28,97.86,200.4,97.49Z"/><path class="cls-4" d="M170.5,134.91l-76,154.35q-1.17-4.62-2.06-9.35c-.08-.41-.15-.82-.22-1.23L163,135a42.35,42.35,0,0,1,4.38-.23c.6,0,1.22,0,1.85,0C169.63,134.84,170.07,134.88,170.5,134.91Z"/><path class="cls-4" d="M186.29,102.84l-10,20.43L168,124.84l8.55-17.36c.4-.22.81-.43,1.22-.63C180.54,105.43,183.39,104.08,186.29,102.84Z"/><path class="cls-4" d="M158.66,135.61l-67.41,137c-.53-3.64-.9-7.31-1.17-11,0-.54-.08-1.08-.11-1.62l62.14-126.21.75,3.24,2.23-.6s1.4-.37,3.53-.75Z"/><path class="cls-4" d="M171.07,110.42l-7.51,15.27-8.28,1.57,5-10.16,1.45-1Q166.3,113.12,171.07,110.42Z"/><path class="cls-4" d="M154.14,121.47l-3.27,6.64-.05.11L89.69,252.39c0-.8,0-1.59,0-2.39q0-5.88.42-11.65c0-.79.12-1.56.18-2.34h0l51.22-104c.61-.57,1.22-1.12,1.84-1.67Q148.54,125.65,154.14,121.47Z"/><path class="cls-4" d="M133.74,139.59,91.57,225.26a159.4,159.4,0,0,1,6.13-25.55c.88-2.66,1.82-5.29,2.84-7.88l0-.08,12.06-24.49q2.2-3.64,4.59-7.16A161.51,161.51,0,0,1,133.74,139.59Z"/></g><g id="back-internal-sign-shadow"><polygon class="cls-5" points="342.83 149.51 348.01 146.79 353.17 149.5 352.19 143.74 356.38 139.65 350.59 138.8 348.01 133.56 345.43 138.8 339.63 139.65 343.82 143.74 342.83 149.51"/><polygon class="cls-5" points="374.61 186.14 377.93 190.27 379.19 185.1 384.16 183.22 379.64 180.42 379.37 175.11 375.32 178.55 370.19 177.16 372.21 182.09 369.3 186.53 374.61 186.14"/><polygon class="cls-5" points="301.21 292.52 301.21 332.31 328.07 332.31 328.07 329.83 304.95 329.83 304.95 292.52 301.21 292.52"/><path class="cls-4" d="M251.2,346a8.52,8.52,0,0,0-3-3.53l0,0-.13-.08a8.59,8.59,0,0,0-9,0A8.44,8.44,0,0,0,236,346a12.66,12.66,0,0,0-1.1,5.55,13,13,0,0,0,1.09,5.54,8.52,8.52,0,0,0,3.12,3.64,9.61,9.61,0,0,0,1,.52,8.38,8.38,0,0,0,3.52.74,8.24,8.24,0,0,0,4.48-1.26,8.68,8.68,0,0,0,3.12-3.64,14.55,14.55,0,0,0,0-11.1Zm-5,8.77a3.32,3.32,0,0,1-1.07,1.58,2.46,2.46,0,0,1-1.54.48,2.5,2.5,0,0,1-1-.2,2,2,0,0,1-.52-.28,3.33,3.33,0,0,1-1.08-1.58,9.7,9.7,0,0,1-.46-3.21,9.58,9.58,0,0,1,.46-3.23,3.4,3.4,0,0,1,1.09-1.59,2.46,2.46,0,0,1,1.5-.47,2.53,2.53,0,0,1,1.5.44l.08.07a3.46,3.46,0,0,1,1,1.56,9.17,9.17,0,0,1,.47,3.22A9.34,9.34,0,0,1,246.21,354.74Z"/><path class="cls-5" d="M250.19,346.46a7.44,7.44,0,0,0-2.63-3.13l-.08-.05a7,7,0,0,0-3.88-1.09,7.1,7.1,0,0,0-3.88,1.09,7.31,7.31,0,0,0-2.69,3.18,13.45,13.45,0,0,0,0,10.13,7.34,7.34,0,0,0,2.69,3.17c.27.17.54.31.82.45a7.35,7.35,0,0,0,3.06.64,7,7,0,0,0,3.88-1.09,7.51,7.51,0,0,0,2.71-3.17,13.33,13.33,0,0,0,0-10.13Zm-2.93,8.66a4.4,4.4,0,0,1-1.46,2.11,3.58,3.58,0,0,1-2.2.69,3.52,3.52,0,0,1-1.37-.27,3,3,0,0,1-.79-.42,4.43,4.43,0,0,1-1.48-2.11,12.53,12.53,0,0,1,0-7.21,4.45,4.45,0,0,1,1.48-2.1,3.79,3.79,0,0,1,4.36,0s0,0,.07.06a4.56,4.56,0,0,1,1.39,2,12.53,12.53,0,0,1,0,7.21Z"/><polygon class="cls-5" points="318.16 161.2 315.69 156.19 313.22 161.2 307.7 162 311.69 165.9 310.75 171.41 315.7 168.81 320.62 171.41 319.69 165.9 323.68 162 318.16 161.2"/><polygon class="cls-5" points="344.64 190.07 343.12 187 341.6 190.07 338.23 190.56 340.67 192.94 340.11 196.29 343.11 194.7 346.13 196.29 345.56 192.95 348 190.56 344.64 190.07"/><path class="cls-5" d="M380.23,245.27a95,95,0,0,0-6.91-10.39l-.39-.52-.05-.65c-4.28-49.18-36.27-92.6-81.51-110.63l-2.24-.91,11.7-23.77-2.15-.72-36.33,73.8,2.37.28,22.88-46.49,1.92.78c40,16,70.84,53.87,78.47,96.39l1.27,7.1-5.07-5.13c-25.24-25.59-61.86-39.54-87.73-44.07a291.18,291.18,0,0,0-49.28-4.24c-1.48,0-2.88,0-4.19,0s-2.71.05-3.89.09l-3.18.12L235,116.61l-73.75,14.07a50.25,50.25,0,0,1,6.08-.4c.69,0,1.39,0,2.07.06,6.56.34,11.19,2.36,13.76,6s2.91,9,.87,15.52c-8.16,26.32-31.42,100.42-31.63,101.08-.62,2.32-6.42,22.7-17.93,25.05-7.36,1.5-11.9,2.34-13.95,2.72l-.2.57h86.6l.4-1.13h-.22c-.63,0-1.32,0-2.05,0-12.51,0-15.78-4.3-16.33-7.92-1.27-8.47,2.23-18,2.35-18.33l2.94-9.21.56-1.78.53-1.49,1.55-.08,3.94-.18c4.46-.18,11.39-.4,19.09-.4a246.6,246.6,0,0,1,33.42,1.89c1.71.25,3.65.53,5.79.89,39.58,6.35,70.19,20.85,91,43.1a105.17,105.17,0,0,1,8.16,9.85l.78,1.06-.55,1.2a126.73,126.73,0,0,1-26.46,37.46,124.36,124.36,0,0,1-31.23,22.34A122.26,122.26,0,0,1,275.42,368l-.69.18-.68-.27c-.59-.24-1.16-.53-1.76-.76a38.65,38.65,0,0,0-13.53-2.58h-.26c-8.88,0-16.59,3.33-23.13,6.46l-.53.24-.58,0a131.4,131.4,0,0,1-40-8.52c-1.32-.53-2.66-1.11-3.93-1.68a121.69,121.69,0,0,1-13-7.12l-1.71-1.07,9.82-20L184,330.73,159.69,380l1.87,1.28L174,356l2.15,1.52.58.43c.42.29.84.62,1.11.77a97.43,97.43,0,0,0,20.86,9.55l.79.26,4,6.68c9.41,15.7,18.63,26.58,23.51,27.73a12,12,0,0,0,2.74.3c5.73,0,12.26-3.65,20.53-8.27l.53-.29c2.33-1.3,4.75-2.65,7.29-4a19.85,19.85,0,0,1,9.22-2A50.91,50.91,0,0,1,281,390.92l.3.08c2.34.66,4.62,1.4,6.82,2.1l.7.23a70.85,70.85,0,0,0,10.23,2.83,19.88,19.88,0,0,0,3.06.25,9.42,9.42,0,0,0,6.56-2.14c3.1-2.86,2.77-7.87,2.66-9.51-.32-5-3.93-14.94-5.29-18.37l-2.25-5.64,1.75-1a127.42,127.42,0,0,0,17-11.08l.5-.38.63-.07c19.32-2.08,43.08-7.37,51.82-16C392.85,315.26,400,279.9,380.23,245.27Zm-78,117.47c-.25.06-.22.92-.25,1.11a5.41,5.41,0,0,1-.12.58,6.18,6.18,0,0,1-.26.76,6.53,6.53,0,0,1-3.12,3.25,15.25,15.25,0,0,1-5.93,1.87,13.17,13.17,0,0,1-6.92-.79c-.12-.06-.69-.45-.8-.41C290.67,367.18,296.21,364.27,302.2,362.74ZM221.33,375s-7,4.42-11-2.22A56.41,56.41,0,0,0,221.33,375Zm83.22-3.32c.11.31.16.63.26.94l.61,1.75c.39,1.15.78,2.3,1.14,3.46A32.44,32.44,0,0,1,308,385c.21,3.36-.31,5.58-1.63,6.82A5.46,5.46,0,0,1,303,393c-.26,0-.52,0-.8,0a18.87,18.87,0,0,1-2.57-.21,70.61,70.61,0,0,1-9.73-2.73c-6.64-2.15-14.89-4.81-22.54-4.81a22.67,22.67,0,0,0-10.74,2.36c-2.46,1.3-4.8,2.6-7.06,3.85l-.85.48c-7.52,4.2-14,7.83-18.91,7.83a8.46,8.46,0,0,1-2-.22c-3.69-.87-10.59-10-14.37-15.4L210.49,380l5.06.67a19,19,0,0,0,2.47.17,17.82,17.82,0,0,0,5.86-1c1.41-.49,2.93-1.11,4.77-1.95l.41-.19c1.35-.61,2.74-1.29,4.15-2l.49-.24.74-.35.52-.26c7.32-3.55,15.16-7,23.62-7h.14c6.65.05,11.57,2,15.93,3.86h.08l.38.19c3.83,1.62,7.8,3.29,12.43,3.29.5,0,1,0,1.56-.05s1.32-.14,2-.23c.9-.13,1.81-.3,2.71-.51A34.48,34.48,0,0,0,298.4,373c1.38-.54,2.56-1.51,4-1.93C303.17,370.8,304.26,370.74,304.55,371.67Zm68-43.51c-6.92,6.82-19.33,11.78-36.92,14.75l-7.1,1.2,5.18-5a130.65,130.65,0,0,0,25.51-34.63l1.81-3.6,2.09,3.44a108.84,108.84,0,0,1,10,21.54l.46,1.33Z"/><path class="cls-5" d="M190,317.92l.53-.19a12.14,12.14,0,0,0,5.5-4.55,14.35,14.35,0,0,0,0-14.36,12.34,12.34,0,0,0-5.11-4.41c-.12-.06-.25-.13-.4-.19a22.11,22.11,0,0,0-9.15-1.7h-16v39.79h3.74V319.4h12.22c.35,0,.69,0,1,0l.58,0,1.23,0,9.06,13h3.38l-9.37-13.39Zm-9-.8H169.12V295H181a16.32,16.32,0,0,1,8,1.75,8.77,8.77,0,0,1,1.57,1.05,10.12,10.12,0,0,1,3.55,8.23,10.28,10.28,0,0,1-3.52,8.22C188.36,316.15,185.12,317.12,181,317.12Z"/><polygon class="cls-5" points="239.37 294.93 239.37 292.52 211.56 292.52 211.56 332.31 240.25 332.31 240.25 329.89 215.3 329.89 215.3 313.21 236.65 313.21 236.65 310.92 215.3 310.92 215.3 294.93 239.37 294.93"/><path class="cls-5" d="M271.94,292.52h-5.19l-17.89,39.79h3.52l4.38-10.25h25.09l.91,2.15,3.47,8.1h3.65Zm-14.33,27.57,11.76-24,2.07,4.8L281,320.09Z"/><path class="cls-4" d="M219.62,361.71v-3.85l7.55-7.18a8.14,8.14,0,0,0,1.18-1.31,2.57,2.57,0,0,0,.43-.84,3,3,0,0,0,.11-.79,1.19,1.19,0,0,0-.39-1l0,0a3,3,0,0,0-1.81-.44,4.8,4.8,0,0,0-1.94.37,3.73,3.73,0,0,0-1.36,1l-.17.18-.69.68-4-3.08.66-.89a8.21,8.21,0,0,1,3.3-2.56,11.2,11.2,0,0,1,4.48-.89,9.8,9.8,0,0,1,3.88.73,7.06,7.06,0,0,1,1.08.6,5.51,5.51,0,0,1,1.66,1.6,6,6,0,0,1,1,3.4,7.89,7.89,0,0,1-.27,2,7.63,7.63,0,0,1-1,2.16,16.13,16.13,0,0,1-2,2.34l-2.83,2.68h6.88v5.09Z"/><path class="cls-5" d="M229.28,350a8.78,8.78,0,0,1-1.34,1.5l-7.2,6.85v2.25h13.37v-2.85h-8.56l4.85-4.61a14.4,14.4,0,0,0,1.89-2.15,6.34,6.34,0,0,0,.88-1.83,7,7,0,0,0,.23-1.75,4.85,4.85,0,0,0-.78-2.78,4.79,4.79,0,0,0-1.35-1.3,6.58,6.58,0,0,0-.91-.49,8.47,8.47,0,0,0-3.43-.64,9.89,9.89,0,0,0-4,.8,7,7,0,0,0-2.85,2.2L222.4,347l.1-.11a4.86,4.86,0,0,1,1.76-1.31,5.76,5.76,0,0,1,2.39-.47,3.93,3.93,0,0,1,2.51.69.15.15,0,0,1,.06.05,2.35,2.35,0,0,1,.79,1.88,4.11,4.11,0,0,1-.14,1.05A3.49,3.49,0,0,1,229.28,350Z"/><path class="cls-4" d="M252.08,361.71v-3.85l7.55-7.18a8.14,8.14,0,0,0,1.18-1.31,2.77,2.77,0,0,0,.43-.84,3,3,0,0,0,.11-.79,1.24,1.24,0,0,0-.38-1l-.05,0a3,3,0,0,0-1.82-.44,4.88,4.88,0,0,0-2,.37,3.83,3.83,0,0,0-1.34,1l-.08.1-.78.77-4-3.08.66-.89a8.21,8.21,0,0,1,3.3-2.56,11.09,11.09,0,0,1,4.48-.89,9.8,9.8,0,0,1,3.88.73,7.07,7.07,0,0,1,1.09.61A5.64,5.64,0,0,1,266,344a6,6,0,0,1,1,3.4,7.89,7.89,0,0,1-.27,2,7.27,7.27,0,0,1-1,2.17,15,15,0,0,1-2,2.33l-2.83,2.68h6.87v5.09Z"/><path class="cls-5" d="M261.74,350a8.78,8.78,0,0,1-1.34,1.5l-7.2,6.85v2.25h13.36v-2.85H258l4.85-4.61a13.71,13.71,0,0,0,1.88-2.15,6.14,6.14,0,0,0,.89-1.83,7,7,0,0,0,.23-1.75,4.93,4.93,0,0,0-.79-2.78,4.69,4.69,0,0,0-1.36-1.3,5.39,5.39,0,0,0-.89-.49,8.47,8.47,0,0,0-3.43-.64,9.86,9.86,0,0,0-4,.8,7,7,0,0,0-2.85,2.2l2.35,1.82a1,1,0,0,1,.1-.11,4.75,4.75,0,0,1,1.75-1.31,5.79,5.79,0,0,1,2.39-.47,3.94,3.94,0,0,1,2.52.69.15.15,0,0,1,.06.05,2.35,2.35,0,0,1,.79,1.88,4.11,4.11,0,0,1-.14,1.05A3.9,3.9,0,0,1,261.74,350Z"/><path class="cls-4" d="M267.15,361.71v-3.85l7.55-7.18a8.14,8.14,0,0,0,1.18-1.31,2.65,2.65,0,0,0,.42-.84,3.44,3.44,0,0,0,.12-.79,1.23,1.23,0,0,0-.39-1l-.06-.05a2.92,2.92,0,0,0-1.8-.44,4.84,4.84,0,0,0-1.95.37,3.66,3.66,0,0,0-1.34,1l-.08.1-.78.78-4-3.1.67-.88A8.31,8.31,0,0,1,270,342a11.06,11.06,0,0,1,4.48-.89,9.71,9.71,0,0,1,3.87.73,7.22,7.22,0,0,1,1.1.61,5.61,5.61,0,0,1,1.63,1.59,5.93,5.93,0,0,1,1,3.4,7.49,7.49,0,0,1-.28,2,6.93,6.93,0,0,1-1,2.17,14.7,14.7,0,0,1-2,2.33l-2.82,2.68h6.87v5.09Z"/><path class="cls-5" d="M276.81,350a9.24,9.24,0,0,1-1.34,1.5l-7.2,6.85v2.25h13.35v-2.85h-8.55l4.85-4.61a14.4,14.4,0,0,0,1.89-2.15,5.86,5.86,0,0,0,.88-1.83,6.59,6.59,0,0,0,.24-1.75,4.86,4.86,0,0,0-.8-2.78,4.54,4.54,0,0,0-1.35-1.3,5.49,5.49,0,0,0-.9-.49,8.38,8.38,0,0,0-3.42-.64,9.86,9.86,0,0,0-4,.8,7.08,7.08,0,0,0-2.87,2.2l2.37,1.82s.05-.08.1-.11a4.71,4.71,0,0,1,1.74-1.31,5.81,5.81,0,0,1,2.4-.47,3.89,3.89,0,0,1,2.51.69.12.12,0,0,1,.05.05,2.33,2.33,0,0,1,.81,1.88,4.66,4.66,0,0,1-.15,1.05A3.85,3.85,0,0,1,276.81,350Z"/><path class="cls-5" d="M207.47,288.05H205l-3.43,7,.11.16a18.38,18.38,0,0,1,1.22,2.22Z"/><path class="cls-5" d="M212.39,273l2.66-.32,12.31-25-2.48,0Z"/><path class="cls-5" d="M168.39,339l-17.1,34.73c.6.48,1.2,1,1.8,1.42L170.89,339Z"/><polygon class="cls-5" points="177.24 326.13 175.84 326.13 175.84 328.98 177.24 326.13"/><path class="cls-5" d="M187.39,305.49a3.27,3.27,0,0,0-1.13-2.55l-.08-.06-3.66,7.45a8.75,8.75,0,0,0,2.81-.65Z"/><path class="cls-5" d="M196,288.05h-2.5l0,.12.54.26q.75.36,1.44.78Z"/><path class="cls-5" d="M215.89,247.59l-2.5,0-12.63,25.66c.75.09,1.55.16,2.39.19Z"/><path class="cls-5" d="M253.8,170.59l37-75.19-2.22-.57-37.18,75.55Z"/><path class="cls-5" d="M158.67,339v-3.57l-15.46,31.4c.56.52,1.14,1,1.73,1.56L159.4,339Z"/><polygon class="cls-5" points="175.84 305.65 177.78 301.71 175.84 301.71 175.84 305.65"/><path class="cls-5" d="M186.78,288.49l1.31-2.68h-7.47L179.51,288h1.83A31.19,31.19,0,0,1,186.78,288.49Z"/><path class="cls-5" d="M196.92,257.75a42.78,42.78,0,0,0-1.66,8.43l9-18.33-2.55.09Z"/><path class="cls-5" d="M242.72,169.79,280.49,93l-2.29-.42-37.93,77Z"/><path class="cls-5" d="M158.67,312.12l-23.22,47.17,1.66,1.71,21.56-43.79Z"/><polygon class="cls-5" points="169.12 285.81 168.02 288.04 175.52 288.04 176.62 285.81 169.12 285.81"/><path class="cls-5" d="M231.42,169.41l38.42-78-2.37-.28-38.54,78.29Z"/><path class="cls-5" d="M158.67,288.81,128.06,351c.51.62,1,1.24,1.57,1.87l29-59Z"/><path class="cls-5" d="M234.9,139,258.83,90.4l-2.44-.12-16.86,34.26Z"/><path class="cls-5" d="M147.55,288.05,121,341.9c.49.7,1,1.38,1.49,2.05L150,288.05Z"/><path class="cls-5" d="M238.09,109.18l9.34-19c-.85,0-1.7,0-2.52.06l-9.57,19.44Z"/><path class="cls-5" d="M136.06,288.05l-21.61,43.89c.46.76.93,1.51,1.39,2.25l22.72-46.14Z"/><path class="cls-5" d="M225.42,111.6l10.21-20.76L233,91.1l-10.35,21Z"/><path class="cls-5" d="M124.57,288.05,108.36,321c.41.82.84,1.64,1.28,2.48l17.43-35.42Z"/><path class="cls-5" d="M136,269.94l11.23-22.79s4.07-13,4.41-14.05L132.7,271.54l.44-.09A6.59,6.59,0,0,0,136,269.94Z"/><path class="cls-5" d="M212.74,114l10.62-21.57c-.92.15-1.83.32-2.74.49L210,114.54Z"/><path class="cls-5" d="M113.09,288.05l-10.23,20.79c.36.91.74,1.83,1.14,2.75l11.58-23.54Z"/><path class="cls-5" d="M171.68,169,120,274l2.76-.51,44.59-90.61Z"/><path class="cls-5" d="M210.53,95.19l-1.11.29c-.6.15-1.18.31-1.77.48l-10.34,21,2.76-.52Z"/><path class="cls-5" d="M175.3,138.36,98.08,295.23c.31,1,.63,2.07,1,3.1l78.12-158.7A6.41,6.41,0,0,0,175.3,138.36Z"/><path class="cls-5" d="M197,99.33c-1,.37-2.07.75-3,1.13l-9.32,18.92,2.76-.52Z"/><path class="cls-5" d="M164.42,137.12,94.24,279.69c.23,1.19.47,2.39.73,3.59L167,137C166.15,137,165.3,137.05,164.42,137.12Z"/><path class="cls-5" d="M182.6,105.28c-1.1.52-2.2,1-3.3,1.6L172,121.8l2.77-.52Z"/><path class="cls-5" d="M151.71,139.6,91.78,261.35c.11,1.44.24,2.88.38,4.29l62.43-126.81Z"/><path class="cls-5" d="M166.92,113.78c-1.23.76-2.44,1.53-3.64,2.32l-4,8.12,2.76-.52Z"/><path class="cls-5" d="M144.86,130.2l-53.14,108c-.13,1.88-.23,3.77-.3,5.66L149.18,126.5C147.72,127.7,146.28,128.94,144.86,130.2Z"/><path class="cls-5" d="M118.73,159.94,99.25,199.51c-1.29,4-2.44,8-3.42,12l30.39-61.73C123.59,153.08,121.09,156.47,118.73,159.94Z"/></g></g></g></svg>