<svg xmlns="http://www.w3.org/2000/svg" viewBox="0 0 500 500"><defs><style>.cls-1{fill:#a0680d;}.cls-2{fill:#b38c3e;}.cls-3{fill:#af7a1c;}.cls-4{fill:#7f7979;}.cls-5{fill:#646466;}.cls-6{fill:#56504b;}</style></defs><g id="Front"><g id="front-2" data-name="front"><g id="front-shape"><circle id="front-shape-2" data-name="front-shape" class="cls-1" cx="250" cy="250" r="231"/><path id="front-ring-intermediate" class="cls-2" d="M250,24.77C125.61,24.77,24.77,125.61,24.77,250S125.61,475.23,250,475.23,475.23,374.39,475.23,250,374.39,24.77,250,24.77Zm0,394.08A168.85,168.85,0,1,1,418.85,250,168.85,168.85,0,0,1,250,418.85Z"/><g id="details"><g id="details-2" data-name="details"><path class="cls-1" d="M117.4,365.28l-28.06,26c-1.56-1.75-3.07-3.53-4.55-5.34l28.09-26.12a.76.76,0,0,0,.08.11C114.4,361.76,115.89,363.53,117.4,365.28Z"/><path class="cls-1" d="M109.13,355,81.9,379.55l-1.3,1.17-.1-.13q-2.11-2.71-4.11-5.52l1.3-1.18L105,349.26c1.3,1.89,2.63,3.78,4,5.61Z"/><path class="cls-1" d="M98.67,339.3l-.28-.49-2.67,2.35-2.8-2.82,3.45-3q-1.61-2.91-3.12-5.88l-.25-.5-5,4.42-2.79-2.82,6-5.3c-1-2-1.89-4.09-2.79-6.17l-.22-.52-8,7-2.8-2.82,9.16-8.06q-1.78-4.49-3.32-9.1c-.13-.38-.25-.75-.37-1.13H59.31l-1.85-1.87H82.3c-.61-1.94-1.18-3.91-1.72-5.88-.11-.37-.22-.75-.32-1.14H50.52l-2-2h31.2l-1.63-7H72.49V259.93l2-1.72q-.19-4.08-.19-8.21v-.85l-1.82,1.55v-7.89l2.05-1.76.77-9.88L37,263.86l-.51.43c0,.23,0,.46,0,.69.18,2.65.42,5.29.7,7.9l.53-.45L54.66,258v7.9l-16,13.63-.55.47.09.66q1.1,7.67,2.73,15.15l.94.93,48.56,49-1.3,1.14L42.64,300l-.94-1c.15.69.31,1.39.48,2.08,1,3.92,2,7.8,3.21,11.62l1.19,1.2,37.28,37.64-3.11,2.75L49.27,321.88l-1.36-1.41c.29.85.59,1.7.9,2.54q2.7,7.41,5.92,14.57l1.86,1.93L75.46,359l-4.36,3.85-4.81-5L63.54,355c.75,1.33,1.51,2.66,2.29,4,2.31,3.88,4.72,7.69,7.27,11.41l.77-.67,28.25-24.84C100.93,343.05,99.78,341.18,98.67,339.3ZM61.67,252l3.8-3.23v7.91l-3.8,3.23Zm0,17.13,3.8-3.22V286.5h-3.8ZM41.6,286.5l-.11-.1,13.17-11.25V286.5Zm24.65,24.91H79.63l-7.14,6.29Z"/><path class="cls-1" d="M78.32,212.49q-1.17,5.41-2,10.94L36.17,257.69Q36,253.86,36,250c0-.47,0-.94,0-1.41Z"/><path class="cls-1" d="M79,121.38c-1.43,1.91-2.83,3.83-4.2,5.78l5.85,6.12v8.32l-9.35-9.31c-1.32,2-2.6,4-3.85,6.06l3,3L61,149.56q-4.23,7.92-7.79,16.22l22.13-19.52,3.6,3.58L49.71,174.57q-2.55,6.77-4.65,13.73l20.68,20.88-4.83,4.08-17.8-18c-.7,2.65-1.35,5.33-2,8L55.53,217.8l-4.34,3.66-11.4-11.57q-.81,4.23-1.44,8.54L45.82,226,43,228.41l-5.27-5.35c-.37,3-.68,6-.94,9.06l.83.83-1,.81c-.23,3.19-.4,6.4-.49,9.61l43.59-36.83a172.81,172.81,0,0,1,7.92-23.79v-42.1l1.88,2v35.77c2.13-4.79,4.48-9.45,7-14V150l5.3,5.56c1.3-2,2.62-4,4-6Zm-9.82,81.29-10.5-10.6,10.5-9.3Zm11.47-6.08-4.45,3.76v-23.8l4.45-3.94Zm0-33.35L53.72,187.08l-3.61-3.66,30.53-25.8Z"/><path class="cls-1" d="M112.68,140.41q-2.22,2.76-4.32,5.63L81.61,118c1.46-1.86,2.94-3.68,4.47-5.49Z"/><path class="cls-1" d="M288.78,39.53v20.3c-2.34-.17-4.68-.29-7-.38V38.37C284.13,38.73,286.46,39.11,288.78,39.53Z"/><path class="cls-1" d="M272.35,37.18V59.26c2.32,0,4.67,0,7,.11V38C277,37.71,274.7,37.42,272.35,37.18Zm-14.47-1L229.16,61.53V59.92l27-23.81c-2,0-4.07-.09-6.12-.09-1.48,0-3,0-4.44.06l-16.4,14.49V45L239,36.31q-5.85.28-11.62.91l-53.48,47.2V79.57L221,38c-4.41.59-8.78,1.33-13.1,2.19l-34,30V58.76l14.85-13.83c-1.13.34-2.28.69-3.42,1-4.34,1.38-8.64,2.88-12.86,4.53L150.46,71l-3.37-3.54L159.21,56.2a215,215,0,0,0-21.5,11.63l24.17,25.36H157.4L134.9,69.6c-2,1.27-4,2.59-5.93,3.94L147.7,93.19h-9L123.61,77.34q-2.85,2.09-5.63,4.28l3.1,3.25-.24,8.32H104.43c-2.47,2.28-4.86,4.62-7.2,7h23.42l-.07,2.92H94.41q-2.84,3-5.54,6.11l26.53,27.85c3.66-4.37,7.55-8.56,11.62-12.55l.39-14.4h5.87L133,118.9q3.5-3.14,7.18-6.07l.08-2.7h3.35q4.82-3.66,9.92-7h-5.4l-2.79-2.92h9l1.4,1.48A173.73,173.73,0,0,1,179.1,89.2l2-1.79v.91c2.3-1,4.65-1.93,7-2.8V81.21l3.72-3.29v6.23c2.31-.82,4.65-1.57,7-2.3V71.73l3.35-3V80.88q2.45-.69,4.91-1.31c.68-.68,1.39-1.35,2.11-2v-15l2.38-2.09V75.55a61.41,61.41,0,0,1,7-4.94V54.3l3.49-3.1V67.73l-.43.38.43.49c1.62-.84,3.22-1.6,4.78-2.25a85.5,85.5,0,0,1,11.7-3.82l12.69-11.2v8.94c2.33-.27,4.68-.49,7-.63V45.14L261,42.8V59.49c1.93-.1,3.88-.15,5.82-.18l1.19,0V36.78C264.64,36.5,261.27,36.29,257.88,36.18ZM119.81,131.53l-20.39-21.4h21ZM127.9,92,129,93.19h-1.14Zm5.57,11.09H127.6l.08-2.92h5.87Zm33.42-14.84-11.6-12.17,11.6-10.8Z"/><path class="cls-1" d="M309.48,44.41l-10.77,9.5V60.8c-2.33-.3-4.66-.55-7-.74v-20q3.54.69,7,1.5v2.95l2.64-2.31C304.08,42.9,306.8,43.63,309.48,44.41Z"/><path class="cls-1" d="M358.19,65.37,343.4,78.62c-2-1.52-4.07-3-6.18-4.28l10.62-9.7H316.52a88.6,88.6,0,0,0-12-3V56.1l11.11-9.82c2.58.82,5.1,1.7,7.63,2.63l-9.86,8.7h30.38q7.19,3.51,14.08,7.55A3.13,3.13,0,0,0,358.19,65.37Z"/><path class="cls-1" d="M367.78,71.33,351.89,85.5c-1.82-1.53-3.63-3.06-5.47-4.53l15.19-13.56C363.69,68.68,365.74,70,367.78,71.33Z"/></g><g id="text"><path class="cls-1" d="M130,408.2a9.46,9.46,0,0,1-2.59,5.61,8.64,8.64,0,0,1-7.8,3.1q-4.55-.53-9.88-5.31L95.86,399.19l25-27.86L133.88,383q4.94,4.41,5.87,8.74a8.33,8.33,0,0,1-2.09,7.7,9.39,9.39,0,0,1-4.24,2.81,8.75,8.75,0,0,1-4.84.11A9.9,9.9,0,0,1,130,408.2Zm-7.34.42q3.6-4-2.41-9.4l-8.36-7.49-7.2,8,8.36,7.49Q119,412.65,122.64,408.62Zm-.28-28.6-6.88,7.69,7.32,6.56a10,10,0,0,0,5,2.75,4.34,4.34,0,0,0,4-1.54,4.39,4.39,0,0,0,1.13-4.19,10,10,0,0,0-3.29-4.7Z"/><path class="cls-1" d="M148,438.42l-.88-13.33a13.86,13.86,0,0,1-1.26-.7L138.66,420,133,429.35l-5.94-3.59,19.35-32,13.17,8a20.74,20.74,0,0,1,6.42,5.76,12.28,12.28,0,0,1,2.36,6.79,12.91,12.91,0,0,1-2,7.08,12.73,12.73,0,0,1-5.52,5.16,12.35,12.35,0,0,1-7.41.83l1,15Zm13.16-26.64q-1-2.86-4.9-5.21l-7-4.2-7.71,12.76,6.95,4.2c2.59,1.57,4.9,2.2,6.91,1.9a6.83,6.83,0,0,0,4.88-3.52A6.72,6.72,0,0,0,161.19,411.78Z"/><path class="cls-1" d="M187,445.7l-17.53-6.53L163,446l-6.71-2.5,28.84-29.18,6.41,2.38,2.76,41-6.81-2.54Zm-.25-5.91-.9-17.79-12.27,12.88Z"/><path class="cls-1" d="M202.45,458.13a17.26,17.26,0,0,1-5.69-4.37l3.35-4.87a18.87,18.87,0,0,0,5,3.95,20.49,20.49,0,0,0,6.39,2.35q4.09.76,6.36-.18a4,4,0,0,0,2.67-3.09,3.42,3.42,0,0,0-.65-2.81,8.16,8.16,0,0,0-2.56-2.13c-1.09-.6-2.58-1.33-4.49-2.2a56.27,56.27,0,0,1-6.43-3.25,11.35,11.35,0,0,1-3.89-4,8.56,8.56,0,0,1-.8-6.1,10,10,0,0,1,2.68-5.24,11.54,11.54,0,0,1,5.73-3,20.54,20.54,0,0,1,8.45.05,26.32,26.32,0,0,1,6.46,2.07,18.52,18.52,0,0,1,5.18,3.46l-3.14,4.9a22.12,22.12,0,0,0-4.65-3.09,19.51,19.51,0,0,0-5-1.68c-2.7-.5-4.79-.41-6.27.25a4.3,4.3,0,0,0-2.64,3.26,3.33,3.33,0,0,0,.65,2.79,8.27,8.27,0,0,0,2.57,2.1c1.09.6,2.58,1.34,4.49,2.2a51.53,51.53,0,0,1,6.36,3.21,11.75,11.75,0,0,1,3.91,4,8.43,8.43,0,0,1,.81,6,9.84,9.84,0,0,1-2.68,5.21,11.44,11.44,0,0,1-5.75,3,21,21,0,0,1-8.47-.05A28.51,28.51,0,0,1,202.45,458.13Z"/><path class="cls-1" d="M233.59,425.85l6.93.5-2.69,37.31-6.94-.5Z"/><path class="cls-1" d="M272.6,457.45l-19.55.66-1-31-1.18-.49-5.79.2,1.24,37.39,26.5-.89Z"/></g></g></g><g id="front-sign"><path id="front-sign-shape" class="cls-3" d="M459.62,265.11c-.89-1.27-9,.9-9.12,1.28.05-.37,3.62-15,3.13-22.59a20.51,20.51,0,0,0-.48-3.32c-.07-.32-.16-.63-.24-.94l-.15-.47c0-.14-.09-.27-.13-.39s-.13-.42-.21-.62-.15-.37-.21-.56a1.46,1.46,0,0,1-.1-.23l-.37-.84-.05-.09c-.14-.3-.27-.59-.42-.87-.27-.53-.53-1-.79-1.53s-.43-.82-.62-1.22a11,11,0,0,1-.88-2.32,2.51,2.51,0,0,1-.1-.44,2.54,2.54,0,0,1-.07-.47,4.19,4.19,0,0,1,0-.5c-.14-4.22,2.43-20.3-2.69-30.39s-6-10.59-4.34-19.15-2.17-12-5.1-14.8-1.91-17.48-5.23-20.05-7.54-1.4-9.45-11.35-12.38-24.9-28.6-25.53l-1.2-.07-.85-.07c-.36,0-.72-.06-1.08-.11s-1-.12-1.44-.2a1,1,0,0,1-.24,0c-.43-.06-.85-.14-1.27-.22h-.09l-1.28-.28-.19,0c-.93-.21-1.83-.46-2.73-.73-.57-.17-1.12-.36-1.68-.56-.41-.14-.83-.3-1.24-.46l-.09,0c-.43-.16-.85-.34-1.27-.52s-.9-.39-1.35-.59l-1.13-.53a1.24,1.24,0,0,0-.2-.1q-.62-.3-1.23-.63c-.74-.38-1.47-.79-2.19-1.21l-.79-.46c-.93-.56-1.85-1.14-2.75-1.73l-.82-.56A200.5,200.5,0,0,1,351.89,85.5c-1.82-1.53-3.63-3.06-5.47-4.53l-1.12-.88q-.8-.63-1.59-1.23l-.31-.24c-1.51-1.14-3-2.24-4.61-3.27-.64-.44-1.28-.85-1.93-1.25-.8-.49-1.6-1-2.41-1.44s-1.56-.89-2.35-1.32l-.24-.13-2.06-1.07-.48-.24c-.78-.39-1.56-.77-2.35-1.14l-1.28-.58-1.29-.57-1.29-.54-1.1-.45-.46-.18c-.77-.3-1.53-.59-2.3-.86l-.11,0q-.64-.24-1.29-.45c-.44-.16-.88-.31-1.33-.45l-.69-.22c-.53-.18-1.07-.34-1.6-.49-.72-.21-1.44-.42-2.16-.61l-1.14-.3c-1.16-.29-2.31-.56-3.48-.81-.74-.16-1.49-.3-2.24-.44l-.7-.13L303,61.39c-1.42-.21-2.83-.41-4.26-.59q-2.88-.37-5.77-.63l-1.24-.11c-1-.09-1.94-.16-2.92-.23s-2.19-.15-3.28-.21h-.23l-3.5-.16-.39,0-1.76,0h-.26c-.56,0-1.13,0-1.69,0l-2.32,0H271c-.46,0-.91,0-1.36,0h-2.84l-3.26.07-3,.14h-.19c-.81,0-1.61.09-2.42.15l-1.1.08c-.86.06-1.73.13-2.59.21s-1.92.19-2.87.3l-.4,0c-.65.08-1.3.16-2,.26s-1,.14-1.57.23l-1.19.19c-.53.08-1.05.17-1.57.27l-1.15.21c-.66.12-1.32.26-2,.4s-1.41.31-2.11.48l-1.6.39-1.84.5-1.68.49-.41.13c-.52.16-1,.32-1.56.5s-1.1.37-1.65.57c-1.25.43-2.49.91-3.72,1.41s-2.68,1.19-4.06,1.89l-.36.18-1.19.64-1.55.88-.95.57-.16.1c-.32.19-.64.39-1,.6s-.69.44-1,.66c-.53.36-1.07.72-1.6,1.1-1.59,1.13-3.15,2.33-4.64,3.6l-.11.1-.14.11a55.06,55.06,0,0,0-5.63,5.59l-.71.84c-.23.27-.44.54-.65.81s-.59.76-.87,1.15v0c-.29.39-.57.78-.83,1.18s-.49.73-.72,1.1a1.74,1.74,0,0,1-.11.18q-.35.57-.66,1.14c-.35.61-.67,1.23-1,1.85-.07.13-.13.26-.19.39a1.22,1.22,0,0,0-.07.17c-.1.22-.2.45-.29.68-.29.7-.54,1.4-.76,2.11s-.35,1.26-.48,1.88c-.07.33-.13.66-.18,1a.13.13,0,0,0,0,.06,17.71,17.71,0,0,0-.19,1.9v.07c0,.28,0,.56,0,.83l.52-.19c3.82-1.33,7.71-2.54,11.67-3.58.31-.08.62-.17.94-.24A159.65,159.65,0,0,1,357.4,132.25l.65.6h0c3.15,2.89,6.19,5.92,9.08,9.06.48.52,1,1,1.42,1.57,1.05,1.16,2.08,2.33,3.09,3.53l0,0,.39.46.34.41c.48.57.94,1.14,1.4,1.71s.68.83,1,1.25q2.54,3.17,4.9,6.48,1.29,1.8,2.53,3.65t2.34,3.57l.63,1a158.37,158.37,0,0,1,21.39,54.64c.12.63.24,1.26.35,1.89,0,.25.09.5.13.75.09.51.17,1,.26,1.54a160,160,0,0,1,2,25.6q0,4.63-.27,9.21c0,.32,0,.65-.05,1q-.18,2.88-.46,5.73c0,.2,0,.39,0,.58-.29,2.77-.65,5.5-1.07,8.23-.06.4-.13.8-.2,1.19a157,157,0,0,1-4.18,18.59l-.72,2.39a158.48,158.48,0,0,1-7.2,19c-.32.69-.64,1.38-1,2.07-.69,1.49-1.42,3-2.16,4.43-.41.81-.83,1.61-1.26,2.41q-2.7,5.09-5.76,10l-.64,1c-1.07,1.67-2.16,3.31-3.3,4.93h0l-.57.82a156.81,156.81,0,0,1-16.77,20.12c-.26.28-.53.55-.8.82a159.67,159.67,0,0,1-151.32,42.28c-.64-.16-1.27-.32-1.91-.5.61.56,1.22,1.1,1.84,1.64l.13,0c8.54,7.44,18,14.26,22.78,15.46a136.73,136.73,0,0,1,13.41,4.15c1,.36,2,.74,3,1.13l1.18.49,1.22.5h0A70,70,0,0,1,266,434.38c8.55,6,13.92,3.06,19.66,4.86s15.06,2.55,27.57,1.4,22,3.32,29.1-4.34,27.07-24.64,38.43-27.71c8.9-2.4,10.44-3.31,5.88-7.71-1.25-1.23-3-2.7-5.11-4.54-1.56-1.34-3-2.62-4.22-3.84l-.93-.91c-.89-.88-1.71-1.73-2.46-2.54a51,51,0,0,1-6.18-7.78s.58-.93,1.39-2.09c.54-.75,1.17-1.59,1.83-2.34.12-.14.24-.28.37-.41a9.38,9.38,0,0,1,.78-.77c.76-.7,1.49-1.1,2-.89,1.92.77,16.11,17.36,15,7.15s2.35-16.73,2.35-16.73.76.13.81.14c.71.09,1.43.14,2.15.16a15.94,15.94,0,0,0,6.28-.93,23,23,0,0,0,3.64-2.17,13.43,13.43,0,0,1,5.65-2.14,2.32,2.32,0,0,0,1.87-.82,2.89,2.89,0,0,0,.35-1.83,29.26,29.26,0,0,1,.49-5.2c.36-1.86,1.26-3.83.59-5.72-.76-2.16,5-5.49,3.44-9.19,0,0,19.53,5.24,17-.51s-3.57-7-3.57-7,11.23-7.29,9.7-21.58,7.28-11.87,13.15-21.32S460.52,266.39,459.62,265.11Z"/><g id="front-sign-shadow"><path class="cls-1" d="M372.19,146.35a.25.25,0,0,0-.1.15,2,2,0,0,0,0,1l.34.41a10.16,10.16,0,0,1-.19-1.28C372.2,146.54,372.19,146.44,372.19,146.35Z"/><path class="cls-1" d="M459.62,265.11c-.89-1.27-9,.9-9.12,1.28.05-.37,3.62-15,3.13-22.59a20.51,20.51,0,0,0-.48-3.32c-.07-.32-.16-.63-.24-.94l-.15-.47c0-.14-.09-.27-.13-.39s-.13-.42-.21-.62-.15-.37-.21-.56a1.46,1.46,0,0,1-.1-.23l-.37-.84,0-.09c-.15-.3-.28-.59-.43-.87-.27-.53-.53-1-.79-1.53,0,0-3.78-.57-6.6,3.51s-9.7,11.16-8.67,14.55c.66,2.25,3,3.3,4,4.48,1.81-3.14,5.29-6.67,8.64-15.45.08,4.94-3.24,15-7.75,21.36a17.57,17.57,0,0,0-3.06,12.94c5.7-7.84,13.27-7.58,11.14-6.65s-9.53,17.54-14.3,13.8c-3-2.4-.89-10.56,1.5-17.05.05-2.25-.1-7.76-2.85-9.51-3.5-2.21,0-8.76,0-8.76s-3.44-6.29.07-11.32,3.24-17.45,3.5-20.93S437.41,191,437.41,191a9.26,9.26,0,0,1,2.17,5.47,61.16,61.16,0,0,1-1.15,15.13,9.27,9.27,0,0,1,2.48-2.39c1.1-.51-1.87,3.65-1.87,6.13s.67,4.34-.61,8.94c-1.2,4.35-2.79,3-2.16,7.3-.08-1.14.18-3.33,3.1-4.67a10.84,10.84,0,0,0,5.37-6.29,9.28,9.28,0,0,1-3.41,7.48c-3.74,2.89-1.54,4.6-4.51,8.85a9.61,9.61,0,0,0-1.7,8.09s7.18-12.79,14.74-12.31a11,11,0,0,1-.88-2.32,2.51,2.51,0,0,1-.1-.44,2.54,2.54,0,0,1-.07-.47,4.19,4.19,0,0,1,0-.5c-.14-4.22,2.43-20.3-2.69-30.39s-6-10.59-4.34-19.15-2.17-12-5.1-14.8-1.91-17.48-5.23-20.05-7.54-1.4-9.45-11.35-12.38-24.9-28.6-25.53l-1.2-.07-.85-.07c-.36,0-.72-.06-1.08-.11s-1-.12-1.44-.2a1,1,0,0,1-.24,0c-.43-.06-.85-.14-1.27-.22h-.09l-1.28-.28-.19,0c-.93-.21-1.83-.46-2.73-.73-.57-.17-1.12-.36-1.68-.56-.41-.14-.83-.3-1.24-.46l-.09,0-1.27-.52c-.46-.19-.9-.39-1.35-.59l-1.13-.53a1.24,1.24,0,0,0-.2-.1q-.62-.3-1.23-.63c-.74-.38-1.47-.79-2.19-1.21l-.79-.46c-.93-.56-1.85-1.14-2.75-1.73l-.82-.56A200.5,200.5,0,0,1,351.89,85.5c-1.82-1.53-3.63-3.06-5.47-4.53l-1.12-.88q-.8-.63-1.59-1.23l-.31-.24c-1.51-1.14-3-2.24-4.61-3.27-.52-.35-1-.68-1.57-1l-.36-.24c-.8-.49-1.6-1-2.41-1.44s-1.56-.89-2.35-1.32l-.24-.13-2.06-1.07-.48-.24c-.78-.39-1.56-.77-2.35-1.14l-1.28-.58-1.29-.57-1.29-.54-1.1-.45-.46-.18c-.77-.3-1.53-.59-2.3-.86l-.11,0q-.64-.24-1.29-.45c-.44-.16-.88-.31-1.33-.45l-.69-.22c-.53-.18-1.07-.34-1.6-.49-.72-.21-1.44-.42-2.16-.61l-1.14-.3c-1.16-.29-2.31-.56-3.48-.81-.74-.16-1.49-.3-2.24-.44l-.7-.13L303,61.39c-1.42-.21-2.83-.41-4.26-.59q-2.88-.37-5.77-.63l-1.24-.11c-1-.09-1.94-.16-2.92-.23s-2.19-.15-3.28-.21h-.23l-3.5-.16-.39,0-1.76,0h-.26c-.56,0-1.13,0-1.69,0l-2.32,0H271c-.46,0-.91,0-1.36,0h-2.84l-3.26.07-2.56.11-.49,0h-.19l-2,.11-.47,0-1.1.08c-.86.06-1.73.13-2.59.21s-1.92.19-2.87.3l-.4,0c-.65.08-1.3.16-2,.26s-1,.14-1.57.23l-1.19.19c-.53.08-1.05.17-1.57.27l-1.15.21c-.66.12-1.32.26-2,.4s-1.41.31-2.11.48l-.76.17-.84.22-1.84.5-1.68.49-.41.13c-.52.16-1,.32-1.56.5s-1.1.37-1.65.57c-1.25.43-2.49.91-3.72,1.41s-2.68,1.19-4.06,1.89l-.36.18-.36.18-.83.46-1.55.88-.95.57-.16.1c-.32.19-.64.39-1,.6s-.69.44-1,.66c-.53.36-1.07.72-1.6,1.1L215,73c-1.13.8-2.25,1.62-3.33,2.51-.41.33-.8.68-1.2,1l-.11.1-.14.11c-.31.27-.63.53-.93.8-.72.64-1.43,1.31-2.11,2-.9.9-1.77,1.84-2.59,2.8l-.71.84c-.23.27-.44.54-.65.81s-.59.76-.87,1.15v0c-.29.39-.57.78-.83,1.18s-.49.73-.72,1.1a1.74,1.74,0,0,1-.11.18q-.35.57-.66,1.14c-.34.61-.66,1.23-1,1.85-.09.19-.18.37-.26.56s-.2.45-.29.68c-.29.7-.54,1.4-.76,2.11s-.35,1.26-.48,1.88c-.07.33-.13.66-.18,1a.13.13,0,0,0,0,.06,17.71,17.71,0,0,0-.19,1.9v.07c0,.28,0,.56,0,.83l.52-.19c3.82-1.33,7.71-2.54,11.67-3.58.31-.08.62-.17.94-.24a6.52,6.52,0,0,1-1.06-.5l-.07,0c-2.62-1.94-.06-5.82-.06-5.82,5,3.58,10.08,3.83,19.91,0s26.56-3.19,41,0,14.55,4.47,32.16,4.47,47.49,12,57.95,16.72,40.1,13.25,53.24,22.22c0,0-11.88,2.19-26.3-4.08S359.42,112.08,351,109.9s-30.51-11.25-31-7.29,29.2,14.43,33,13.91,33.58,15.19,35,18.13-1.54,3.32-1.16,12.26c.08,1.76.21,3.53.41,5.28a8.36,8.36,0,0,1,0,4,26.94,26.94,0,0,0-1.62,4.18,27.67,27.67,0,0,0-.41,5v.22a158.37,158.37,0,0,1,21.39,54.64c.32.55.67,1.08,1,1.58a26.46,26.46,0,0,0,3.59,4s-.17-6,3.5-6.36,3.15,8,3.06,11.75-2.64,0-2.64,0-.94-10.64-2.38-8.34,1,7.47,1.17,7.81a60.42,60.42,0,0,1-5.9-6.51c-.32-.41-.63-.83-.94-1.26.09.51.17,1,.26,1.54a160,160,0,0,1,2,25.6q0,4.63-.27,9.21a11.56,11.56,0,0,0,.7,1,9.6,9.6,0,0,0,2.08,1.83c5.53,3.77,7,12.62,7,12.62s2.41-4.77,1.13-9-5.28-13.87-2.64-18.29c0,0,.44,6.54,4.18,7.66s4.51,9.27,2.71,10.46c-1.6,1.07-2.44-1-2.61-1.45a23,23,0,0,1,.07,10.05c-1.29,4.77-1.29,12.08.85,15.14a8.72,8.72,0,0,1-3.49-6.17,28.81,28.81,0,0,1-2.13,8.13s2.76,9.22,5.26,12.74a32.44,32.44,0,0,1-6.71-9.33s-4.51,9.87-1.27,17.52a6.81,6.81,0,0,1,3.06,2.05s-4.68-.93-5.7,2.3c0,0,3.58-1.79,4.77,2,1.08,3.48,8.21,13.5,10.77,15.61-2.43-1.53-11.25-7.35-12.65-12.29-1.62-5.73-14.21,3.32-10.21,9.61a4.55,4.55,0,0,1-2.41-1.4c-1,1.9-2.79,6.67,3.22,8.64,0,0-8.24,2.55-7.08-7.47,0,0-6,5.18-.11,10.85,0,0-4,1.6-4.62-6.41,0,0-4.18,5.49-.42,10.27-.54-.51-6.06-5.91-2.9-12.22a13,13,0,0,0,.32,4.6s1.66-5.81,5.46-7.09c0,0-1.5,2.17-1.5,3.71,0,0,2.81-5.75,4.27-6.26,0,0,.43,3,1.47,1.59.38-.51.72-1,1-1.5a7.39,7.39,0,0,1-.71-2.41c-.6-4.6,8.76-9.45,8.76-9.45s1.12-3.4,3-3.74c0,0-4.34-6.8-.18-18.9s7.4-17.52,2.73-22.71c-1.47-1.63-3.49-3.27-5.32-4.95l-.7-.64c0,.2,0,.39,0,.58-.29,2.77-.65,5.5-1.07,8.23-.06.4-.13.8-.2,1.19.34-.44.67-.83,1-1.17a8.29,8.29,0,0,1,2-1.71c-.16,4.5-2.46,7.49-3.65,14.29s3.74,14.73-3.15,23.92c-3.09,4.12-7.09,7.62-10.56,11.26q-1.11,1.15-2.13,2.28-2.7,5.09-5.76,10a7.42,7.42,0,0,0-.06.94c0,.24,0,.49,0,.73.14,7.73,3.86,18.58,3.86,18.58a15.71,15.71,0,0,1-7.74-12.8c0-.48,0-1,0-1.5l-.57.82a156.81,156.81,0,0,1-16.77,20.12,5.09,5.09,0,0,0-.32,1.65,12.31,12.31,0,0,0,.44,3.4s-7.7,8,0,27.07c0,0-8.12.9-15.07,15s-13.68,17.86-35.11,14.88-29.34,5.36-40.87,4.77c-11.22-.59-19.13-.75-19.54-.76A70,70,0,0,1,266,434.38c8.55,6,13.92,3.06,19.66,4.86s15.06,2.55,27.57,1.4,22,3.32,29.1-4.34,27.07-24.64,38.43-27.71c8.9-2.4,10.44-3.31,5.88-7.71-1.25-1.23-3-2.7-5.11-4.54-1.56-1.34-3-2.62-4.22-3.84l-.93-.91c-.89-.88-1.71-1.73-2.46-2.54a51,51,0,0,1-6.18-7.78s.58-.93,1.39-2.09c.54-.75,1.17-1.59,1.83-2.34.12-.14.24-.28.37-.41a9.38,9.38,0,0,1,.78-.77c.76-.7,1.49-1.1,2-.89,1.92.77,16.11,17.36,15,7.15s2.35-16.73,2.35-16.73.76.13.81.14c.71.09,1.43.14,2.15.16a15.94,15.94,0,0,0,6.28-.93,23,23,0,0,0,3.64-2.17,13.43,13.43,0,0,1,5.65-2.14,2.32,2.32,0,0,0,1.87-.82,2.89,2.89,0,0,0,.35-1.83,29.26,29.26,0,0,1,.49-5.2c.36-1.86,1.26-3.83.59-5.72-.76-2.16,5-5.49,3.44-9.19,0,0,19.53,5.24,17-.51s-3.57-7-3.57-7,11.23-7.29,9.7-21.58,7.28-11.87,13.15-21.32S460.52,266.39,459.62,265.11ZM400.71,135c4,7,5.3,8.29,10.72,9.82s15.26,12.26,15.26,12.26l-4.33-1.47a10.27,10.27,0,0,0,5,6.7c4.35,2.55,1.47,6.57,4.28,10.66s-1.47,8.3-1.47,8.3.44-3.07-2.62-8.24a31.42,31.42,0,0,1-3.7-11.23s-2.23-8.67-9.12-11.55S397,145.31,400.71,135Zm19.76,98.07c-1.26-12.34-.59-17.69-.5-18.55s-1.23-12.78-1-17.26c-1.16-.68-2.89-4.3-2.89-6,0-2.3,1.2-6.81.09-10.38s-.43-6.55.76-10.21a16.18,16.18,0,0,0,.26-7.65s-5.28,3.39-6.55,8.75-3,11.07-1.36,16.42c0,0-1.62-2.38-1.62-3.23a12.74,12.74,0,0,0,0,7.41c1.19,4.25,1.7,12.76.09,14.29s-2.22-5.79-2.13-7.57-1.7-5.37-2.73-12.68-3.06-16.17-5.61-19.15-3.54-13.62-4.32-16.68-.61-13.53-.61-13.53,5.95,6.38,5,12.25,1.28,9.49,1.7,11.12-.83,4.73-.92,5c.23-.14,4-2.58,3.65-5a9.56,9.56,0,0,1,0,6.33c-1.21,3.31,1.85,12.67,1.85,12.67s4.68-12.56,8.59-16.4a36.07,36.07,0,0,1,5.54-4.79s3.66,2.82,3.23,6.06-1.45,4.76-.85,7.9-1.26,8.63-1.35,8.93a28.49,28.49,0,0,0,4.58-5.18c1.19-2.12,2.22,1.53,0,4.77-1.43,2.08-2.2,6.8-2.75,10.71a69.61,69.61,0,0,1,5.39-8.58c2.05-2.48.42,6.12-2.64,11.65s-1.7,13.62-1.7,13.62,5.36-9.2,8-15.4,2.13-7.49,4.17-7.32,2.81,1.7.51,4-6.64,7.92-8.68,19.58,1.2,39.14,1.2,39.14S421.76,245.46,420.47,233.11Zm12,77.52c-1.46,3.18-2.29,6.69-1.14,9.76s-1.22,5.93-1.22,5.93-.63-5-3.25-7.21,1.4-8.55,1.4-8.55a1.83,1.83,0,0,0-2.73,1.33,5.8,5.8,0,0,1,.63-5.3c1.78-2.73-1.35-4.39-.19-9.69s1.34-6.52,1.34-6.52-2.5-.05-1.66-5.61a34.58,34.58,0,0,0-.11-10.32c.29.38,4.47,6,3.3,12.62,0,0,1.34-.83,2-1.15s-.44.32-.51,2.55-1.27,12.58.44,15.58-1.4,1.79-1.71,5.74a7.4,7.4,0,0,1,1.78-2.29,6,6,0,0,0,1.59-2.56A6.46,6.46,0,0,1,432.43,310.63ZM451.29,275a9.89,9.89,0,0,1-1.9,2.94,10.37,10.37,0,0,0-2.24,3c-.26.72-.31,1.52-.57,2.26-.89,2.47-3.87,3.46-5.44,5.56a9.93,9.93,0,0,0-1.59,5.17,2.52,2.52,0,0,1-.23,1,.79.79,0,0,1-.82.47,8.17,8.17,0,0,1-.89-5.26,10.48,10.48,0,0,1,2.42-5.61,16.15,16.15,0,0,1,2.16-2.05c.7-.56,1.43-1.1,2.17-1.63a25.9,25.9,0,0,0,5-4.89c.77-1,2.39-2.71,2.15-4.13A5.05,5.05,0,0,1,451.29,275Z"/><path class="cls-1" d="M398.67,313.43c2.63-3.68,4.1-8.84,4.39-16.07,0-.92.05-1.88,0-2.86l-.72,2.39a158.48,158.48,0,0,1-7.2,19c-.32.69-.64,1.38-1,2.07.65-.69,1.27-1.34,1.83-1.95C396.93,315,398.12,314.21,398.67,313.43Z"/><path class="cls-1" d="M373.17,140.86c.08.53.12,1,.14,1.22s.06.51.1.77c.19,1.43.43,2.86.72,4.28.06.31.12.62.19.93a8.29,8.29,0,0,1,.07,1.23c.13.52.26,1.05.41,1.59q2.54,3.17,4.9,6.48,1.29,1.8,2.53,3.65a9.42,9.42,0,0,1,.39-1.32,32.25,32.25,0,0,0,1.63-4.22c.58-2.48.15-5.34.05-7.87-.09-2.06-.19-4-1.37-5.81a19.09,19.09,0,0,0-3.63-3.44,41,41,0,0,0-4-2.78l-7.85-5.43a28.34,28.34,0,0,0-9.77-4.41l.8.44q.38.19.75.42c1.08.62,2.14,1.3,3.17,2,.3.21.6.42.9.65a11.3,11.3,0,0,1,2.64,2.57,5,5,0,0,1,.76,1.67c.12.47.35,1.51-.11,1.86a.54.54,0,0,1-.51.05,2.36,2.36,0,0,1-.82-.72,26.39,26.39,0,0,0-4.6-4.36c-.21-.16-2.14-1.62-2.32-1.2a5.36,5.36,0,0,0-.51,2.62,8.45,8.45,0,0,0,.2,1.11h0c3.15,2.89,6.19,5.92,9.08,9.06.48.52,1,1,1.42,1.57-.17-.43-.36-.88-.55-1.33h0s-.22-1-.24-1c-.25-.63-.55-1.25-.83-1.87s-.93-1.72-.36-2.36a.78.78,0,0,1,.72-.21,4.75,4.75,0,0,1,2.55,2,17.35,17.35,0,0,1,1.44,2.42,2.46,2.46,0,0,1-.08-.9,1.52,1.52,0,0,1,.44-1.24C372.59,138.21,373,139.66,373.17,140.86Z"/></g></g></g><g id="front-internal"><path id="front-internal-shape" class="cls-4" d="M409.37,250q0,4.63-.27,9.21c0,.32,0,.65-.05,1q-.18,2.88-.46,5.73c0,.2,0,.39,0,.58-.29,2.77-.65,5.5-1.07,8.23-.06.4-.13.8-.2,1.19a157,157,0,0,1-4.18,18.59l-.72,2.39a158.48,158.48,0,0,1-7.2,19c-.32.69-.64,1.38-1,2.07q-1,2.24-2.16,4.43c-.41.81-.84,1.62-1.27,2.43-1.8,3.38-3.72,6.7-5.75,9.93l-.64,1c-1.07,1.67-2.16,3.31-3.3,4.93h0l-.57.82a156.81,156.81,0,0,1-16.77,20.12c-.26.28-.53.55-.8.82a159.67,159.67,0,0,1-151.32,42.28c-.64-.16-1.27-.32-1.91-.5A159.42,159.42,0,0,1,196.85,99.71l.52-.19c3.82-1.33,7.71-2.54,11.67-3.58l.94-.24A159.65,159.65,0,0,1,357.4,132.25l.65.6h0c3.15,2.89,6.19,5.92,9.08,9.06.48.52,1,1,1.42,1.57,1.05,1.16,2.08,2.33,3.09,3.53l0,0,.39.46.34.41c.48.57.94,1.14,1.4,1.71s.68.83,1,1.25q2.54,3.17,4.9,6.48,1.29,1.8,2.53,3.64c.79,1.18,1.58,2.37,2.34,3.58l.63,1a158.37,158.37,0,0,1,21.39,54.64c.12.63.24,1.26.35,1.89,0,.25.09.5.13.75.09.51.17,1,.26,1.54A160,160,0,0,1,409.37,250Z"/><g id="front-internal-sign"><path id="front-internal-sign-shape" class="cls-5" d="M407.33,224.4c-.09-.52-.17-1-.26-1.54,0-.25-.09-.5-.13-.75-.11-.63-.23-1.26-.35-1.89a158.37,158.37,0,0,0-21.39-54.64l-.63-1c-.76-1.21-1.55-2.4-2.34-3.58s-1.67-2.44-2.53-3.64q-2.37-3.31-4.9-6.48c-.33-.42-.67-.83-1-1.25s-.92-1.14-1.4-1.71l-.34-.41-.39-.46,0,0c-1-1.2-2-2.37-3.09-3.53-.46-.53-.94-1.05-1.42-1.57-2.89-3.14-5.93-6.17-9.08-9.06h0l-.65-.6A159.65,159.65,0,0,0,210,95.7l-.94.24c-4,1-7.85,2.25-11.67,3.58l-.52.19c0,1.73,0,3.32.08,4.76,0,.59.08,1.15.13,1.7.06.75.15,1.46.24,2.12s.19,1.23.28,1.78q.06.33.12.63c.15.73.31,1.4.47,2,.09.34.18.65.27.94a14.39,14.39,0,0,0,1.54,3.61.25.25,0,0,0,.05.07.28.28,0,0,1,0,.06s-13.26,12.11-8.44,21.67v0l0,0,0,0-.07-.05-.17-.1a13,13,0,0,0-4.47-1.8,1.33,1.33,0,0,0-.28,0,3.43,3.43,0,0,0-1.54.16c-1.39.54-2.23,2.29-1.44,6.46a26.16,26.16,0,0,0,4.47,10.72,33.31,33.31,0,0,1,6.7,19.62c0,1,0,2-.07,3a1.84,1.84,0,0,1-.16-.1l-.14-.08-.32-.17-.33-.16-.6-.29A16.76,16.76,0,0,0,189.7,175c-.34-.06-.68-.12-1-.16a9.22,9.22,0,0,0-3.14.06c-4.47.89,5.23,16.47,13.14,24a55.74,55.74,0,0,0-5.63-.1l-.73,0h-.13l-.6,0h-.31c-2.8.26-5.27.94-5,2.54.64,3.58,4.6,14,15.83,22a.08.08,0,0,0,0,0c0,.09,0,.34.12.73a2.21,2.21,0,0,1,.07.32,2.49,2.49,0,0,0,.08.35,2.6,2.6,0,0,0,.1.4q.09.43.24.93c.05.15.09.31.14.46a24.44,24.44,0,0,0,1.59,4c.11.22.23.44.35.66.23.42.46.83.73,1.24a8.67,8.67,0,0,0,.53.81c.16.23.33.45.49.67s.36.47.56.7l.53.61c.17.19.35.38.54.56a16.68,16.68,0,0,0,5.53,3.76s0,0,0,.14c-.21,1.67-2.28,18.91,2.45,31.77,5,13.52,6.38,18.38,7.91,34.72a92.44,92.44,0,0,0,2.42,14.07l0,.06,0,.1c.08.31.16.63.25.95s.18.67.28,1,.19.64.29,1c.19.63.39,1.25.58,1.86.26.79.53,1.57.82,2.32l.51,1.31c.13.3.25.6.38.89s.36.84.55,1.25.37.8.56,1.19h0c.19.39.39.78.6,1.16s.41.75.62,1.1.45.75.67,1.11l.18.28s0,0,0,0c.28.44.57.86.87,1.27.09.12.18.25.28.37l.27.34c.09.12.18.23.28.34l.29.34a1.14,1.14,0,0,0,.15.17l.15.17.49.51q.16.18.33.33l.34.31a6,6,0,0,0,.68.58q.32.25.63.48a9.4,9.4,0,0,0,.88.57,6.36,6.36,0,0,0,.58.3,2.64,2.64,0,0,0,.29.15l.06,0,.38.17s-3.87,16.4-19.82,16.52-47.35-4.6-48.63,2.55,18.59,17.62,23.1,26.17a38.61,38.61,0,0,0,5.48,7.1c.76.83,1.58,1.7,2.45,2.58,2.21,2.26,4.71,4.63,7.33,7,.64.18,1.27.34,1.91.5a159.67,159.67,0,0,0,151.32-42.28c.27-.27.54-.54.8-.82A156.81,156.81,0,0,0,380.5,341.5l.57-.82h0c1.14-1.62,2.23-3.26,3.3-4.93l.64-1c2-3.23,3.95-6.55,5.75-9.93.43-.81.86-1.62,1.27-2.43q1.13-2.19,2.16-4.43c.34-.69.66-1.38,1-2.07a158.48,158.48,0,0,0,7.2-19l.72-2.39a157,157,0,0,0,4.18-18.59c.07-.39.14-.79.2-1.19.42-2.73.78-5.46,1.07-8.23,0-.19,0-.38,0-.58q.29-2.85.46-5.73c0-.32,0-.65.05-1q.27-4.57.27-9.21A160,160,0,0,0,407.33,224.4ZM291.13,236a17.71,17.71,0,0,1-1.77,7.37,12.37,12.37,0,0,1-1.74,2.57h0a10.38,10.38,0,0,1-3.59,2.68,6.54,6.54,0,0,0,2.34-3.43,17.7,17.7,0,0,0,.66-4.16,10.78,10.78,0,0,0-.58-5.33c-.55-1.17-1.51-2.11-2-3.31s-1.66-2.51-1.49-3.8c.09-.69.86-1.36,1.38-1.81a3.5,3.5,0,0,1,.63-.46,5.58,5.58,0,0,1,4-.43,19.65,19.65,0,0,1,4.49,2,10.52,10.52,0,0,0,4.66,1.49c-.69,0-1.46.27-2.16.33s-1.56,0-2.35,0a9.51,9.51,0,0,1-4.05-.56A11,11,0,0,1,291.13,236Zm-35,56.38a10.92,10.92,0,0,1-4.07.3,6.2,6.2,0,0,0,2.63-2.24,5.48,5.48,0,0,0,1.12-3.06,2.55,2.55,0,0,0-3.47-2.44,4.41,4.41,0,0,0-1,.43h0a11.23,11.23,0,0,0-1.91,1.39,8.65,8.65,0,0,1,2.1-2.62,3.49,3.49,0,0,1,3.72-.83,7.87,7.87,0,0,1,3.22,2.69,4.29,4.29,0,0,1,.63,3.74,4,4,0,0,1-1.56,2A5.44,5.44,0,0,1,256.14,292.41Zm-15-30.12,0-.08c.75-3.6,1.78-7.19,2.17-10.84.21-2.1.23-4.2.4-6.29.46-5.67,2.07-11.17,2.93-16.79s.9-11.61-1.62-16.71c-1.32-2.68-3.34-5.08-4.14-8-.3-1.1-.05-2.35-.62-3.32a5.48,5.48,0,0,0-1.08-1.25,12.94,12.94,0,0,0-2.65-1.8c3.6,1,7.37,2.37,9.67,5.32,1.94,2.49,2.54,5.75,2.89,8.88s.52,6.54.69,9.82a59.77,59.77,0,0,1-.11,10.45c-.57,4.36-2.12,8.54-2.79,12.88-.72,4.7-.4,9.52-1.12,14.23-.86,5.62-3.21,11.28-1.89,16.82a2.81,2.81,0,0,1-2.7-1.32,6.36,6.36,0,0,1-.85-3A31,31,0,0,1,241.11,262.29Zm43.58-52.76a8.23,8.23,0,0,1,1.49-2.69,6.8,6.8,0,0,1,3.33-1.67,19.92,19.92,0,0,1,5.42-.71,16.59,16.59,0,0,1,2.61.31c.45.08.9.2,1.34.32s.82.33,1.21.4a18.87,18.87,0,0,0-2.6-.22h-.21a8.17,8.17,0,0,0-1.49.11,9.09,9.09,0,0,0-1.17.29,9.24,9.24,0,0,0-2.39,1,4.87,4.87,0,0,0-1.79,1.87l.16,0c1-.31,2.16,0,3.2-.27a4.07,4.07,0,0,0-1.42,1.31,1.21,1.21,0,0,0,.37,1.49l.18.11a3.23,3.23,0,0,0,1.67.22c-2.72.81-4.86,2.86-7,4.76q-.57.53-1.17,1a0,0,0,0,0,0,0,14.7,14.7,0,0,1-4.32,2.72,8,8,0,0,1-1.75.45C281.84,216.74,283.26,213.14,284.69,209.53Zm-46.43,97.54a3.85,3.85,0,0,1,1.38-1.61h0a4.59,4.59,0,0,1,.83-.48,8.9,8.9,0,0,1,3-.68c1-.08,3-.27,3.83.43-.31.36-1.41.27-1.89.38a10,10,0,0,0-2.06.71,3.22,3.22,0,0,0-1.29,1,2.41,2.41,0,0,0-.34,1.17,6,6,0,0,0,1.4,3.57,15.82,15.82,0,0,0,2.76,3.18l.34.28h0a7.26,7.26,0,0,0,3.42,1.49,10,10,0,0,1-3.64-.37c-1-.23-2-.46-3-.78a7.89,7.89,0,0,1-2.1-.92,5.93,5.93,0,0,1-1.44-1.43,8.82,8.82,0,0,1-.95-1.7A5.38,5.38,0,0,1,238.26,307.07Z"/><g id="front-internal-sign-shadow"><path class="cls-6" d="M404.55,244.89s1.08,9,4.55,14.32q.27-4.57.27-9.21a160,160,0,0,0-2-25.6c-.09-.52-.17-1-.26-1.54a34.87,34.87,0,0,1-3-4.8,4.53,4.53,0,0,1,.08-4.22c.46-.8.9-1,.86,1.43a10,10,0,0,0,1.56,4.95,158.37,158.37,0,0,0-21.39-54.64,55.72,55.72,0,0,0,.36,7.07,2.93,2.93,0,0,1,0,1,1.05,1.05,0,0,1-.17.41s-.29.25-.29.26c-.53.27-1.14-.32-1.38-.74a13,13,0,0,1-1.14-3.14,22.87,22.87,0,0,1-.68-6.74,15.59,15.59,0,0,1,.32-2.68q-1.25-1.84-2.53-3.64-2.37-3.31-4.9-6.48a43,43,0,0,0,2.4,6.76c-.25-.35-3.88-5.42-4.81-9.72l-.34-.41a22.15,22.15,0,0,0,1.59,5.15c2.38,6,2.6,8,1.28,6.18s-3.24-6.87-5.28-12.49c-.31-.85-.67-1.82-1.09-2.86-.46-.53-.94-1.05-1.42-1.57-2.89-3.14-5.93-6.17-9.08-9.06a9.61,9.61,0,0,0,.44,1.22c1.28,2.82-.24,4,1.12,6.82-.18-.38-1-.81-1.37-1.08l-1.63-1.27-3.12-2.45-6.26-4.9a148,148,0,0,0-12.46-9.09c-1.45-.91-2.91-1.82-4.35-2.74-2.16-1.39-4.32-2.75-6.5-4.1a65.08,65.08,0,0,0-6.39-3.75A124.42,124.42,0,0,0,303.84,106c-4.22-1.34-8.51-2.49-12.81-3.55-2.36-.59-4.7-1.18-7-1.88s-4.87-1.51-7.33-2.2c-1.73-.47-3.47-.9-5.23-1.25l-.63-.11a9.38,9.38,0,0,1,2.48.8c5.49,2.81,2.94,5.11,2.56,10.6s6.26,8.42,6.5,5.74,6.52-2.94,8.43-.64a10.29,10.29,0,0,0,10.47,3.19c4.47-1.28,10.72.77,10.72.77-3.07-2.8-10-3.19-10-3.19s8.3-1.41,14.3,1.53,7,13,13.14,11.75c5.95-1.25,13.35,5,13.76,5.34-.46-.1-7.52-1.61-11.84-.5s-11.23-.77-14.93-7.15-8.94-6-15.32-3.42c-4.26,1.73-6.71.77-7.88-.05,1.52,1.31,4.91,3.8,8.77,3.61,5.24-.26,9.7,3.18,8.81,9.18-.85,5.7,5.89,9.9,6.58,10.32-.6-.21-5.48-2.07-8.11-8.66-2.81-7-11-7.4-18.89-8.29s-10.72-11.3-10.72-11.3c-1.91,2.61,1.4,8.1,1.4,8.1-5.62,1.54-7.33-4-8.93-11.61s-6.45,2.1-4.91-2.68,5.81-4.28,2-9.89-20.93,3.83-16.26,2.87a13.34,13.34,0,0,1,8.48,1.22s-14.8,7.08-22.84,5.23-15.64.12-20,1.16c-3.82.89,0-2.83,2.93-7.7a3.77,3.77,0,0,1,4-1.76c4.45,1,13.12,2.92,16.84,4.4,5.11,2,11.23-.25,11.23-.25-6.16.33-6.51-1.92-2.3-4.6,3.66-2.32,13.38-5.23,19.47-4.12-.85-.17-1.69-.3-2.55-.41a107.49,107.49,0,0,0-15.22-.88c-4.15,0-8.3.24-12.44.47s-8,.84-12,1.37q-6.23.83-12.38,2l-2,.41a77.46,77.46,0,0,0-11.52,3.46c-1,.41-2.09.86-3.13,1.32a35.21,35.21,0,0,1,10-5.37,36.19,36.19,0,0,1,10.26-2.61c-1,0-6.6.09-9.82-1.11l-.94.24c-4,1-7.85,2.25-11.67,3.58l-.52.19c0,1.73,0,3.32.08,4.76,0,.59.08,1.15.13,1.7.06.75.15,1.46.24,2.12s.19,1.23.28,1.78q.06.33.12.63c.15.73.31,1.4.47,2,.09.34.18.65.27.94a14.39,14.39,0,0,0,1.54,3.61.25.25,0,0,0,.05.07.28.28,0,0,1,0,.06s.76-3.19,5-11.42,13.15-2.49,12.19-.38-8.94,11.1-12.19,16.91-7.59,7.52-9.39,11.61,3.06,8,1.8,7.59-5.33-2.38-5.82-2.62l0,0,0,0-.07-.05-.17-.1a13,13,0,0,0-4.47-1.8,1.33,1.33,0,0,0-.28,0,3.43,3.43,0,0,0-1.54.16c.22,1.27.69,2.47,1.74,2.59a17.86,17.86,0,0,1,3.92.85c-3.83.43-6.38.43-3,6.81s12.51,20.42,9.61,32.5a12.62,12.62,0,0,0-2.63-3,1.84,1.84,0,0,1-.16-.1l-.14-.08-.32-.17-.33-.16-.6-.29A16.76,16.76,0,0,0,189.7,175c-.34-.06-.68-.12-1-.16s-3.36,1.29.69,7.91c4.21,6.89,12.25,17.49,12.25,17.49l-2.94-1.35a55.74,55.74,0,0,0-5.63-.1l-.73,0h-.13l-.6,0h-.16l-.15,0c-.39.1-4.6,1.46-.8,8.54,4,7.41,11.84,13.27,11.84,13.27s-1.34-10.27,2-13.47c0,0-3.06,18.84,10.34,29.36,0,0-8-1-12.5-13.17,0,.09,0,.34.12.73a2.21,2.21,0,0,1,.07.32,2.49,2.49,0,0,0,.08.35,2.6,2.6,0,0,0,.1.4q.09.43.24.93c.05.15.09.31.14.46a24.44,24.44,0,0,0,1.59,4c.11.22.23.44.35.66.23.42.46.83.73,1.24a8.67,8.67,0,0,0,.53.81c.16.23.33.45.49.67s.36.47.56.7l.53.61c.17.19.35.38.54.56a16.68,16.68,0,0,0,5.53,3.76s0,0,0,.14a3.21,3.21,0,0,1,.63-.06,12.06,12.06,0,0,0,3.64-.42,4.57,4.57,0,0,0,1.53-.87,3.79,3.79,0,0,0,.31-.37c-4.85-3.15-6.21-9.69-6.81-14.8a46.85,46.85,0,0,0-1.46-8.1c.82-1.12,9.52-12.68,18.9-11.47,5.34.69,9.5,3.26,11.87,7.76-.16-.3-1.07-.61-1.36-.77q-.9-.47-1.83-.87a24.84,24.84,0,0,0-4.71-1.5,18.85,18.85,0,0,0-12,1.31,22.75,22.75,0,0,0-7.81,6.41,15.81,15.81,0,0,1,3.82-2.72,6.64,6.64,0,0,0-2.38,3.9,5.4,5.4,0,0,0,.93,3.6,10.92,10.92,0,0,0,2.68,2.66,14.32,14.32,0,0,1-2.18-3,4.77,4.77,0,0,1-.35-3.62,4.87,4.87,0,0,1,1.38-1.92c3.8-3.45,10-3.31,14.65-1.82a14.69,14.69,0,0,1,6.68,3.93,4.13,4.13,0,0,1,1.06,2.43,3.8,3.8,0,0,1-.95,2.56,10,10,0,0,1-3.85,2.37c-4.47,1.92-10.69,3.14-14.92,0a14.61,14.61,0,0,0,6.49,3.1c3.73.76,8-.4,11.23-2.33a8.65,8.65,0,0,1-3.86,5,18.8,18.8,0,0,1-6.06,2.27,15.58,15.58,0,0,0,7-.46,9.89,9.89,0,0,0,5-2.95,18.64,18.64,0,0,0,3.55-7.71,39.91,39.91,0,0,1-.36,5.7,30.56,30.56,0,0,0,1.1-8.51,22.07,22.07,0,0,1,.57,8.56c-.9,7.77-2,14.15-2.88,21.36s-3.45,16.38-3.45,21.27c0,0,.62-3.38,1.62-7.44l0-.08c.61-2.46,1.36-5.15,2.19-7.49,2.24-6.26,1.27-16,3-21.77s2.78-15.32.87-20.17a27.79,27.79,0,0,0-3.8-6.3,6.25,6.25,0,0,0,1,0,1.7,1.7,0,0,0,.91-2.85,21.59,21.59,0,0,0-6.13-4.57,16.09,16.09,0,0,0-15.54.09c-9,5-12.09,7.53-12.16,15.86-.21-.66-.43-1.34-.71-2a16.69,16.69,0,0,0-1.22-2.81c-.15-.23-.35-.44-.51-.68a4.16,4.16,0,0,1-.53-2.13,21.56,21.56,0,0,1,.29-5.5,21.11,21.11,0,0,1,2.69-7.13,40.88,40.88,0,0,1,5.12-6.33,12,12,0,0,0,2.32-3.13c1.15-2.63.21-5.67.55-8.51,0,0-1.8-17.36,10.84-20.68S256.6,144.31,260.19,134c.05-.12,1.19-2.2,3.17-6.33s2.13-5.28,2.13-5.28a37.52,37.52,0,0,1,1.79,4.09c0,.43,2-3.4.33-7.48s.6-8.17,2-6.14S272,128.14,272,128.14s4.29,7.49,8.19,7.4,10.36-4.25,16.32-1.61,5.87,10.38,11.06,13.62,18.13,1.19,20.76,6a40.26,40.26,0,0,1,3.66,9.51c-.27-.33-4.62-5.64-5.53-6.79s-.85,4.08,1.45,7.57,14.55,6.81,14.55,6.81,0,10,5,13.1,9.79,2.73,11.31,6.3,3.24,9.19,6.56,10.47a8.09,8.09,0,0,1-6.95-5.85c.29,1.07,2.82,9.7,9.75,11.46,0,0-.33.68-4.34,0-.2,0-.22,9.47-.14,10.24.25,2.16.76,4.89,2.13,6.66,1.16,1.5,2.64,2.59,3.61,4.33,1.65,2.93,2.73,6.82,1.89,10.17-.93,3.74-2.8,8.42-1.44,13.18a43.81,43.81,0,0,1,3.4-8.25c2.21-4,3.65-3.57,1.45-9.53s-8.26-13.44-5.7-20.68c0,0-.95,8.85,4.59,12.17s5.79,10.22,5.11,13.11-7.57,9.79-4.6,19.48c0,0-2.75-.34-4.13-4.08a58,58,0,0,0,2.19,6c1.05,2.1,3.33,3.34,4.12,5.6a7.49,7.49,0,0,1-.46,5.13c-.81,2.06-2.12,4.12-2,6.4.06,2.08.74,3.88.24,6-.8,3.35-7.47,10.81-8.29,11.73.47-.38,2.63-2.2,5.89-5.13-.1.3-1.86,5-4.46,5.94,0,0,6.77,1,9.58-7.64,0,0,4.41,3.74,9,1,0,0,6.33,3.25,7.85-1.53,2.7-8.51,5.68-16.66,6.6-25.6a55.11,55.11,0,0,1,.33,9.78,36.55,36.55,0,0,1-1.31,9.14,65.82,65.82,0,0,1-7,17.48,43.48,43.48,0,0,1-2.78,4.32c-1.62,2.26-3.55,4.26-5.12,6.56a62.54,62.54,0,0,0-10.35,26.1,25.07,25.07,0,0,0-.32,4.4c0,.85.06,1.7.11,2.55,0,.36.38,2.13.17,2.36a10.76,10.76,0,0,0-2.16,3.23c-.3.76-.7,1.47-1,2.23a11.83,11.83,0,0,0-.48,2.2c-.41,2.29-1,4.66-2.7,6.36-1,1.06-2.43,1.77-3.27,3a5,5,0,0,0-.51,1A156.81,156.81,0,0,0,380.5,341.5l.57-.82h0a17,17,0,0,1,.23-2.18c1.33-8.45,8.12-15.52,12.89-20.55.34-.69.66-1.38,1-2.07a158.48,158.48,0,0,0,7.2-19l.72-2.39c0-1.34-.11-2.73-.26-4.18a19.8,19.8,0,0,1,4.44-14.41c.07-.39.14-.79.2-1.19.42-2.73.78-5.46,1.07-8.23,0-.19,0-.38,0-.58-3.78-3.5-7.37-7.36-7.65-12.43C400.52,245.65,404.55,244.89,404.55,244.89ZM241,206.08l.06,0v.08A.61.61,0,0,0,241,206.08Zm-30-83.17c-2.32,3.65-6,9.38-7.6,11.58-3.12-2.75,3.07-11.3,8.49-18.83,4.76-6.61,5.53-3.44,5.83-1.48,3.74-3.45,5.87-3,5.87-3-3.8,1.6-7.42,8.53-7.64,9a20.35,20.35,0,0,1,6-5c-6.83,5.42-11.92,16.77-13.33,22.7s-3,12.75-5.34,14c.06-.14.12-.29.17-.43a15.27,15.27,0,0,0,1-4.7c.13-2.18,0-4.35.07-6.53a19,19,0,0,1,1.49-6.24c-1.7,4.12-4.18,4.67-4.18,4.67C204,137.24,207.05,129.63,211,122.91Zm33.43,16c-5.23,1.61-11.42-5.67-14.81-3.5s-.44,6.7-.44,6.7,2.87-2.3,5-.07,7.34,7.15,13.73,1.66,8.55-5.93,8.55-5.93c-5.49,11.16-19.15,10.46-24.76,10.34s-4.6-3.71-9.32-2.24c.12-2.36,2.79-2.61,2.79-2.61-3.32-3.45-2.53-6.52-1.26-8.23s0-2.82,1.84-5.81,6.39,0,5.3,1.21a3.34,3.34,0,0,0-.57,2.93c2.18-4.46,13.27,0,20.1-.57a11.61,11.61,0,0,0,9.38-6.32C259.85,131.36,249.7,137.29,244.47,138.88Zm13.79-25.52c-2.85-.07-9,5.69-9.43,6a96.07,96.07,0,0,1,11.47-3.18c4-.63,2.75,4.41,2.75,4.41a3.33,3.33,0,0,0-1.35-2.87c-1.52-1.15-7.4,4.63-10.84,5.31s-10.53,4.83-18.19,2.91-11.11,1.22-11.11,1.22a10.69,10.69,0,0,1,4.22-6.76c3.57-2.37,8.48-4.48,8-5.88s-8.8,2.21-11.93,8.51a32.88,32.88,0,0,1-6.52,8.75c1-.16,1.47.81,1.2,3.71-.42,4.69-4.76,13.29-4.93,18.64,0,0,2.05-6.3,3-7.57s1.66,2.16,1.72,2.53a8.84,8.84,0,0,1-3.27,9.62,5,5,0,0,0-1.36,2.57,10.1,10.1,0,0,0,.54,5.1c2.37,7.18-4.65,10.53-5.8,14.41a10.88,10.88,0,0,0-.44,5.81c-.08-.62-.26-3.63,3.66-6.67,4.41-3.41,7-12,6.92-15.86-.06-2.88,1.47-5.34,3.13-7.56a20.5,20.5,0,0,1,2.78-3.24c.53-.45,1.32-1,2-.65a1.7,1.7,0,0,1,.64.83c1.12,2.47-7.57,5.89-7.82,10.86s.09,12.8-1.1,16.63-7.83,7.86-9.88,15.93a15.54,15.54,0,0,1-3-12.62c1.36-7.82.66-5.87-.27-9.7s1.63-8,1.63-8-2,.35-2.73,3.41c0,0-4.75-4.09-3.61-12.35a22.92,22.92,0,0,0-2.26-13.94s3.92-.09,5.11,6.21.85,14.64,1.53,15.48,2.47-1.44,3.57-.84-.59,6.12,0,9.53,4.69-3.58,3.74-7.24S205.42,157,206.44,153s3.83-17.87,6.47-19.83c.25-.19.5-.35.73-.51a21,21,0,0,1,4-11c3.83-5.2,10.34-10.07,13.84-10.54s4.91,1.32,4.91,1.32,7.41-2.24,5.18,2-12.77,8.63-12.77,8.63,5.37,3.5,8.87-.87,5.94-8.27,8.71-8.27c2.48,0,.14,2.39-.38,2.9a25,25,0,0,1,8.46-4.37c4.47-1.08,5.42.19,8.93-.45A9.79,9.79,0,0,1,258.26,113.36Zm89.17,22.53c3.74,3.48,8.85,3.83,10,7.49s3,4.84,3.91,9.44a23.82,23.82,0,0,0,3.75,8.93c.42.35-5,3.5-7.07-1.52s.94-18.13-5.1-19.5-5.45,2.31-9.7,1.79-3.32-1-1.53-3.48-9.36-4-9.36-4S343.68,132.39,347.43,135.89Zm-14.22,3.83c6.31.77-.93,5.87-7.14,2.55-6-3.22-8.27-11.22-8.41-11.72C320.15,133.86,326.94,139,333.21,139.72ZM333,150.05c-1.17-.09-2.33-.2-3.48-.37a11.52,11.52,0,0,1-4.83-1.67c-1-.62-3.81-3.35-1.95-4.48.74-.45,1.71.44,2.33.78a15.78,15.78,0,0,0,7.82,1.61c1.51,0,3-.23,4.52-.19,5.67.16,11.89,2.61,14.47,8a10,10,0,0,1,.62,1.57c0,.12.33,1.38.34,1.39a4.25,4.25,0,0,1-2.67-1.84,8.61,8.61,0,0,0-2.86-2.54,14.27,14.27,0,0,0-4.08-1.29A97,97,0,0,0,333,150.05Zm36.76,42.57c-4-5-8.23-8.74-12.7-9.83s-7.53-5.55-9.31-11.87-5.36-6.38-4.79-10.39c1.79-.46,5.29,1.2,6.32,5.16s2.68,12.12,7.28,14.42,10.27,1.79,16.57,10.14c-.22-.2-3.7-3.34-5.85-4.26s5,6.37,8.16,8,6.13,4,4.92,4.34S373.76,197.6,369.74,192.62Zm20.06,67.92c-.42,4.08-2.89,5.19-3.66,4.6s2.56,6.21,2.56,11.65-2.89,11.31-7,11.07c0,0,6.47-2.31,4.42-9.2s-6.8-15.14-3.06-17.1c0,0-7.85-3.74-2.39-13.88-.67,4,5.79,10.48,5.79,10.48S390.22,256.45,389.8,260.54Zm-5.38-10.6c-.25-.08-.45-3.65,1.72-8.12s2.49-8-.89-11.55-8.73-8-7.34-16.53-2.68-12.25-2.68-12.25c3.89,2.48,7.28,7.46,7,11.49s2.29,10.84,4.91,13.39,4.59,3.78,4.78,8.5S384.68,250,384.42,249.94Zm14.86-17.69c0,.45-5.74-6.19-9.25-13s-3.83-11-3.89-15,3.13-4.35,3.13-4.35a9.28,9.28,0,0,1,0-4s2.11,1,2.23,8,2.75,14,4.86,19.78S399.35,231.81,399.28,232.25ZM385,334.73c2-3.23,3.95-6.55,5.75-9.93C387.71,328.19,385.39,331.45,385,334.73Z"/><path class="cls-6" d="M274.59,355.87c12.64-2.81,24,3.54,47.48-4.63,22.76-7.91,36.76-40.05,37.61-42.05-7.15,15.46-47.34,44.3-64.66,39.84s-25.66-1-30.77.51-9.44-1.28-20.42-6c-10.26-4.41-16.51-20.85-17.27-23a.64.64,0,0,1-.07-.16c2.76,10.73,7.39,19.55,13.3,21.93C239.79,342.34,262,358.68,274.59,355.87Z"/><path class="cls-6" d="M237.55,300.43a5.86,5.86,0,0,0-1,4.22c.32,1.25,1.35,1.17,2.36,1,.42-.08.83-.19,1.19-.23a28.5,28.5,0,0,1,6.19-.22c1.83.18,3.55.85,5.41.93,3.52.17,6.69-1.19,10.14-1.49a24.31,24.31,0,0,1,12.82,2.06c-4.6-7.34-17.34-9.53-19.64-10.13s-3.48,1.41-6.21,3.87c-2.44,2.22-4.72-2.37-5.73-4a.94.94,0,0,0-.91-.54,1.83,1.83,0,0,0-.59.26A14.18,14.18,0,0,0,237.55,300.43Z"/><path class="cls-6" d="M255.63,316.19a21.85,21.85,0,0,0-2.92-.9,17,17,0,0,0-2.94-.13l-1.5,0a20,20,0,0,1-7.06-1.24,10.4,10.4,0,0,1-1.94-1.05l-.08,0a22.69,22.69,0,0,0,1.15,2l.39.5a7.51,7.51,0,0,0,3.55,2.32c2.37.76,4.91.35,7.33.79,1.54.27,3,.86,4.54,1.17a13.1,13.1,0,0,0,12.94-5.09C265.44,317.51,260.11,317.7,255.63,316.19Z"/><path class="cls-6" d="M262.17,263c-1.28-.94-3.57-3.07-4.17-14.55s-2.89-18.21-2.89-18.21l-.35,6.36a96,96,0,0,0,.19,13.88,73.52,73.52,0,0,1-.27,15.75c-.68,3.92,3.32,3.58,8.26.34s15.31-4.68,18.29,3.15c0,0,1.7-5.7-4.59-9.19S263.45,263.94,262.17,263Z"/><path class="cls-6" d="M240.47,274.58a8.65,8.65,0,0,0,5.88,7.74,12.79,12.79,0,0,0,5,.8c-3,1.73-3.93,5.54-2.71,10.52-.13-7.15,5.32-12.81,8.13-8.59s-.06,9.1-1.22,9.87.07.76,1,.76,11.06,2.94,15.14,5.58,10.17,6.89,11.23,5.61.79-5.89-1.06-9.72-17-5.87-19.21-6.06.89-8.43-6.06-8.94h0a47.89,47.89,0,0,1,4.72-1.19c4.94-.85,12.08,2,16.17.85s3.23-10,3.23-10c-.09,4.85-2.85,9.87-6.06,7.23s-4.15-5.39-11.21-3.25S242.52,280.54,240.47,274.58Z"/><path class="cls-6" d="M306,227s.48-.06,1.27-.2C306.84,226.89,306.42,227,306,227Z"/><path class="cls-6" d="M307.73,226.73c3.28-.67,10.41-2.69,14.26-8.14a76.6,76.6,0,0,0-8.46-4.91,32,32,0,0,0-12.47-3.52,24,24,0,0,0-6.37.49,11.15,11.15,0,0,0-5.32,2.69,21.94,21.94,0,0,0-4.23,6.36,7.27,7.27,0,0,1-2.42,3c-1.28.89-.26,1.62,2.76.68a3.48,3.48,0,0,1,3,.52,23.25,23.25,0,0,0,6.94,2.77,34.32,34.32,0,0,0,8,.33h0c-1,0-10.93-1.11-13.84-5.62-2.44-3.8,2.43-7.8,5.63-8.87,4.67-1.56,9.84-.23,14.28,1.46,2.05.78,4.05,1.71,6,2.69l4.11,2.25S315.2,225.11,307.73,226.73Z"/><path class="cls-6" d="M265,210.68c1.15-2.55,10.08-5.49,10-4.61s-3.58,13,1.27,24.78,1.41,13.91-.25,19.31.89,4.93,8.55-.22,3.32-24.58,3.32-20.5c-2.43-4-7-4.72-6.43-6.25s.17-3.45,3.75-13.06c2.38-6.41,11.61-5.34,17.51-3.91-5.62.76-8.39,2.74-8.39,2.74,13.79-1.34,33.63,4.85,30.32,11.16s-19.85,12-25.59,11.45c20.48,6.3,35.16-13.11,35.6-15.72s-3.95-1.41-9.65-4c-4.72-2.12-12.44-5.15-18.37-5.72-5.9-6.28-21.69-2.64-21.69-2.64,13.4-7.66,45.18.26,45.18.26-19.14-15.06-49.9-13.91-60-9.19S263.87,213.23,265,210.68Z"/><path class="cls-6" d="M285,145.42c-5.88,2.38-12,2.38-13.19-4.25-1.14-6.34-5.84-12-6.27-12.55.31.62,3.16,6.3,2.44,11.52-.77,5.54.09,11.24,7.06,12.34s8.33,4.17,9.1,8,8.08,6.73,10.64,6c0,0-.14.23-.4.58,2-.46,4-.31,6.91,2.5,7,6.75,18.89,4.58,18.89,4.58l-4-1s7.53-1,8-6.13c0,0,3.7,4.85,14.3,6.77,0,0,.06.4.21,1,.33-.81.68-1.61.68-1.61S327.86,170,325.56,166s-2.3-12.68-2.3-12.68-3.06-2.47-9.27-1.7-11.66-1.79-13.62-6.68-7.49-10.17-16.93-6.25-8.94-4.6-8.94-4.6-1.61,10.55,4.43,9.19,15.05.52,17.6,7C296.24,149.88,290.69,143.1,285,145.42Z"/></g></g></g></g></svg>