<svg xmlns="http://www.w3.org/2000/svg" viewBox="0 0 512 512"><defs><style>.cls-1{fill:#474747;}.cls-2{fill:#9e9e9e;}.cls-3{fill:#666;}</style></defs><g id="Front"><g id="Front-group"><g id="text-2" data-name="text"><g id="liberty"><path class="cls-1" d="M45.65,307.55a71.93,71.93,0,0,0-2.1-7.9,1.87,1.87,0,0,1,.9-.4,1.62,1.62,0,0,1,1,0,6.57,6.57,0,0,0,.9,2.5c.3.6.6.9.8.9a3.73,3.73,0,0,0,2.1,0c.8-.2,1.7-.3,2.7-.5l19.3-4.2a8.22,8.22,0,0,0,3.2-1.2c.6-.5.6-1.8.2-3.9l-.8-3.7a7.48,7.48,0,0,0-2.7-4.8,15,15,0,0,0-5.5-2.1.46.46,0,0,1-.4-.5c-.2-1-.3-1.7-.1-1.9.7.1,1.5.3,2.4.4a21.66,21.66,0,0,1,2.5.4,26.88,26.88,0,0,0,4.4.5c1.4,6.6,2.9,13.2,4.3,19.9l1.7,7.7a1.87,1.87,0,0,1-.9.4q-.75.15-.9,0a5.93,5.93,0,0,0-.5-1.4q-.6-1.8-1.2-2.1-1-.3-4.8.6l-18.5,4a16.74,16.74,0,0,0-4.6,1.4q-.75.75,0,3.9a1.88,1.88,0,0,1-1,.4q-.75.15-.9,0C46.65,312.85,46.25,310.15,45.65,307.55Z"/><path class="cls-1" d="M50.85,186.25a79.64,79.64,0,0,0,3.3-7.6c.9-2.3,1.8-4.9,2.6-7.7.2-.1.5,0,.9.2a3.6,3.6,0,0,1,.9.5,11.34,11.34,0,0,0-.7,2.6c0,.7,0,1.1.1,1.2a4.34,4.34,0,0,0,1.7,1.2,23.9,23.9,0,0,0,2.6,1l17.6,6.8c1.1.4,2,.7,2.7,1a2.9,2.9,0,0,0,1.7.3,1.27,1.27,0,0,0,.9-.4c.2-.3.5-.5.7-.8.3-.6.6-1.2.9-1.9a2.17,2.17,0,0,1,1,.2c.4.2.7.3.8.5a95.83,95.83,0,0,0-5.9,15.4c-.2.1-.5,0-.9-.2a3.6,3.6,0,0,1-.9-.5,6.32,6.32,0,0,0,.6-2.7,2.87,2.87,0,0,0-.2-1.2,14.8,14.8,0,0,0-4.3-2.1l-17.5-7a15.91,15.91,0,0,0-4.7-1.3c-.7.2-1.4,1.2-2.1,3.2a2.17,2.17,0,0,1-1-.2C51.25,186.55,51,186.45,50.85,186.25Z"/><path class="cls-1" d="M124.65,84.75l7.1-5.2a14.88,14.88,0,0,1,7.5-3,7,7,0,0,1,6.8,2.9c1.5,2.1,1.4,4.7-.2,7.8-.4.7-.6,1.2-.8,1.5s-.3.4-.3.5a1.55,1.55,0,0,0,.6-.2,11.3,11.3,0,0,1,2.2-.7,10.18,10.18,0,0,1,3.5-.3c3,.1,5.2,1.1,6.5,2.9a7.35,7.35,0,0,1,1.4,4.8,12.22,12.22,0,0,1-1.5,5.4,14,14,0,0,1-3.8,4.6c-1.6,1.3-3,2.4-4.2,3.2s-2.2,1.5-3.2,2.2c-2.9,2.1-5.8,4.1-8.7,6.2a2.23,2.23,0,0,1-.7-.7,1.63,1.63,0,0,1-.4-.9,7.36,7.36,0,0,0,1.1-1c1-.9,1.4-1.5,1.4-2q-.15-1.05-2.4-4.2l-11-15.4a17.46,17.46,0,0,0-3.1-3.7c-.6-.2-1.8.3-3.5,1.5a1.54,1.54,0,0,1-.7-.7,1.63,1.63,0,0,1-.4-.9c1.2-.7,2.3-1.5,3.5-2.3Zm14.9.2c-2.6-3.7-5.3-4.6-7.9-2.8a9.83,9.83,0,0,0-1.5,1.2c-.4.4-.6.7-.5,1a7.46,7.46,0,0,0,1.5,2.7l5.2,7.4,2.5-1.8a4.2,4.2,0,0,0,2-3.3C141.15,88.05,140.65,86.55,139.55,85Zm4.6,20.5c.9,1.3,1.6,2,2,2.1a2.12,2.12,0,0,0,1.6-.4l1.8-1.2a6.07,6.07,0,0,0,1.6-1.6,4,4,0,0,0,.9-2.1c.5-1.8,0-3.7-1.4-5.7-2.1-2.9-4.5-4.2-7.4-3.7a8,8,0,0,0-3.2,1.4l-2.5,1.8Z"/><path class="cls-1" d="M271.15,48.45a1.49,1.49,0,0,1-1,.3c-.7,0-1.1-.2-1.2-.5a15.69,15.69,0,0,0-2.2-3.6,5.47,5.47,0,0,0-4-1.6l-4.7-.1a11.48,11.48,0,0,0-1.9.1c-.6,0-.9.2-1,.5a8.19,8.19,0,0,0-.4,3.1l-.1,9.2c0,.4.8.6,2.5.6h3.1c1.6,0,2.7-.1,3.2-.5a6.79,6.79,0,0,0,1.2-1.2,6.14,6.14,0,0,0,.7-1.8c0-.3.3-.4.8-.4a2.15,2.15,0,0,1,1,.2l-.1,9.9c-.2.2-.5.2-1,.2s-.8-.2-.8-.5c-.5-1.8-1.1-2.8-1.9-3.1a16.17,16.17,0,0,0-4.9-.5c-2.5,0-3.7.2-3.7.7l-.1,8.5a7.86,7.86,0,0,0,.5,3.4c.3.7,1.6,1,3.8,1.1l3.8.1a8.17,8.17,0,0,0,5.3-1.5,13.9,13.9,0,0,0,3.3-4.9.6.6,0,0,1,.6-.3c1.1,0,1.7.1,1.9.3-.3.7-.6,1.4-.9,2.2l-.9,2.4a27.22,27.22,0,0,0-1.5,4.2l-20.3-.3h-7.9a2,2,0,0,1-.2-.9,1.44,1.44,0,0,1,.2-.9,11.45,11.45,0,0,0,1.5-.1,3.78,3.78,0,0,0,2.3-.7,14,14,0,0,0,.5-4.8l.3-18.9a16,16,0,0,0-.4-4.8c-.4-.5-1.7-.8-3.8-.8a2.15,2.15,0,0,1-.2-1,1.44,1.44,0,0,1,.2-.9c1.3.1,2.7.2,4.2.2l4.1.1,18.7-.1A47.38,47.38,0,0,0,271.15,48.45Z"/><path class="cls-1" d="M379.45,80.35l7,5.3q6.9,5.4,6,11.4a8.47,8.47,0,0,1-1.5,3.5,6.64,6.64,0,0,1-2.7,2.1,11.43,11.43,0,0,1-3.2.7,10.23,10.23,0,0,1-5.6-.9l.7,12.7a14.52,14.52,0,0,0,2.2,7.2,8.36,8.36,0,0,0,2.2,2.6,1.38,1.38,0,0,1-.5.9,7.68,7.68,0,0,1-.7.6c-1.3-.9-3.1-2.3-5.3-4a14.18,14.18,0,0,1-4.3-4.9,12.15,12.15,0,0,1-1-4.1l-.6-14.4c0-.2-.1-.4-.1-.7a.6.6,0,0,0-.3-.6l-.7-.5-4.9,6.2c-.7.9-1.3,1.7-1.7,2.3a3.68,3.68,0,0,0-.8,1.5,1.16,1.16,0,0,0,.2,1l.6.9a7.31,7.31,0,0,0,1.6,1.4,2.06,2.06,0,0,1-.5.9c-.3.4-.5.6-.7.6a90.37,90.37,0,0,0-12.9-10.2,2,2,0,0,1,.4-.8,1.68,1.68,0,0,1,.8-.7,7.73,7.73,0,0,0,2.3,1.4,3.52,3.52,0,0,0,1.2.2,16.1,16.1,0,0,0,3.3-3.5l11.7-14.8a16.15,16.15,0,0,0,2.6-4.1c0-.7-.8-1.6-2.5-2.9a2.06,2.06,0,0,1,.5-.9c.3-.4.5-.6.7-.6,1,.9,2.1,1.8,3.2,2.7Zm6.6,11.1a5.63,5.63,0,0,0-2.2-5.2c-.6-.4-1.1-.8-1.5-1.1s-.8-.4-1.1-.2a8.44,8.44,0,0,0-2.2,2.2l-6.6,8.4,2.1,1.7a6.26,6.26,0,0,0,4.6,1.3,7.09,7.09,0,0,0,4.7-2.9C385.15,94,386,92.55,386.05,91.45Z"/><path class="cls-1" d="M430,207.45a101.66,101.66,0,0,0-5.1-15.6c.1-.2.4-.3.8-.5a1.86,1.86,0,0,1,1-.1,8.28,8.28,0,0,0,1.2,2.5c.4.5.7.7.9.7a4.64,4.64,0,0,0,2-.1,28.24,28.24,0,0,0,2.7-.9l22.8-7.5-1.7-5.2a5.58,5.58,0,0,0-3.2-3.2,8.7,8.7,0,0,0-5-.6.7.7,0,0,1-.4-.5,2.75,2.75,0,0,1-.2-1.7l9.4-1.4c.1.1.1.2.2.2l.2.4a2,2,0,0,1,.1.8v1.1a22.71,22.71,0,0,0,.8,4.1l6,18.2a14.6,14.6,0,0,0,2.4,4.7,2.51,2.51,0,0,1,.4.7,2,2,0,0,1,.1.8l-8.4,4.4a2.42,2.42,0,0,1-.8-1.1c-.2-.6-.2-.9-.1-1a8.15,8.15,0,0,0,3.3-3c1.1-1.9,1.5-3.6,1-4.9l-1.7-5.1-22.8,7.5c-2.5.8-3.9,1.4-4.4,1.9s-.4,1.7.3,3.9a3.6,3.6,0,0,1-.9.5C430.35,207.45,430.05,207.55,430,207.45Z"/><path class="cls-1" d="M431.45,300.85a75.35,75.35,0,0,0,1.6-8,1,1,0,0,1,.9.1,1.87,1.87,0,0,1,.9.4,7.26,7.26,0,0,0-.3,2.7,3,3,0,0,0,.3,1.1,14.33,14.33,0,0,0,4.6,1.6l7.2,1.8c.2.1,2.9-.7,7.9-2.2,5.6-1.8,8.8-2.7,9.5-2.9a4.16,4.16,0,0,0,1.8-1.7,7.44,7.44,0,0,0,.8-1.7,1.67,1.67,0,0,1,1,0,1.91,1.91,0,0,1,.8.4c-.9,2.6-1.7,5.2-2.4,7.9a75.35,75.35,0,0,0-1.6,8,1,1,0,0,1-.9-.1,1.87,1.87,0,0,1-.9-.4c.6-2.3.4-3.5-.4-3.7a3.44,3.44,0,0,0-.9.1l-12.7,4c-.2.1,2.8,3.4,9,9.8a2.26,2.26,0,0,0,1,.5c.3.1.5-.1.8-.4a10.54,10.54,0,0,0,.7-1.1,10.22,10.22,0,0,0,.8-2.3,1.86,1.86,0,0,1,1,.1,1.51,1.51,0,0,1,.9.4q-1.65,5-2.1,6.6a15.94,15.94,0,0,0-.6,3,21,21,0,0,1-.6,3.1,1,1,0,0,1-.9-.1,1.87,1.87,0,0,1-.9-.4c.5-2.1.5-3.6-.1-4.5-1.6-2-3.8-4.6-6.6-7.7-4-4.4-6.1-6.6-6.5-6.7l-6.8-1.8a35,35,0,0,0-4.4-.9,1.05,1.05,0,0,0-.9.5,8.79,8.79,0,0,0-.6,1c-.3.7-.5,1.3-.7,1.9a1.67,1.67,0,0,1-1,0,1.91,1.91,0,0,1-.8-.4C430,306.05,430.75,303.45,431.45,300.85Z"/></g><g id="in_god" data-name="in god"><path class="cls-1" d="M97.55,372.05c1.5.1,3,.2,4.3.2s2.7-.1,4.3-.2c.1.1.1.2.1.5s0,.4-.1.5a5.21,5.21,0,0,0-1.4.2c-.3.1-.5.2-.5.3a2.9,2.9,0,0,0-.3,1.1v12.9a2,2,0,0,0,.2.9.78.78,0,0,0,.4.4c.2.1.3.1.5.2a3.75,3.75,0,0,0,1.1.1,1.3,1.3,0,0,1,0,1,61.71,61.71,0,0,0-8.6,0c-.1-.1-.1-.2-.1-.5s0-.4.1-.5A4.64,4.64,0,0,0,99,389c.3-.1.5-.2.5-.3a6.93,6.93,0,0,0,.2-2.5v-10.1a11.4,11.4,0,0,0-.2-2.5c-.2-.3-.9-.4-2-.4a.75.75,0,0,1-.1-.5C97.35,372.45,97.55,372.15,97.55,372.05Z"/><path class="cls-1" d="M107.45,372.65c0-.3,0-.5.1-.5.5,0,1,.1,1.6.1a11.52,11.52,0,0,0,2,.1c.8,0,1.9-.1,3.1-.2.5,1.1,2.8,3.7,6.8,7.9,1,1.1,2,2.1,2.9,3.2.1-.1.1-.2.1-.4v-5.8a15.59,15.59,0,0,0-.3-3.5c-.2-.4-1-.6-2.5-.6a.58.58,0,0,1-.1-.4c0-.3,0-.5.1-.6.7.1,1.3.1,1.9.2a10.32,10.32,0,0,0,1.9.1c.7,0,2-.1,3.8-.2v.5a1.27,1.27,0,0,1-.1.6,8.16,8.16,0,0,0-1.8.2,1.4,1.4,0,0,0-.7.4c-.1.1-.1.3-.1.6s-.1.6-.1.9a12.1,12.1,0,0,0-.1,1.9v9.1c0,1.5,0,2.7.1,3.8-.1.1-.2.1-.4.1h-.4a1.21,1.21,0,0,1-.9-.6l-12.3-13.4v9.7a9.28,9.28,0,0,0,.3,2.6c.2.3.8.6,2,.7h.5a.75.75,0,0,1,.1.5v.5a32.42,32.42,0,0,0-3.8-.2,11.48,11.48,0,0,0-1.9.1c-.5.1-1.2.1-1.9.2-.1-.1-.1-.3-.1-.6s0-.4.1-.4a7,7,0,0,0,1.6-.2c.5-.2.7-.3.8-.5a7.45,7.45,0,0,0,.3-2.7v-9.8c0-1.5-.3-2.4-.9-2.6a4.53,4.53,0,0,0-1.6-.3C107.45,373.05,107.45,373,107.45,372.65Z"/><path class="cls-1" d="M153.75,372.45l1,4.1q0,.15-.3.3a1.09,1.09,0,0,1-.5.1.6.6,0,0,1-.4-.1,5.39,5.39,0,0,0-1.3-2.1,6.05,6.05,0,0,0-4.5-1.6,5.32,5.32,0,0,0-4.7,2.3,8.78,8.78,0,0,0-1.3,5.1,9.78,9.78,0,0,0,1.6,5.7,5.65,5.65,0,0,0,4.8,2.6,5.27,5.27,0,0,0,2.3-.4c.1-.1.1-.1.2-.1s.1-.1.1-.3v-3.8c0-.5-.1-.9-.4-1a4.88,4.88,0,0,1-.7-.3,4.1,4.1,0,0,0-1.1-.1c-.1,0-.1-.1-.1-.4s0-.5.1-.6c1.5.1,3,.2,4.4.2s2.7-.1,3.9-.2a1.27,1.27,0,0,1,.1.6,1,1,0,0,1-.1.4,3.22,3.22,0,0,0-.8.1c-.4.1-.7.1-.8.2-.3.1-.4.5-.4,1.2v2.8l.2.8c0,.2-.4.5-1.1.7-1,.3-2,.6-3.1.9a14,14,0,0,1-3.7.4,10.52,10.52,0,0,1-4-.7,14.8,14.8,0,0,1-3.3-1.8,8.17,8.17,0,0,1-3-6.3,9.37,9.37,0,0,1,.8-3.6,8.93,8.93,0,0,1,2.2-2.9,10.72,10.72,0,0,1,7.3-2.7A39.46,39.46,0,0,1,153.75,372.45Z"/><path class="cls-1" d="M167.65,372a10.72,10.72,0,0,1,3.9.7,13.5,13.5,0,0,1,3.3,1.9,9.23,9.23,0,0,1,2.3,2.9,7.19,7.19,0,0,1,.8,3.5,8.53,8.53,0,0,1-.8,3.5,9.23,9.23,0,0,1-2.3,2.9,10.91,10.91,0,0,1-3.3,1.9,10,10,0,0,1-3.9.7,10.91,10.91,0,0,1-7.1-2.6,9.23,9.23,0,0,1-2.3-2.9,7.19,7.19,0,0,1-.8-3.5,8.53,8.53,0,0,1,.8-3.5,8,8,0,0,1,2.3-2.9A10.72,10.72,0,0,1,167.65,372Zm2.1,2a5,5,0,0,0-2.7-.8,4.27,4.27,0,0,0-2.4.6,5.72,5.72,0,0,0-1.5,1.6,9.36,9.36,0,0,0-1,4.7,11.71,11.71,0,0,0,1.3,5.9,5.25,5.25,0,0,0,4.7,2.9,4,4,0,0,0,3.7-2.3,9.33,9.33,0,0,0,1.1-4.7,12.1,12.1,0,0,0-1.4-6A5.41,5.41,0,0,0,169.75,374Z"/><path class="cls-1" d="M184.45,372.25c1.3,0,2.8,0,4.6-.1a14.17,14.17,0,0,1,8.4,2.3,7.64,7.64,0,0,1,3.2,6.4,7.85,7.85,0,0,1-3.4,6.9c-2.1,1.5-4.9,2.2-8.4,2.2h-8.7c-.1-.1-.1-.2-.1-.5a.75.75,0,0,1,.1-.5,3.22,3.22,0,0,0,.8-.1c.7-.1,1.1-.2,1.2-.4a6.93,6.93,0,0,0,.2-2.5v-9.9a11.4,11.4,0,0,0-.2-2.5c-.2-.3-.9-.4-2-.4a1.3,1.3,0,0,1,0-1,15.48,15.48,0,0,0,2.2.1Zm2.2,1.3a1.27,1.27,0,0,0-.1.6v12.1a4.18,4.18,0,0,0,.3,1.8c.1.2.3.3.7.4a5,5,0,0,0,1.2.2q3.75,0,5.4-1.8c1.2-1.2,1.7-3.2,1.7-5.8a8,8,0,0,0-2.1-5.9,7.57,7.57,0,0,0-5.5-2h-1A.92.92,0,0,0,186.65,373.55Z"/></g><g id="we_trust" data-name="we trust"><path class="cls-1" d="M302.45,372.05c1.8.1,3,.2,3.6.2a9.15,9.15,0,0,0,1.7-.1,8.08,8.08,0,0,1,1.6-.1c.1.1.1.2.1.5s0,.4-.1.5c-1.2,0-1.9.1-2.1.4a12,12,0,0,0-1.2,2.2l-4.9,13a4.7,4.7,0,0,1-.6.9.87.87,0,0,1-.7.4.51.51,0,0,1-.5-.4l-5-11.1-3.8,10a3.58,3.58,0,0,1-.6,1.1c-.2.2-.4.4-.5.4s-.3-.1-.5-.4l-5.4-13.6a15.05,15.05,0,0,0-1.1-2.2,1.26,1.26,0,0,0-1-.7,6.53,6.53,0,0,0-1.1-.2.75.75,0,0,1-.1-.5,4.33,4.33,0,0,1,.1-.5c1.5.1,3,.2,4.3.2s2.8-.1,4.2-.2c.1.1.1.2.1.5a.75.75,0,0,1-.1.5c-1.2,0-1.8.2-1.8.7a2.3,2.3,0,0,0,.3.9,11.73,11.73,0,0,0,.5,1.1l3,7.3,4-10a1.61,1.61,0,0,1,.4-.7c.2-.2.3-.3.5-.3s.3.1.4.4l5.2,11.6,2.9-8.2a6.61,6.61,0,0,0,.6-2.2c0-.2-.2-.3-.7-.4a11.55,11.55,0,0,0-1.6-.2.75.75,0,0,1-.1-.5C302.45,372.15,302.35,372.15,302.45,372.05Z"/><path class="cls-1" d="M325,376a.76.76,0,0,1-.5.2c-.4,0-.6-.1-.6-.2a6.15,6.15,0,0,0-1.2-1.9,2.86,2.86,0,0,0-2.1-.8h-3.5c-.3,0-.5.1-.5.3a4.66,4.66,0,0,0-.2,1.6V380c0,.2.4.3,1.3.3h1.6a3.17,3.17,0,0,0,1.7-.3,1.7,1.7,0,0,0,.6-.6,6.31,6.31,0,0,1,.4-.9c0-.1.1-.2.4-.2s.4,0,.5.1v5.2a.75.75,0,0,1-.5.1c-.3,0-.4-.1-.4-.2-.3-.9-.6-1.5-1-1.6a12.59,12.59,0,0,0-2.6-.2c-1.3,0-1.9.1-1.9.4v4.5a4.18,4.18,0,0,0,.3,1.8c.2.4.8.5,2,.5h2a4.65,4.65,0,0,0,2.8-.8,7.79,7.79,0,0,0,1.7-2.6c0-.1.1-.2.3-.2a1.85,1.85,0,0,1,1,.2c-.2.4-.3.7-.5,1.2s-.3.8-.5,1.2a7.86,7.86,0,0,0-.7,2.2h-14.7c-.1-.1-.1-.2-.1-.5a.75.75,0,0,1,.1-.5,3.22,3.22,0,0,0,.8-.1c.7-.1,1.1-.2,1.2-.4a6.93,6.93,0,0,0,.2-2.5v-10a11.4,11.4,0,0,0-.2-2.5c-.2-.3-.9-.4-2-.4a1.3,1.3,0,0,1,0-1,15.48,15.48,0,0,0,2.2.1h2.1l9.8-.2A14.63,14.63,0,0,0,325,376Z"/><path class="cls-1" d="M348,390a61.71,61.71,0,0,0-8.6,0c-.1-.1-.1-.2-.1-.5s0-.4.1-.5a4.64,4.64,0,0,0,1.4-.2c.3-.1.5-.2.5-.3a2.93,2.93,0,0,0,.3-1v-14h-2.8a2.76,2.76,0,0,0-2.1,1.1,4.42,4.42,0,0,0-1.1,2.4.37.37,0,0,1-.3.1,2,2,0,0,1-.9-.2l.8-4.9c.1,0,.1,0,.1-.1h.2a.6.6,0,0,1,.4.1c.2.1.3.1.5.2a7.14,7.14,0,0,0,2.1.2h10a7,7,0,0,0,2.7-.4.76.76,0,0,1,.4-.1.6.6,0,0,1,.4.1l.8,4.9a1.45,1.45,0,0,1-.7.2c-.3,0-.5,0-.5-.1a4.13,4.13,0,0,0-1-2.1,3.07,3.07,0,0,0-2.3-1.3h-2.8v12.5a10,10,0,0,0,.2,2.5c.1.3.8.5,2,.5a.75.75,0,0,1,.1.5C347.75,389.75,348,389.85,348,390Z"/><path class="cls-1" d="M358.75,372.25l4.6-.1c3.1,0,5.1.9,6.1,2.8a4.49,4.49,0,0,1,.5,1.9,2.86,2.86,0,0,1-.4,1.7,4.49,4.49,0,0,1-1.1,1.3,5.14,5.14,0,0,1-2.6,1.4l4.4,5a6.87,6.87,0,0,0,3.2,2.2,6.78,6.78,0,0,0,1.7.4.75.75,0,0,1,.1.5,4.33,4.33,0,0,1-.1.5,34.35,34.35,0,0,1-3.5.1,6.91,6.91,0,0,1-3.3-.6,6.25,6.25,0,0,1-1.7-1.3l-4.9-5.8a.77.77,0,0,0-.3-.2c-.1-.1-.2-.2-.3-.2h-.5v5.6a2,2,0,0,0,.2.9.78.78,0,0,0,.4.4c.2.1.3.1.5.2a3.75,3.75,0,0,0,1.1.1,1.3,1.3,0,0,1,0,1,61.71,61.71,0,0,0-8.6,0c-.1-.1-.1-.2-.1-.5s0-.4.1-.5a4.64,4.64,0,0,0,1.4-.2c.3-.1.5-.2.5-.3a6.93,6.93,0,0,0,.2-2.5v-10a11.4,11.4,0,0,0-.2-2.5c-.2-.3-.9-.4-2-.4a1.3,1.3,0,0,1,0-1,15.48,15.48,0,0,0,2.2.1Zm6.3,2.4a2.9,2.9,0,0,0-2.6-1.4h-1c-.3,0-.5.1-.5.3a4.66,4.66,0,0,0-.2,1.6v5.6h1.4a2.9,2.9,0,0,0,2.3-1,3.87,3.87,0,0,0,1-2.7A4.94,4.94,0,0,0,365.05,374.65Z"/><path class="cls-1" d="M390.25,372.05c1.8.1,3,.2,3.7.2a11.48,11.48,0,0,0,1.9-.1,9.15,9.15,0,0,1,1.7-.1c.1.1.1.2.1.5s0,.4-.1.5a5.94,5.94,0,0,0-1.7.2c-.4.1-.6.3-.6.4a8.88,8.88,0,0,0-.4,3.2v5.2a7.3,7.3,0,0,1-2.5,6,8.45,8.45,0,0,1-5.8,1.9,10.46,10.46,0,0,1-3.6-.6,6.25,6.25,0,0,1-2.7-1.7,7,7,0,0,1-1.4-2.5,12.33,12.33,0,0,1-.4-3.6v-7a2,2,0,0,0-.2-.9.78.78,0,0,0-.4-.4c-.2-.1-.4-.1-.6-.2a4.1,4.1,0,0,0-1.1-.1,1.3,1.3,0,0,1,0-1c1.5.1,3,.2,4.3.2s2.8-.1,4.3-.2c.1.1.1.2.1.5s0,.4-.1.5a5.9,5.9,0,0,0-1.4.2q-.6.15-.6.3a7.25,7.25,0,0,0-.2,2.5v4.9a20.08,20.08,0,0,0,.1,2.5,6.64,6.64,0,0,0,.6,2,5.83,5.83,0,0,0,1.1,1.5,5.67,5.67,0,0,0,1.3.8,4.64,4.64,0,0,0,2.1.4,4.21,4.21,0,0,0,2-.4,3.57,3.57,0,0,0,1.6-1.2,7.67,7.67,0,0,0,1.6-5V377a9.15,9.15,0,0,0-.4-3.3c-.1-.2-.4-.3-.8-.4a7.72,7.72,0,0,0-1.5-.2,1.3,1.3,0,0,1,0-1Z"/><path class="cls-1" d="M405.35,389a3.61,3.61,0,0,0,2-.6,2.26,2.26,0,0,0,.9-2,3.78,3.78,0,0,0-1.7-2.6,7.84,7.84,0,0,0-1.5-1l-1.5-.9-1.5-.9a7.55,7.55,0,0,1-1.4-1.1,4.38,4.38,0,0,1-1.3-3.2,4.33,4.33,0,0,1,2.1-3.5,7.44,7.44,0,0,1,4.4-1.4,19.48,19.48,0,0,1,2.5.2c.8.1,1.6.3,2.5.5a15,15,0,0,1,.2,2.2,17.85,17.85,0,0,0,.2,2.3c-.1.1-.2.2-.3.2-.6,0-.9-.1-.9-.2a7.58,7.58,0,0,0-1.2-2.6,3.47,3.47,0,0,0-2.8-1.5,3.37,3.37,0,0,0-1.7.5,2,2,0,0,0-.8,1.8c0,1.2,1.4,2.6,4.3,4.3l1.5.9a7.55,7.55,0,0,1,1.4,1.1,4.85,4.85,0,0,1,1.5,3.5,4.35,4.35,0,0,1-2.1,3.6,7.75,7.75,0,0,1-4.5,1.4,24.74,24.74,0,0,1-5.8-.7c-.3-1.4-.5-2.5-.6-3.2a7,7,0,0,0-.2-1.3.52.52,0,0,1,.4-.2c.2,0,.4-.1.6-.1s.2.1.3.2a5.53,5.53,0,0,0,1.6,2.7A4.4,4.4,0,0,0,405.35,389Z"/><path class="cls-1" d="M426,390a61.71,61.71,0,0,0-8.6,0c-.1-.1-.1-.2-.1-.5s0-.4.1-.5a4.64,4.64,0,0,0,1.4-.2c.3-.1.5-.2.5-.3a2.93,2.93,0,0,0,.3-1v-14h-2.8a2.76,2.76,0,0,0-2.1,1.1,4.42,4.42,0,0,0-1.1,2.4.37.37,0,0,1-.3.1,2,2,0,0,1-.9-.2l.8-4.9c.1,0,.1,0,.1-.1s.1,0,.2,0a.6.6,0,0,1,.4.1c.2.1.3.1.5.2a7.14,7.14,0,0,0,2.1.2h10a7,7,0,0,0,2.7-.4.76.76,0,0,1,.4-.1.6.6,0,0,1,.4.1l.8,4.9a1.45,1.45,0,0,1-.7.2c-.3,0-.5,0-.5-.1a4.13,4.13,0,0,0-1-2.1,3.07,3.07,0,0,0-2.3-1.3h-2.8v12.5a10,10,0,0,0,.2,2.5c.1.3.8.5,2,.5a.75.75,0,0,1,.1.5C425.75,389.75,426,389.85,426,390Z"/></g><g id="_2022" data-name="2022"><path class="cls-1" d="M143.55,433.35a54.19,54.19,0,0,1-4.9,3.5,36,36,0,0,0-3.3,2.3l-16.3-11.5a.9.9,0,0,1,.1-1q2.25-.3,4.2-.6c1.3-.2,2.6-.4,3.9-.7a60.78,60.78,0,0,0,7.9-2q5.7-2,8.1-5.4a5.32,5.32,0,0,0,.8-4.3,4.93,4.93,0,0,0-2-3.4,6.6,6.6,0,0,0-2.7-1.3,8.58,8.58,0,0,0-2.2-.2,7.93,7.93,0,0,0-1.7.2c-.5.1-.8.2-.9.2a5.92,5.92,0,0,1-.4-.6.9.9,0,0,1,.1-1,10.77,10.77,0,0,1,5.1-1,13,13,0,0,1,7.4,2.3,10.57,10.57,0,0,1,4.3,5.6,7.23,7.23,0,0,1-1.2,6.6c-1.6,2.3-4.4,3.8-8.3,4.5-5.5,1-10.2,1.6-14,2l7.7,5.4a4.66,4.66,0,0,0,5.3.2c.5-.3,1-.5,1.3-.7a.75.75,0,0,1,.9,0A2.36,2.36,0,0,1,143.55,433.35Z"/><path class="cls-1" d="M199.85,452a20.64,20.64,0,0,1,2.2-5.9,14.81,14.81,0,0,1,3.6-4.2,10.66,10.66,0,0,1,16.7,3c1.8,3.2,2.2,7.2,1.2,11.8a17,17,0,0,1-5.7,9.9,10.59,10.59,0,0,1-9.1,2.7,11.13,11.13,0,0,1-7.6-5.6C199.35,460.25,199,456.45,199.85,452Zm6.9,1.6a23.34,23.34,0,0,0-.3,9.4,7,7,0,0,0,1.1,2.9,2.78,2.78,0,0,0,1.9,1.3,2.65,2.65,0,0,0,2.3-.7,10.54,10.54,0,0,0,2.1-2.7,32.94,32.94,0,0,0,3-9.2,30.53,30.53,0,0,0,.7-9.5c-.4-2.4-1.3-3.7-2.8-4-2.4-.5-4.6,1.9-6.4,7.2A29.67,29.67,0,0,0,206.75,453.55Z"/><path class="cls-1" d="M304.25,457.35a57.69,57.69,0,0,1-.8,5.9q-.6,3.6-.6,3.9l-19.6,4a1,1,0,0,1-.7-.8c.8-1.2,1.6-2.4,2.4-3.5s1.5-2.2,2.2-3.3a56.09,56.09,0,0,0,3.9-7.1c1.6-3.7,2.2-6.9,1.6-9.6a5.12,5.12,0,0,0-2.6-3.5,5.51,5.51,0,0,0-3.8-.9,7.41,7.41,0,0,0-2.8,1.1,12.94,12.94,0,0,0-1.7,1.5,9.38,9.38,0,0,0-1,1.4,3.78,3.78,0,0,1-.5.8,1.43,1.43,0,0,1-.7-.2,1,1,0,0,1-.7-.8,11.17,11.17,0,0,1,2.7-4.4,12.22,12.22,0,0,1,6.8-3.8,10.9,10.9,0,0,1,7,.7,7.5,7.5,0,0,1,4,5.4c.6,2.7-.2,5.8-2.4,9.2-3.1,4.7-5.8,8.6-8.2,11.6l9.2-1.9a4.46,4.46,0,0,0,3.7-3.7c.2-.6.3-1.1.4-1.4a.85.85,0,0,1,.7-.7A7.08,7.08,0,0,1,304.25,457.35Z"/><path class="cls-1" d="M377.75,420.65a49.87,49.87,0,0,1,1.6,5.8c.6,2.3.9,3.6,1,3.9L364,441.85a1,1,0,0,1-.9-.4c.3-1.5.5-2.8.8-4.1s.5-2.6.7-3.9a45.88,45.88,0,0,0,.7-8.1c0-4-.7-7.2-2.3-9.5a5,5,0,0,0-3.8-2.2,4.82,4.82,0,0,0-3.8.7,7.44,7.44,0,0,0-2.2,2.1,11.33,11.33,0,0,0-.9,2,5.55,5.55,0,0,0-.3,1.7,5.53,5.53,0,0,1-.1.9c-.1.1-.3.1-.7.1a1,1,0,0,1-.9-.4,9.71,9.71,0,0,1,.8-5.1,12.61,12.61,0,0,1,4.7-6.2,10.92,10.92,0,0,1,6.8-2.1,7.2,7.2,0,0,1,5.8,3.3c1.6,2.3,2.1,5.4,1.5,9.4-.9,5.5-1.9,10.2-2.9,13.9l7.7-5.4a4.67,4.67,0,0,0,2-4.9,10.4,10.4,0,0,1-.2-1.5.81.81,0,0,1,.4-.9C376.85,420.85,377.25,420.75,377.75,420.65Z"/></g></g><g id="face-2" data-name="face"><g id="shape"><path class="cls-2" d="M378,156.83c-.4,7.7-1,15.5-1.8,23.1-1,9-1.6,18-3.4,26.9a136.59,136.59,0,0,1-8.1,25.9c-4.3,9.9-10.1,19.3-11.3,30.2-.1,1-.1,2-.2,3a24.52,24.52,0,0,1-.2,2.7,1.7,1.7,0,0,1-.1.7,4.33,4.33,0,0,1-.1.5.6.6,0,0,1-.1.4,2.35,2.35,0,0,1-.2.8.37.37,0,0,1-.1.3c-.1.2-.1.4-.2.6a3,3,0,0,1-.4.8h0c-.1.2-.2.3-.2.5a10.18,10.18,0,0,1-2.9,3.3c-.2.1-1.4.8-1.5.9-.1.5-.1,1.1-.2,1.6v1.4c.1,3.8,1.4,7.8,2.5,11.2a90.36,90.36,0,0,0,7.6,16.4c11.8,20.3,17.5,15-18.9,28.5a205.23,205.23,0,0,0-22.4,10.2c-15.3,7.9-30.1,16.8-44.6,26-2.8,1.8-5.6,3.5-8.3,5.3-12.9,8.2-25.6,16.7-37.8,25.9-13,9.8-4.3-30.2-8.7-40.5-3.4-7.9-1.7-16.6-3.3-24.8a9.2,9.2,0,0,0-4.6-6.5h0a3,3,0,0,0-.8-.4,3.55,3.55,0,0,0-.9-.4,49.93,49.93,0,0,0-11.4-3.4c-6.7-1.3-13.5-2.1-20.2-2.8-.7-.1-1.5-.1-2.2-.2-22.3-2.2-22.3-14.5-18.1-22,4.1-7.1,2.7-13.9-.7-18.3-.2-.2-.3-.4-.5-.6a6,6,0,0,1-1.5-3.7,13.57,13.57,0,0,1,2.1-7.1c-1-.2-1.7-1.3-2.2-2.4-.3-.6-.5-1.3-.7-1.8-1-3.7.1-7.5.9-11.1.5-2.6,1.8-7.2-1-9a5,5,0,0,0-1.3-.5,6.45,6.45,0,0,0-2-.3c-.6,0-1.3-.1-2-.1h-2.4a13.56,13.56,0,0,1-6.1-1.1,7,7,0,0,1-3-2.9.1.1,0,0,0-.1-.1,7.4,7.4,0,0,1-.9-3.6c.1-4.2,2-8.7,4.4-12.2,3.2-4.7,7.7-8.4,11.1-12.9,3-3.9,6.7-8.4,8-13.2a17.55,17.55,0,0,0,.5-4.6c0-2.9-.5-5.9-.4-8.8a28.24,28.24,0,0,1,2.9-12.8,3,3,0,0,0,.4-.8,31.43,31.43,0,0,0,1.8-4.6c2.9-9.3,3.3-20.8,3.3-20.8-7.2.4-16.4-9.6-18.1-16.5a8.61,8.61,0,0,1-.2-2.7h0a.6.6,0,0,1,.1-.4c0-.2.1-.3.1-.5a3.07,3.07,0,0,1,1-1.5l.9-.6c-1.2-6.4.6-10.8,3.6-12.3a5.34,5.34,0,0,1,2.5-.5,3.59,3.59,0,0,1,.2-1.1,48.51,48.51,0,0,1,1.3-6h0c2.8-9.6,7.8-14.3,11.2-15.3a8.73,8.73,0,0,0-1.1,3.7,14.37,14.37,0,0,0,1.9,7.6,20,20,0,0,1,1.7-7.3,34.56,34.56,0,0,1,3.8-6.7,5.92,5.92,0,0,0-.1,3.2c.1.4.2.8.3,1.3a10.64,10.64,0,0,1,4.7-4.4c.3-.2.6-.3.9-.5.1,0,.2-.1.3-.1a2.51,2.51,0,0,0,.7-.4c.1,0,.1-.1.2-.1a3,3,0,0,1,1-.4c.1,0,.1,0,.2-.1a6.89,6.89,0,0,0,.8-.3.35.35,0,0,0,.2-.1h.1c.7-.3,1.4-.5,2.1-.8l1.1-.3c.8-.2,1.5-.5,2.3-.7l1.1-.3c1.5-.4,2.9-.7,4.1-.9.3-.1.6-.1.9-.2a5,5,0,0,1,1.2-.2c.2,0,.5-.1.7-.1h.2c.2,0,.3,0,.4-.1.8-.1,1.3-.2,1.3-.2,8.2-7.4,21.2-11.2,26.1-11-2.8.5-7.3,5-7.6,5.3a38.19,38.19,0,0,1,24.5-5.5c19.5-10.9,24-.2,24-.2,4.3-5.5,8.1-1.4,8.1-1.4,2.4-5.5,9.3-.5,9.3-.5,11.3-2.8,17.4.3,19.8,2.1a8.37,8.37,0,0,1,1.3,1.2c10.9,0,20,6.2,25.6,11.5a54.84,54.84,0,0,1,6.5,7.1c9.1-3.6,16.2-.9,21.5,3.7,8,7,11.7,18.3,11.7,18.3a10,10,0,0,0-2.4-1.4c-.1-.1-.2-.1-.4-.2-5-2.1-7.4,1.8-7.4,1.8.8-.2,5.6,7,6.1,7.7,3.1,4.1,6.5,8.2,8.9,12.8C378.7,142.13,378.4,149.13,378,156.83Z"/></g><g id="shadow"><path class="cls-3" d="M266.8,217.93a65.41,65.41,0,0,1,14.6-9.7,17.59,17.59,0,0,0-4,8.1,16.75,16.75,0,0,0,1,9.8,20.31,20.31,0,0,0,1.3,2.6l.6.9a8.66,8.66,0,0,0-.1-1.1,25.85,25.85,0,0,1,0-2.8,39.05,39.05,0,0,1,.3-4.5c1-4.8,3.8-11.3,11.7-12.3,12.9-1.5,13.4,15.3,13.4,15.3A22.27,22.27,0,0,0,307,216c2.2,6.7.7,14.3-.5,20.3-1.5,8-10.7,17.1-13.7,19.6-2.5,2-9.2,2.5-14.1,5.1a21.27,21.27,0,0,0-2.7.9,13.34,13.34,0,0,0-2.8,1.6l-2.7,2.1a6.19,6.19,0,0,1-2.7,1.1,3.42,3.42,0,0,1-1.1-.1,1.34,1.34,0,0,1-.7-.6,7.55,7.55,0,0,1-1-3,12.17,12.17,0,0,1-.1-3.3,12.49,12.49,0,0,1,2.1-5.4,13.93,13.93,0,0,1,2.9-3h0a11.47,11.47,0,0,1,2.3-.8,5.07,5.07,0,0,0-1.3.2l.4-.2a4.81,4.81,0,0,0-1.6.4,13.33,13.33,0,0,0-2.3,1,9.13,9.13,0,0,0-3.3,2.8,12,12,0,0,0-2.3,4.5,12.13,12.13,0,0,0-.4,4.3,18.46,18.46,0,0,0,.4,2.3,7.66,7.66,0,0,0,1.1,2.5,5.52,5.52,0,0,0,2.6,1.9,7.25,7.25,0,0,0,2.9.2,8.43,8.43,0,0,0,4.2-2.2c.6-.6,1.1-1.1,1.6-1.7,5.9-2.7,11.5-3.7,17.3-6.7,7.3-3.7,30.3-35,15-52.7C290.9,189.73,266.5,218.23,266.8,217.93Z"/><path class="cls-3" d="M190.9,206.33c-8.2-3.5-12.1-1.4-16.8-5.8s-6.9-5.1-12.1-10.7c-5.1-5.4-1.8-14-1.6-14.7a5.94,5.94,0,0,1-.4.8,28.24,28.24,0,0,0-2.9,12.8c-.1,2.9.4,5.9.4,8.8.3-2.3,1.1-4.9,3-4.5,3.4.7,11.4,8.9,12.1,11.7s-1.7,7.8-.8,11.9,3.2,5.7-1.9,8.6-4.5,6.2-2.9,16.2a75.34,75.34,0,0,0,4.7,16.9,113,113,0,0,1-2.3-19.4c-.4-11.5,15.4-24.7,15.4-24.7s-1.4-.2-6.3,3.2-5.7-1.8-4.6-5C175.2,209.43,186.3,205.93,190.9,206.33Zm-16.9-2.5h.1a2.2,2.2,0,0,1,1.3.4c.4.3.7.7,1.1,1a5.83,5.83,0,0,0,2.6.6c.2,0,.9.1,1,.4,0,.1-.1.3-.2.3a.9.9,0,0,1-.5.1,16.45,16.45,0,0,0-3.1.4,2.92,2.92,0,0,1-.9.2.67.67,0,0,1-.7-.4v-.7a1.85,1.85,0,0,0-.2-.7c-.1-.5-.3-.9-.4-1.4C174,203.93,174,203.93,174,203.83Z"/><path class="cls-3" d="M158,274a24.52,24.52,0,0,1,2.7-.2,27.19,27.19,0,0,0,3.8-1.1,11.45,11.45,0,0,1,5.8-.3c2.1.4,4.7,1.7,5.6,3.7a22.14,22.14,0,0,1,1.4,5.2,58.39,58.39,0,0,1,.8,9.3c4.5-23.9-8.9-27.6-8.9-27.6a11.67,11.67,0,0,1,5.5,8.7s-3.4-2.2-11.7-1-7.8-2-6.4-9c1-5.3-2-10.3-3.6-12.4,1.8.6,3.3,1.4,5.4,2,5.4,1.6,8.1-3.4,6.1-9s-5.7-6.1-5.7-6.1c6.9,5.3,3.9,13,1.7,13.1s-6.7-4.9-16.5-2.8c-6,1.2-8.5-.6-9.6-2.3a7.6,7.6,0,0,0,3,2.9,13.81,13.81,0,0,0,6.1,1.1h2.4a35.82,35.82,0,0,1,4,.4,5,5,0,0,1,1.3.5c2.9,1.7,1.6,6.4,1,9-.7,3.6-1.9,7.5-.9,11.1a13.36,13.36,0,0,1,.7,1.8,4,4,0,0,0,2.2,2.4,13.57,13.57,0,0,0-2.1,7.1,6,6,0,0,0,1.5,3.7,2.65,2.65,0,0,1,.5.6l-.1-.4a2.92,2.92,0,0,1-.2-.9,1.17,1.17,0,0,1,1-.9,6.55,6.55,0,0,1,1.4,0c2.4,0,4.4-1.6,6.5-2.9a21.61,21.61,0,0,1,4.9-2.2,9.29,9.29,0,0,1,2.9-.5,3.78,3.78,0,0,1,2.7,1c0-1.5-1.3-2-2.7-2a16.46,16.46,0,0,0-4.8,1c-2.6.9-5,2.1-7.6,3.1a8,8,0,0,1-3.4.7,1.42,1.42,0,0,1-.6-.2,1.14,1.14,0,0,1-.3-.8,5.56,5.56,0,0,1,.9-3.6A5.71,5.71,0,0,1,158,274Z"/><path class="cls-3" d="M222.1,394.93c-1.2-7.1,7.8-9,8.1-17.8s9.1-14.1,9.1-14.1c-8.6,2.8-11.5,14.7-11.5,14.7s-8.5-11.2-9.6-24-4.3-19.1-9.4-21.4a9,9,0,0,1,4.6,6.5c1.6,8.2,0,17,3.3,24.8,4.4,10.3-4.3,50.3,8.7,40.5,12.2-9.2,24.9-17.6,37.8-25.9-7.5,3.6-15.2,7.5-19.8,10.1C232.2,394.53,223.3,402,222.1,394.93Z"/><path class="cls-3" d="M195,323.53a133.66,133.66,0,0,1-19.6,1.8c6.8.7,13.6,1.5,20.2,2.8a49.93,49.93,0,0,1,11.4,3.4c-3.4-2-2.7-4.4,5.8-6.2,9.7-2,17.8-1.5,23.5-9.3s20.3-22.2,24.7-26.4.9-16.4.9-16.4C261,277.23,246.1,315.53,195,323.53Z"/><path class="cls-3" d="M157.3,137.63a33.52,33.52,0,0,0,3.2,4.2,17.11,17.11,0,0,0,5.2,4.2,15.9,15.9,0,0,0,6.5,1.4,27.28,27.28,0,0,0,5.3-.5,28.74,28.74,0,0,0,3.5-.9,12.55,12.55,0,0,1,1.2-.4,11.62,11.62,0,0,0-1.3.1,28.69,28.69,0,0,1-3.5.2c-2.9.1-7.1.1-10.9-1.7a19.72,19.72,0,0,1-4.9-3.5c-1.4-1.3-2.6-2.6-3.7-3.7s-1.8-2-2.3-2.6a8.73,8.73,0,0,0-.8-1s.2.4.5,1.2A19.17,19.17,0,0,1,157.3,137.63Z"/><path class="cls-3" d="M162,134.43a5.17,5.17,0,0,1-.6-.7,7.86,7.86,0,0,0,.4.9,18,18,0,0,0,1.4,2.2,15.32,15.32,0,0,0,15.6,5.6,14.82,14.82,0,0,0,2.5-.8,4.11,4.11,0,0,0,.9-.4,6.17,6.17,0,0,0-.9.1,17.77,17.77,0,0,1-2.5.1,22.73,22.73,0,0,1-7.9-1.4,23,23,0,0,1-7-4A6.36,6.36,0,0,1,162,134.43Z"/><path class="cls-3" d="M164.3,132.43c.4.4,1,1,1.8,1.7a20.6,20.6,0,0,0,7.3,4,21.23,21.23,0,0,0,8.2,1c1.1-.1,1.9-.2,2.5-.3a6.59,6.59,0,0,0,.9-.2,6.17,6.17,0,0,1-.9-.1q-.9-.15-2.4-.3a56.68,56.68,0,0,1-7.7-1.9,63.18,63.18,0,0,1-7.3-3,22.06,22.06,0,0,0-2.2-1.1,4.56,4.56,0,0,0-.8-.4Z"/><path class="cls-3" d="M193,139.23q2.1-.15,3.3-.3a11.31,11.31,0,0,0,1.2-.2,10.9,10.9,0,0,1-1.2-.1c-.8-.1-1.9-.2-3.2-.4a65,65,0,0,1-7.8-1.5,7.31,7.31,0,0,0,1.3-.1s-.8-.3-1.9-.8-2.7-1.3-4.4-2.1-3.2-1.7-4.3-2.3-1.8-1.1-1.8-1.1a6.38,6.38,0,0,0,1.2,1.8,19.2,19.2,0,0,0,1.4,1.5,34.49,34.49,0,0,1-3.4-1.9,25.53,25.53,0,0,1-2.6-1.9c-.6-.5-.9-.8-.9-.8a5.86,5.86,0,0,0,.7,1,21,21,0,0,0,2.2,2.4,25.08,25.08,0,0,0,9.4,5.5A30,30,0,0,0,193,139.23Z"/><path class="cls-3" d="M199.4,134.63a6.73,6.73,0,0,1-1-.1c-.7-.1-1.6-.2-2.7-.4a45.54,45.54,0,0,1-4.9-1.3c.3,0,.6.1.8.1h1.9a3.2,3.2,0,0,1,.7-.1,3.22,3.22,0,0,0-.6-.2,12,12,0,0,1-1.7-.6,24.14,24.14,0,0,1-5-2.6,40.13,40.13,0,0,1-4.5-3.4,15.83,15.83,0,0,1-1.3-1.3l-.5-.5a3.22,3.22,0,0,1,.2.6,8,8,0,0,0,.8,1.7,10.35,10.35,0,0,0,1.9,2.5,26.76,26.76,0,0,1-3.4-2.8,14.54,14.54,0,0,1-1.8-2.1c-.4-.5-.6-.8-.6-.8a5.45,5.45,0,0,0,.4,1c.3.6.7,1.5,1.3,2.5a17.73,17.73,0,0,0,7.1,6.2,20.44,20.44,0,0,0,9.2,2,18,18,0,0,0,2.8-.2A6.59,6.59,0,0,0,199.4,134.63Z"/><path class="cls-3" d="M202.3,128.23a6.59,6.59,0,0,0,.9-.2,3.14,3.14,0,0,0-.9-.1c-.6-.1-1.4-.2-2.5-.4-.4-.1-.9-.2-1.4-.3h.3a2.8,2.8,0,0,1,.6-.1s-.8-.3-2.1-.7c-.3-.1-.7-.3-1-.4a5.74,5.74,0,0,0,1.2.1h.6a5.2,5.2,0,0,1-.5-.3c-.3-.2-.8-.4-1.4-.7a40.34,40.34,0,0,1-4.1-2.7,32.85,32.85,0,0,1-3.7-3.2l-1.1-1.1-.4-.4a1.45,1.45,0,0,1,.1.6,7.72,7.72,0,0,0,.6,1.5,9.16,9.16,0,0,0,2.3,3.2,9.88,9.88,0,0,1-1.5-.9c-1.1-.7-1.9-1.1-1.9-1.1a5.2,5.2,0,0,0,.3.5c.2.3.5.8.9,1.3.3.3.6.7.9,1a25.1,25.1,0,0,1-3.4-2.2,15.57,15.57,0,0,1-1.8-1.7,5.17,5.17,0,0,1-.6-.7,4.56,4.56,0,0,0,.4.8,18,18,0,0,0,1.4,2.2,16,16,0,0,0,6.9,5,21.51,21.51,0,0,0,8.4,1.3C200.8,128.43,201.7,128.33,202.3,128.23Z"/><path class="cls-3" d="M191.7,118.43l.8.8a7.64,7.64,0,0,0,.9.9,15,15,0,0,0,1.3,1.1,22,22,0,0,0,3.9,2.5,26.35,26.35,0,0,0,5.4,2,23.05,23.05,0,0,0,5.7.6,20.21,20.21,0,0,0,4.6-.5c.6-.1,1.2-.3,1.7-.4s.9-.3,1.3-.4a8.17,8.17,0,0,1,1.1-.4,8.66,8.66,0,0,0-1.1.1c-.4,0-.8.1-1.3.1s-1.1.1-1.7.1a34.67,34.67,0,0,1-4.4-.2c-1.3-.1-2.6-.4-4.1-.6h-.1c-.3-.1-.8-.3-1.4-.5a34.72,34.72,0,0,1-4.1-1.9,36.71,36.71,0,0,1-3.8-2.4c-.5-.4-.9-.7-1.1-.9a3,3,0,0,1-.4-.3,4.2,4.2,0,0,1,.2.5,4.21,4.21,0,0,0,.7,1.3,7.63,7.63,0,0,0,.8,1.1l-1.2-.6c-.6-.3-1.1-.6-1.5-.8a10.54,10.54,0,0,1-1.1-.7A6.07,6.07,0,0,1,191.7,118.43Z"/><path class="cls-3" d="M202,117c-.5-.3-.8-.5-.8-.5a5.17,5.17,0,0,0,.6.7,17.34,17.34,0,0,0,1.9,1.8,23.58,23.58,0,0,0,3.3,2.2,20.86,20.86,0,0,0,4.6,1.7,16.78,16.78,0,0,0,4.9.4,21.16,21.16,0,0,0,4-.6,25.45,25.45,0,0,0,2.5-.8,7.86,7.86,0,0,1,.9-.4,8.15,8.15,0,0,0-1,.1,16.12,16.12,0,0,1-2.6.2c-1.1,0-2.4,0-3.8-.1a41.4,41.4,0,0,1-4.5-.7,38.75,38.75,0,0,1-4.4-1.3c-1.3-.5-2.5-1-3.5-1.5A13,13,0,0,1,202,117Z"/><path class="cls-3" d="M208.3,114.23a5.17,5.17,0,0,1-.6-.7,7.86,7.86,0,0,0,.4.9,5.61,5.61,0,0,0,1.9,1.9,29.59,29.59,0,0,0,7.9,3.4,21.27,21.27,0,0,0,8.6.3,9.17,9.17,0,0,0,2.5-.8,7.86,7.86,0,0,1,.9-.4,6.17,6.17,0,0,0-.9.1,17.77,17.77,0,0,1-2.5.1,33,33,0,0,1-8-1.2c-3.1-.8-5.9-1.7-7.9-2.4A5.88,5.88,0,0,1,208.3,114.23Z"/><path class="cls-3" d="M214.9,111a2.77,2.77,0,0,0,.4.7,6.61,6.61,0,0,0,1.7,1.4,24.66,24.66,0,0,0,6.6,2.5,25.75,25.75,0,0,0,7,.5c1.8-.2,2.9-.4,2.9-.4l-2.8-.5c-1.7-.3-4.1-.8-6.6-1.4s-4.9-1.1-6.6-1.6A6.35,6.35,0,0,1,214.9,111Z"/><path class="cls-3" d="M242.9,113.43a6.17,6.17,0,0,1-.9-.1c-.6-.1-1.4-.2-2.4-.4a75.26,75.26,0,0,1-7.7-1.7c-3-.8-5.6-1.7-7.5-2.4-1-.4-1.7-.7-2.3-.9s-.8-.3-.8-.3.2.2.7.6a14.55,14.55,0,0,0,2,1.5,23.26,23.26,0,0,0,7.4,3.4,24.77,24.77,0,0,0,8.1.8c1-.1,1.9-.2,2.5-.3A3.23,3.23,0,0,1,242.9,113.43Z"/><path class="cls-3" d="M229.2,103.83l-.6-.3a2.22,2.22,0,0,0,.4.5c.3.3.7.8,1.2,1.4a13.2,13.2,0,0,0,5.3,3,20,20,0,0,0,5.9.8c1.5,0,2.5-.1,2.5-.1a19.27,19.27,0,0,0-2.3-.8c-1.4-.5-3.4-1-5.5-1.7a38.8,38.8,0,0,1-5.3-1.9C230.1,104.33,229.6,104,229.2,103.83Z"/><path class="cls-3" d="M236.4,102.73c1.3.6,3,1.4,5,2.2l-2-.5a14.75,14.75,0,0,0,2.2,1.5,19,19,0,0,0,5.1,2.2c.1,0,.3.1.4.1a2.44,2.44,0,0,1-.7-.1,14.3,14.3,0,0,0,2.4,1.2c.6.2,1.2.5,2,.7-1.5.1-2.4.1-2.4.1a19.27,19.27,0,0,0,2.3.8,19.86,19.86,0,0,0,5.9.7,22.17,22.17,0,0,0,5.9-1.1,19.36,19.36,0,0,0,2.3-.9h-2.9a11.56,11.56,0,0,0,1.9-.8h-2.6c-1.4,0-3.3,0-5.4-.1.6-.1,1-.2,1-.2A19.86,19.86,0,0,0,251,107h0a13.89,13.89,0,0,0-3.5-3.9,15.44,15.44,0,0,0-5.9-2.6c-.8-.1-1.5-.2-1.9-.2H239l.6.3c.4.2,1,.5,1.7.8a36.63,36.63,0,0,1,5.1,3.2,4.35,4.35,0,0,1,.7.6c-.1,0-.2-.1-.3-.1-1-.5-2.2-1.1-3.5-1.6a32.26,32.26,0,0,0-6.7-1.8c-1.7-.3-2.9-.4-2.9-.4A21.88,21.88,0,0,0,236.4,102.73Z"/><path class="cls-3" d="M244,94.33c-.4-.5-.6-.8-.6-.8l.3.9a12.31,12.31,0,0,0,1.5,2.4,26.79,26.79,0,0,0,7,5.7,26.13,26.13,0,0,0,8.5,3.1c1.1.2,2.1.3,2.7.4a4.54,4.54,0,0,1,1,.1,7.86,7.86,0,0,1-.9-.4c-.6-.2-1.5-.6-2.5-1a70.32,70.32,0,0,1-7.8-3.9,62.66,62.66,0,0,1-7.3-4.7A11.19,11.19,0,0,1,244,94.33Z"/><path class="cls-3" d="M257.8,98.13c-2.1-.6-3.4-.9-3.4-.9a26.84,26.84,0,0,0,3,1.8,40.13,40.13,0,0,0,16.1,4.7,23.2,23.2,0,0,0,3.5.1l-3.3-1c-2.1-.6-4.9-1.5-8-2.4S259.9,98.73,257.8,98.13Z"/><path class="cls-3" d="M272.2,96.33s.7.8,2,2a28.48,28.48,0,0,0,5.6,3.7,26.84,26.84,0,0,0,6.4,2,17.84,17.84,0,0,0,2.8.3s-1-.5-2.5-1.2-3.6-1.7-5.9-2.8-4.4-2-5.9-2.8S272.2,96.33,272.2,96.33Z"/><path class="cls-3" d="M280.3,97.43a49.33,49.33,0,0,0,4.3,3.1c1.7,1.1,3.4,2,4.6,2.7a14.63,14.63,0,0,0,2,1s-.5-.7-1.4-1.8a19,19,0,0,0-4.1-3.5,24.1,24.1,0,0,0-4.9-2.4c-1.3-.4-2.2-.6-2.2-.6S279.2,96.53,280.3,97.43Z"/><path class="cls-3" d="M295,105.13a14.44,14.44,0,0,0-.7-1.8,14.85,14.85,0,0,0-2.6-3.7A16.91,16.91,0,0,0,288,97a14.44,14.44,0,0,0-1.8-.7s.5.6,1.2,1.4,1.8,2,3,3.2a36.46,36.46,0,0,0,3.2,2.9C294.4,104.63,295,105.13,295,105.13Z"/><path class="cls-3" d="M297.4,105.13a5.53,5.53,0,0,0,.2-1.6,7,7,0,0,0-1.1-3.6,6.44,6.44,0,0,0-2.8-2.5,6.91,6.91,0,0,0-1.5-.5s.3.5.8,1.3,1.1,1.8,1.8,2.8,1.3,2.1,1.8,2.8S297.4,105.13,297.4,105.13Z"/><path class="cls-3" d="M203.2,150a12.45,12.45,0,0,0,1.5,1.9,22.37,22.37,0,0,0,3.6,3.1,8.31,8.31,0,0,1,1.7,1.2,10.1,10.1,0,0,1,1.3,1.6,12.08,12.08,0,0,0,2.7,2.8,7.19,7.19,0,0,0,2.4,1,6.17,6.17,0,0,0,.9.1,4.56,4.56,0,0,1-.8-.4,10.15,10.15,0,0,1-1.9-1.5,14.51,14.51,0,0,1-2-2.9,13.6,13.6,0,0,0-1.2-1.7c1.3.4,2.2.6,2.2.6l-2.8-1.8a28.8,28.8,0,0,1-5.9-4.7,11.22,11.22,0,0,1-2.1-3.4,13.94,13.94,0,0,1-.7-3.3,18.92,18.92,0,0,1,0-2.4,6.17,6.17,0,0,0,.1-.9,4.77,4.77,0,0,0-.4.8,12.06,12.06,0,0,0-.7,2.4,9.87,9.87,0,0,0,.1,3.8A11.12,11.12,0,0,0,203.2,150Z"/><path class="cls-3" d="M209.4,160a17.41,17.41,0,0,0,2.6,3.2,25.79,25.79,0,0,0,4,2.9,43.49,43.49,0,0,1,7.1,4.7,8.92,8.92,0,0,1,1.7,1.9,3,3,0,0,1,.5.8s-.1-.3-.3-1a8.27,8.27,0,0,0-1.3-2.4,12.67,12.67,0,0,0-2.8-2.9,40.44,40.44,0,0,0-4-2.8c-2.9-1.7-5.4-3.3-6.8-5a10.51,10.51,0,0,1-1.5-2.1,7.86,7.86,0,0,1-.4-.9,8.15,8.15,0,0,0,.1,1A10.47,10.47,0,0,0,209.4,160Z"/><path class="cls-3" d="M233.1,184.43a25.25,25.25,0,0,1,2.2,2,3.81,3.81,0,0,0,.5.6l.2.2a.77.77,0,0,0-.1-.3l-.4-.8a12.28,12.28,0,0,0-1.8-2.6,12.93,12.93,0,0,0-3.8-2.8,16.52,16.52,0,0,0-5.6-1.5c-2-.2-3.8-.3-5.4-.6a10.82,10.82,0,0,1-3.9-1.8,15.43,15.43,0,0,1-2.2-2c-.5-.6-.7-.9-.7-.9a8.17,8.17,0,0,0,.4,1.1,10.2,10.2,0,0,0,1.8,2.6,9.93,9.93,0,0,0,4,2.6,25.22,25.22,0,0,0,5.6,1,25.26,25.26,0,0,1,5.2,1A17.85,17.85,0,0,1,233.1,184.43Z"/><path class="cls-3" d="M213,182.53a11,11,0,0,0,4.4,3.1,12.16,12.16,0,0,0,5.4.7,15.69,15.69,0,0,0,1.6-.3,3.22,3.22,0,0,0,.6-.2,2.8,2.8,0,0,1-.6-.1q-.6-.15-1.5-.3a35.17,35.17,0,0,1-4.7-1.5,32.23,32.23,0,0,1-4.5-2.1c-.6-.3-1-.6-1.4-.8a5.2,5.2,0,0,0-.5-.3,5.2,5.2,0,0,0,.3.5A3.78,3.78,0,0,0,213,182.53Z"/><path class="cls-3" d="M212.6,134.13a2.22,2.22,0,0,0-.4.7,8.84,8.84,0,0,0-.7,2,9.87,9.87,0,0,0,1.3,6.8,13.8,13.8,0,0,0,4.9,4.8c1.5.9,2.4,1.4,2.4,1.4s-.7-.8-1.8-2.1a33.74,33.74,0,0,1-3.8-5.1,14.33,14.33,0,0,1-2-5.8,6.62,6.62,0,0,1,0-2A3.2,3.2,0,0,0,212.6,134.13Z"/><path class="cls-3" d="M227.2,148.43a10,10,0,0,0,2,.4h.7s-.2-.1-.7-.3a12.23,12.23,0,0,1-5.6-5.3,28.64,28.64,0,0,1-2.5-5.6,12.78,12.78,0,0,1-.6-2.6,3.13,3.13,0,0,0-.2.7,10.31,10.31,0,0,0-.2,2,13.59,13.59,0,0,0,1.8,6.4A9.88,9.88,0,0,0,227.2,148.43Z"/><path class="cls-3" d="M228.6,161.23a10.36,10.36,0,0,1,2.8,4.4,24,24,0,0,1,.3,2.8,13.56,13.56,0,0,0,.6,2.9,11,11,0,0,0,2.8,4.2,8.34,8.34,0,0,0,2.7,1.8,1.6,1.6,0,0,0,.8.3.77.77,0,0,0,.3.1,1.24,1.24,0,0,0-.3-.2c-.2-.1-.4-.3-.7-.5a15,15,0,0,1-2.2-2.2,10.64,10.64,0,0,1-1.9-4,17.82,17.82,0,0,1-.4-2.6,12.7,12.7,0,0,0-.3-3.2,8.45,8.45,0,0,0-1.5-3,20.32,20.32,0,0,0-2-2.1,25.53,25.53,0,0,1-3.3-3.2,7.75,7.75,0,0,1-1.4-2.7,3.44,3.44,0,0,1-.1-.9v-.3a.77.77,0,0,1-.1.3c0,.2-.1.5-.1.9a6.79,6.79,0,0,0,.9,3.2A22.68,22.68,0,0,0,228.6,161.23Z"/><path class="cls-3" d="M240.6,171.43a1.76,1.76,0,0,0,.8.3,5.17,5.17,0,0,1-.7-.6,8.45,8.45,0,0,1-1.4-1.9,13.33,13.33,0,0,1-1.2-3.2c-.3-1.3-.6-2.7-1.1-4.3a12.35,12.35,0,0,0-2.2-4.1,12.61,12.61,0,0,0-2.8-2.5c-.9-.6-1.6-1.1-2.1-1.4s-.8-.5-.8-.5.9,1,2.2,2.5a22.66,22.66,0,0,1,2.1,2.8,16.72,16.72,0,0,1,1.7,3.8c.5,1.4.9,2.9,1.4,4.2a13,13,0,0,0,1.9,3.3A21.56,21.56,0,0,0,240.6,171.43Z"/><path class="cls-3" d="M240.5,213c-.3,1-.5,1.5-.5,1.5a14.22,14.22,0,0,0,.7-1.4c.5-.9,1.1-2.2,1.8-3.8a41.2,41.2,0,0,0,2.1-6c.1-.3.1-.6.2-.9.1-.1.1-.3.2-.6a16.37,16.37,0,0,0,.7-2.5,24,24,0,0,0,.2-8.6,22.91,22.91,0,0,0-3-8.1c-.6-.9-1.1-1.7-1.5-2.2s-.6-.7-.6-.7l.3.9q.3.9.9,2.4c.3,1,.7,2.1,1,3.4a15.67,15.67,0,0,0-3.1-3.9,21.71,21.71,0,0,0-3.5-2.5,13.84,13.84,0,0,0-1.4-.7,12.24,12.24,0,0,0,1.2,1,19.43,19.43,0,0,1,3,2.9,18.25,18.25,0,0,1,3,5.2,23,23,0,0,1,1.4,7.2,42.07,42.07,0,0,1-2,13.4C241.2,210.73,240.8,212,240.5,213Z"/><path class="cls-3" d="M205.6,136.73a2.23,2.23,0,0,1,.3-.5,2.22,2.22,0,0,0-.5.4,8.12,8.12,0,0,0-1.1,1.3,9,9,0,0,0-1.3,5.5,8.7,8.7,0,0,0,2.3,5.2,1.87,1.87,0,0,0,.7.6,11.25,11.25,0,0,0,2.6,2.7,14.68,14.68,0,0,0,1.7.9,1.55,1.55,0,0,0,.6.2l-.5-.5c-.3-.3-.7-.7-1.2-1.3a14.33,14.33,0,0,1-2.5-4.8,13.25,13.25,0,0,1-.5-5.4c.1-.7.2-1.3.3-1.7a3.22,3.22,0,0,1,.2-.6,3.61,3.61,0,0,0-.4.5,7.58,7.58,0,0,0-.9,1.6,5.64,5.64,0,0,0-.4,1.2,19.75,19.75,0,0,1,.3-3.7A4.46,4.46,0,0,1,205.6,136.73Z"/><path class="cls-3" d="M262.5,192.93v.8a6,6,0,0,1,.3-.7,8.08,8.08,0,0,0,.5-2.1,16.29,16.29,0,0,0,.1-3.2,11.3,11.3,0,0,0-1-3.8,16,16,0,0,0-2-3.4,15.29,15.29,0,0,0-2.3-2.2,14.6,14.6,0,0,0-1.8-1.1,6,6,0,0,0-.7-.3,6.12,6.12,0,0,1,.5.6,14.25,14.25,0,0,1,1.3,1.6,35,35,0,0,1,2.6,4.2,10.88,10.88,0,0,0-4.8-4.4,7.14,7.14,0,0,0-1.8-.7c-.4-.1-.7-.2-.7-.2a2.48,2.48,0,0,0,.6.4,13,13,0,0,1,1.4,1.2,18.38,18.38,0,0,1,3.6,4.6,18.61,18.61,0,0,1,2.1,5.4,8.21,8.21,0,0,1,.3,1.8,3.2,3.2,0,0,1,.1.7,3.13,3.13,0,0,0,.2-.7,7.52,7.52,0,0,0,.3-1.9,11,11,0,0,0-.4-3.9,30.12,30.12,0,0,1,1.4,5.3A7.88,7.88,0,0,1,262.5,192.93Z"/><path class="cls-3" d="M250.7,199.83a5.2,5.2,0,0,1,.3-.5,5.71,5.71,0,0,0,.6-1.5,9.64,9.64,0,0,0,.4-5.2,14,14,0,0,0-1.8-4.9,10.82,10.82,0,0,0-1.3-1.7s.1.8.4,2.1.6,3,.8,4.8a31.32,31.32,0,0,1,.5,4.8v1.5A2.8,2.8,0,0,1,250.7,199.83Z"/><path class="cls-3" d="M243.1,152.33a17.81,17.81,0,0,0,6.7,5.8c3,1.6,5.8,2.8,7.7,3.9,1,.5,1.7,1,2.2,1.3s.8.6.8.6-.2-.3-.6-.8a11.17,11.17,0,0,0-1.9-1.9,44.16,44.16,0,0,0-7.3-4.7,29.3,29.3,0,0,1-6.9-4.8,20.41,20.41,0,0,1-1.7-2c-.3-.5-.5-.8-.5-.8l.3.9A18,18,0,0,0,243.1,152.33Z"/><path class="cls-3" d="M255.9,166c1.9.6,3.7.9,5.1,1.5a15.89,15.89,0,0,1,3.6,2.3,25.25,25.25,0,0,1,2.2,2l.8.8s-.2-.3-.6-1a18,18,0,0,0-1.8-2.5,13.35,13.35,0,0,0-3.5-3,25,25,0,0,0-5.2-1.9,29.2,29.2,0,0,1-8.5-4.3c-1-.8-1.8-1.4-2.3-1.9l-.8-.8s.2.3.6,1a14.94,14.94,0,0,0,1.9,2.4A18.63,18.63,0,0,0,255.9,166Z"/><path class="cls-3" d="M267.2,178.53a2.48,2.48,0,0,0,.4.6,3.2,3.2,0,0,0-.1-.7,9.25,9.25,0,0,0-.4-1.9,13.62,13.62,0,0,0-3.3-5.5,13.89,13.89,0,0,0-5.6-3.3c-.8-.2-1.5-.3-1.9-.4a1.73,1.73,0,0,1-.7-.1l.6.3a7.89,7.89,0,0,1,1.6,1,23.46,23.46,0,0,1,4.6,3.8,27.71,27.71,0,0,1,3.8,4.6C266.7,177.63,267,178.23,267.2,178.53Z"/><path class="cls-3" d="M274.8,167.53a6.41,6.41,0,0,1,.9.7s-.2-.3-.7-.9a15.18,15.18,0,0,0-2.2-2.1,35.4,35.4,0,0,0-8.8-4.8,35.33,35.33,0,0,1-8.4-4.7,20.58,20.58,0,0,1-2.1-2.1c-.4-.5-.7-.9-.7-.9a5.45,5.45,0,0,0,.4,1,9.4,9.4,0,0,0,1.7,2.6c1.6,2.1,4.7,4.2,8.3,5.8s6.8,2.7,9,3.9A16.51,16.51,0,0,1,274.8,167.53Z"/><path class="cls-3" d="M284.4,168.53a5.86,5.86,0,0,0-.7-1,21,21,0,0,0-2.2-2.4,24.9,24.9,0,0,0-9.2-5.5c-2-.6-3.9-1-5.5-1.6a16.41,16.41,0,0,1-6.4-4.2c-.6-.5-.9-.8-.9-.8a5.86,5.86,0,0,0,.7,1c.4.6,1.1,1.5,2,2.6a12.92,12.92,0,0,0,4,2.9,40.81,40.81,0,0,0,5.6,1.9,35.81,35.81,0,0,1,9.2,4.5c1.1.8,2,1.4,2.6,1.9S284.4,168.53,284.4,168.53Z"/><path class="cls-3" d="M278.6,158.93a24.57,24.57,0,0,0-5.9-4,28.48,28.48,0,0,0-2.7-1.2s.9.8,2.2,1.9,3.2,2.8,5.1,4.6,3.8,3.4,5.1,4.7,2.1,2,2.1,2a18.43,18.43,0,0,0-1.4-2.6A27.75,27.75,0,0,0,278.6,158.93Z"/><path class="cls-3" d="M284.5,163.63a16.41,16.41,0,0,0-2.4-5.1,22.3,22.3,0,0,0-3.9-4.1,14.71,14.71,0,0,0-2-1.3s.5.8,1.3,1.9,1.9,2.8,3,4.5,2.3,3.3,3.1,4.5,1.3,1.9,1.3,1.9A9.28,9.28,0,0,0,284.5,163.63Z"/><path class="cls-3" d="M286,164.63a1.09,1.09,0,0,0,.2-.4,3.73,3.73,0,0,0,.2-1.2,6.56,6.56,0,0,0-1.1-3.8,8.93,8.93,0,0,0-2.6-2.8,5.53,5.53,0,0,0-1.4-.8l.7,1.4a35,35,0,0,0,1.7,3.2c.7,1.2,1.4,2.2,1.8,3A5.5,5.5,0,0,1,286,164.63Z"/><path class="cls-3" d="M291.3,196.43a1.09,1.09,0,0,1-.2.4l.4-.2a3.32,3.32,0,0,0,1.1-.8,7.46,7.46,0,0,0,2.4-3.7,8.14,8.14,0,0,0,0-4.4c-.1-.2-.1-.4-.2-.6a10.11,10.11,0,0,0-.2-3.1,9.3,9.3,0,0,0-.6-1.8l-.3-.6v.7a12.83,12.83,0,0,1-.1,1.8,18.77,18.77,0,0,1-1.3,5.5,21.88,21.88,0,0,1-2.8,4.9c-.5.6-.9,1.1-1.2,1.4l-.5.5.6-.3a14.56,14.56,0,0,0,1.6-.9,9.87,9.87,0,0,0,2.7-2.7,20.48,20.48,0,0,1-1.1,2.8A1.43,1.43,0,0,1,291.3,196.43Z"/><path class="cls-3" d="M281.5,185.83a5.2,5.2,0,0,1,.3-.5,9.12,9.12,0,0,0,.6-1.6,11.75,11.75,0,0,0,.2-5.7,11.63,11.63,0,0,0-2.6-5.1,13.1,13.1,0,0,0-1.3-1.2,3.61,3.61,0,0,1-.5-.4l.3.6c.2.3.4.9.7,1.5a31.34,31.34,0,0,1,1.6,4.9,43.26,43.26,0,0,1,.7,5.1v2.4Z"/><path class="cls-3" d="M235.3,124.73a4.53,4.53,0,0,0,.1-.8,4.77,4.77,0,0,0-.4.8,9.77,9.77,0,0,0-.9,2.2,15.43,15.43,0,0,0-.7,3.5,22,22,0,0,0,.1,4.4,18.7,18.7,0,0,0,1.3,4.2,19.76,19.76,0,0,0,1.8,3,16.35,16.35,0,0,0,1.6,1.8l.6.6a4.56,4.56,0,0,0-.4-.8,21.72,21.72,0,0,1-1-2.1,30.84,30.84,0,0,1-2.1-7,32.21,32.21,0,0,1-.4-7.3C235.1,126,235.2,125.33,235.3,124.73Z"/><path class="cls-3" d="M240,121.33a1.55,1.55,0,0,0,.2-.6,2.22,2.22,0,0,0-.5.4,14.25,14.25,0,0,0-1.1,1.2,10,10,0,0,0-1.9,5.2,15.78,15.78,0,0,0,.8,5.4c.5,1.3.9,2.1.9,2.1s0-.9.1-2.2,0-3.2.1-5.1a20,20,0,0,1,.8-4.9A5.71,5.71,0,0,1,240,121.33Z"/><path class="cls-3" d="M242.2,125.23a23.25,23.25,0,0,0,.1-3.6,3.64,3.64,0,0,1,.3-1.5.62.62,0,0,0-.4.2,2.9,2.9,0,0,0-.8,1,9.5,9.5,0,0,0-1.1,3.8,11.66,11.66,0,0,0,.3,3.9c.3,1,.5,1.5.5,1.5a14.69,14.69,0,0,0,.4-1.6A17.41,17.41,0,0,0,242.2,125.23Z"/><path class="cls-3" d="M248.5,119.13a13,13,0,0,0-5,7.8,12.63,12.63,0,0,0,1.6,9.2,8.82,8.82,0,0,0,1.7,2.2l.7.7a9.24,9.24,0,0,1-.5-.9,22.24,22.24,0,0,1-1.1-2.5,17.32,17.32,0,0,1-.6-8.4,16.53,16.53,0,0,1,3.8-7.5,14.75,14.75,0,0,1,1.9-1.8c.5-.4.8-.6.8-.6a7.86,7.86,0,0,0-.9.4A6.92,6.92,0,0,0,248.5,119.13Z"/><path class="cls-3" d="M269.6,114.93a3.63,3.63,0,0,0-.7.3,9,9,0,0,0-2.4,1.7,11.94,11.94,0,0,0-3.6,9,16.87,16.87,0,0,0,3.2,9.1,18.57,18.57,0,0,0,1.8,2.3,6,6,0,0,1,.7.8,9.24,9.24,0,0,1-.5-.9c-.3-.6-.7-1.5-1.2-2.6a24.67,24.67,0,0,1-2.1-8.7,14.11,14.11,0,0,1,2.4-8.3,12.53,12.53,0,0,1,1.9-2c.5-.4.8-.6.8-.6A.22.22,0,0,0,269.6,114.93Z"/><path class="cls-3" d="M269.1,117.53a2.22,2.22,0,0,0,.4-.5l-.6.3a6.44,6.44,0,0,0-1.5,1.2,8.88,8.88,0,0,0-2.2,5.9,15.13,15.13,0,0,0,1.4,6,11.61,11.61,0,0,0,1.2,2.2s-.1-1-.2-2.5a43.49,43.49,0,0,1-.4-5.7,13.05,13.05,0,0,1,1.1-5.3A7.88,7.88,0,0,1,269.1,117.53Z"/><path class="cls-3" d="M266.4,137a30.48,30.48,0,0,1-2.9-4.4,23.6,23.6,0,0,1-1.9-4.8c-.2-.7-.3-1.2-.4-1.6a2.8,2.8,0,0,1-.1-.6,3.22,3.22,0,0,0-.2.6c-.1.4-.2,1-.3,1.7a10.34,10.34,0,0,0,1.2,5.6,11.46,11.46,0,0,0,3.9,4.2,11.79,11.79,0,0,0,1.6.8,3.22,3.22,0,0,1,.6.2,3.61,3.61,0,0,1-.4-.5A6.75,6.75,0,0,1,266.4,137Z"/><path class="cls-3" d="M304.4,153.23c.2.6.3,1,.3,1v-1.1a16.72,16.72,0,0,0-.7-2.9,15.08,15.08,0,0,0-2.1-3.9c-.9-1.4-2.1-2.8-3.2-4.2a32.6,32.6,0,0,1-3-4.1,19.71,19.71,0,0,1-1.7-3.7,11,11,0,0,1-.4-2.8v-1.1a.77.77,0,0,1-.1.3,3.39,3.39,0,0,0-.3.8,8.36,8.36,0,0,0-.3,3,12.73,12.73,0,0,0,1.2,4.3,24.54,24.54,0,0,0,2.9,4.5c1.2,1.5,2.4,2.8,3.4,4a22.55,22.55,0,0,1,2.5,3.4A5.69,5.69,0,0,1,304.4,153.23Z"/><path class="cls-3" d="M291.2,147.83a4.53,4.53,0,0,0,.8.1s-.2-.1-.7-.4a15,15,0,0,1-1.7-1.1,37.91,37.91,0,0,1-5-4.1,39.7,39.7,0,0,1-4.2-4.9,15,15,0,0,1-1.1-1.7,4.57,4.57,0,0,1-.4-.6,4.53,4.53,0,0,0,.1.8,11.53,11.53,0,0,0,.5,2,15.76,15.76,0,0,0,3.7,5.9,15.35,15.35,0,0,0,5.9,3.6C290,147.63,290.7,147.73,291.2,147.83Z"/><path class="cls-3" d="M287.4,147.73a4.57,4.57,0,0,1-.6-.4c-.4-.2-1-.6-1.7-1-1.2-.8-2.8-1.9-4.5-3.2a25,25,0,0,1-2.8-3.8,29,29,0,0,1-2.5-5,12,12,0,0,1-.6-1.7,3.22,3.22,0,0,0-.2-.6,4.18,4.18,0,0,1-.1.7,5.35,5.35,0,0,0,0,1.8,15.14,15.14,0,0,0,1,4.1l-.3-.3-1.4-1.4-.5-.5a6,6,0,0,0,.3.7c.2.4.5,1.1.9,1.8a18.49,18.49,0,0,0,4.5,5.1,19.5,19.5,0,0,0,6.1,3.1c.8.2,1.5.4,2,.5A1,1,0,0,0,287.4,147.73Z"/><path class="cls-3" d="M310.5,145.73a10.62,10.62,0,0,0-2.9-4.8,9.48,9.48,0,0,0-1.3-1.1,3.61,3.61,0,0,1-.5-.4,5.2,5.2,0,0,0,.3.5,11.25,11.25,0,0,1,.7,1.5,35.36,35.36,0,0,1,1.8,4.8c.3,1,.6,2,.8,3a14.6,14.6,0,0,0-2.2-3.5,56.39,56.39,0,0,0-5.6-5.1c-.7-.6-1.3-1.2-1.7-1.5l-.6-.6a4.56,4.56,0,0,0,.4.8,9.44,9.44,0,0,0,1.2,2c1.1,1.6,3,3.6,4.8,5.7a18.43,18.43,0,0,1,3.7,6,6.85,6.85,0,0,1,.4,2.2v.8s.1-.3.3-.8a5.44,5.44,0,0,0,.2-2.4v-.1a15.46,15.46,0,0,0,.4-1.5A10.46,10.46,0,0,0,310.5,145.73Z"/><path class="cls-3" d="M310.7,135.23a4,4,0,0,0-.5-.7,6.59,6.59,0,0,1,.2.9,18.39,18.39,0,0,1,.6,2.3,26.88,26.88,0,0,1,.6,3.6,17.44,17.44,0,0,0-1.8-3.4,18.37,18.37,0,0,0-1.5-1.8s.3.9.7,2.2.9,3.2,1.5,5.3,1,3.9,1.4,5.3c0,.1.1.3.1.4a36.35,36.35,0,0,1-.4,3.9,24.22,24.22,0,0,1-.5,2.4,6.59,6.59,0,0,1-.2.9s.2-.3.5-.8a14.72,14.72,0,0,0,1.1-2.2,19.82,19.82,0,0,0,1.5-8.1,18.72,18.72,0,0,0-2-8A12.71,12.71,0,0,0,310.7,135.23Z"/><path class="cls-3" d="M315.1,153a4.53,4.53,0,0,0-.1.8s.1-.2.4-.7a8.49,8.49,0,0,0,.9-1.9,14.6,14.6,0,0,0-1.8-13.6,7.91,7.91,0,0,0-1.4-1.6,6.12,6.12,0,0,1-.6-.5,6,6,0,0,0,.3.7c.2.4.5,1.1.8,1.9a28.8,28.8,0,0,1,1.5,6.4,38.44,38.44,0,0,1,.2,6.6A10.07,10.07,0,0,1,315.1,153Z"/><path class="cls-3" d="M316.3,117.53a22,22,0,0,0,3.1.3l-.6-.3h.5a5.2,5.2,0,0,1-.5-.3,13.7,13.7,0,0,0-1.4-.8,35.86,35.86,0,0,1-4.2-2.9,28.83,28.83,0,0,1-3.9-3.3c-.5-.5-.9-.8-1.2-1.1l-.4-.4a3.22,3.22,0,0,1,.2.6,4.82,4.82,0,0,0,.7,1.5,13.62,13.62,0,0,0,2.3,3.1c-.3-.2-.6-.3-.9-.5a19.65,19.65,0,0,1-5.7-4.3,15,15,0,0,1-1.4-1.8c-.3-.5-.4-.7-.4-.7a2.4,2.4,0,0,0,.2.8,12.31,12.31,0,0,0,.8,2.2,13.43,13.43,0,0,0,5.6,5.5A19,19,0,0,0,316.3,117.53Z"/><path class="cls-3" d="M311,108.93a6.38,6.38,0,0,0,.8,1.6,11.61,11.61,0,0,0,6.4,5.4,8.21,8.21,0,0,0,1.7.5s-.5-.5-1.2-1.3-1.8-1.8-3-2.8-2.4-1.9-3.2-2.5S311,108.93,311,108.93Z"/><path class="cls-3" d="M316.3,110.13a6.71,6.71,0,0,0-1.6-.5s.4.5,1,1.3,1.5,1.8,2.4,2.8,1.9,2,2.6,2.7,1.2,1.1,1.2,1.1a4.81,4.81,0,0,0-.4-1.6,8.17,8.17,0,0,0-2-3.4A10.21,10.21,0,0,0,316.3,110.13Z"/><path class="cls-3" d="M321.1,111.23c-.8-.4-1.3-.6-1.3-.6a10.71,10.71,0,0,0,.6,1.2,22.59,22.59,0,0,0,1.7,2.6,16.28,16.28,0,0,0,2.2,2.3,6.42,6.42,0,0,0,1.1.9,4.41,4.41,0,0,0-.3-1.4,8.05,8.05,0,0,0-1.5-2.9A11.12,11.12,0,0,0,321.1,111.23Z"/><path class="cls-3" d="M326.5,117.23a14.84,14.84,0,0,0,3,2.8,7.08,7.08,0,0,0,1.5.8s-.3-.6-.8-1.5A31.29,31.29,0,0,0,328,116a19.48,19.48,0,0,0-2.7-2.9c-.7-.7-1.3-1.2-1.3-1.2a8.21,8.21,0,0,0,.5,1.7A14.85,14.85,0,0,0,326.5,117.23Z"/><path class="cls-3" d="M329.5,113.53a10.58,10.58,0,0,0,3.9,2.3,10.72,10.72,0,0,0-6.5-6A10.61,10.61,0,0,0,329.5,113.53Z"/><path class="cls-3" d="M344.3,141.13c0,1.3-.1,2.3-.1,3a8.66,8.66,0,0,0-.1,1.1,7,7,0,0,0,.4-1.1,20.41,20.41,0,0,0,.8-3,19.7,19.7,0,0,0-.9-10.2,19.48,19.48,0,0,0-5.9-8.4c-1-.8-1.9-1.4-2.5-1.8a3.61,3.61,0,0,0-1-.5l.8.8c.5.5,1.2,1.3,2,2.2a29.52,29.52,0,0,1,4.8,8.4A28.09,28.09,0,0,1,344.3,141.13Z"/><path class="cls-3" d="M328.1,132.93c-.6-1.6-1-2.6-1-2.6s0,1.1.1,2.8.2,4,.5,6.6.6,4.9.9,6.6.5,2.7.5,2.7.2-1.1.4-2.8a29.72,29.72,0,0,0,0-6.7A24.31,24.31,0,0,0,328.1,132.93Z"/><path class="cls-3" d="M339.6,153a44.74,44.74,0,0,0,.2-4.7v-1.7s-.1.6-.3,1.7-.4,2.7-.8,4.6a23.21,23.21,0,0,1-2.2,6.4,20.81,20.81,0,0,1-5.1,6.2c-2.2,1.9-4.6,3.5-6.7,5s-4,3-5.5,4.3a20.84,20.84,0,0,0-3.1,3.5,9,9,0,0,0-.7,1.1,1.09,1.09,0,0,1-.2.4l.3-.3.9-.9a23.83,23.83,0,0,1,3.5-3,53.79,53.79,0,0,1,5.8-3.7,65.19,65.19,0,0,0,7.1-4.9,18.36,18.36,0,0,0,5.3-7A30.5,30.5,0,0,0,339.6,153Z"/><path class="cls-3" d="M329.1,173.73a10.74,10.74,0,0,0-2.5.4,19.84,19.84,0,0,0-5.7,2.2,17.64,17.64,0,0,0-4.7,3.9,20.36,20.36,0,0,0-1.5,2s3.3-2,7.2-4.2S329.1,173.73,329.1,173.73Z"/><path class="cls-3" d="M288.1,195.93a14.29,14.29,0,0,0,3.5-5.2,12.91,12.91,0,0,0,.2-8c-.1-.4-.2-.7-.2-.7a4.18,4.18,0,0,1-.1.7,16.24,16.24,0,0,1-.2,1.8,30,30,0,0,1-1,4.1,9.38,9.38,0,0,0-.1-3.4,9.07,9.07,0,0,0-.5-1.9s-.2.8-.4,1.9-.6,2.6-1,4.3-.8,3.1-1.1,4.3-.5,1.8-.5,1.8a9.83,9.83,0,0,0,1.3-1.4c.1-.1.1-.2.2-.3-.3.6-.6,1.1-.8,1.6a15.77,15.77,0,0,1-1,1.6,2.48,2.48,0,0,1-.4.6,4.57,4.57,0,0,0,.6-.4A10.28,10.28,0,0,1,288.1,195.93Z"/><path class="cls-3" d="M285.5,194.73a9.59,9.59,0,0,0,2.1-4.3,10.32,10.32,0,0,0-.1-4.7,6.23,6.23,0,0,0-.7-1.8s-.1.8-.3,1.9-.5,2.6-.8,4.3-.7,3.1-1.1,4.2a15.15,15.15,0,0,1-.6,1.8A6.51,6.51,0,0,0,285.5,194.73Z"/><path class="cls-3" d="M259.1,189.63c.2.6.4,1.1.5,1.5a3.22,3.22,0,0,0,.2.6,2.8,2.8,0,0,1,.1-.6,8.12,8.12,0,0,0,.1-1.7,10.49,10.49,0,0,0-1.7-5.3,11.45,11.45,0,0,0-4.3-3.6,4.66,4.66,0,0,0-1.6-.5,2.8,2.8,0,0,0-.6-.1,2.22,2.22,0,0,1,.5.4,10,10,0,0,1,1.2,1.1,23,23,0,0,1,3.2,3.9A17,17,0,0,1,259.1,189.63Z"/><path class="cls-3" d="M253.1,200.23a2.22,2.22,0,0,1,.4-.5c.2-.4.5-.9.9-1.6a13.62,13.62,0,0,0,1.1-5.8,13.35,13.35,0,0,0-1.6-5.7,7.64,7.64,0,0,0-1-1.5,2.22,2.22,0,0,1-.4-.5,1.45,1.45,0,0,1,.1.6c.1.4.2,1,.4,1.7a24.83,24.83,0,0,1,.4,3.3,11.28,11.28,0,0,0-1.6-3.3c-.4-.6-.8-1.1-1-1.4a2.22,2.22,0,0,1-.4-.5s.2.9.6,2.2.7,3.1,1,5.1.5,3.8.7,5.2.2,2.3.2,2.3l.3-.6a1.42,1.42,0,0,0,.2-.6c0,.4-.1.7-.1.9A1.73,1.73,0,0,0,253.1,200.23Z"/><path class="cls-3" d="M232.7,209.13c-.7,1.3-1.4,2.3-1.8,3a11.62,11.62,0,0,1-.7,1.1l.9-.9c.6-.6,1.4-1.5,2.4-2.6a36.84,36.84,0,0,0,3-4.4,15.91,15.91,0,0,0,1.7-6.4,13.56,13.56,0,0,0-1.5-6.5,13.21,13.21,0,0,0-3.5-4.1,12.64,12.64,0,0,0-3.2-1.7,4.11,4.11,0,0,0-1.3-.3s.4.2,1.1.6a13.29,13.29,0,0,1,2.7,2.1,4.62,4.62,0,0,0,.7.7c0,.1.1.1.1.2s.1.3.2.4a8,8,0,0,0-1.6-1.6c-.6-.5-1.2-.8-1.6-1.1l-.6-.3a3.61,3.61,0,0,1,.4.5,14.85,14.85,0,0,1,1.1,1.5,22.16,22.16,0,0,1,2.3,5.1,17.1,17.1,0,0,1,.7,5.6c0,.7-.1,1.4-.1,1.8a3.2,3.2,0,0,0-.1.7,4.57,4.57,0,0,1,.4-.6c.2-.4.5-1,.8-1.7l.3-.9a29.05,29.05,0,0,1,.1,4.1A42.78,42.78,0,0,1,232.7,209.13Z"/><path class="cls-3" d="M159.8,134.73a2.48,2.48,0,0,0-.4-.6,3.2,3.2,0,0,0,.1.7c.1.5.2,1.1.4,1.9a12.17,12.17,0,0,0,3.6,5.3,11.17,11.17,0,0,0,5.8,2.7c.8.1,1.5.2,1.9.2h.7l-.6-.3c-.4-.2-1-.4-1.7-.8a23,23,0,0,1-4.8-3.3,25.46,25.46,0,0,1-4-4.3A7.69,7.69,0,0,1,159.8,134.73Z"/><path class="cls-3" d="M298.1,104.23a1.75,1.75,0,0,1,.1.5,4.2,4.2,0,0,0,.2-.5,9.59,9.59,0,0,0,.3-1.5,8.62,8.62,0,0,0-1-4.9,8.34,8.34,0,0,0-3.5-3.5,7.26,7.26,0,0,0-1.4-.6,1.75,1.75,0,0,0-.5-.1l.4.4a13.26,13.26,0,0,1,1,1.1,26.09,26.09,0,0,1,2.5,3.7,18.87,18.87,0,0,1,1.7,4.1C297.9,103.43,298.1,103.93,298.1,104.23Z"/><path class="cls-3" d="M251,95.63s.1.2.3.7.6,1,1.1,1.8a16.5,16.5,0,0,0,5.1,4.5,16,16,0,0,0,6.6,1.9h2.1a4.18,4.18,0,0,1,.7-.1s-.3-.1-.7-.2a13,13,0,0,1-1.9-.6,34.51,34.51,0,0,1-5.9-2.6,42.54,42.54,0,0,1-5.4-3.5,11.55,11.55,0,0,1-1.5-1.3A6.12,6.12,0,0,0,251,95.63Z"/><path class="cls-3" d="M344.1,117.13a7.3,7.3,0,0,0-1-.9c-.6-.5-.9-.7-.9-.7s.2.3.7.9c.2.3.5.6.8,1.1a9.88,9.88,0,0,1,.9,1.5,29.16,29.16,0,0,1,2.1,4c.4,1,.9,2.1,1.3,3.2a17,17,0,0,0-3.1-4.3,7.55,7.55,0,0,0-1.6-1.3,4.57,4.57,0,0,0-.6-.4,4.57,4.57,0,0,0,.4.6c.3.4.6,1,1.1,1.7a36.6,36.6,0,0,1,2.8,5.9,36.19,36.19,0,0,1,1.8,6.2,8.79,8.79,0,0,1,.3,2,4.53,4.53,0,0,1,.1.8s.1-.3.2-.7.2-1.2.3-2.1a8.84,8.84,0,0,0,0-2.3,5,5,0,0,1,.2,1.2c.3,1.7.4,3.2.5,4.4a9.63,9.63,0,0,1,0,1.7V142s.1-.4.3-1.1c.1-.4.2-.8.3-1.3s.2-1.1.3-1.8a22.9,22.9,0,0,0,.2-4.7,24.43,24.43,0,0,0-1-5.7,25.67,25.67,0,0,0-2.3-5.3,34.65,34.65,0,0,0-2.7-3.8A5.79,5.79,0,0,1,344.1,117.13Z"/><path class="cls-3" d="M353.4,121.23s.3.9.7,2.4.8,3.4,1.2,5.6.6,4.2.8,5.7.2,2.5.2,2.5a3.22,3.22,0,0,0,.2-.6,10.63,10.63,0,0,0,.5-1.8,15,15,0,0,0,.2-6.1,16.13,16.13,0,0,0-2.2-5.7,7.25,7.25,0,0,0-1.1-1.5A1.73,1.73,0,0,1,353.4,121.23Z"/><path class="cls-3" d="M350.9,127.63c.7,2.5,1.2,4.8,1.5,6.5s.5,2.8.5,2.8a7.35,7.35,0,0,0,.2-.8q.15-.75.3-2.1a20,20,0,0,0-.6-7,19.47,19.47,0,0,0-3-6.3c-.5-.7-1-1.3-1.3-1.7a6.12,6.12,0,0,0-.5-.6s.4,1.1,1,2.7C349.4,122.83,350.2,125.13,350.9,127.63Z"/><path class="cls-3" d="M343.6,125.63c-.6-.5-1.1-.9-1.4-1.1l-.6-.3a2.22,2.22,0,0,0,.4.5q.3.45.9,1.5a32.64,32.64,0,0,1,2.3,4.9,40.45,40.45,0,0,1,1.5,5.3c.1.7.2,1.3.3,1.7a2.8,2.8,0,0,1,.1.6,3.22,3.22,0,0,0,.2-.6,14.58,14.58,0,0,0,.4-1.7,12.73,12.73,0,0,0-.6-5.9A14.38,14.38,0,0,0,343.6,125.63Z"/><path class="cls-3" d="M349.7,163.53a13.56,13.56,0,0,0,3-6.7,19.42,19.42,0,0,0,.1-2.2,2.77,2.77,0,0,0-.1-.8,7.35,7.35,0,0,0-.2.8,16.45,16.45,0,0,1-.7,2,26,26,0,0,1-1.5,2.8,18.32,18.32,0,0,0,2.1-5.9,19.42,19.42,0,0,0,0-6.4c-.3-1.6-.6-2.6-.6-2.6s-.1,1-.3,2.6-.5,3.7-.9,6-.8,4.4-1.2,6l-.6,2.4c-.2.2-.4.5-.6.7-1.7,2.1-3.4,3.8-4.6,5.2s-2,2.2-2,2.2,1-.5,2.6-1.5A19.68,19.68,0,0,0,349.7,163.53Z"/><path class="cls-3" d="M345,177a19,19,0,0,0,5.9-4.6,20.83,20.83,0,0,0,3.6-6.6,15.64,15.64,0,0,0,.5-2.2,4.53,4.53,0,0,0,.1-.8,2.77,2.77,0,0,1-.4.7,14.43,14.43,0,0,1-1.1,1.9,45.8,45.8,0,0,1-4.1,5.8,49,49,0,0,1-5,5.1c-.7.6-1.3,1.1-1.7,1.4s-.7.5-.7.5a7.35,7.35,0,0,1,.8-.2A21.72,21.72,0,0,1,345,177Z"/><path class="cls-3" d="M323.2,203.53a6.12,6.12,0,0,0-.6.5,6,6,0,0,0,.7-.3c.5-.2,1.1-.5,1.9-.9a17.49,17.49,0,0,0,5.1-4.6,15.16,15.16,0,0,0,2.6-6.4c.1-.9.2-1.6.2-2.1v-.8a6,6,0,0,1-.3.7c-.2.4-.4,1-.8,1.7a12.54,12.54,0,0,0,.1-4.7,5.64,5.64,0,0,0-.5-1.8l-.3-.6v.7a16.24,16.24,0,0,1-.2,1.8,25.3,25.3,0,0,1-1.4,5.6,31.8,31.8,0,0,1-2.5,5.2l-1,1.5a4.57,4.57,0,0,0-.4.6l.6-.3a12.25,12.25,0,0,0,1.2-.8,39.85,39.85,0,0,1-3.1,3.5A5,5,0,0,1,323.2,203.53Z"/><path class="cls-3" d="M326.3,205.43a12.9,12.9,0,0,0,4.9-3.7,14.3,14.3,0,0,0,2.8-5.5,8.21,8.21,0,0,0,.3-1.8v-.7l-.3.6c-.2.4-.5.9-.9,1.6a33.29,33.29,0,0,1-3.4,4.6,39.61,39.61,0,0,1-4,4.1c-.6.5-1,.9-1.4,1.2a2.22,2.22,0,0,1-.5.4,3.13,3.13,0,0,1,.7-.2A9.42,9.42,0,0,0,326.3,205.43Z"/><path class="cls-3" d="M329.1,216.63a6.17,6.17,0,0,0-.9.1,7.65,7.65,0,0,0-2.3.9,6.07,6.07,0,0,0-1,.7c.2-.2.4-.5.6-.7.7-.8,1.4-1.4,1.9-1.9s.8-.6.8-.6a6.73,6.73,0,0,0-1,.1,12.08,12.08,0,0,0-1.4.3c.4-.5.7-1,1-1.4,1-1.3,1.7-2.1,1.7-2.1l-.6.3a15,15,0,0,0-1.7,1.1,18.8,18.8,0,0,0-4,4,12.66,12.66,0,0,0-4.2,5.9,15.67,15.67,0,0,0-.1,9.6,13,13,0,0,0,1,2.7,9.24,9.24,0,0,0,.5.9,6.73,6.73,0,0,1,.1-1q.15-1,.3-2.7a28.29,28.29,0,0,1,.6-3.7,26.89,26.89,0,0,0,.3,3.2,29.39,29.39,0,0,0,.8,3.2s.1-1.3.2-3.3a28.25,28.25,0,0,1,1.2-7.5,14,14,0,0,1,3.7-6.3,9,9,0,0,1,1.9-1.4Z"/><path class="cls-3" d="M344.1,267.53a7.51,7.51,0,0,0,4.1-3.2,8.78,8.78,0,0,0,1.2-5.1,9.59,9.59,0,0,0-.3-1.5,4.2,4.2,0,0,0-.2-.5,2.8,2.8,0,0,1-.1.6,10.63,10.63,0,0,0-.3,1.4,14.27,14.27,0,0,1-1.8,4.1,14.55,14.55,0,0,1-3,3.4q-.75.6-1.2.9a5.2,5.2,0,0,1-.5.3h.6C342.9,267.83,343.5,267.73,344.1,267.53Z"/><path class="cls-3" d="M343.9,214.73a17.8,17.8,0,0,1,1-2.1,18.08,18.08,0,0,1,1.7-2.9c.7-1,1.6-2.1,2.5-3.2a21.14,21.14,0,0,0,2.6-3.5,11.18,11.18,0,0,0,1.3-3.4,6.3,6.3,0,0,0,0-2.4,3.27,3.27,0,0,0-.2-.8,6.17,6.17,0,0,1-.1.9,10.57,10.57,0,0,1-.7,2.2,13.07,13.07,0,0,1-1.8,2.8c-.8,1-1.7,2-2.7,3.1A16.67,16.67,0,0,0,345,209a14,14,0,0,0-1.2,3.4c-.2,1-.3,1.8-.4,2.4v.9A3.86,3.86,0,0,0,343.9,214.73Z"/><path class="cls-3" d="M361.3,160.23a9.24,9.24,0,0,1,.5-.9,3.57,3.57,0,0,0-.7.7,12.77,12.77,0,0,0-1.8,2,29.27,29.27,0,0,0-4.3,7.8,26.11,26.11,0,0,0-1.5,8.8c0,1.1.1,2.1.1,2.7a6.73,6.73,0,0,1,.1,1,6.47,6.47,0,0,0,.2-1c.1-.6.3-1.5.5-2.6a71.72,71.72,0,0,1,2.3-8.2,73.09,73.09,0,0,1,3.3-7.9C360.5,161.63,361,160.83,361.3,160.23Z"/><path class="cls-3" d="M353.3,183.43c-.6-1.6-1-3.1-1.3-4.2-.1-.6-.2-1-.3-1.4a1.75,1.75,0,0,1-.1-.5,4.2,4.2,0,0,0-.2.5c-.1.3-.2.8-.4,1.4a10.38,10.38,0,0,0,.4,4.8,9.66,9.66,0,0,0,2.7,4q.75.6,1.2.9a5.2,5.2,0,0,0,.5.3,4.2,4.2,0,0,1-.2-.5,6.66,6.66,0,0,1-.6-1.2A23.07,23.07,0,0,1,353.3,183.43Z"/><path class="cls-3" d="M359.5,182a37.82,37.82,0,0,0,.2-8.1,24.69,24.69,0,0,0-.5-3.3s-.7,5.1-1.5,11.2c-.2,1.4-.4,2.8-.6,4,0-1.3.1-2.7.1-4.2.1-2.6.3-4.9.5-6.6s.4-2.8.4-2.8-.1.2-.4.7a17.86,17.86,0,0,0-.9,1.9,19.06,19.06,0,0,0-1.5,6.8,22.53,22.53,0,0,0,.8,6.9,8.34,8.34,0,0,0,.4,1.2c-.3,2.1-.5,3.3-.5,3.3s.4-.8,1-2.1a.31.31,0,0,1,.1.2v-.4a6.89,6.89,0,0,0,.3-.8A37,37,0,0,0,359.5,182Z"/><path class="cls-3" d="M352.6,210a15.78,15.78,0,0,0,2.7-2.9,29.93,29.93,0,0,0,2.8-5.1c.8-2,1.6-4.2,2.5-6.6a59.74,59.74,0,0,0,3.2-12.4,30.47,30.47,0,0,0,.2-3.9,7.9,7.9,0,0,0-.1-1.4s-.1.5-.2,1.4-.4,2.2-.8,3.7c-.8,3.1-2.4,7.3-4,11.9-.8,2.3-1.5,4.6-2.2,6.6a32.93,32.93,0,0,1-2.1,5.2,12.58,12.58,0,0,1-2.1,3.1c-.3.3-.5.6-.7.8l-.3.3a1.24,1.24,0,0,1,.3-.2A2.8,2.8,0,0,0,352.6,210Z"/><path class="cls-3" d="M354.7,121.23s.1.3.3.8.5,1.3.9,2.2a53,53,0,0,1,2.1,7.4,73.05,73.05,0,0,1,1.1,7.6,22.75,22.75,0,0,1,.1,2.4v.9s.1-.3.3-.8a16.48,16.48,0,0,0,.6-2.4,19.89,19.89,0,0,0-.2-8,21.33,21.33,0,0,0-3.2-7.4,12.48,12.48,0,0,0-1.5-1.9A3.37,3.37,0,0,0,354.7,121.23Z"/><path class="cls-3" d="M357.3,122.93a6.12,6.12,0,0,1-.6-.5s.1.2.3.7.5,1.1.9,1.9a47.54,47.54,0,0,1,2.2,6.2,40,40,0,0,1,1.1,6.5,17.86,17.86,0,0,1,.1,2.1v.8a6,6,0,0,1,.3-.7,8.3,8.3,0,0,0,.5-2,18.69,18.69,0,0,0-.2-7,15,15,0,0,0-3.2-6.2A8.5,8.5,0,0,0,357.3,122.93Z"/><path class="cls-3" d="M367.4,134.93a12.4,12.4,0,0,0-1.6-6.2,12.2,12.2,0,0,0-4.6-4.5,6.65,6.65,0,0,0-1.8-.8c-.4-.1-.7-.2-.7-.2l.5.5a15.62,15.62,0,0,1,1.3,1.3,23.89,23.89,0,0,1,3.5,4.7,25.49,25.49,0,0,1,2.3,5.4,8.57,8.57,0,0,1,.4,1.8,3.2,3.2,0,0,1,.1.7,3.13,3.13,0,0,0,.2-.7A3.74,3.74,0,0,0,367.4,134.93Z"/><path class="cls-3" d="M366.7,142.83a14.51,14.51,0,0,0,0-5.9,13.09,13.09,0,0,0-2.5-5.3c-.5-.6-.9-1-1.2-1.3a2.22,2.22,0,0,0-.5-.4,3.22,3.22,0,0,1,.2.6,9.12,9.12,0,0,1,.6,1.6,52.64,52.64,0,0,1,1.5,5.3c.4,2.1.7,4,.9,5.4a11.56,11.56,0,0,1,.1,1.7v.6a3.22,3.22,0,0,0,.2-.6A3.8,3.8,0,0,0,366.7,142.83Z"/><path class="cls-3" d="M366,147.73a19.47,19.47,0,0,0-1.5-7.3c-.4-.9-.8-1.5-1-2a2.77,2.77,0,0,1-.4-.7,7.35,7.35,0,0,1,.2.8c.1.5.3,1.3.4,2.2a59.11,59.11,0,0,1,.6,7,44.85,44.85,0,0,1-.5,7c-.1.9-.3,1.7-.4,2.2a7.35,7.35,0,0,1-.2.8,7.23,7.23,0,0,0,.4-.7,7.33,7.33,0,0,0,1-2A19.67,19.67,0,0,0,366,147.73Z"/><path class="cls-3" d="M185.7,106.13a3.22,3.22,0,0,0,.2.6,2.8,2.8,0,0,1,.1-.6,14.93,14.93,0,0,1,.2-1.7,52.44,52.44,0,0,1,1-5.3,47.3,47.3,0,0,1,1.5-5.1,9.12,9.12,0,0,1,.6-1.6,3.22,3.22,0,0,1,.2-.6,3.61,3.61,0,0,1-.5.4c-.3.3-.7.7-1.2,1.3a12.6,12.6,0,0,0-2.5,5.2,13.78,13.78,0,0,0-.1,5.7A5.76,5.76,0,0,0,185.7,106.13Z"/><path class="cls-3" d="M206.4,99.33a24.33,24.33,0,0,1-2.2-2.9,34.87,34.87,0,0,1-1.8-3.1,26.6,26.6,0,0,1-1.1-2.8,11.53,11.53,0,0,1-.5-2,7.35,7.35,0,0,0-.2-.8,4.53,4.53,0,0,1-.1.8,12.84,12.84,0,0,0-.1,2.2,13.94,13.94,0,0,0,.5,3.2,14.66,14.66,0,0,0,1.7,3.6,13.11,13.11,0,0,0,2.7,3,14.56,14.56,0,0,0,2.7,1.7,8,8,0,0,0,2,.7,7.35,7.35,0,0,1,.8.2,2.48,2.48,0,0,0-.6-.4,13.09,13.09,0,0,1-1.6-1.3A10.66,10.66,0,0,1,206.4,99.33Z"/><path class="cls-3" d="M196.2,103.63a24.93,24.93,0,0,1-1.5-6.7,17.86,17.86,0,0,1-.1-2.1V94s-.1.3-.3.8a8,8,0,0,0-.5,2.2,11.77,11.77,0,0,0-.1,3.3,20.24,20.24,0,0,0,.8,4,15.23,15.23,0,0,0,1.9,3.6,14,14,0,0,0,2.2,2.5,7.83,7.83,0,0,0,1.8,1.3,2.77,2.77,0,0,0,.7.4,6.12,6.12,0,0,1-.5-.6,15.64,15.64,0,0,1-1.2-1.7A25.64,25.64,0,0,1,196.2,103.63Z"/><path class="cls-3" d="M212.6,93.73a18.64,18.64,0,0,1-2.3-6.1c-.2-.9-.2-1.6-.3-2.1v-.8a6,6,0,0,1-.3.7,20,20,0,0,0-.4,2.1,11.84,11.84,0,0,0,7,11.9,8.5,8.5,0,0,0,2.1.7,4.53,4.53,0,0,0,.8.1,2.22,2.22,0,0,0-.7-.4c-.4-.3-1-.7-1.7-1.2A19.35,19.35,0,0,1,212.6,93.73Z"/><path class="cls-3" d="M228.3,94.73a30.25,30.25,0,0,1-5-3.6,26.39,26.39,0,0,1-4-4.7,18.08,18.08,0,0,1-1-1.7l-.3-.6a3.2,3.2,0,0,0,.1.7,11.51,11.51,0,0,0,.4,2,13.51,13.51,0,0,0,3.5,5.6,14.08,14.08,0,0,0,5.9,3.1,8.79,8.79,0,0,0,2,.3h.7s-.2-.1-.7-.3A11.44,11.44,0,0,1,228.3,94.73Z"/><path class="cls-3" d="M241.2,94.73l.5.5s-.1-.2-.3-.7-.5-1-.8-1.7a46.23,46.23,0,0,1-2.1-5.8,57.93,57.93,0,0,1-1.5-6c-.1-.8-.3-1.4-.3-1.9a4.18,4.18,0,0,1-.1-.7s-.1.3-.2.7-.2,1.1-.3,1.9a17.25,17.25,0,0,0,.6,6.5,15.83,15.83,0,0,0,3.2,5.7A5,5,0,0,0,241.2,94.73Z"/><path class="cls-3" d="M169.7,125.53a4,4,0,0,1,.7.5s-.2-.3-.5-.7-.8-1.2-1.3-2a40.06,40.06,0,0,1-3.3-7.1,53.39,53.39,0,0,1-2-7.5,12.91,12.91,0,0,1-.3-2.4,6.17,6.17,0,0,1-.1-.9,6.59,6.59,0,0,0-.2.9,13.06,13.06,0,0,0-.3,2.5,19.75,19.75,0,0,0,1.1,8.2,20.54,20.54,0,0,0,4.3,7C168.6,124.63,169.2,125.23,169.7,125.53Z"/><path class="cls-3" d="M154.8,125.33c-.2-1.8-.3-3.5-.4-4.7s-.1-2.1-.1-2.1a11.56,11.56,0,0,0-.8,1.9,14.23,14.23,0,0,0-.6,5,12.93,12.93,0,0,0,1.5,4.8,11.46,11.46,0,0,0,1.2,1.8s-.1-.8-.3-2S155,127.23,154.8,125.33Z"/><path class="cls-3" d="M280.1,74.63a4.11,4.11,0,0,0-.4.9,7.66,7.66,0,0,0-.6,2.6,11,11,0,0,0,3.3,8.3,17.86,17.86,0,0,0,7.6,4.4c1.1.3,1.9.5,2.5.7a6.59,6.59,0,0,1,.9.2s-1.2-.7-3.1-1.7a31.4,31.4,0,0,1-6.7-4.8,13,13,0,0,1-3.7-7,6.9,6.9,0,0,1,0-2.5A4.47,4.47,0,0,0,280.1,74.63Z"/><path class="cls-3" d="M275.6,90.63a38.87,38.87,0,0,1-3.4-5.7,32.38,32.38,0,0,1-2.3-6.2c-.2-.8-.4-1.5-.5-2a7.35,7.35,0,0,0-.2-.8,4.53,4.53,0,0,1-.1.8,10.61,10.61,0,0,0-.2,2.1,15.41,15.41,0,0,0,1.6,6.9,16.07,16.07,0,0,0,4.4,5.5,7,7,0,0,0,1.8,1.2,7.23,7.23,0,0,1,.7.4,6.12,6.12,0,0,1-.5-.6A12.57,12.57,0,0,1,275.6,90.63Z"/><path class="cls-3" d="M254.2,75.83l.3-.9s-.2.3-.6.8a15.44,15.44,0,0,0-1.2,2.3,12.63,12.63,0,0,0,5.1,15.3,9.25,9.25,0,0,0,2.3,1.1l.9.3s-.3-.2-.8-.5a17.87,17.87,0,0,1-1.9-1.6,15.58,15.58,0,0,1-4.1-6.6,16.3,16.3,0,0,1-.6-7.7C253.9,77.23,254.1,76.33,254.2,75.83Z"/><path class="cls-3" d="M297.9,81.53a22.06,22.06,0,0,1-1.1-2.2,4.56,4.56,0,0,1-.4-.8,6.17,6.17,0,0,0,.1.9,18.14,18.14,0,0,0,.5,2.5,24,24,0,0,0,1.4,3.6,22,22,0,0,0,2.6,3.9,20.72,20.72,0,0,0,3.5,3.2,19.52,19.52,0,0,0,3.3,1.9q1.5.6,2.4.9a6.59,6.59,0,0,1,.9.2s-.3-.2-.8-.5-1.2-.8-2.1-1.4a35.58,35.58,0,0,1-5.9-5.5A57.67,57.67,0,0,1,297.9,81.53Z"/><path class="cls-3" d="M310.9,83.73a21.85,21.85,0,0,0,4.1,6.4,22.29,22.29,0,0,0,6.2,4.5q1.35.6,2.1.9c.5.2.8.3.8.3a4,4,0,0,0-.7-.5c-.4-.3-1-.8-1.8-1.4a46.22,46.22,0,0,1-5.3-5,63.52,63.52,0,0,1-4.7-5.6c-.6-.8-1-1.4-1.3-1.8s-.5-.7-.5-.7a7.35,7.35,0,0,1,.2.8A16.14,16.14,0,0,1,310.9,83.73Z"/><path class="cls-3" d="M315.2,80.63a50,50,0,0,0,4.7,8.1,42.64,42.64,0,0,0,6.3,7,50,50,0,0,0-4.7-8.1A48.61,48.61,0,0,0,315.2,80.63Z"/><path class="cls-3" d="M322.5,83.13c-.6-.6-1.2-1.1-1.5-1.4a4.57,4.57,0,0,0-.6-.4,4.57,4.57,0,0,0,.4.6,19.41,19.41,0,0,1,1,1.7c.8,1.5,1.8,3.5,2.8,5.8a53,53,0,0,1,2,6.1c.2.8.4,1.5.5,1.9a3.13,3.13,0,0,0,.2.7,3.2,3.2,0,0,1,.1-.7,10.31,10.31,0,0,0,.2-2,18.27,18.27,0,0,0-1.2-6.7A22.5,22.5,0,0,0,322.5,83.13Z"/><path class="cls-3" d="M356.1,103.53c1.9.4,3.1.7,3.1.7a24.31,24.31,0,0,0-2.8-1.6,26.19,26.19,0,0,0-7.3-2.3,28.5,28.5,0,0,0-7.6-.2,16.1,16.1,0,0,0-3.1.6s1.2.2,3.1.4,4.5.6,7.3,1.1S354.2,103.13,356.1,103.53Z"/><path class="cls-3" d="M363.1,110.13a4.77,4.77,0,0,1,.8.4s-.2-.2-.7-.6-1.1-.9-1.9-1.6a24.76,24.76,0,0,0-7.3-3.6,29.25,29.25,0,0,0-8.1-1.1,15.74,15.74,0,0,0-2.5.2,6.17,6.17,0,0,1-.9.1,6.59,6.59,0,0,0,.9.2c.6.1,1.4.2,2.4.4,2,.4,4.7,1.1,7.6,1.9s5.5,1.9,7.4,2.7C361.8,109.63,362.6,109.93,363.1,110.13Z"/><path class="cls-3" d="M351,95.73a22.3,22.3,0,0,0-4.5-.9,10.28,10.28,0,0,0-1.7-.1h-1.3a5,5,0,0,0-1.1.1s.4.1,1.1.2a7.89,7.89,0,0,1,1.3.3h-.6a25.84,25.84,0,0,0-4.2.3,19.12,19.12,0,0,0-2.7.6c-.6.2-1,.3-1,.3H340c.5,0,1.1.1,1.7.1a18.77,18.77,0,0,0-5,1.4,15.42,15.42,0,0,0-1.9,1,2.77,2.77,0,0,1-.7.4,2.77,2.77,0,0,1,.8-.1q.75-.15,2.1-.3a53.51,53.51,0,0,1,6.7-.6,61.88,61.88,0,0,1,6.7.3,5.74,5.74,0,0,0,1.2.1c.6.2,1.2.4,1.7.6,1.4.6,2.6,1.1,3.7,1.6.6.3,1.2.6,1.7.9.3.2.6.5.9.7a34,34,0,0,1,3.3,2.9c.5.4.8.9,1.2,1.2s.6.7.9,1a6,6,0,0,1,.7.8l-.5-1a6.66,6.66,0,0,1-.6-1.2c-.3-.4-.5-1-.9-1.5a21.41,21.41,0,0,0-2.9-3.5,20.39,20.39,0,0,0-4.5-3.4A26,26,0,0,0,351,95.73Z"/><path class="cls-3" d="M334.5,94.43c5.8-2.8,12.8-2.4,18.9-.3a42.48,42.48,0,0,1,4.9,2.1c-5.2-4.6-12.4-7.3-21.5-3.7a54.84,54.84,0,0,0-6.5-7.1c-1.2-.8-2.5-1.5-3.7-2.4s-2.2-1.9-3.3-2.7c-.6-.4-1.2-.7-1.8-1.1-3.5-1.9-7.4-3.7-11.4-3.2a36.27,36.27,0,0,1,6.6,2.1C324.2,81.23,331.9,86.33,334.5,94.43Z"/><path class="cls-3" d="M374.9,135a112.51,112.51,0,0,0-8.9-12.8c-.5-.7-5.4-7.9-6.1-7.7,0,0,2.4-3.9,7.4-1.8-.5-.2-1-.4-1.6-.6-3.8-1.1-7.8-1.1-11.2,1.1a10.58,10.58,0,0,1,6.1,4.4c3.9,5.2,7.9,10.4,10.8,16.2a19.75,19.75,0,0,1,2.3,7.1c.3,3,.3,6.8-.9,9.6-1.2,2.6-3.5,4.5-5.2,6.9-4,5.7-3.9,13.3-3.3,20.2s1.3,14.4-1.9,20.5c-.7,1.4-1.6,2.6-2.3,4a37.72,37.72,0,0,0-2.2,5.9,19.2,19.2,0,0,1-1.4,1.5,9.85,9.85,0,0,0,1.7-4.3,8.17,8.17,0,0,0,.1-1.4v-.5s-.4.7-.9,1.6a37.23,37.23,0,0,1-2.4,3.5c-1,1.3-1.9,2.5-2.6,3.4s-1.2,1.4-1.2,1.4a1.75,1.75,0,0,0,.5-.1,7.6,7.6,0,0,0,1.1-.4h.2a4.74,4.74,0,0,0,1.2,0,6.17,6.17,0,0,0,2.4-.8,25.32,25.32,0,0,1-3.8,4.2,12.86,12.86,0,0,0-3.5,6.2,15.87,15.87,0,0,1,6.2-5.3,68.32,68.32,0,0,1-6.8,12.1,33.14,33.14,0,0,0-3.8,4.3,15.25,15.25,0,0,0-2.3,4.6,8.63,8.63,0,0,0-.4,2.8v1.1a13,13,0,0,1-.6-1.9,6.45,6.45,0,0,0-.4-1.2,11.31,11.31,0,0,0-.2,1.2v.2a3.09,3.09,0,0,1-.2-.8l-.3-.9v3.3a53.66,53.66,0,0,1-1,7.8,52.78,52.78,0,0,1-2.1,7.6c-.4,1-.7,1.7-.9,2.3a4.77,4.77,0,0,1-.4.8s.2-.2.6-.7a14.55,14.55,0,0,0,1.5-2,23.86,23.86,0,0,0,3.1-7.3v.1c0,.4-.1.9-.1,1.3a48.62,48.62,0,0,1-1.1,5.9c-.2.8-.4,1.4-.5,1.8s-.2.7-.2.7l.5-.5a.1.1,0,0,1,.1-.1,22.25,22.25,0,0,1-1.4,3.1c-.7,1-1.3,1.8-1.8,2.5-.8,1.1-1.2,1.6-1.2,1.6l.3-.3-.3.3a6.75,6.75,0,0,0,1.2-.5h0s.2-.1.7-.3,1-.5,1.7-.9a5.5,5.5,0,0,0,.9-.7h.1a15.78,15.78,0,0,0,1.6-.7,11.17,11.17,0,0,0,4.2-4,12.19,12.19,0,0,0,1.8-5.5,9.48,9.48,0,0,0,0-1.7,1.45,1.45,0,0,0-.1-.6,3.22,3.22,0,0,0-.2.6c-.1.4-.4.9-.6,1.6a28.49,28.49,0,0,1-2.2,4.1,12.31,12.31,0,0,0,.8-3.9v-2a4.18,4.18,0,0,1-.1-.7.77.77,0,0,1-.1.3v-.1a18.41,18.41,0,0,0,.3-3.3,45.07,45.07,0,0,0-.9-5.3,9.7,9.7,0,0,1,.1-4.8,15.93,15.93,0,0,1,1.9-4.2,62.22,62.22,0,0,1,5.1-6.4c.1-.1.1-.2.2-.3,2.7-2,5.1-4.4,6-7.7-.2,1.7-1,3.3-1.2,5a3.76,3.76,0,0,0,2,4,37.48,37.48,0,0,1-4.8,5.8,29.64,29.64,0,0,0-5.5,7.3,25.14,25.14,0,0,0-1,2.6c-.1.6-.2,1-.2,1a9.24,9.24,0,0,0,.5-.9,14.41,14.41,0,0,1,1.5-2.2c1.3-1.8,3.6-3.9,6-6.5a20.81,20.81,0,0,0,4.3-6.3v.2a24.18,24.18,0,0,1-4.3,11.8c-2.4,3.4-5.6,6.2-5.9,10.6-.1,2.3.6,4.6,1,6.9a19.54,19.54,0,0,1,.1,5.4q-.6.75-1.5,2.1c-.6.9-1.2,2-1.9,3.3s-1.3,2.7-1.9,3.8a7.1,7.1,0,0,1-2.2,2.6,9.65,9.65,0,0,1-2.9,1.4c-1,.3-1.8.5-2.4.7a3.23,3.23,0,0,1-.9.2,7.86,7.86,0,0,1,.9.4,11.16,11.16,0,0,0,2.6.6c.4,0,.8.1,1.2.1a11.42,11.42,0,0,0,2,.8,6.89,6.89,0,0,0,2.6.3,7.14,7.14,0,0,0,3.3-.9,7,7,0,0,0,2.6-2.5,5.47,5.47,0,0,0,.8-2.8,6.62,6.62,0,0,0-.3-1.8,17.93,17.93,0,0,0,1.2-6.9c0-1,.1-2,.2-3,1.2-10.9,7-20.4,11.3-30.2a136.59,136.59,0,0,0,8.1-25.9c1.8-8.9,2.5-17.9,3.4-26.9q1.2-11.55,1.8-23.1C378.4,149.13,378.7,142.13,374.9,135Z"/><path class="cls-3" d="M271.3,240.93a16.82,16.82,0,0,0-.7,2.4,5.68,5.68,0,0,0,.3,3.1,5.83,5.83,0,0,0,1.1,1.5,3.65,3.65,0,0,0,1.4.7,7.16,7.16,0,0,0,2.4.3,15.89,15.89,0,0,0,6.6-1.2,13.58,13.58,0,0,0,4-1.4,13.14,13.14,0,0,0,6.5-10.4,15.94,15.94,0,0,0-4.3-11.7,28.34,28.34,0,0,1-2.4-2.5,5.34,5.34,0,0,1-1.3-3.1,10.43,10.43,0,0,0,1,4.3,13.09,13.09,0,0,0,1.7,2.4c2.1,2.5,4,5.2,4.4,8.4a11.38,11.38,0,0,1-4,9.9,3.59,3.59,0,0,1-1,.7c-.1.1-.3.1-.4.2a26.82,26.82,0,0,1-4.2,1.3,21.2,21.2,0,0,1-6.2.1,5.41,5.41,0,0,1-1.5-.4c-.4-.2-.4-.3-.4-.4a3.06,3.06,0,0,1,0-1,7,7,0,0,1,.6-1.7c.5-1.2,1.1-2.5,1.6-3.9a10.13,10.13,0,0,0,.7-4.6v-.1a9,9,0,0,0-.3-1.6,11.2,11.2,0,0,0-.9-2.2c-.5-1.1-1.1-1.9-1.5-2.8a8.71,8.71,0,0,1-1.3-4.1c0-.5.1-.9.1-1.2a1.58,1.58,0,0,0,.1-.4l-.3.3c-.1.1-.2.3-.3.4V222a4.17,4.17,0,0,0-.6,3.3,7.1,7.1,0,0,0,.4,2.4c.5,2,1.5,4.1,1.4,6.1a9.79,9.79,0,0,1-.9,3.1C272.6,238.13,271.9,239.43,271.3,240.93Z"/><path class="cls-3" d="M301.6,180a10.9,10.9,0,0,1,.1,1.2s.2-.4.5-1.2a11.31,11.31,0,0,0,.8-3.4,16.17,16.17,0,0,0-.2-5.3,15.05,15.05,0,0,0-2.6-6,29.92,29.92,0,0,0-2.2-2.6c-.8-.7-1.6-1.3-2.4-1.9-1.5-1.1-2.8-1.9-3.8-2.8a10.36,10.36,0,0,1-2.1-2.3,6.7,6.7,0,0,1-.6-1.1,4.15,4.15,0,0,0,0,1.3,8.73,8.73,0,0,0,.8,2.5c-.2-.2-.3-.4-.5-.5a21.91,21.91,0,0,1-2.4-3.3c-.5-.8-.8-1.3-.8-1.3a7.53,7.53,0,0,0,.5,1.4,33.18,33.18,0,0,0,1.9,3.7,28.05,28.05,0,0,0,4.1,4.7,27.23,27.23,0,0,1,4.7,5.4c1.2,2.1,1.5,4.5,2,6.8s.8,4.3,1,6c.5,3.4.8,5.6.8,5.6a51.65,51.65,0,0,0,.1-5.6,45.71,45.71,0,0,0-.3-4.9c0,.1.1.2.1.3C301.4,178.13,301.5,179.23,301.6,180Z"/><path class="cls-3" d="M147.5,129.63a.75.75,0,0,0-.1.5.6.6,0,0,1-.1.4,8.61,8.61,0,0,0,.2,2.7c1.6,6.9,10.9,16.9,18.1,16.5,0,0-.4,11.6-3.3,20.8a65,65,0,0,0,2.2-6.2,18.3,18.3,0,0,1,3.2-5.8,10.8,10.8,0,0,0,1.9-3,4.81,4.81,0,0,0-.4-2.9l-.6-1.5a8.93,8.93,0,0,0-.5-1.3,11.42,11.42,0,0,0,5.8.2,16.74,16.74,0,0,0,5.3-2.3,11.48,11.48,0,0,1-4.5.7,40.69,40.69,0,0,1-9.2-.6,22.91,22.91,0,0,1-7.5-3.3,19.07,19.07,0,0,1-3.8-3.1c-.6-.6-1.2-1.2-1.8-1.9-.3-.4-1.5-1.4-1.5-1.9v-.4c0,.1.1.1.1.2a10.73,10.73,0,0,0,3.4,2.9,7.93,7.93,0,0,0,1.7.8s-1.4-1.8-3-4a4.05,4.05,0,0,0,.9.5,5.81,5.81,0,0,0,1.3.5,3.18,3.18,0,0,0,.9.3,6.19,6.19,0,0,0,1.6.3l-1.1-1.1c-.7-.7-1.6-1.5-2.6-2.4l-2-1.7-.4-.4a3.42,3.42,0,0,0,1.3.2,5,5,0,0,0,1.1-.1,3.61,3.61,0,0,1-1-.5,5.67,5.67,0,0,1-1.9-1.9c-2.5-3.8-.6-8.8,1.1-12.4.1-.1.1-.2.2-.3a10.42,10.42,0,0,1,1-1.8,2.85,2.85,0,0,1,2.2-1.3,4.2,4.2,0,0,1,2.6,1.2,2.7,2.7,0,0,1,.8.7,2.54,2.54,0,0,1,.2,1.2,20.21,20.21,0,0,0,1.4,5.5,8.9,8.9,0,0,0,3.7,4.2c-2.8-3.1-4.7-7.2-4.4-11.4a12,12,0,0,1,1.4-4.9,4.6,4.6,0,0,0-1.7,3.1c0-.1-.9-.9-1-1.1a3.69,3.69,0,0,1-.7-1.4,10.35,10.35,0,0,1,.4-5.5,16.28,16.28,0,0,1,5.9-9l.3-.2a21.12,21.12,0,0,0,4.3,11.6,22.47,22.47,0,0,0,5.9,5.6,4.68,4.68,0,0,1-.8-1.4,10.09,10.09,0,0,1-.7-1.5,16,16,0,0,1-1-3.1,15.52,15.52,0,0,1,2-11.9,14.47,14.47,0,0,1,3.9-3.9,36,36,0,0,1,5.5-2.9,13.81,13.81,0,0,0-2.6,3.5,10.64,10.64,0,0,0-1,4.3,15.74,15.74,0,0,0,.2,2.5,11.75,11.75,0,0,0,.1,2.7,24.29,24.29,0,0,0,.5,2.6l.3.9v-1c0-.6,0-1.5.1-2.6a17.11,17.11,0,0,1,1.5-5.9,12.43,12.43,0,0,1,3.5-4.4,17,17,0,0,1,7.8-3.6,18.32,18.32,0,0,1,2.1-.2h.4a.1.1,0,0,1-.1-.1h1.2l-.9-.6a12.3,12.3,0,0,0-2.7-1.1c-.2,0-.4-.1-.6-.1,3.3-.4,7,1.2,10-.2a8.89,8.89,0,0,0,3.7-3.5,6.14,6.14,0,0,1-2.3,1.1,30.3,30.3,0,0,0,2.4-3.8,24.69,24.69,0,0,1,11.3-6.2,12.81,12.81,0,0,0-7.2,7.9c2.8-1,5.5-2,8.3-3a10.18,10.18,0,0,0-3.5,3c5.9-2.3,11.1-6.2,17.3-7.7a23.53,23.53,0,0,1,6.5-.6,11.58,11.58,0,0,0-5.1,3.3,45.57,45.57,0,0,1,5.2-1.8,39.61,39.61,0,0,0,4.6-1.3c2.9-1.2,5.2-3.3,8.1-4.5a11.32,11.32,0,0,1,7.7-.3,10.25,10.25,0,0,1,5.9,4.9,6.83,6.83,0,0,1,2-2.7,5.32,5.32,0,0,1,3-.7,10,10,0,0,1,6.2,2.2,4.47,4.47,0,0,0-1.6-2,3.32,3.32,0,0,1,3.6-1.4,9.58,9.58,0,0,1,3.7,2l2.1,1.5a1.33,1.33,0,0,1,.5-1.8,4.35,4.35,0,0,1,2-.7,33.63,33.63,0,0,1,11.4.4,33.11,33.11,0,0,1,4.2,1.2c-2.5-1.8-8.5-4.9-19.8-2.1,0,0-6.9-5-9.3.5,0,0-3.8-4-8.1,1.4,0,0-4.5-10.7-24,.2a38.19,38.19,0,0,0-24.5,5.5c.3-.3,4.8-4.8,7.6-5.3-4.9-.1-18,3.7-26.1,11,0,0-.5.1-1.3.2a.6.6,0,0,0-.4.1h-.2c-.2,0-.4.1-.7.1s-.8.1-1.2.2a2.92,2.92,0,0,0-.9.2c-1.2.2-2.6.6-4.1.9l-1.1.3a20.16,20.16,0,0,0-2.3.7H187l-1,.3a.31.31,0,0,0-.2.1,18,18,0,0,0-2.1.8.35.35,0,0,0-.2.1,6.89,6.89,0,0,0-.8.3c-.1,0-.1,0-.2.1a10.37,10.37,0,0,1-1,.4c-.1,0-.1.1-.2.1a2.51,2.51,0,0,0-.7.4c-.1,0-.2.1-.3.1-.3.2-.6.3-.9.5a10.64,10.64,0,0,0-4.7,4.4,3.45,3.45,0,0,1-.3-1.3,5.73,5.73,0,0,1,.1-3.2,34.56,34.56,0,0,0-3.8,6.7,20.49,20.49,0,0,0-1.7,7.3,14.37,14.37,0,0,1-1.9-7.6,8.73,8.73,0,0,1,1.1-3.7c-3.4,1-8.4,5.7-11.2,15.3h0c-.5,2-1,4-1.3,6a5,5,0,0,0-2.6.3,9.1,9.1,0,0,0-3.6,3.2,15.69,15.69,0,0,0-2.6,5,10.22,10.22,0,0,0,0,6A6.85,6.85,0,0,0,147.5,129.63Z"/><path class="cls-3" d="M337.1,222.43c.2-.5.3-.8.3-.8a2.77,2.77,0,0,0-.7.4,12.62,12.62,0,0,0-1.9,1.4c-.3.3-.7.6-1.1,1,.6-1.3,1.1-2.6,1.6-3.6s.8-1.8,1.1-2.4a7.86,7.86,0,0,0,.4-.9,9.24,9.24,0,0,1-.9.5,11.92,11.92,0,0,0-2.2,1.7,19.67,19.67,0,0,0-6.7,16.4,13,13,0,0,0,.4,2.7,3.87,3.87,0,0,0,.3,1l.3-.9c.2-.5.4-1.3.8-2.2v.3a10.71,10.71,0,0,0,.3,2.3,7.35,7.35,0,0,0,.2.8,4.77,4.77,0,0,0,.4-.8c.2-.5.6-1.2,1-2,.8-1.7,1.9-3.8,3-6.3s1.9-4.7,2.6-6.4A15.92,15.92,0,0,0,337.1,222.43Z"/><path class="cls-3" d="M282.7,116.53a2.44,2.44,0,0,1,.1-.7,4.57,4.57,0,0,0-.6.4,13,13,0,0,0-1.4,1.2A11.66,11.66,0,0,0,279,120c-.1-1.3-.1-2.1-.1-2.1a14.47,14.47,0,0,0-.9,2.1,13.81,13.81,0,0,0-.6,5.3,12.77,12.77,0,0,0,1.6,5.1c.7,1.2,1.2,1.9,1.2,1.9s-.1-.6-.2-1.6a1.24,1.24,0,0,0,.2.3v-.1a.1.1,0,0,0,.1.1l.3-.6c.2-.4.5-.9.8-1.6.6-1.3,1.5-3,2.3-4.8s1.4-3.6,1.9-5a12,12,0,0,0,.6-1.7,1.73,1.73,0,0,0,.2-.7,3.13,3.13,0,0,1-.7.2,9.66,9.66,0,0,0-1.7.9,11,11,0,0,0-1.8,1.4c0-.3.1-.6.1-.9A4.49,4.49,0,0,0,282.7,116.53Z"/></g></g></g></g></svg>