<?xml version="1.0" encoding="utf-8"?>
<!-- Generator: Adobe Illustrator 26.0.2, SVG Export Plug-In . SVG Version: 6.00 Build 0)  -->
<svg version="1.1" xmlns="http://www.w3.org/2000/svg" xmlns:xlink="http://www.w3.org/1999/xlink" x="0px" y="0px"
	 viewBox="0 0 512 512" style="enable-background:new 0 0 512 512;" xml:space="preserve">
<style type="text/css">
	.st0{fill:#474747;}
	.st1{fill:#9E9E9E;}
	.st2{fill:#666666;}
	.st3{opacity:7.000000e-02;}
</style>
<g id="Front">
	<g id="front_00000051362106167073181410000005735963870576774838_">
		<g id="text_00000022561893492066110230000004956814888842133122_">
			<g id="liberty">
				<path class="st0" d="M634.7,303.5c-0.5-2.5-1.2-5.1-2.1-7.9c0.1-0.1,0.4-0.3,0.9-0.4s0.8-0.1,1,0c0.2,1.1,0.5,1.9,0.9,2.5
					c0.3,0.6,0.6,0.9,0.8,0.9c0.6,0.2,1.3,0.2,2.1,0s1.7-0.3,2.7-0.5l19.3-4.2c1.5-0.3,2.5-0.7,3.2-1.2c0.6-0.5,0.6-1.8,0.2-3.9
					l-0.8-3.7c-0.5-2.3-1.4-3.9-2.7-4.8c-1.3-0.9-3.1-1.6-5.5-2.1c-0.2,0-0.4-0.2-0.4-0.5c-0.2-1-0.3-1.7-0.1-1.9
					c0.7,0.1,1.5,0.3,2.4,0.4c0.8,0.1,1.7,0.2,2.5,0.4c1.7,0.3,3.2,0.5,4.4,0.5c1.4,6.6,2.9,13.2,4.3,19.9l1.7,7.7
					c-0.1,0.1-0.4,0.3-0.9,0.4s-0.8,0.1-0.9,0c0-0.2-0.2-0.7-0.5-1.4c-0.4-1.2-0.8-1.9-1.2-2.1c-0.7-0.2-2.3,0-4.8,0.6l-18.5,4
					c-2.4,0.5-4,1-4.6,1.4c-0.5,0.5-0.5,1.8,0,3.9c-0.2,0.2-0.5,0.3-1,0.4s-0.8,0.1-0.9,0C635.7,308.8,635.3,306.1,634.7,303.5z"/>
				<path class="st0" d="M639.9,182.2c1.3-2.6,2.4-5.2,3.3-7.6c0.9-2.3,1.8-4.9,2.6-7.7c0.2-0.1,0.5,0,0.9,0.2
					c0.4,0.2,0.7,0.3,0.9,0.5c-0.4,1-0.6,1.9-0.7,2.6c0,0.7,0,1.1,0.1,1.2c0.4,0.5,1,0.9,1.7,1.2c0.7,0.3,1.6,0.7,2.6,1l17.6,6.8
					c1.1,0.4,2,0.7,2.7,1s1.3,0.4,1.7,0.3c0.4,0,0.7-0.2,0.9-0.4c0.2-0.3,0.5-0.5,0.7-0.8c0.3-0.6,0.6-1.2,0.9-1.9
					c0.2,0,0.6,0,1,0.2c0.4,0.2,0.7,0.3,0.8,0.5c-2.4,5-4.4,10.1-5.9,15.4c-0.2,0.1-0.5,0-0.9-0.2c-0.4-0.2-0.7-0.3-0.9-0.5
					c0.4-1.1,0.7-2,0.6-2.7c0-0.6-0.1-1-0.2-1.2c-0.5-0.5-1.9-1.2-4.3-2.1l-17.5-7c-2.3-0.9-3.9-1.3-4.7-1.3
					c-0.7,0.2-1.4,1.2-2.1,3.2c-0.2,0-0.6,0-1-0.2C640.3,182.5,640,182.4,639.9,182.2z"/>
				<path class="st0" d="M713.7,80.7l7.1-5.2c2.5-1.8,5-2.8,7.5-3c2.9-0.3,5.2,0.7,6.8,2.9c1.5,2.1,1.4,4.7-0.2,7.8
					c-0.4,0.7-0.6,1.2-0.8,1.5c-0.2,0.3-0.3,0.4-0.3,0.5c0,0,0.2,0,0.6-0.2c0.3-0.2,1.1-0.4,2.2-0.7c1.1-0.3,2.3-0.4,3.5-0.3
					c3,0.1,5.2,1.1,6.5,2.9c1,1.4,1.5,3,1.4,4.8c-0.1,1.8-0.5,3.6-1.5,5.4c-0.9,1.8-2.2,3.3-3.8,4.6c-1.6,1.3-3,2.4-4.2,3.2
					c-1.2,0.8-2.2,1.5-3.2,2.2c-2.9,2.1-5.8,4.1-8.7,6.2c-0.2-0.1-0.4-0.3-0.7-0.7c-0.3-0.4-0.4-0.7-0.4-0.9c0.2-0.1,0.6-0.5,1.1-1
					c1-0.9,1.4-1.5,1.4-2c-0.1-0.7-0.9-2.1-2.4-4.2l-11-15.4c-1.4-2-2.5-3.3-3.1-3.7c-0.6-0.2-1.8,0.3-3.5,1.5
					c-0.2-0.1-0.5-0.3-0.7-0.7c-0.3-0.4-0.4-0.7-0.4-0.9c1.2-0.7,2.3-1.5,3.5-2.3L713.7,80.7z M728.6,80.9c-2.6-3.7-5.3-4.6-7.9-2.8
					c-0.6,0.4-1.1,0.8-1.5,1.2c-0.4,0.4-0.6,0.7-0.5,1c0,0.5,0.6,1.4,1.5,2.7l5.2,7.4l2.5-1.8c1.2-0.8,1.9-1.9,2-3.3
					C730.2,84,729.7,82.5,728.6,80.9z M733.2,101.4c0.9,1.3,1.6,2,2,2.1c0.4,0.1,1,0,1.6-0.4c0.6-0.4,1.2-0.8,1.8-1.2
					c0.6-0.4,1.1-0.9,1.6-1.6c0.5-0.6,0.8-1.3,0.9-2.1c0.5-1.8,0-3.7-1.4-5.7c-2.1-2.9-4.5-4.2-7.4-3.7c-1,0.2-2.1,0.6-3.2,1.4
					l-2.5,1.8L733.2,101.4z"/>
				<path class="st0" d="M860.2,44.4c-0.2,0.2-0.6,0.3-1,0.3c-0.7,0-1.1-0.2-1.2-0.5c-0.6-1.4-1.4-2.6-2.2-3.6c-0.9-1-2.2-1.5-4-1.6
					l-4.7-0.1c-0.7,0-1.3,0-1.9,0.1c-0.6,0-0.9,0.2-1,0.5c-0.2,0.4-0.4,1.4-0.4,3.1l-0.1,9.2c0,0.4,0.8,0.6,2.5,0.6h3.1
					c1.6,0,2.7-0.1,3.2-0.5s0.9-0.8,1.2-1.2c0.3-0.4,0.5-1.1,0.7-1.8c0-0.3,0.3-0.4,0.8-0.4s0.8,0.1,1,0.2l-0.1,9.9
					c-0.2,0.2-0.5,0.2-1,0.2s-0.8-0.2-0.8-0.5c-0.5-1.8-1.1-2.8-1.9-3.1s-2.4-0.5-4.9-0.5s-3.7,0.2-3.7,0.7l-0.1,8.5
					c0,1.5,0.1,2.6,0.5,3.4c0.3,0.7,1.6,1,3.8,1.1l3.8,0.1c2.3,0,4.1-0.5,5.3-1.5s2.3-2.7,3.3-4.9c0.1-0.2,0.3-0.3,0.6-0.3
					c1.1,0,1.7,0.1,1.9,0.3c-0.3,0.7-0.6,1.4-0.9,2.2c-0.3,0.8-0.6,1.6-0.9,2.4c-0.7,1.6-1.2,3-1.5,4.2c-6.8-0.1-13.5-0.2-20.3-0.3
					h-7.9c-0.1-0.2-0.2-0.5-0.2-0.9c0-0.5,0.1-0.8,0.2-0.9c0.2,0,0.7,0,1.5-0.1c1.3-0.1,2-0.4,2.3-0.7c0.3-0.6,0.5-2.2,0.5-4.8
					l0.3-18.9c0-2.5-0.1-4.1-0.4-4.8c-0.4-0.5-1.7-0.8-3.8-0.8c-0.1-0.2-0.2-0.5-0.2-1s0.1-0.8,0.2-0.9c1.3,0.1,2.7,0.2,4.2,0.2
					l4.1,0.1l18.7-0.1C859,39.2,859.5,41.7,860.2,44.4z"/>
				<path class="st0" d="M968.5,76.3l7,5.3c4.6,3.6,6.6,7.4,6,11.4c-0.2,1.3-0.8,2.5-1.5,3.5c-0.8,1-1.7,1.7-2.7,2.1
					s-2.1,0.6-3.2,0.7c-2.1,0.2-4-0.1-5.6-0.9l0.7,12.7c0.1,2.7,0.9,5.1,2.2,7.2c0.7,1.2,1.4,2,2.2,2.6c0,0.3-0.2,0.6-0.5,0.9
					c-0.4,0.4-0.6,0.5-0.7,0.6c-1.3-0.9-3.1-2.3-5.3-4s-3.6-3.4-4.3-4.9c-0.6-1.6-1-2.9-1-4.1L961.2,95c0-0.2-0.1-0.4-0.1-0.7
					c0-0.3-0.1-0.5-0.3-0.6l-0.7-0.5l-4.9,6.2c-0.7,0.9-1.3,1.7-1.7,2.3c-0.5,0.6-0.7,1.1-0.8,1.5c-0.1,0.4,0,0.7,0.2,1
					s0.4,0.6,0.6,0.9c0.4,0.5,1,1,1.6,1.4c0,0.2-0.2,0.5-0.5,0.9s-0.5,0.6-0.7,0.6c-4-3.8-8.3-7.2-12.9-10.2c0-0.2,0.2-0.5,0.4-0.8
					c0.3-0.4,0.5-0.6,0.8-0.7c1,0.8,1.7,1.2,2.3,1.4s1,0.2,1.2,0.2c0.6-0.3,1.7-1.5,3.3-3.5l11.7-14.8c1.5-2,2.4-3.3,2.6-4.1
					c0-0.7-0.8-1.6-2.5-2.9c0-0.2,0.2-0.5,0.5-0.9s0.5-0.6,0.7-0.6c1,0.9,2.1,1.8,3.2,2.7L968.5,76.3z M975.1,87.4
					c0.2-2.1-0.5-3.8-2.2-5.2c-0.6-0.4-1.1-0.8-1.5-1.1c-0.5-0.3-0.8-0.4-1.1-0.2c-0.4,0.2-1.2,0.9-2.2,2.2l-6.6,8.4l2.1,1.7
					c1.3,1,2.9,1.5,4.6,1.3c1.8-0.2,3.3-1.2,4.7-2.9C974.2,89.9,975,88.5,975.1,87.4z"/>
				<path class="st0" d="M1019,203.4c-1.3-5.4-3-10.6-5.1-15.6c0.1-0.2,0.4-0.3,0.8-0.5c0.4-0.1,0.8-0.2,1-0.1
					c0.4,1.2,0.8,2,1.2,2.5s0.7,0.7,0.9,0.7c0.6,0.1,1.2,0.1,2-0.1c0.7-0.2,1.7-0.5,2.7-0.9l22.8-7.5l-1.7-5.2
					c-0.5-1.4-1.5-2.4-3.2-3.2c-1.7-0.7-3.3-0.9-5-0.6c-0.2-0.1-0.3-0.2-0.4-0.5c-0.3-0.8-0.3-1.3-0.2-1.7l9.4-1.4
					c0.1,0.1,0.1,0.2,0.2,0.2c0,0,0.1,0.2,0.2,0.4s0.1,0.5,0.1,0.8s0,0.7,0,1.1c0.1,1.3,0.4,2.6,0.8,4.1l6,18.2
					c0.7,2.1,1.5,3.6,2.4,4.7c0.2,0.2,0.3,0.5,0.4,0.7s0.1,0.5,0.1,0.8l-8.4,4.4c-0.3-0.2-0.6-0.6-0.8-1.1c-0.2-0.6-0.2-0.9-0.1-1
					c1.6-0.9,2.7-1.9,3.3-3c1.1-1.9,1.5-3.6,1-4.9l-1.7-5.1l-22.8,7.5c-2.5,0.8-3.9,1.4-4.4,1.9c-0.5,0.4-0.4,1.7,0.3,3.9
					c-0.2,0.2-0.5,0.3-0.9,0.5C1019.4,203.4,1019.1,203.5,1019,203.4z"/>
				<path class="st0" d="M1020.5,296.8c0.6-2.4,1.2-5.1,1.6-8c0.2-0.1,0.5-0.1,0.9,0.1c0.5,0.1,0.8,0.3,0.9,0.4
					c-0.3,1.2-0.4,2.1-0.3,2.7c0.1,0.6,0.2,1,0.3,1.1c0.5,0.4,2,1,4.6,1.6l7.2,1.8c0.2,0.1,2.9-0.7,7.9-2.2c5.6-1.8,8.8-2.7,9.5-2.9
					c0.7-0.3,1.3-0.9,1.8-1.7c0.5-0.8,0.7-1.4,0.8-1.7c0.2-0.1,0.6-0.1,1,0s0.7,0.3,0.8,0.4c-0.9,2.6-1.7,5.2-2.4,7.9
					c-0.6,2.4-1.2,5.1-1.6,8c-0.2,0.1-0.5,0.1-0.9-0.1c-0.5-0.1-0.8-0.3-0.9-0.4c0.6-2.3,0.4-3.5-0.4-3.7c-0.2,0-0.5,0-0.9,0.1
					l-12.7,4c-0.2,0.1,2.8,3.4,9,9.8c0.4,0.3,0.8,0.5,1,0.5c0.3,0.1,0.5-0.1,0.8-0.4c0.2-0.3,0.5-0.7,0.7-1.1
					c0.3-0.6,0.6-1.4,0.8-2.3c0.2-0.1,0.6,0,1,0.1c0.5,0.1,0.7,0.2,0.9,0.4c-1.1,3.3-1.8,5.5-2.1,6.6c-0.3,1-0.5,2-0.6,3
					c-0.1,0.9-0.3,2-0.6,3.1c-0.2,0.1-0.5,0.1-0.9-0.1c-0.5-0.1-0.8-0.3-0.9-0.4c0.5-2.1,0.5-3.6-0.1-4.5c-1.6-2-3.8-4.6-6.6-7.7
					c-4-4.4-6.1-6.6-6.5-6.7l-6.8-1.8c-2.5-0.6-4-0.9-4.4-0.9c-0.4,0-0.7,0.2-0.9,0.5s-0.4,0.6-0.6,1c-0.3,0.7-0.5,1.3-0.7,1.9
					c-0.2,0.1-0.6,0.1-1,0c-0.4-0.1-0.7-0.3-0.8-0.4C1019,302,1019.8,299.4,1020.5,296.8z"/>
			</g>
			<g id="in_god">
				<path class="st0" d="M686.6,368c1.5,0.1,3,0.2,4.3,0.2c1.3,0,2.7-0.1,4.3-0.2c0.1,0.1,0.1,0.2,0.1,0.5s0,0.4-0.1,0.5
					c-0.6,0-1,0.1-1.4,0.2c-0.3,0.1-0.5,0.2-0.5,0.3c-0.2,0.3-0.2,0.6-0.3,1.1c0,0.4,0,0.9,0,1.5v9.9c0,0.6,0,1.1,0,1.5
					s0.1,0.7,0.2,0.9c0.1,0.2,0.2,0.3,0.4,0.4s0.3,0.1,0.5,0.2c0.3,0.1,0.7,0.1,1.1,0.1c0.1,0.1,0.1,0.3,0.1,0.5s0,0.4-0.1,0.5
					c-2.9-0.2-5.7-0.2-8.6,0c-0.1-0.1-0.1-0.2-0.1-0.5s0-0.4,0.1-0.5c0.6,0,1.1-0.1,1.4-0.2s0.5-0.2,0.5-0.3
					c0.2-0.3,0.2-1.2,0.2-2.5V372c0-1.3-0.1-2.1-0.2-2.5c-0.2-0.3-0.9-0.4-2-0.4c-0.1-0.1-0.1-0.3-0.1-0.5S686.6,368.1,686.6,368z"
					/>
				<path class="st0" d="M696.5,368.6c0-0.3,0-0.5,0.1-0.5c0.5,0,1,0.1,1.6,0.1c0.5,0.1,1.2,0.1,2,0.1c0.8,0,1.9-0.1,3.1-0.2
					c0.5,1.1,2.8,3.7,6.8,7.9c1,1.1,2,2.1,2.9,3.2c0.1-0.1,0.1-0.2,0.1-0.4V373c0-1.5-0.1-2.7-0.3-3.5c-0.2-0.4-1-0.6-2.5-0.6
					c0,0-0.1-0.1-0.1-0.4s0-0.5,0.1-0.6c0.7,0.1,1.3,0.1,1.9,0.2c0.5,0.1,1.1,0.1,1.9,0.1c0.7,0,2-0.1,3.8-0.2c0,0.1,0,0.2,0,0.5
					c0,0.2,0,0.4-0.1,0.6c-0.8,0-1.3,0.1-1.8,0.2c-0.4,0.1-0.6,0.3-0.7,0.4c-0.1,0.1-0.1,0.3-0.1,0.6c0,0.3-0.1,0.6-0.1,0.9
					c-0.1,0.6-0.1,1.3-0.1,1.9v9.1c0,1.5,0,2.7,0.1,3.8c-0.1,0.1-0.2,0.1-0.4,0.1h-0.4c-0.3,0-0.6-0.2-0.9-0.6l-12.3-13.4v9.7
					c0,1.1,0.1,1.9,0.3,2.6c0.2,0.3,0.8,0.6,2,0.7c0.2,0,0.4,0,0.5,0c0.1,0.1,0.1,0.3,0.1,0.5s0,0.4,0,0.5c-1.8-0.2-3.1-0.2-3.8-0.2
					c-0.7,0-1.3,0-1.9,0.1c-0.5,0.1-1.2,0.1-1.9,0.2c-0.1-0.1-0.1-0.3-0.1-0.6c0-0.3,0-0.4,0.1-0.4c0.6,0,1.2-0.1,1.6-0.2
					c0.5-0.2,0.7-0.3,0.8-0.5c0.2-0.4,0.3-1.3,0.3-2.7V372c0-1.5-0.3-2.4-0.9-2.6c-0.5-0.2-1.1-0.3-1.6-0.3
					C696.5,369,696.5,368.9,696.5,368.6z"/>
				<path class="st0" d="M742.8,368.4l1,4.1c0,0.1-0.1,0.2-0.3,0.3c-0.2,0.1-0.4,0.1-0.5,0.1c-0.1,0-0.3,0-0.4-0.1
					c-0.3-0.9-0.8-1.6-1.3-2.1c-1.1-1.1-2.6-1.6-4.5-1.6c-2.1,0-3.7,0.8-4.7,2.3c-0.9,1.3-1.3,3-1.3,5.1c0,2.2,0.5,4.1,1.6,5.7
					c1.2,1.7,2.8,2.6,4.8,2.6c0.9,0,1.7-0.1,2.3-0.4c0.1-0.1,0.1-0.1,0.2-0.1c0.1,0,0.1-0.1,0.1-0.3v-3.8c0-0.5-0.1-0.9-0.4-1
					c-0.3-0.1-0.5-0.2-0.7-0.3c-0.4-0.1-0.7-0.1-1.1-0.1c-0.1,0-0.1-0.1-0.1-0.4s0-0.5,0.1-0.6c1.5,0.1,3,0.2,4.4,0.2
					c1.4,0,2.7-0.1,3.9-0.2c0.1,0.2,0.1,0.4,0.1,0.6s-0.1,0.4-0.1,0.4c-0.1,0-0.4,0-0.8,0.1c-0.4,0.1-0.7,0.1-0.8,0.2
					c-0.3,0.1-0.4,0.5-0.4,1.2v2.8l0.2,0.8c0,0.2-0.4,0.5-1.1,0.7c-1,0.3-2,0.6-3.1,0.9c-1.1,0.3-2.3,0.4-3.7,0.4
					c-1.4,0-2.8-0.2-4-0.7c-1.2-0.5-2.4-1.1-3.3-1.8c-0.9-0.8-1.7-1.7-2.2-2.8c-0.5-1.1-0.8-2.3-0.8-3.5s0.3-2.4,0.8-3.6
					c0.5-1.1,1.3-2.1,2.2-2.9c0.9-0.8,2-1.5,3.3-2c1.3-0.5,2.6-0.7,4-0.7C738.9,367.9,741,368.1,742.8,368.4z"/>
				<path class="st0" d="M756.7,367.9c1.3,0,2.6,0.2,3.9,0.7c1.2,0.5,2.3,1.1,3.3,1.9s1.7,1.8,2.3,2.9c0.6,1.1,0.8,2.3,0.8,3.5
					s-0.3,2.4-0.8,3.5c-0.6,1.1-1.3,2.1-2.3,2.9s-2.1,1.5-3.3,1.9c-1.2,0.5-2.5,0.7-3.9,0.7c-2.7,0-5-0.9-7.1-2.6
					c-1-0.8-1.7-1.8-2.3-2.9c-0.6-1.1-0.8-2.3-0.8-3.5s0.3-2.4,0.8-3.5s1.3-2.1,2.3-2.9C751.6,368.8,754,367.9,756.7,367.9z
					 M758.8,369.9c-0.8-0.5-1.7-0.8-2.7-0.8s-1.8,0.2-2.4,0.6c-0.6,0.4-1.1,1-1.5,1.6c-0.7,1.2-1,2.8-1,4.7c0,2.4,0.4,4.3,1.3,5.9
					c1.1,1.9,2.7,2.9,4.7,2.9c1.7,0,2.9-0.8,3.7-2.3c0.7-1.2,1.1-2.8,1.1-4.7c0-2.4-0.5-4.4-1.4-6
					C760.2,371.1,759.6,370.4,758.8,369.9z"/>
				<path class="st0" d="M773.5,368.2c1.3,0,2.8,0,4.6-0.1c3.5,0,6.3,0.8,8.4,2.3c2.1,1.6,3.2,3.7,3.2,6.4c0,3-1.1,5.3-3.4,6.9
					c-2.1,1.5-4.9,2.2-8.4,2.2c-2.9,0-5.8,0-8.7,0c-0.1-0.1-0.1-0.2-0.1-0.5c0-0.2,0-0.4,0.1-0.5c0.1,0,0.4,0,0.8-0.1
					c0.7-0.1,1.1-0.2,1.2-0.4c0.2-0.3,0.2-1.2,0.2-2.5V372c0-1.3-0.1-2.1-0.2-2.5c-0.2-0.3-0.9-0.4-2-0.4c-0.1-0.1-0.1-0.3-0.1-0.5
					s0-0.4,0.1-0.5c0.7,0.1,1.4,0.1,2.2,0.1H773.5z M775.7,369.5c-0.1,0.2-0.1,0.4-0.1,0.6c0,0.3,0,2.3,0,6.1v6
					c0,0.8,0.1,1.4,0.3,1.8c0.1,0.2,0.3,0.3,0.7,0.4c0.4,0.1,0.8,0.2,1.2,0.2c2.5,0,4.3-0.6,5.4-1.8c1.2-1.2,1.7-3.2,1.7-5.8
					c0-2.5-0.7-4.5-2.1-5.9c-1.3-1.3-3.2-2-5.5-2c-0.4,0-0.7,0-1,0C776,369.2,775.8,369.3,775.7,369.5z"/>
			</g>
			<g id="we_trust">
				<path class="st0" d="M891.5,368c1.8,0.1,3,0.2,3.6,0.2c0.6,0,1.2,0,1.7-0.1s1-0.1,1.6-0.1c0.1,0.1,0.1,0.2,0.1,0.5
					s0,0.4-0.1,0.5c-1.2,0-1.9,0.1-2.1,0.4c-0.5,0.7-0.9,1.5-1.2,2.2l-4.9,13c-0.2,0.3-0.3,0.6-0.6,0.9c-0.2,0.3-0.5,0.4-0.7,0.4
					s-0.4-0.1-0.5-0.4l-5-11.1l-3.8,10c-0.2,0.5-0.4,0.9-0.6,1.1s-0.4,0.4-0.5,0.4c-0.1,0-0.3-0.1-0.5-0.4l-5.4-13.6
					c-0.3-0.8-0.7-1.5-1.1-2.2c-0.2-0.4-0.5-0.6-1-0.7s-0.8-0.2-1.1-0.2c-0.1-0.1-0.1-0.3-0.1-0.5s0.1-0.4,0.1-0.5
					c1.5,0.1,3,0.2,4.3,0.2c1.4,0,2.8-0.1,4.2-0.2c0.1,0.1,0.1,0.2,0.1,0.5c0,0.2,0,0.4-0.1,0.5c-1.2,0-1.8,0.2-1.8,0.7
					c0,0.2,0.1,0.5,0.3,0.9c0.2,0.4,0.3,0.8,0.5,1.1l3,7.3l4-10c0.1-0.3,0.2-0.5,0.4-0.7c0.2-0.2,0.3-0.3,0.5-0.3
					c0.1,0,0.3,0.1,0.4,0.4l5.2,11.6l2.9-8.2c0.4-1,0.6-1.7,0.6-2.2c0-0.2-0.2-0.3-0.7-0.4c-0.6-0.1-1.2-0.2-1.6-0.2
					c-0.1-0.1-0.1-0.3-0.1-0.5S891.4,368.1,891.5,368z"/>
				<path class="st0" d="M914,371.9c-0.1,0.1-0.3,0.2-0.5,0.2c-0.4,0-0.6-0.1-0.6-0.2c-0.3-0.7-0.7-1.4-1.2-1.9s-1.2-0.8-2.1-0.8
					h-2.5c-0.4,0-0.7,0-1,0s-0.5,0.1-0.5,0.3c-0.1,0.2-0.2,0.8-0.2,1.6v4.8c0,0.2,0.4,0.3,1.3,0.3h1.6c0.9,0,1.4-0.1,1.7-0.3
					c0.3-0.2,0.5-0.4,0.6-0.6c0.1-0.2,0.2-0.6,0.4-0.9c0-0.1,0.1-0.2,0.4-0.2s0.4,0,0.5,0.1v5.2c-0.1,0.1-0.3,0.1-0.5,0.1
					c-0.3,0-0.4-0.1-0.4-0.2c-0.3-0.9-0.6-1.5-1-1.6c-0.4-0.1-1.3-0.2-2.6-0.2s-1.9,0.1-1.9,0.4v4.5c0,0.8,0.1,1.4,0.3,1.8
					c0.2,0.4,0.8,0.5,2,0.5h2c1.2,0,2.1-0.3,2.8-0.8c0.6-0.6,1.2-1.4,1.7-2.6c0-0.1,0.1-0.2,0.3-0.2c0.5,0,0.9,0.1,1,0.2
					c-0.2,0.4-0.3,0.7-0.5,1.2c-0.2,0.4-0.3,0.8-0.5,1.2c-0.4,0.8-0.6,1.6-0.7,2.2c-3.5,0-7.1,0-10.6,0h-4.1
					c-0.1-0.1-0.1-0.2-0.1-0.5c0-0.2,0-0.4,0.1-0.5c0.1,0,0.4,0,0.8-0.1c0.7-0.1,1.1-0.2,1.2-0.4c0.2-0.3,0.2-1.2,0.2-2.5v-10
					c0-1.3-0.1-2.1-0.2-2.5c-0.2-0.3-0.9-0.4-2-0.4c-0.1-0.1-0.1-0.3-0.1-0.5s0-0.4,0.1-0.5c0.7,0.1,1.4,0.1,2.2,0.1h2.1l9.8-0.2
					C913.3,369.2,913.6,370.5,914,371.9z"/>
				<path class="st0" d="M937,385.9c-2.9-0.2-5.7-0.2-8.6,0c-0.1-0.1-0.1-0.2-0.1-0.5s0-0.4,0.1-0.5c0.6,0,1.1-0.1,1.4-0.2
					s0.5-0.2,0.5-0.3c0.2-0.3,0.2-0.6,0.3-1c0-0.4,0-0.9,0-1.5v-12.5h-2.8c-0.8,0-1.5,0.4-2.1,1.1c-0.6,0.7-1,1.5-1.1,2.4
					c-0.1,0.1-0.2,0.1-0.3,0.1c-0.4,0-0.7-0.1-0.9-0.2l0.8-4.9c0.1,0,0.1,0,0.1-0.1c0,0,0.1,0,0.2,0c0.1,0,0.3,0,0.4,0.1
					c0.2,0.1,0.3,0.1,0.5,0.2c0.6,0.2,1.4,0.2,2.1,0.2h10c1.1,0,2-0.1,2.7-0.4c0.2-0.1,0.3-0.1,0.4-0.1c0.1,0,0.3,0,0.4,0.1l0.8,4.9
					c-0.2,0.1-0.4,0.2-0.7,0.2c-0.3,0-0.5,0-0.5-0.1c-0.2-0.9-0.5-1.6-1-2.1c-0.8-0.9-1.5-1.3-2.3-1.3h-2.8V382
					c0,1.4,0.1,2.2,0.2,2.5c0.1,0.3,0.8,0.5,2,0.5c0.1,0.1,0.1,0.3,0.1,0.5S937,385.8,937,385.9z"/>
				<path class="st0" d="M947.8,368.2l4.6-0.1c3.1,0,5.1,0.9,6.1,2.8c0.3,0.6,0.5,1.3,0.5,1.9c0,0.7-0.1,1.3-0.4,1.7
					c-0.3,0.5-0.6,0.9-1.1,1.3c-0.8,0.8-1.7,1.2-2.6,1.4l4.4,5c0.9,1.1,2,1.8,3.2,2.2c0.7,0.2,1.2,0.4,1.7,0.4
					c0.1,0.1,0.1,0.3,0.1,0.5s-0.1,0.4-0.1,0.5c-0.9,0.1-2,0.1-3.5,0.1s-2.6-0.2-3.3-0.6c-0.8-0.4-1.3-0.9-1.7-1.3l-4.9-5.8
					c-0.1-0.1-0.1-0.1-0.3-0.2c-0.1-0.1-0.2-0.2-0.3-0.2h-0.5v4.1c0,0.6,0,1.1,0,1.5s0.1,0.7,0.2,0.9c0.1,0.2,0.2,0.3,0.4,0.4
					c0.2,0.1,0.3,0.1,0.5,0.2c0.3,0.1,0.7,0.1,1.1,0.1c0.1,0.1,0.1,0.3,0.1,0.5s0,0.4-0.1,0.5c-2.9-0.2-5.7-0.2-8.6,0
					c-0.1-0.1-0.1-0.2-0.1-0.5s0-0.4,0.1-0.5c0.6,0,1.1-0.1,1.4-0.2s0.5-0.2,0.5-0.3c0.2-0.3,0.2-1.2,0.2-2.5v-10
					c0-1.3-0.1-2.1-0.2-2.5c-0.2-0.3-0.9-0.4-2-0.4c-0.1-0.1-0.1-0.3-0.1-0.5s0-0.4,0.1-0.5c0.7,0.1,1.4,0.1,2.2,0.1H947.8z
					 M954.1,370.6c-0.6-0.9-1.4-1.4-2.6-1.4c-0.4,0-0.7,0-1,0s-0.5,0.1-0.5,0.3c-0.1,0.2-0.2,0.8-0.2,1.6v5.6h1.4
					c0.9,0,1.7-0.3,2.3-1s1-1.5,1-2.7C954.5,371.9,954.4,371.1,954.1,370.6z"/>
				<path class="st0" d="M979.3,368c1.8,0.1,3,0.2,3.7,0.2s1.3,0,1.9-0.1c0.5-0.1,1.1-0.1,1.7-0.1c0.1,0.1,0.1,0.2,0.1,0.5
					s0,0.4-0.1,0.5c-0.8,0-1.4,0.1-1.7,0.2c-0.4,0.1-0.6,0.3-0.6,0.4c-0.3,0.7-0.4,1.8-0.4,3.2v5.2c0,2.6-0.8,4.6-2.5,6
					c-1.5,1.3-3.4,1.9-5.8,1.9c-1.3,0-2.5-0.2-3.6-0.6c-1.1-0.4-2-0.9-2.7-1.7s-1.1-1.6-1.4-2.5c-0.3-1-0.4-2.1-0.4-3.6V372
					c0-0.6,0-1.1,0-1.5s-0.1-0.7-0.2-0.9c-0.1-0.2-0.2-0.3-0.4-0.4c-0.2-0.1-0.4-0.1-0.6-0.2c-0.4-0.1-0.7-0.1-1.1-0.1
					c-0.1-0.1-0.1-0.3-0.1-0.5s0-0.4,0.1-0.5c1.5,0.1,3,0.2,4.3,0.2s2.8-0.1,4.3-0.2c0.1,0.1,0.1,0.2,0.1,0.5s0,0.4-0.1,0.5
					c-0.5,0-1,0.1-1.4,0.2c-0.4,0.1-0.6,0.2-0.6,0.3c-0.2,0.4-0.2,1.2-0.2,2.5v4.9c0,0.9,0,1.7,0.1,2.5c0.1,0.7,0.3,1.4,0.6,2
					c0.3,0.6,0.7,1.1,1.1,1.5c0.4,0.3,0.8,0.6,1.3,0.8c0.6,0.3,1.3,0.4,2.1,0.4c0.8,0,1.4-0.1,2-0.4c0.6-0.2,1.1-0.6,1.6-1.2
					c1-1.2,1.6-2.9,1.6-5v-4.5c0-1.5-0.1-2.6-0.4-3.3c-0.1-0.2-0.4-0.3-0.8-0.4c-0.5-0.1-1-0.2-1.5-0.2c-0.1-0.1-0.1-0.3-0.1-0.5
					S979.2,368.1,979.3,368z"/>
				<path class="st0" d="M994.4,384.9c0.7,0,1.4-0.2,2-0.6c0.6-0.4,0.9-1.1,0.9-2c0-0.8-0.6-1.7-1.7-2.6c-0.5-0.4-0.9-0.7-1.5-1
					c-0.5-0.3-1-0.6-1.5-0.9s-1-0.6-1.5-0.9s-1-0.7-1.4-1.1c-0.9-0.9-1.3-2-1.3-3.2c0-1.3,0.7-2.5,2.1-3.5c1.3-0.9,2.7-1.4,4.4-1.4
					c0.9,0,1.7,0.1,2.5,0.2s1.6,0.3,2.5,0.5c0.1,0.7,0.2,1.4,0.2,2.2s0.1,1.5,0.2,2.3c-0.1,0.1-0.2,0.2-0.3,0.2
					c-0.6,0-0.9-0.1-0.9-0.2c-0.2-0.9-0.6-1.7-1.2-2.6c-0.8-1-1.7-1.5-2.8-1.5c-0.6,0-1.2,0.2-1.7,0.5s-0.8,0.9-0.8,1.8
					c0,1.2,1.4,2.6,4.3,4.3c0.5,0.3,1,0.6,1.5,0.9s1,0.7,1.4,1.1c1,1,1.5,2.2,1.5,3.5c0,1.4-0.7,2.6-2.1,3.6
					c-1.3,0.9-2.8,1.4-4.5,1.4c-1.8,0-3.7-0.2-5.8-0.7c-0.3-1.4-0.5-2.5-0.6-3.2c-0.1-0.7-0.1-1.1-0.2-1.3c0.1-0.1,0.2-0.2,0.4-0.2
					c0.2,0,0.4-0.1,0.6-0.1s0.2,0.1,0.3,0.2c0.2,0.9,0.7,1.8,1.6,2.7C992,384.4,993.1,384.9,994.4,384.9z"/>
				<path class="st0" d="M1015,385.9c-2.9-0.2-5.7-0.2-8.6,0c-0.1-0.1-0.1-0.2-0.1-0.5s0-0.4,0.1-0.5c0.6,0,1.1-0.1,1.4-0.2
					s0.5-0.2,0.5-0.3c0.2-0.3,0.2-0.6,0.3-1c0-0.4,0-0.9,0-1.5v-12.5h-2.8c-0.8,0-1.5,0.4-2.1,1.1c-0.6,0.7-1,1.5-1.1,2.4
					c-0.1,0.1-0.2,0.1-0.3,0.1c-0.4,0-0.7-0.1-0.9-0.2l0.8-4.9c0.1,0,0.1,0,0.1-0.1s0.1,0,0.2,0c0.1,0,0.3,0,0.4,0.1
					c0.2,0.1,0.3,0.1,0.5,0.2c0.6,0.2,1.4,0.2,2.1,0.2h10c1.1,0,2-0.1,2.7-0.4c0.2-0.1,0.3-0.1,0.4-0.1c0.1,0,0.3,0,0.4,0.1l0.8,4.9
					c-0.2,0.1-0.4,0.2-0.7,0.2s-0.5,0-0.5-0.1c-0.2-0.9-0.5-1.6-1-2.1c-0.8-0.9-1.5-1.3-2.3-1.3h-2.8V382c0,1.4,0.1,2.2,0.2,2.5
					c0.1,0.3,0.8,0.5,2,0.5c0.1,0.1,0.1,0.3,0.1,0.5S1015,385.8,1015,385.9z"/>
			</g>
			<g id="_x32_022">
				<path class="st0" d="M732.6,429.3c-1.2,1-2.9,2.2-4.9,3.5s-3.1,2.1-3.3,2.3l-16.3-11.5c-0.2-0.4-0.1-0.7,0.1-1
					c1.5-0.2,2.9-0.4,4.2-0.6s2.6-0.4,3.9-0.7c2.8-0.5,5.4-1.2,7.9-2c3.8-1.3,6.5-3.1,8.1-5.4c0.9-1.2,1.1-2.7,0.8-4.3
					c-0.3-1.5-0.9-2.7-2-3.4c-1-0.7-1.9-1.2-2.7-1.3c-0.8-0.2-1.5-0.2-2.2-0.2c-0.7,0-1.2,0.1-1.7,0.2s-0.8,0.2-0.9,0.2
					c-0.1-0.1-0.2-0.3-0.4-0.6c-0.2-0.4-0.1-0.7,0.1-1c1.3-0.7,3-1,5.1-1c2.7,0,5.2,0.8,7.4,2.3c2.2,1.5,3.6,3.4,4.3,5.6
					c0.7,2.3,0.3,4.5-1.2,6.6c-1.6,2.3-4.4,3.8-8.3,4.5c-5.5,1-10.2,1.6-14,2l7.7,5.4c1.7,1.2,3.4,1.2,5.3,0.2
					c0.5-0.3,1-0.5,1.3-0.7s0.6-0.2,0.9,0S732.4,428.9,732.6,429.3z"/>
				<path class="st0" d="M788.9,447.9c0.5-2.2,1.2-4.2,2.2-5.9c1-1.7,2.2-3.1,3.6-4.2c2.9-2.4,6-3.3,9.3-2.6
					c3.3,0.7,5.8,2.6,7.4,5.6c1.8,3.2,2.2,7.2,1.2,11.8c-0.9,4.2-2.8,7.5-5.7,9.9c-2.8,2.4-5.9,3.3-9.1,2.7
					c-3.3-0.7-5.9-2.6-7.6-5.6C788.4,456.2,788,452.4,788.9,447.9z M795.8,449.5c-0.7,3.6-0.9,6.8-0.3,9.4c0.2,1.2,0.6,2.2,1.1,2.9
					c0.5,0.7,1.1,1.2,1.9,1.3c0.8,0.2,1.5-0.1,2.3-0.7c0.7-0.6,1.4-1.5,2.1-2.7c1.2-2.2,2.2-5.2,3-9.2c0.8-4,1-7.1,0.7-9.5
					c-0.4-2.4-1.3-3.7-2.8-4c-2.4-0.5-4.6,1.9-6.4,7.2C796.7,445.9,796.2,447.6,795.8,449.5z"/>
				<path class="st0" d="M893.3,453.3c-0.1,1.6-0.4,3.6-0.8,5.9c-0.4,2.4-0.6,3.7-0.6,3.9l-19.6,4c-0.4-0.1-0.6-0.4-0.7-0.8
					c0.8-1.2,1.6-2.4,2.4-3.5s1.5-2.2,2.2-3.3c1.6-2.4,2.8-4.8,3.9-7.1c1.6-3.7,2.2-6.9,1.6-9.6c-0.3-1.5-1.2-2.7-2.6-3.5
					c-1.3-0.8-2.6-1.1-3.8-0.9c-1.2,0.3-2.2,0.6-2.8,1.1c-0.7,0.5-1.2,1-1.7,1.5c-0.4,0.5-0.8,1-1,1.4s-0.4,0.7-0.5,0.8
					c-0.1,0-0.3,0-0.7-0.2c-0.4-0.1-0.6-0.4-0.7-0.8c0.4-1.4,1.3-2.9,2.7-4.4c1.9-2,4.1-3.3,6.8-3.8c2.6-0.5,5-0.3,7,0.7
					c2.1,1.1,3.5,2.9,4,5.4c0.6,2.7-0.2,5.8-2.4,9.2c-3.1,4.7-5.8,8.6-8.2,11.6l9.2-1.9c2-0.4,3.3-1.7,3.7-3.7
					c0.2-0.6,0.3-1.1,0.4-1.4c0.1-0.4,0.3-0.6,0.7-0.7C892.4,453.2,892.8,453.2,893.3,453.3z"/>
				<path class="st0" d="M966.8,416.6c0.5,1.5,1.1,3.4,1.6,5.8c0.6,2.3,0.9,3.6,1,3.9L953,437.8c-0.4,0-0.7-0.1-0.9-0.4
					c0.3-1.5,0.5-2.8,0.8-4.1c0.3-1.3,0.5-2.6,0.7-3.9c0.5-2.8,0.7-5.5,0.7-8.1c0-4-0.7-7.2-2.3-9.5c-0.9-1.3-2.1-2-3.8-2.2
					c-1.5-0.3-2.8,0-3.8,0.7s-1.8,1.4-2.2,2.1s-0.7,1.4-0.9,2s-0.3,1.2-0.3,1.7s-0.1,0.8-0.1,0.9c-0.1,0.1-0.3,0.1-0.7,0.1
					s-0.7-0.1-0.9-0.4c-0.2-1.5,0-3.2,0.8-5.1c0.9-2.6,2.5-4.6,4.7-6.2c2.2-1.5,4.4-2.2,6.8-2.1c2.4,0.1,4.3,1.2,5.8,3.3
					c1.6,2.3,2.1,5.4,1.5,9.4c-0.9,5.5-1.9,10.2-2.9,13.9l7.7-5.4c1.7-1.2,2.3-2.8,2-4.9c-0.1-0.6-0.2-1.1-0.2-1.5
					c-0.1-0.4,0.1-0.7,0.4-0.9C965.9,416.8,966.3,416.7,966.8,416.6z"/>
			</g>
		</g>
		<g id="face_00000183239826991459898190000005752859238712498566_">
			<g id="shape_00000106859865937303688030000009104186414200940675_">
				<g>
					<path class="st1" d="M965.6,154.3c-0.4,7.7-1,15.5-1.8,23.1c-1,9-1.6,18-3.4,26.9c-1.9,8.9-4.5,17.6-8.1,25.9
						c-4.3,9.9-10.1,19.3-11.3,30.2c-0.1,1-0.1,2-0.2,3c0,0.9-0.1,1.8-0.2,2.7c0,0.2,0,0.5-0.1,0.7c0,0.2-0.1,0.4-0.1,0.5
						s0,0.3-0.1,0.4c0,0.3-0.1,0.5-0.2,0.8c0,0.1,0,0.2-0.1,0.3c-0.1,0.2-0.1,0.4-0.2,0.6c-0.1,0.3-0.2,0.5-0.4,0.8l0,0
						c-0.1,0.2-0.2,0.3-0.2,0.5c-0.7,1.3-1.7,2.4-2.9,3.3c-0.2,0.1-1.4,0.8-1.5,0.9c-0.1,0.5-0.1,1.1-0.2,1.6c0,0.5,0,0.9,0,1.4
						c0.1,3.8,1.4,7.8,2.5,11.2c1.9,5.7,4.6,11.2,7.6,16.4c11.8,20.3,17.5,15-18.9,28.5c-7.7,2.9-15.1,6.4-22.4,10.2
						c-15.3,7.9-30.1,16.8-44.6,26c-2.8,1.8-5.6,3.5-8.3,5.3c-12.9,8.2-25.6,16.7-37.8,25.9c-13,9.8-4.3-30.2-8.7-40.5
						c-3.4-7.9-1.7-16.6-3.3-24.8c-0.6-3-2.1-5-4.6-6.5l0,0c-0.3-0.2-0.5-0.3-0.8-0.4c-0.3-0.2-0.6-0.3-0.9-0.4
						c-3.6-1.7-7.5-2.6-11.4-3.4c-6.7-1.3-13.5-2.1-20.2-2.8c-0.7-0.1-1.5-0.1-2.2-0.2c-22.3-2.2-22.3-14.5-18.1-22
						c4.1-7.1,2.7-13.9-0.7-18.3c-0.2-0.2-0.3-0.4-0.5-0.6c-1-1.1-1.4-2.4-1.5-3.7c-0.2-3.6,2.1-7.1,2.1-7.1c-1-0.2-1.7-1.3-2.2-2.4
						c-0.3-0.6-0.5-1.3-0.7-1.8c-1-3.7,0.1-7.5,0.9-11.1c0.5-2.6,1.8-7.2-1-9c-0.4-0.2-0.8-0.4-1.3-0.5c-0.6-0.2-1.3-0.3-2-0.3
						c-0.6,0-1.3-0.1-2-0.1h-0.4c-0.7,0-1.4,0-2,0c-2.2,0-4.3-0.2-6.1-1.1c-1.3-0.6-2.3-1.7-3-2.9c0,0,0-0.1-0.1-0.1
						c-0.6-1.1-0.9-2.3-0.9-3.6c0.1-4.2,2-8.7,4.4-12.2c3.2-4.7,7.7-8.4,11.1-12.9c3-3.9,6.7-8.4,8-13.2c0.4-1.5,0.5-3,0.5-4.6
						c0-2.9-0.5-5.9-0.4-8.8c0.1-4.4,0.8-8.9,2.9-12.8c0.2-0.3,0.3-0.5,0.4-0.8c0.7-1.4,1.3-3,1.8-4.6c2.9-9.3,3.3-20.8,3.3-20.8
						c-7.2,0.4-16.4-9.6-18.1-16.5c-0.2-1-0.3-1.9-0.2-2.7l0,0c0-0.1,0-0.3,0.1-0.4c0-0.2,0.1-0.3,0.1-0.5c0.2-0.6,0.5-1.1,1-1.5
						c0.3-0.2,0.6-0.4,0.9-0.6c-1.2-6.4,0.6-10.8,3.6-12.3c0.8-0.4,1.6-0.5,2.5-0.5c0-0.4,0.1-0.8,0.2-1.1c0.3-2.2,0.8-4.1,1.3-6
						l0,0c2.8-9.6,7.8-14.3,11.2-15.3c-0.7,1.2-1,2.5-1.1,3.7c-0.3,4,1.9,7.6,1.9,7.6c0-2.5,0.8-5.1,1.7-7.3
						c1.6-3.8,3.8-6.7,3.8-6.7s-0.5,1.2-0.1,3.2c0.1,0.4,0.2,0.8,0.3,1.3c0.8-1.7,2.5-3.2,4.7-4.4c0.3-0.2,0.6-0.3,0.9-0.5
						c0.1,0,0.2-0.1,0.3-0.1c0.2-0.1,0.5-0.2,0.7-0.4c0.1,0,0.1-0.1,0.2-0.1c0.3-0.2,0.6-0.3,1-0.4c0.1,0,0.1,0,0.2-0.1
						c0.3-0.1,0.6-0.2,0.8-0.3c0.1,0,0.2-0.1,0.2-0.1h0.1c0.7-0.3,1.4-0.5,2.1-0.8c0.4-0.1,0.7-0.2,1.1-0.3c0.8-0.2,1.5-0.5,2.3-0.7
						c0.4-0.1,0.7-0.2,1.1-0.3c1.5-0.4,2.9-0.7,4.1-0.9c0.3-0.1,0.6-0.1,0.9-0.2c0.4-0.1,0.8-0.2,1.2-0.2c0.2,0,0.5-0.1,0.7-0.1
						c0.1,0,0.1,0,0.2,0c0.2,0,0.3,0,0.4-0.1c0.8-0.1,1.3-0.2,1.3-0.2c8.2-7.4,21.2-11.2,26.1-11c-2.8,0.5-7.3,5-7.6,5.3
						c12.1-7.6,24.5-5.5,24.5-5.5c19.5-10.9,24-0.2,24-0.2c4.3-5.5,8.1-1.4,8.1-1.4c2.4-5.5,9.3-0.5,9.3-0.5
						c11.3-2.8,17.4,0.3,19.8,2.1c0.9,0.7,1.3,1.2,1.3,1.2c10.9,0,20,6.2,25.6,11.5c4.1,3.8,6.5,7.1,6.5,7.1
						c9.1-3.6,16.2-0.9,21.5,3.7c8,7,11.7,18.3,11.7,18.3c-0.8-0.6-1.6-1.1-2.4-1.4c-0.1-0.1-0.2-0.1-0.4-0.2
						c-5-2.1-7.4,1.8-7.4,1.8c0.8-0.2,5.6,7,6.1,7.7c3.1,4.1,6.5,8.2,8.9,12.8C966.3,139.6,966,146.6,965.6,154.3z"/>
				</g>
			</g>
			<g id="shadow_00000106857421762678071210000018022673720469632388_">
				<path class="st2" d="M854.4,215.4c0.5-0.5,6.9-6.1,14.6-9.7c-1.6,1.8-3.3,4.6-4,8.1c-0.8,3.9,0,7.5,1,9.8c0.5,1.2,1,2.1,1.3,2.6
					c0.4,0.6,0.6,0.9,0.6,0.9s0-0.4-0.1-1.1c0-0.7-0.1-1.7,0-2.8c0-1.3,0.1-2.8,0.3-4.5c1-4.8,3.8-11.3,11.7-12.3
					c12.9-1.5,13.4,15.3,13.4,15.3s1.5-3.6,1.4-8.2c2.2,6.7,0.7,14.3-0.5,20.3c-1.5,8-10.7,17.1-13.7,19.6c-2.5,2-9.2,2.5-14.1,5.1
					c-0.8,0.2-1.7,0.5-2.7,0.9c-0.9,0.4-1.9,0.9-2.8,1.6c-0.9,0.7-1.8,1.4-2.7,2.1c-0.9,0.6-1.8,1-2.7,1.1c-0.4,0-0.9,0-1.1-0.1
					c-0.3-0.1-0.5-0.3-0.7-0.6c-0.5-0.6-0.8-1.9-1-3s-0.2-2.2-0.1-3.3c0.3-2.1,1.1-4,2.1-5.4s2.1-2.4,2.9-3l0,0
					c1.3-0.6,2.3-0.8,2.3-0.8c-0.5,0-0.9,0.1-1.3,0.2c0.2-0.1,0.4-0.2,0.4-0.2s-0.6,0-1.6,0.4c-0.6,0.2-1.4,0.5-2.3,1
					c-1.4,0.7-2.5,1.7-3.3,2.8c-1,1.2-1.8,2.7-2.3,4.5c-0.4,1.3-0.5,2.8-0.4,4.3c0.1,0.8,0.2,1.5,0.4,2.3c0.2,0.8,0.5,1.6,1.1,2.5
					c0.6,0.8,1.6,1.6,2.6,1.9s2,0.3,2.9,0.2c1.8-0.3,3.2-1.3,4.2-2.2c0.6-0.6,1.1-1.1,1.6-1.7c5.9-2.7,11.5-3.7,17.3-6.7
					c7.3-3.7,30.3-35,15-52.7C878.5,187.2,854.1,215.7,854.4,215.4z"/>
				<path class="st2" d="M778.5,203.8c-8.2-3.5-12.1-1.4-16.8-5.8c-4.6-4.5-6.9-5.1-12.1-10.7c-5.1-5.4-1.8-14-1.6-14.7
					c-0.1,0.3-0.3,0.6-0.4,0.8c-2.1,3.9-2.8,8.4-2.9,12.8c-0.1,2.9,0.4,5.9,0.4,8.8c0.3-2.3,1.1-4.9,3-4.5
					c3.4,0.7,11.4,8.9,12.1,11.7s-1.7,7.8-0.8,11.9c0.9,4.1,3.2,5.7-1.9,8.6c-5.1,2.9-4.5,6.2-2.9,16.2c1.5,9.3,4.3,16,4.7,16.9
					c-0.2-0.9-1.9-8.6-2.3-19.4c-0.4-11.5,15.4-24.7,15.4-24.7s-1.4-0.2-6.3,3.2s-5.7-1.8-4.6-5
					C762.8,206.9,773.9,203.4,778.5,203.8z M761.6,201.3h0.1c0.4,0,0.9,0.1,1.3,0.4c0.4,0.3,0.7,0.7,1.1,1c0.8,0.5,1.7,0.5,2.6,0.6
					c0.2,0,0.9,0.1,1,0.4c0,0.1-0.1,0.3-0.2,0.3c-0.2,0.1-0.3,0.1-0.5,0.1c-1,0.1-2.1,0.1-3.1,0.4c-0.3,0.1-0.6,0.2-0.9,0.2
					s-0.6-0.1-0.7-0.4c0-0.1,0-0.2,0-0.3s0-0.2,0-0.4s-0.1-0.5-0.2-0.7c-0.1-0.5-0.3-0.9-0.4-1.4
					C761.6,201.4,761.6,201.4,761.6,201.3z"/>
				<path class="st2" d="M745.6,271.5c0.9-0.2,1.8-0.1,2.7-0.2c1.3-0.2,2.5-0.7,3.8-1.1c1.9-0.6,3.9-0.7,5.8-0.3
					c2.1,0.4,4.7,1.7,5.6,3.7c0.7,1.6,1.1,3.4,1.4,5.2c0.5,3.1,0.8,6.2,0.8,9.3c4.5-23.9-8.9-27.6-8.9-27.6c5.3,3.4,5.5,8.7,5.5,8.7
					s-3.4-2.2-11.7-1c-8.3,1.2-7.8-2-6.4-9c1-5.3-2-10.3-3.6-12.4c1.8,0.6,3.3,1.4,5.4,2c5.4,1.6,8.1-3.4,6.1-9s-5.7-6.1-5.7-6.1
					c6.9,5.3,3.9,13,1.7,13.1c-2.2,0.2-6.7-4.9-16.5-2.8c-6,1.2-8.5-0.6-9.6-2.3c0.7,1.2,1.8,2.3,3,2.9c1.8,0.9,4,1.1,6.1,1.1
					c0.7,0,1.4,0,2,0l0,0h0.3h0.1c1.6,0.1,2.9,0.2,4,0.4c0.5,0.1,0.9,0.3,1.3,0.5c2.9,1.7,1.6,6.4,1,9c-0.7,3.6-1.9,7.5-0.9,11.1
					c0.3,0.6,0.5,1.2,0.7,1.8c0.5,1.1,1.2,2.1,2.2,2.4c0,0-2.3,3.5-2.1,7.1c0.1,1.3,0.5,2.6,1.5,3.7c0.2,0.2,0.4,0.4,0.5,0.6
					l-0.1-0.4c-0.1-0.3-0.2-0.6-0.2-0.9c0.1-0.5,0.5-0.8,1-0.9s0.9,0,1.4,0c2.4,0,4.4-1.6,6.5-2.9c1.5-0.9,3.2-1.7,4.9-2.2
					c0.9-0.3,1.9-0.5,2.9-0.5s2,0.3,2.7,1c0-1.5-1.3-2-2.7-2c-1.6,0-3.2,0.5-4.8,1c-2.6,0.9-5,2.1-7.6,3.1c-1.1,0.4-2.2,0.8-3.4,0.7
					c-0.2,0-0.4-0.1-0.6-0.2c-0.2-0.2-0.3-0.5-0.3-0.8c-0.1-1.3,0.2-2.6,0.9-3.6C743.3,272.5,744.4,271.7,745.6,271.5z"/>
				<path class="st2" d="M809.7,392.4c-1.2-7.1,7.8-9,8.1-17.8c0.2-8.8,9.1-14.1,9.1-14.1c-8.6,2.8-11.5,14.7-11.5,14.7
					s-8.5-11.2-9.6-24c-1.1-12.8-4.3-19.1-9.4-21.4c2.5,1.5,4,3.4,4.6,6.5c1.6,8.2,0,17,3.3,24.8c4.4,10.3-4.3,50.3,8.7,40.5
					c12.2-9.2,24.9-17.6,37.8-25.9c-7.5,3.6-15.2,7.5-19.8,10.1C819.8,392,810.9,399.5,809.7,392.4z"/>
				<path class="st2" d="M782.6,321c-7.9,1.2-14.3,1.8-19.6,1.8c6.8,0.7,13.6,1.5,20.2,2.8c3.9,0.8,7.8,1.7,11.4,3.4
					c-3.4-2-2.7-4.4,5.8-6.2c9.7-2,17.8-1.5,23.5-9.3c5.7-7.7,20.3-22.2,24.7-26.4c4.4-4.2,0.9-16.4,0.9-16.4
					C848.6,274.7,833.7,313,782.6,321z"/>
				<path class="st2" d="M744.9,135.1c0.8,1.3,1.9,2.7,3.2,4.2s3,3.1,5.2,4.2c2.2,1,4.5,1.4,6.5,1.4s3.8-0.2,5.3-0.5
					s2.6-0.6,3.5-0.9c0.8-0.3,1.2-0.4,1.2-0.4s-0.5,0-1.3,0.1c-0.8,0.1-2,0.2-3.5,0.2c-2.9,0.1-7.1,0.1-10.9-1.7
					c-1.9-0.9-3.5-2.2-4.9-3.5c-1.4-1.3-2.6-2.6-3.7-3.7c-1-1.1-1.8-2-2.3-2.6c-0.5-0.7-0.8-1-0.8-1s0.2,0.4,0.5,1.2
					C743.5,132.7,744.1,133.8,744.9,135.1z"/>
				<path class="st2" d="M749.6,131.9c-0.4-0.4-0.6-0.7-0.6-0.7s0.1,0.3,0.4,0.9c0.3,0.5,0.7,1.3,1.4,2.2c1.3,1.8,3.7,3.9,7,5.1
					c3.3,1.2,6.5,1,8.6,0.5c1.1-0.2,1.9-0.6,2.5-0.8c0.6-0.2,0.9-0.4,0.9-0.4s-0.3,0-0.9,0.1s-1.5,0.1-2.5,0.1c-2.1,0-5-0.3-7.9-1.4
					c-2.9-1-5.3-2.6-7-4C750.6,133,750,132.4,749.6,131.9z"/>
				<path class="st2" d="M751.9,129.9c0.4,0.4,1,1,1.8,1.7c1.6,1.4,4.1,3,7.3,4c3.1,1,6.1,1.2,8.2,1c1.1-0.1,1.9-0.2,2.5-0.3
					c0.6-0.1,0.9-0.2,0.9-0.2s-0.3,0-0.9-0.1c-0.6-0.1-1.4-0.2-2.4-0.3c-2-0.3-4.8-1-7.7-1.9c-2.9-1-5.5-2.1-7.3-3
					c-0.9-0.5-1.7-0.9-2.2-1.1c-0.5-0.3-0.8-0.4-0.8-0.4S751.5,129.5,751.9,129.9z"/>
				<path class="st2" d="M780.6,136.7c1.4-0.1,2.5-0.2,3.3-0.3c0.8-0.1,1.2-0.2,1.2-0.2s-0.4,0-1.2-0.1c-0.8-0.1-1.9-0.2-3.2-0.4
					c-2.1-0.3-4.8-0.7-7.8-1.5c0.8,0,1.3-0.1,1.3-0.1s-0.8-0.3-1.9-0.8c-1.2-0.5-2.7-1.3-4.4-2.1c-1.7-0.9-3.2-1.7-4.3-2.3
					c-1.1-0.7-1.8-1.1-1.8-1.1s0.3,0.8,1.2,1.8c0.4,0.5,0.9,1,1.4,1.5c-1.3-0.6-2.4-1.3-3.4-1.9c-1.1-0.7-2-1.4-2.6-1.9
					c-0.6-0.5-0.9-0.8-0.9-0.8s0.2,0.4,0.7,1s1.2,1.5,2.2,2.4c2,1.9,5.3,4.2,9.4,5.5C774,136.7,777.9,136.9,780.6,136.7z"/>
				<path class="st2" d="M787,132.1c0,0-0.4,0-1-0.1c-0.7-0.1-1.6-0.2-2.7-0.4c-1.4-0.3-3.1-0.7-4.9-1.3c0.3,0,0.6,0.1,0.8,0.1
					c0.8,0,1.4,0,1.9,0c0.4-0.1,0.7-0.1,0.7-0.1s-0.2-0.1-0.6-0.2c-0.4-0.1-1-0.3-1.7-0.6c-1.4-0.5-3.2-1.4-5-2.6
					c-1.8-1.2-3.4-2.4-4.5-3.4c-0.5-0.5-1-0.9-1.3-1.3c-0.3-0.3-0.5-0.5-0.5-0.5s0.1,0.2,0.2,0.6c0.1,0.4,0.4,1,0.8,1.7
					c0.4,0.8,1.1,1.7,1.9,2.5c-1.4-1-2.5-1.9-3.4-2.8c-0.8-0.8-1.4-1.5-1.8-2.1c-0.4-0.5-0.6-0.8-0.6-0.8s0.1,0.4,0.4,1
					s0.7,1.5,1.3,2.5c1.3,2,3.7,4.6,7.1,6.2c3.4,1.7,6.8,2,9.2,2c1.2,0,2.2-0.1,2.8-0.2S787,132.1,787,132.1z"/>
				<path class="st2" d="M789.9,125.7c0.6-0.1,0.9-0.2,0.9-0.2s-0.3-0.1-0.9-0.1c-0.6-0.1-1.4-0.2-2.5-0.4c-0.4-0.1-0.9-0.2-1.4-0.3
					c0.1,0,0.2,0,0.3,0c0.4-0.1,0.6-0.1,0.6-0.1s-0.8-0.3-2.1-0.7c-0.3-0.1-0.7-0.3-1-0.4c0.5,0.1,0.9,0.1,1.2,0.1
					c0.4,0,0.6,0,0.6,0s-0.2-0.1-0.5-0.3c-0.3-0.2-0.8-0.4-1.4-0.7c-1.1-0.6-2.6-1.6-4.1-2.7s-2.8-2.3-3.7-3.2
					c-0.5-0.5-0.8-0.8-1.1-1.1c-0.3-0.3-0.4-0.4-0.4-0.4s0.1,0.2,0.1,0.6c0.1,0.4,0.3,0.9,0.6,1.5c0.4,1,1.2,2.2,2.3,3.2
					c-0.6-0.3-1.1-0.6-1.5-0.9c-1.1-0.7-1.9-1.1-1.9-1.1s0.1,0.2,0.3,0.5c0.2,0.3,0.5,0.8,0.9,1.3c0.3,0.3,0.6,0.7,0.9,1
					c-1.3-0.7-2.5-1.5-3.4-2.2c-0.8-0.7-1.4-1.2-1.8-1.7c-0.4-0.4-0.6-0.7-0.6-0.7s0.1,0.3,0.4,0.8s0.7,1.3,1.4,2.2
					c1.3,1.7,3.7,3.8,6.9,5s6.3,1.4,8.4,1.3C788.4,125.9,789.3,125.8,789.9,125.7z"/>
				<path class="st2" d="M779.3,115.9c0,0,0.3,0.3,0.8,0.8c0.2,0.3,0.6,0.6,0.9,0.9c0.4,0.3,0.8,0.8,1.3,1.1c1,0.8,2.3,1.7,3.9,2.5
					c1.6,0.8,3.4,1.5,5.4,2s3.9,0.6,5.7,0.6c1.8,0,3.3-0.2,4.6-0.5c0.6-0.1,1.2-0.3,1.7-0.4s0.9-0.3,1.3-0.4
					c0.7-0.3,1.1-0.4,1.1-0.4s-0.4,0-1.1,0.1c-0.4,0-0.8,0.1-1.3,0.1s-1.1,0.1-1.7,0.1c-1.3,0-2.8,0-4.4-0.2
					c-1.3-0.1-2.6-0.4-4.1-0.6h-0.1c-0.3-0.1-0.8-0.3-1.4-0.5c-1.1-0.4-2.6-1.1-4.1-1.9s-2.8-1.7-3.8-2.4c-0.5-0.4-0.9-0.7-1.1-0.9
					c-0.3-0.2-0.4-0.3-0.4-0.3s0.1,0.2,0.2,0.5c0.1,0.3,0.3,0.8,0.7,1.3c0.2,0.4,0.5,0.7,0.8,1.1c-0.4-0.2-0.8-0.4-1.2-0.6
					c-0.6-0.3-1.1-0.6-1.5-0.8c-0.4-0.2-0.8-0.5-1.1-0.7C779.6,116.1,779.3,115.9,779.3,115.9z"/>
				<path class="st2" d="M789.6,114.5c-0.5-0.3-0.8-0.5-0.8-0.5s0.2,0.3,0.6,0.7c0.4,0.5,1.1,1.1,1.9,1.8c0.9,0.7,2,1.5,3.3,2.2
					c1.4,0.7,2.9,1.3,4.6,1.7c1.7,0.4,3.4,0.5,4.9,0.4s2.9-0.3,4-0.6c1.1-0.3,2-0.6,2.5-0.8c0.6-0.3,0.9-0.4,0.9-0.4s-0.3,0-1,0.1
					c-0.6,0.1-1.5,0.2-2.6,0.2c-1.1,0-2.4,0-3.8-0.1s-2.9-0.4-4.5-0.7c-1.6-0.4-3.1-0.8-4.4-1.3s-2.5-1-3.5-1.5
					C790.9,115.3,790.1,114.9,789.6,114.5z"/>
				<path class="st2" d="M795.9,111.7c-0.4-0.4-0.6-0.7-0.6-0.7s0.1,0.3,0.4,0.9c0.3,0.5,0.9,1.3,1.9,1.9c1.9,1.2,4.6,2.5,7.9,3.4
					c3.3,0.8,6.4,0.7,8.6,0.3c1.1-0.2,1.9-0.5,2.5-0.8c0.6-0.3,0.9-0.4,0.9-0.4s-0.3,0-0.9,0.1c-0.6,0.1-1.5,0.1-2.5,0.1
					c-2.1,0-5-0.4-8-1.2c-3.1-0.8-5.9-1.7-7.9-2.4C797,112.5,796.3,112.1,795.9,111.7z"/>
				<path class="st2" d="M802.5,108.5c0,0,0.1,0.3,0.4,0.7c0.3,0.4,0.9,0.9,1.7,1.4c1.6,0.9,3.9,1.9,6.6,2.5s5.2,0.6,7,0.5
					c1.8-0.2,2.9-0.4,2.9-0.4s-1.1-0.2-2.8-0.5c-1.7-0.3-4.1-0.8-6.6-1.4c-2.6-0.6-4.9-1.1-6.6-1.6
					C803.4,109.3,802.5,108.5,802.5,108.5z"/>
				<path class="st2" d="M830.5,110.9c0,0-0.3,0-0.9-0.1s-1.4-0.2-2.4-0.4c-2-0.3-4.7-0.9-7.7-1.7c-3-0.8-5.6-1.7-7.5-2.4
					c-1-0.4-1.7-0.7-2.3-0.9c-0.5-0.2-0.8-0.3-0.8-0.3s0.2,0.2,0.7,0.6c0.4,0.4,1.1,0.9,2,1.5c1.7,1.2,4.3,2.6,7.4,3.4
					c3.1,0.8,6.1,1,8.1,0.8c1-0.1,1.9-0.2,2.5-0.3C830.2,110.9,830.5,110.9,830.5,110.9z"/>
				<path class="st2" d="M816.8,101.3c-0.4-0.2-0.6-0.3-0.6-0.3s0.1,0.2,0.4,0.5s0.7,0.8,1.2,1.4c1.1,1.1,3,2.3,5.3,3
					s4.4,0.8,5.9,0.8s2.5-0.1,2.5-0.1s-0.9-0.4-2.3-0.8c-1.4-0.5-3.4-1-5.5-1.7c-2.1-0.6-4-1.3-5.3-1.9
					C817.7,101.8,817.2,101.5,816.8,101.3z"/>
				<path class="st2" d="M824,100.2c1.3,0.6,3,1.4,5,2.2c-1.2-0.3-2-0.5-2-0.5s0.8,0.7,2.2,1.5c1.2,0.8,3,1.6,5.1,2.2
					c0.1,0,0.3,0.1,0.4,0.1c-0.4,0-0.7-0.1-0.7-0.1s0.9,0.6,2.4,1.2c0.6,0.2,1.2,0.5,2,0.7c-1.5,0.1-2.4,0.1-2.4,0.1
					s0.9,0.4,2.3,0.8c1.5,0.4,3.6,0.8,5.9,0.7c2.3-0.1,4.4-0.6,5.9-1.1s2.3-0.9,2.3-0.9s-1,0-2.5,0c-0.1,0-0.3,0-0.4,0
					c1.2-0.4,1.9-0.8,1.9-0.8s-1,0-2.6,0c-1.4,0-3.3,0-5.4-0.1c0.6-0.1,1-0.2,1-0.2s-2.6-1.2-5.8-1.5l0,0c-0.8-1.3-1.9-2.7-3.5-3.9
					c-2.1-1.5-4.3-2.3-5.9-2.6c-0.8-0.1-1.5-0.2-1.9-0.2c-0.5,0-0.7,0-0.7,0s0.2,0.1,0.6,0.3c0.4,0.2,1,0.5,1.7,0.8
					c1.4,0.7,3.2,1.8,5.1,3.2c0.3,0.2,0.5,0.4,0.7,0.6c-0.1,0-0.2-0.1-0.3-0.1c-1-0.5-2.2-1.1-3.5-1.6c-2.5-1-4.9-1.5-6.7-1.8
					c-1.7-0.3-2.9-0.4-2.9-0.4S822.4,99.5,824,100.2z"/>
				<path class="st2" d="M831.6,91.8c-0.4-0.5-0.6-0.8-0.6-0.8s0.1,0.3,0.3,0.9c0.3,0.6,0.7,1.4,1.5,2.4c1.5,1.8,3.9,3.9,7,5.7
					c3.1,1.8,6.2,2.7,8.5,3.1c1.1,0.2,2.1,0.3,2.7,0.4c0.6,0,1,0.1,1,0.1s-0.3-0.1-0.9-0.4c-0.6-0.2-1.5-0.6-2.5-1
					c-2.1-0.9-4.9-2.2-7.8-3.9c-2.9-1.7-5.6-3.3-7.3-4.7C832.7,93,832,92.3,831.6,91.8z"/>
				<path class="st2" d="M845.4,95.6c-2.1-0.6-3.4-0.9-3.4-0.9s1.1,0.8,3,1.8c1.9,1,4.6,2.3,7.8,3.2c3.2,0.9,6.2,1.4,8.3,1.5
					c2.2,0.2,3.5,0.1,3.5,0.1s-1.3-0.4-3.3-1c-2.1-0.6-4.9-1.5-8-2.4C850.3,97,847.5,96.2,845.4,95.6z"/>
				<path class="st2" d="M859.8,93.8c0,0,0.7,0.8,2,2c1.3,1.1,3.2,2.5,5.6,3.7c2.4,1.1,4.7,1.7,6.4,2c1.7,0.3,2.8,0.3,2.8,0.3
					s-1-0.5-2.5-1.2s-3.6-1.7-5.9-2.8c-2.3-1.1-4.4-2-5.9-2.8C860.8,94.3,859.8,93.8,859.8,93.8z"/>
				<path class="st2" d="M867.9,94.9c1.1,0.9,2.6,2,4.3,3.1c1.7,1.1,3.4,2,4.6,2.7s2,1,2,1s-0.5-0.7-1.4-1.8c-0.9-1-2.3-2.4-4.1-3.5
					c-1.8-1.2-3.6-1.9-4.9-2.4c-1.3-0.4-2.2-0.6-2.2-0.6S866.8,94,867.9,94.9z"/>
				<path class="st2" d="M882.6,102.6c0,0-0.2-0.7-0.7-1.8c-0.5-1.1-1.4-2.4-2.6-3.7c-1.3-1.2-2.7-2.1-3.7-2.6
					c-1.1-0.5-1.8-0.7-1.8-0.7s0.5,0.6,1.2,1.4c0.8,0.9,1.8,2,3,3.2s2.3,2.2,3.2,2.9C882,102.1,882.6,102.6,882.6,102.6z"/>
				<path class="st2" d="M885,102.6c0,0,0.2-0.6,0.2-1.6s-0.3-2.3-1.1-3.6c-0.8-1.3-1.9-2.1-2.8-2.5c-0.9-0.4-1.5-0.5-1.5-0.5
					s0.3,0.5,0.8,1.3s1.1,1.8,1.8,2.8c0.7,1.1,1.3,2.1,1.8,2.8C884.7,102.1,885,102.6,885,102.6z"/>
				<path class="st2" d="M790.8,147.5c0.4,0.6,0.9,1.3,1.5,1.9c1,1,2.2,2.2,3.6,3.1c0.7,0.4,1.3,0.8,1.7,1.2c0.5,0.5,0.9,1,1.3,1.6
					c0.8,1.1,1.8,2.2,2.7,2.8c1,0.6,1.8,0.9,2.4,1c0.6,0.1,0.9,0.1,0.9,0.1s-0.3-0.1-0.8-0.4c-0.5-0.3-1.2-0.8-1.9-1.5
					c-0.7-0.7-1.3-1.7-2-2.9c-0.3-0.5-0.7-1.1-1.2-1.7c1.3,0.4,2.2,0.6,2.2,0.6s-1.1-0.7-2.8-1.8s-4-2.6-5.9-4.7
					c-0.9-1.1-1.7-2.2-2.1-3.4c-0.4-1.1-0.6-2.3-0.7-3.3c-0.1-1,0-1.8,0-2.4c0.1-0.6,0.1-0.9,0.1-0.9s-0.2,0.3-0.4,0.8
					c-0.2,0.5-0.5,1.3-0.7,2.4c-0.2,1-0.2,2.4,0.1,3.8C789.2,145.1,789.9,146.4,790.8,147.5z"/>
				<path class="st2" d="M797,157.5c0.6,1,1.5,2.1,2.6,3.2c1.1,1,2.5,2,4,2.9c2.9,1.7,5.5,3.2,7.1,4.7c0.8,0.7,1.4,1.4,1.7,1.9
					c0.4,0.5,0.5,0.8,0.5,0.8s-0.1-0.3-0.3-1c-0.2-0.6-0.6-1.5-1.3-2.4c-0.7-1-1.6-2-2.8-2.9c-1.2-1-2.6-1.9-4-2.8
					c-2.9-1.7-5.4-3.3-6.8-5c-0.7-0.8-1.2-1.5-1.5-2.1c-0.3-0.6-0.4-0.9-0.4-0.9s0,0.3,0.1,1C796.1,155.6,796.4,156.5,797,157.5z"/>
				<path class="st2" d="M820.7,181.9c1,0.8,1.7,1.5,2.2,2c0.2,0.3,0.4,0.5,0.5,0.6c0.1,0.1,0.2,0.2,0.2,0.2s0-0.1-0.1-0.3
					c-0.1-0.2-0.2-0.4-0.4-0.8c-0.3-0.6-0.9-1.6-1.8-2.6s-2.2-2-3.8-2.8c-1.6-0.8-3.6-1.3-5.6-1.5s-3.8-0.3-5.4-0.6
					c-1.5-0.4-2.9-1-3.9-1.8c-1-0.7-1.7-1.5-2.2-2c-0.5-0.6-0.7-0.9-0.7-0.9s0.1,0.4,0.4,1.1c0.3,0.7,0.9,1.6,1.8,2.6
					c0.9,1,2.3,2,4,2.6c1.7,0.6,3.7,0.8,5.6,1c1.9,0.2,3.7,0.5,5.2,1C818.5,180.4,819.7,181.2,820.7,181.9z"/>
				<path class="st2" d="M800.6,180c0.9,1.1,2.4,2.3,4.4,3.1s4,0.8,5.4,0.7c0.7-0.1,1.2-0.2,1.6-0.3c0.4-0.1,0.6-0.2,0.6-0.2
					s-0.2,0-0.6-0.1c-0.4-0.1-0.9-0.2-1.5-0.3c-1.3-0.3-2.9-0.8-4.7-1.5s-3.3-1.4-4.5-2.1c-0.6-0.3-1-0.6-1.4-0.8
					c-0.3-0.2-0.5-0.3-0.5-0.3s0.1,0.2,0.3,0.5C799.8,179,800.1,179.5,800.6,180z"/>
				<path class="st2" d="M800.2,131.6c0,0-0.2,0.2-0.4,0.7c-0.2,0.4-0.5,1.1-0.7,2c-0.4,1.8-0.1,4.4,1.3,6.8
					c1.4,2.4,3.4,3.9,4.9,4.8c1.5,0.9,2.4,1.4,2.4,1.4s-0.7-0.8-1.8-2.1c-1.1-1.3-2.6-3-3.8-5.1s-1.9-4.2-2-5.8
					c-0.1-0.8-0.1-1.5,0-2C800.2,131.9,800.2,131.6,800.2,131.6z"/>
				<path class="st2" d="M814.8,145.9c0.8,0.3,1.5,0.3,2,0.4c0.5,0,0.7,0,0.7,0s-0.2-0.1-0.7-0.3c-0.4-0.2-1-0.5-1.6-0.9
					c-1.3-0.9-2.8-2.4-4-4.4c-1.2-2-2-4.1-2.5-5.6s-0.6-2.6-0.6-2.6s-0.1,0.2-0.2,0.7s-0.2,1.2-0.2,2c0.1,1.7,0.4,4.1,1.8,6.4
					C811,144,813.1,145.4,814.8,145.9z"/>
				<path class="st2" d="M816.2,158.7c1.2,1.3,2.4,2.7,2.8,4.4c0.2,0.9,0.2,1.8,0.3,2.8c0.1,1,0.3,2,0.6,2.9
					c0.7,1.8,1.7,3.2,2.8,4.2c1,1,2,1.5,2.7,1.8c0.3,0.2,0.6,0.3,0.8,0.3c0.2,0.1,0.3,0.1,0.3,0.1s-0.1-0.1-0.3-0.2
					c-0.2-0.1-0.4-0.3-0.7-0.5c-0.6-0.5-1.4-1.2-2.2-2.2c-0.8-1-1.5-2.4-1.9-4c-0.2-0.8-0.3-1.6-0.4-2.6c0-0.9,0-2-0.3-3.2
					s-0.9-2.2-1.5-3c-0.6-0.8-1.4-1.5-2-2.1c-1.4-1.2-2.5-2.2-3.3-3.2s-1.2-2-1.4-2.7c-0.1-0.4-0.1-0.7-0.1-0.9s0-0.3,0-0.3
					s0,0.1-0.1,0.3c0,0.2-0.1,0.5-0.1,0.9c0,0.8,0.2,1.9,0.9,3.2C813.9,156.1,815,157.4,816.2,158.7z"/>
				<path class="st2" d="M828.2,168.9c0.5,0.3,0.8,0.3,0.8,0.3s-0.3-0.2-0.7-0.6c-0.4-0.4-0.9-1-1.4-1.9s-0.9-2-1.2-3.2
					c-0.3-1.3-0.6-2.7-1.1-4.3s-1.3-3-2.2-4.1c-0.9-1.1-1.9-1.9-2.8-2.5c-0.9-0.6-1.6-1.1-2.1-1.4c-0.5-0.3-0.8-0.5-0.8-0.5
					s0.9,1,2.2,2.5c0.7,0.8,1.4,1.7,2.1,2.8s1.2,2.3,1.7,3.8c0.5,1.4,0.9,2.9,1.4,4.2s1.2,2.4,1.9,3.3
					C827,168.1,827.7,168.6,828.2,168.9z"/>
				<path class="st2" d="M828.1,210.5c-0.3,1-0.5,1.5-0.5,1.5s0.3-0.5,0.7-1.4c0.5-0.9,1.1-2.2,1.8-3.8s1.5-3.7,2.1-6
					c0.1-0.3,0.1-0.6,0.2-0.9c0.1-0.1,0.1-0.3,0.2-0.6c0.2-0.6,0.5-1.4,0.7-2.5c0.5-2.2,0.7-5.3,0.2-8.6c-0.6-3.4-1.8-6.2-3-8.1
					c-0.6-0.9-1.1-1.7-1.5-2.2c-0.4-0.5-0.6-0.7-0.6-0.7s0.1,0.3,0.3,0.9c0.2,0.6,0.5,1.4,0.9,2.4c0.3,1,0.7,2.1,1,3.4
					c-0.9-1.6-2-2.9-3.1-3.9c-1.4-1.2-2.6-2-3.5-2.5c-0.9-0.5-1.4-0.7-1.4-0.7s0.4,0.4,1.2,1c0.8,0.6,1.9,1.6,3,2.9
					c1.1,1.3,2.2,3.1,3,5.2c0.8,2.1,1.3,4.6,1.4,7.2c0.2,5.2-1,10-2,13.4C828.8,208.2,828.4,209.5,828.1,210.5z"/>
				<path class="st2" d="M793.2,134.2c0.2-0.4,0.3-0.5,0.3-0.5s-0.2,0.1-0.5,0.4c-0.3,0.3-0.7,0.7-1.1,1.3c-0.8,1.2-1.5,3.3-1.3,5.5
					c0.2,2.3,1.3,4.2,2.3,5.2c0.2,0.3,0.5,0.5,0.7,0.6c0.8,1.2,1.8,2.1,2.6,2.7c0.7,0.4,1.2,0.7,1.7,0.9c0.4,0.2,0.6,0.2,0.6,0.2
					s-0.2-0.2-0.5-0.5s-0.7-0.7-1.2-1.3c-0.9-1.1-1.9-2.8-2.5-4.8c-0.6-2-0.7-4-0.5-5.4c0.1-0.7,0.2-1.3,0.3-1.7
					c0.1-0.4,0.2-0.6,0.2-0.6s-0.2,0.2-0.4,0.5c-0.3,0.4-0.6,0.9-0.9,1.6c-0.2,0.4-0.3,0.8-0.4,1.2c0-1.4,0.1-2.7,0.3-3.7
					C792.9,135,793.1,134.5,793.2,134.2z"/>
				<path class="st2" d="M850.1,190.4c0,0.5,0,0.8,0,0.8s0.1-0.3,0.3-0.7c0.2-0.5,0.4-1.2,0.5-2.1c0.1-0.9,0.2-2,0.1-3.2
					c-0.1-1.2-0.4-2.5-1-3.8c-0.5-1.3-1.3-2.4-2-3.4c-0.8-0.9-1.6-1.7-2.3-2.2c-0.7-0.5-1.4-0.9-1.8-1.1c-0.4-0.2-0.7-0.3-0.7-0.3
					s0.2,0.2,0.5,0.6c0.3,0.3,0.8,0.9,1.3,1.6c0.8,1.1,1.7,2.5,2.6,4.2c-1.3-2.3-3.3-3.7-4.8-4.4c-0.7-0.4-1.4-0.6-1.8-0.7
					c-0.4-0.1-0.7-0.2-0.7-0.2s0.2,0.2,0.6,0.4c0.4,0.3,0.9,0.7,1.4,1.2c1.1,1,2.5,2.6,3.6,4.6c1.1,1.9,1.8,3.9,2.1,5.4
					c0.2,0.8,0.3,1.4,0.3,1.8c0.1,0.4,0.1,0.7,0.1,0.7s0.1-0.2,0.2-0.7c0.1-0.4,0.3-1.1,0.3-1.9c0.1-1.1,0-2.5-0.4-3.9
					c0.7,2,1.2,3.9,1.4,5.3C850.1,189.2,850.1,189.9,850.1,190.4z"/>
				<path class="st2" d="M838.3,197.3c0,0,0.1-0.2,0.3-0.5s0.4-0.8,0.6-1.5c0.5-1.3,0.8-3.2,0.4-5.2c-0.3-2-1.1-3.7-1.8-4.9
					c-0.7-1.1-1.3-1.7-1.3-1.7s0.1,0.8,0.4,2.1c0.2,1.3,0.6,3,0.8,4.8c0.3,1.8,0.5,3.5,0.5,4.8c0,0.6,0,1.2,0,1.5
					C838.3,197.1,838.3,197.3,838.3,197.3z"/>
				<path class="st2" d="M830.7,149.8c1.2,2,3.7,4.2,6.7,5.8s5.8,2.8,7.7,3.9c1,0.5,1.7,1,2.2,1.3c0.5,0.4,0.8,0.6,0.8,0.6
					s-0.2-0.3-0.6-0.8c-0.4-0.5-1-1.2-1.9-1.9c-1.7-1.5-4.4-3.1-7.3-4.7c-2.9-1.6-5.4-3.2-6.9-4.8c-0.8-0.8-1.3-1.5-1.7-2
					c-0.3-0.5-0.5-0.8-0.5-0.8s0.1,0.3,0.3,0.9C829.8,148,830.1,148.8,830.7,149.8z"/>
				<path class="st2" d="M843.5,163.5c1.9,0.6,3.7,0.9,5.1,1.5c1.4,0.6,2.6,1.5,3.6,2.3s1.7,1.5,2.2,2s0.8,0.8,0.8,0.8
					s-0.2-0.3-0.6-1c-0.4-0.6-0.9-1.5-1.8-2.5c-0.8-1-2-2.1-3.5-3c-1.6-0.9-3.5-1.4-5.2-1.9c-3.5-1.1-6.5-2.8-8.5-4.3
					c-1-0.8-1.8-1.4-2.3-1.9s-0.8-0.8-0.8-0.8s0.2,0.3,0.6,1c0.4,0.6,1,1.5,1.9,2.4C836.6,160,839.6,162.3,843.5,163.5z"/>
				<path class="st2" d="M854.8,176c0.2,0.4,0.4,0.6,0.4,0.6s0-0.3-0.1-0.7c0-0.5-0.2-1.1-0.4-1.9c-0.5-1.6-1.5-3.7-3.3-5.5
					s-4-2.8-5.6-3.3c-0.8-0.2-1.5-0.3-1.9-0.4c-0.5,0-0.7-0.1-0.7-0.1s0.2,0.1,0.6,0.3c0.4,0.2,1,0.5,1.6,1c1.3,0.8,3,2.1,4.6,3.8
					c1.6,1.6,3,3.3,3.8,4.6C854.3,175.1,854.6,175.7,854.8,176z"/>
				<path class="st2" d="M862.4,165c0.6,0.4,0.9,0.7,0.9,0.7s-0.2-0.3-0.7-0.9c-0.5-0.6-1.2-1.3-2.2-2.1c-2-1.7-5.2-3.3-8.8-4.8
					c-3.5-1.5-6.5-3.1-8.4-4.7c-0.9-0.8-1.6-1.5-2.1-2.1c-0.4-0.5-0.7-0.9-0.7-0.9s0.1,0.4,0.4,1c0.3,0.7,0.8,1.6,1.7,2.6
					c1.6,2.1,4.7,4.2,8.3,5.8s6.8,2.7,9,3.9C861,164.1,861.9,164.6,862.4,165z"/>
				<path class="st2" d="M872,166c0,0-0.2-0.4-0.7-1s-1.2-1.5-2.2-2.4c-2-1.9-5.2-4.2-9.2-5.5c-2-0.6-3.9-1-5.5-1.6
					c-1.6-0.5-2.9-1.3-4-2.1c-1.1-0.8-1.9-1.5-2.4-2.1c-0.6-0.5-0.9-0.8-0.9-0.8s0.2,0.4,0.7,1c0.4,0.6,1.1,1.5,2,2.6
					c0.9,1,2.3,2.1,4,2.9c1.7,0.8,3.6,1.3,5.6,1.9c3.8,1.2,7,3,9.2,4.5c1.1,0.8,2,1.4,2.6,1.9C871.7,165.7,872,166,872,166z"/>
				<path class="st2" d="M866.2,156.4c-2.1-1.9-4.2-3.2-5.9-4c-1.6-0.8-2.7-1.2-2.7-1.2s0.9,0.8,2.2,1.9c1.3,1.2,3.2,2.8,5.1,4.6
					c2,1.8,3.8,3.4,5.1,4.7c1.3,1.2,2.1,2,2.1,2s-0.4-1-1.4-2.6C869.8,160.3,868.2,158.3,866.2,156.4z"/>
				<path class="st2" d="M872.1,161.1c-0.4-1.4-1.1-3.3-2.4-5.1s-2.8-3.2-3.9-4.1c-1.2-0.9-2-1.3-2-1.3s0.5,0.8,1.3,1.9
					c0.8,1.2,1.9,2.8,3,4.5c1.2,1.7,2.3,3.3,3.1,4.5c0.8,1.2,1.3,1.9,1.3,1.9S872.5,162.5,872.1,161.1z"/>
				<path class="st2" d="M873.6,162.1c0,0,0.1-0.1,0.2-0.4c0.1-0.3,0.2-0.7,0.2-1.2c0.1-1.1-0.3-2.5-1.1-3.8s-1.8-2.3-2.6-2.8
					c-0.8-0.6-1.4-0.8-1.4-0.8s0.3,0.6,0.7,1.4c0.4,0.9,1,2,1.7,3.2s1.4,2.2,1.8,3C873.5,161.5,873.6,162.1,873.6,162.1z"/>
				<path class="st2" d="M878.9,193.9c-0.1,0.3-0.2,0.4-0.2,0.4s0.2-0.1,0.4-0.2c0.3-0.1,0.7-0.4,1.1-0.8c0.9-0.7,1.9-2,2.4-3.7
					s0.3-3.3,0-4.4c-0.1-0.2-0.1-0.4-0.2-0.6c0.1-1.2,0-2.2-0.2-3.1c-0.2-0.8-0.4-1.4-0.6-1.8c-0.2-0.4-0.3-0.6-0.3-0.6s0,0.2,0,0.7
					c0,0.4,0,1.1-0.1,1.8c-0.1,1.5-0.5,3.5-1.3,5.5s-1.9,3.7-2.8,4.9c-0.5,0.6-0.9,1.1-1.2,1.4c-0.3,0.3-0.5,0.5-0.5,0.5
					s0.2-0.1,0.6-0.3c0.4-0.2,1-0.5,1.6-0.9c0.9-0.6,1.9-1.5,2.7-2.7c-0.4,1.1-0.7,2.1-1.1,2.8C879.3,193.2,879.1,193.6,878.9,193.9
					z"/>
				<path class="st2" d="M869.1,183.3c0,0,0.1-0.2,0.3-0.5c0.2-0.4,0.4-0.9,0.6-1.6c0.4-1.4,0.7-3.5,0.2-5.7s-1.6-4-2.6-5.1
					c-0.5-0.5-0.9-0.9-1.3-1.2c-0.3-0.2-0.5-0.4-0.5-0.4s0.1,0.2,0.3,0.6c0.2,0.3,0.4,0.9,0.7,1.5c0.6,1.3,1.1,3,1.6,4.9
					c0.4,2,0.6,3.8,0.7,5.1c0,0.7,0,1.3,0,1.6C869.1,183.1,869.1,183.3,869.1,183.3z"/>
				<path class="st2" d="M822.9,122.2c0.1-0.5,0.1-0.8,0.1-0.8s-0.2,0.3-0.4,0.8c-0.3,0.5-0.6,1.2-0.9,2.2s-0.6,2.1-0.7,3.5
					c-0.1,1.3-0.1,2.8,0.1,4.4c0.3,1.5,0.7,2.9,1.3,4.2c0.6,1.2,1.2,2.2,1.8,3c0.6,0.8,1.2,1.4,1.6,1.8c0.4,0.4,0.6,0.6,0.6,0.6
					s-0.1-0.3-0.4-0.8c-0.3-0.5-0.6-1.2-1-2.1c-0.8-1.8-1.6-4.2-2.1-7s-0.5-5.4-0.4-7.3C822.7,123.5,822.8,122.8,822.9,122.2z"/>
				<path class="st2" d="M827.6,118.8c0.2-0.4,0.2-0.6,0.2-0.6s-0.2,0.1-0.5,0.4s-0.7,0.7-1.1,1.2c-0.9,1.1-1.7,3-1.9,5.2
					c-0.1,2.2,0.4,4.1,0.8,5.4c0.5,1.3,0.9,2.1,0.9,2.1s0-0.9,0.1-2.2c0-1.4,0-3.2,0.1-5.1c0.1-1.9,0.4-3.7,0.8-4.9
					C827.2,119.6,827.4,119.1,827.6,118.8z"/>
				<path class="st2" d="M829.8,122.7c0.2-1.4,0.1-2.8,0.1-3.6c0-0.9,0.3-1.5,0.3-1.5s-0.2,0-0.4,0.2s-0.6,0.5-0.8,1
					c-0.5,1-1,2.2-1.1,3.8c-0.2,1.5,0.1,2.9,0.3,3.9c0.3,1,0.5,1.5,0.5,1.5s0.2-0.6,0.4-1.6C829.4,125.4,829.7,124.1,829.8,122.7z"
					/>
				<path class="st2" d="M836.1,116.6c-1.9,1.4-4.3,4.1-5,7.8c-0.8,3.7,0.3,7.2,1.6,9.2c0.6,1,1.2,1.8,1.7,2.2
					c0.5,0.5,0.7,0.7,0.7,0.7s-0.2-0.3-0.5-0.9c-0.3-0.6-0.7-1.4-1.1-2.5c-0.7-2.1-1.2-5.2-0.6-8.4c0.7-3.2,2.3-5.9,3.8-7.5
					c0.7-0.8,1.4-1.4,1.9-1.8s0.8-0.6,0.8-0.6s-0.3,0.1-0.9,0.4C837.9,115.4,837,115.8,836.1,116.6z"/>
				<path class="st2" d="M857.2,112.4c-0.2,0.1-0.4,0.1-0.7,0.3c-0.6,0.3-1.5,0.8-2.4,1.7c-1.9,1.7-3.7,5-3.6,9
					c0.1,3.9,1.8,7.1,3.2,9.1c0.7,1,1.3,1.8,1.8,2.3s0.7,0.8,0.7,0.8s-0.2-0.3-0.5-0.9c-0.3-0.6-0.7-1.5-1.2-2.6
					c-0.9-2.2-2-5.2-2.1-8.7c-0.1-3.4,1.1-6.5,2.4-8.3c0.7-0.9,1.4-1.6,1.9-2s0.8-0.6,0.8-0.6S857.4,112.3,857.2,112.4z"/>
				<path class="st2" d="M856.7,115c0.3-0.3,0.4-0.5,0.4-0.5s-0.2,0.1-0.6,0.3c-0.4,0.2-0.9,0.6-1.5,1.2c-1.1,1.2-2.2,3.3-2.2,5.9
					c0,2.5,0.8,4.6,1.4,6c0.6,1.4,1.2,2.2,1.2,2.2s-0.1-1-0.2-2.5c-0.2-1.5-0.4-3.5-0.4-5.7c0-2.1,0.5-4,1.1-5.3
					C856.1,115.9,856.5,115.4,856.7,115z"/>
				<path class="st2" d="M854,134.5c-0.9-1.1-1.9-2.6-2.9-4.4c-0.9-1.8-1.6-3.5-1.9-4.8c-0.2-0.7-0.3-1.2-0.4-1.6
					c-0.1-0.4-0.1-0.6-0.1-0.6s-0.1,0.2-0.2,0.6c-0.1,0.4-0.2,1-0.3,1.7c-0.1,1.5,0.1,3.6,1.2,5.6c1.1,2,2.7,3.5,3.9,4.2
					c0.6,0.4,1.2,0.6,1.6,0.8c0.4,0.1,0.6,0.2,0.6,0.2s-0.2-0.2-0.4-0.5C854.8,135.5,854.4,135,854,134.5z"/>
				<path class="st2" d="M892,150.7c0.2,0.6,0.3,1,0.3,1s0-0.4,0-1.1c-0.1-0.7-0.3-1.7-0.7-2.9s-1.1-2.5-2.1-3.9
					c-0.9-1.4-2.1-2.8-3.2-4.2c-1.2-1.4-2.2-2.8-3-4.1s-1.3-2.6-1.7-3.7c-0.3-1.1-0.4-2.1-0.4-2.8c0-0.3,0-0.6,0-0.8s0-0.3,0-0.3
					s0,0.1-0.1,0.3c-0.1,0.2-0.2,0.4-0.3,0.8c-0.2,0.7-0.4,1.7-0.3,3c0.1,1.3,0.5,2.8,1.2,4.3s1.8,3.1,2.9,4.5
					c1.2,1.5,2.4,2.8,3.4,4s1.9,2.3,2.5,3.4C891.4,149.1,891.8,150,892,150.7z"/>
				<path class="st2" d="M878.8,145.3c0.5,0.1,0.8,0.1,0.8,0.1s-0.2-0.1-0.7-0.4c-0.4-0.2-1-0.6-1.7-1.1c-1.4-0.9-3.2-2.4-5-4.1
					c-1.8-1.8-3.2-3.5-4.2-4.9c-0.5-0.7-0.9-1.3-1.1-1.7c-0.3-0.4-0.4-0.6-0.4-0.6s0,0.3,0.1,0.8c0.1,0.5,0.2,1.2,0.5,2
					c0.6,1.7,1.7,3.9,3.7,5.9c2,1.9,4.2,3.1,5.9,3.6C877.6,145.1,878.3,145.2,878.8,145.3z"/>
				<path class="st2" d="M875,145.2c0,0-0.2-0.1-0.6-0.4c-0.4-0.2-1-0.6-1.7-1c-1.2-0.8-2.8-1.9-4.5-3.2c-0.9-1-1.9-2.3-2.8-3.8
					c-1.1-1.8-2-3.6-2.5-5c-0.3-0.7-0.5-1.3-0.6-1.7c-0.1-0.4-0.2-0.6-0.2-0.6s0,0.2-0.1,0.7c-0.1,0.4-0.1,1.1,0,1.8
					c0.1,1.1,0.4,2.6,1,4.1c-0.1-0.1-0.2-0.2-0.3-0.3c-0.6-0.6-1.1-1.1-1.4-1.4c-0.3-0.3-0.5-0.5-0.5-0.5s0.1,0.3,0.3,0.7
					s0.5,1.1,0.9,1.8c0.9,1.5,2.4,3.5,4.5,5.1c2.1,1.6,4.4,2.6,6.1,3.1c0.8,0.2,1.5,0.4,2,0.5C874.8,145.2,875,145.2,875,145.2z"/>
				<path class="st2" d="M898.1,143.2c-0.6-2.1-1.8-3.8-2.9-4.8c-0.5-0.5-1-0.9-1.3-1.1c-0.3-0.2-0.5-0.4-0.5-0.4s0.1,0.2,0.3,0.5
					s0.4,0.8,0.7,1.5c0.6,1.2,1.2,2.9,1.8,4.8c0.3,1,0.6,2,0.8,3c-0.5-1.2-1.3-2.4-2.2-3.5c-2-2.3-4.2-3.8-5.6-5.1
					c-0.7-0.6-1.3-1.2-1.7-1.5c-0.4-0.4-0.6-0.6-0.6-0.6s0.1,0.3,0.4,0.8c0.2,0.5,0.6,1.2,1.2,2c1.1,1.6,3,3.6,4.8,5.7
					c1.8,2.1,3.2,4.3,3.7,6c0.3,0.9,0.4,1.6,0.4,2.2c0,0.5,0,0.8,0,0.8s0.1-0.3,0.3-0.8s0.3-1.3,0.2-2.4c0,0,0,0,0-0.1
					c0.1-0.4,0.3-0.9,0.4-1.5C898.7,147.4,898.7,145.3,898.1,143.2z"/>
				<path class="st2" d="M898.3,132.7c-0.3-0.5-0.5-0.7-0.5-0.7s0.1,0.3,0.2,0.9c0.2,0.5,0.4,1.4,0.6,2.3c0.2,1,0.5,2.2,0.6,3.6
					c-0.6-1.4-1.2-2.6-1.8-3.4c-0.9-1.2-1.5-1.8-1.5-1.8s0.3,0.9,0.7,2.2c0.4,1.4,0.9,3.2,1.5,5.3c0.5,2,1,3.9,1.4,5.3
					c0,0.1,0.1,0.3,0.1,0.4c-0.1,1.5-0.2,2.8-0.4,3.9c-0.2,1-0.3,1.8-0.5,2.4c-0.1,0.6-0.2,0.9-0.2,0.9s0.2-0.3,0.5-0.8
					s0.7-1.2,1.1-2.2c0.8-1.9,1.6-4.8,1.5-8.1c-0.1-3.3-1-6.1-2-8C899.1,133.9,898.7,133.2,898.3,132.7z"/>
				<path class="st2" d="M902.7,150.5c-0.1,0.5-0.1,0.8-0.1,0.8s0.1-0.2,0.4-0.7c0.3-0.4,0.6-1.1,0.9-1.9c0.6-1.7,1.2-4.2,0.8-7
					c-0.4-2.8-1.5-5.1-2.6-6.6c-0.5-0.7-1-1.3-1.4-1.6c-0.4-0.3-0.6-0.5-0.6-0.5s0.1,0.3,0.3,0.7s0.5,1.1,0.8,1.9
					c0.6,1.6,1.2,3.9,1.5,6.4s0.3,4.9,0.2,6.6C902.9,149.3,902.8,150,902.7,150.5z"/>
				<path class="st2" d="M903.9,115c1.9,0.3,3.1,0.3,3.1,0.3s-0.2-0.1-0.6-0.3c0.3,0,0.5,0,0.5,0s-0.2-0.1-0.5-0.3
					c-0.3-0.2-0.8-0.5-1.4-0.8c-1.2-0.7-2.7-1.7-4.2-2.9c-1.6-1.2-3-2.3-3.9-3.3c-0.5-0.5-0.9-0.8-1.2-1.1c-0.3-0.3-0.4-0.4-0.4-0.4
					s0.1,0.2,0.2,0.6c0.1,0.4,0.3,0.9,0.7,1.5c0.5,0.9,1.2,2,2.3,3.1c-0.3-0.2-0.6-0.3-0.9-0.5c-2.5-1.3-4.5-2.9-5.7-4.3
					c-0.6-0.7-1.1-1.3-1.4-1.8s-0.4-0.7-0.4-0.7s0,0.3,0.2,0.8c0.1,0.5,0.4,1.3,0.8,2.2c0.9,1.8,2.8,4,5.6,5.5
					C899.3,114.2,902,114.7,903.9,115z"/>
				<path class="st2" d="M898.6,106.4c0,0,0.2,0.7,0.8,1.6c0.5,1,1.4,2.2,2.7,3.3c1.3,1.1,2.7,1.8,3.7,2.1c1,0.4,1.7,0.5,1.7,0.5
					s-0.5-0.5-1.2-1.3c-0.8-0.8-1.8-1.8-3-2.8s-2.4-1.9-3.2-2.5C899.2,106.8,898.6,106.4,898.6,106.4z"/>
				<path class="st2" d="M903.9,107.6c-0.9-0.4-1.6-0.5-1.6-0.5s0.4,0.5,1,1.3c0.6,0.8,1.5,1.8,2.4,2.8c1,1,1.9,2,2.6,2.7
					s1.2,1.1,1.2,1.1s0-0.6-0.4-1.6c-0.3-1-0.9-2.3-2-3.4C906,108.8,904.8,108,903.9,107.6z"/>
				<path class="st2" d="M908.7,108.7c-0.8-0.4-1.3-0.6-1.3-0.6s0.2,0.5,0.6,1.2c0.4,0.7,1,1.7,1.7,2.6s1.5,1.7,2.2,2.3
					c0.6,0.6,1.1,0.9,1.1,0.9s0-0.6-0.3-1.4c-0.2-0.8-0.7-1.9-1.5-2.9C910.4,109.8,909.4,109.2,908.7,108.7z"/>
				<path class="st2" d="M914.1,114.7c1,1.3,2.2,2.2,3,2.8c0.9,0.6,1.5,0.8,1.5,0.8s-0.3-0.6-0.8-1.5s-1.3-2.1-2.2-3.3
					c-0.9-1.2-1.9-2.2-2.7-2.9c-0.7-0.7-1.3-1.2-1.3-1.2s0.1,0.7,0.5,1.7C912.5,112.1,913.1,113.4,914.1,114.7z"/>
				<path class="st2" d="M917.1,111c1.8,1.7,3.9,2.3,3.9,2.3s-0.8-2.1-2.6-3.7c-1.8-1.7-3.9-2.3-3.9-2.3S915.3,109.4,917.1,111z"/>
				<path class="st2" d="M931.9,138.6c0,1.3-0.1,2.3-0.1,3c-0.1,0.7-0.1,1.1-0.1,1.1s0.2-0.4,0.4-1.1c0.2-0.7,0.6-1.7,0.8-3
					c0.5-2.6,0.5-6.4-0.9-10.2c-1.4-3.9-3.9-6.8-5.9-8.4c-1-0.8-1.9-1.4-2.5-1.8c-0.6-0.4-1-0.5-1-0.5s0.3,0.3,0.8,0.8
					s1.2,1.3,2,2.2c1.6,1.9,3.5,4.9,4.8,8.4C931.5,132.6,931.9,136.1,931.9,138.6z"/>
				<path class="st2" d="M915.7,130.4c-0.6-1.6-1-2.6-1-2.6s0,1.1,0.1,2.8c0.1,1.7,0.2,4,0.5,6.6s0.6,4.9,0.9,6.6
					c0.3,1.7,0.5,2.7,0.5,2.7s0.2-1.1,0.4-2.8c0.2-1.7,0.3-4.1,0-6.7C916.9,134.3,916.3,132,915.7,130.4z"/>
				<path class="st2" d="M927.2,150.5c0.2-2,0.2-3.6,0.2-4.7c0-1.1,0-1.7,0-1.7s-0.1,0.6-0.3,1.7c-0.2,1.1-0.4,2.7-0.8,4.6
					c-0.4,1.9-1,4.2-2.2,6.4c-1.1,2.2-2.9,4.3-5.1,6.2s-4.6,3.5-6.7,5c-2.1,1.5-4,3-5.5,4.3c-1.5,1.4-2.5,2.6-3.1,3.5
					c-0.3,0.5-0.6,0.8-0.7,1.1c-0.1,0.3-0.2,0.4-0.2,0.4s0.1-0.1,0.3-0.3s0.5-0.5,0.9-0.9c0.8-0.8,1.9-1.9,3.5-3
					c1.6-1.2,3.5-2.4,5.8-3.7c2.2-1.4,4.7-2.9,7.1-4.9c2.4-2,4.3-4.5,5.3-7C926.6,154.9,927,152.5,927.2,150.5z"/>
				<path class="st2" d="M916.7,171.2c0,0-1,0-2.5,0.4c-1.5,0.3-3.6,1-5.7,2.2c-2.1,1.2-3.7,2.7-4.7,3.9s-1.5,2-1.5,2s3.3-2,7.2-4.2
					C913.4,173.2,916.7,171.2,916.7,171.2z"/>
				<path class="st2" d="M875.7,193.4c1.2-1.1,2.6-2.9,3.5-5.2c0.8-2.4,0.9-4.7,0.6-6.2c-0.1-0.8-0.3-1.4-0.4-1.8
					c-0.1-0.4-0.2-0.7-0.2-0.7s0,0.2-0.1,0.7c0,0.4-0.1,1.1-0.2,1.8c-0.2,1.1-0.5,2.6-1,4.1c0.2-1.3,0.1-2.5-0.1-3.4
					c-0.2-1.2-0.5-1.9-0.5-1.9s-0.2,0.8-0.4,1.9c-0.3,1.1-0.6,2.6-1,4.3c-0.4,1.6-0.8,3.1-1.1,4.3c-0.3,1.1-0.5,1.8-0.5,1.8
					s0.6-0.5,1.3-1.4c0.1-0.1,0.1-0.2,0.2-0.3c-0.3,0.6-0.6,1.1-0.8,1.6c-0.4,0.7-0.7,1.2-1,1.6c-0.2,0.4-0.4,0.6-0.4,0.6
					s0.2-0.1,0.6-0.4C874.6,194.3,875.1,193.9,875.7,193.4z"/>
				<path class="st2" d="M873.1,192.2c0.8-0.9,1.7-2.4,2.1-4.3c0.4-1.8,0.2-3.6-0.1-4.7c-0.3-1.2-0.7-1.8-0.7-1.8s-0.1,0.8-0.3,1.9
					c-0.2,1.1-0.5,2.6-0.8,4.3c-0.4,1.6-0.7,3.1-1.1,4.2c-0.3,1.1-0.6,1.8-0.6,1.8S872.4,193.1,873.1,192.2z"/>
				<path class="st2" d="M846.7,187.1c0.2,0.6,0.4,1.1,0.5,1.5c0.1,0.4,0.2,0.6,0.2,0.6s0-0.2,0.1-0.6c0.1-0.4,0.1-1,0.1-1.7
					c0-1.4-0.5-3.4-1.7-5.3c-1.3-1.8-3-3-4.3-3.6c-0.7-0.3-1.2-0.5-1.6-0.5c-0.4-0.1-0.6-0.1-0.6-0.1s0.2,0.1,0.5,0.4
					c0.3,0.2,0.7,0.6,1.2,1.1c1,0.9,2.1,2.3,3.2,3.9C845.4,184.2,846.2,185.8,846.7,187.1z"/>
				<path class="st2" d="M840.7,197.7c0,0,0.1-0.2,0.4-0.5c0.2-0.4,0.5-0.9,0.9-1.6c0.6-1.4,1.2-3.5,1.1-5.8
					c-0.1-2.4-0.9-4.4-1.6-5.7c-0.4-0.7-0.7-1.2-1-1.5c-0.3-0.3-0.4-0.5-0.4-0.5s0.1,0.2,0.1,0.6c0.1,0.4,0.2,1,0.4,1.7
					c0.2,0.9,0.3,2,0.4,3.3c-0.4-1.3-1-2.5-1.6-3.3c-0.4-0.6-0.8-1.1-1-1.4c-0.3-0.3-0.4-0.5-0.4-0.5s0.2,0.9,0.6,2.2
					c0.3,1.3,0.7,3.1,1,5.1s0.5,3.8,0.7,5.2c0.1,1.4,0.2,2.3,0.2,2.3s0.1-0.2,0.3-0.6c0.1-0.2,0.2-0.4,0.2-0.6
					c0,0.4-0.1,0.7-0.1,0.9C840.7,197.4,840.7,197.7,840.7,197.7z"/>
				<path class="st2" d="M820.3,206.6c-0.7,1.3-1.4,2.3-1.8,3c-0.4,0.7-0.7,1.1-0.7,1.1s0.3-0.3,0.9-0.9c0.6-0.6,1.4-1.5,2.4-2.6
					c0.9-1.2,2-2.6,3-4.4c0.9-1.8,1.6-4,1.7-6.4c0.1-2.4-0.6-4.7-1.5-6.5c-1-1.8-2.3-3.2-3.5-4.1c-1.2-0.9-2.4-1.4-3.2-1.7
					s-1.3-0.3-1.3-0.3s0.4,0.2,1.1,0.6c0.7,0.4,1.7,1.1,2.7,2.1c0.2,0.2,0.4,0.5,0.7,0.7c0,0.1,0.1,0.1,0.1,0.2
					c0.1,0.1,0.1,0.3,0.2,0.4c-0.5-0.7-1.1-1.2-1.6-1.6c-0.6-0.5-1.2-0.8-1.6-1.1c-0.4-0.2-0.6-0.3-0.6-0.3s0.2,0.2,0.4,0.5
					c0.3,0.3,0.6,0.8,1.1,1.5c0.8,1.3,1.7,3.1,2.3,5.1c0.6,2.1,0.8,4.1,0.7,5.6c0,0.7-0.1,1.4-0.1,1.8c-0.1,0.4-0.1,0.7-0.1,0.7
					s0.1-0.2,0.4-0.6c0.2-0.4,0.5-1,0.8-1.7c0.1-0.3,0.2-0.6,0.3-0.9c0.1,1.5,0.2,2.9,0.1,4.1C822.3,203.1,821.2,205.1,820.3,206.6z
					"/>
				<path class="st2" d="M747.4,132.2c-0.2-0.4-0.4-0.6-0.4-0.6s0,0.3,0.1,0.7c0.1,0.5,0.2,1.1,0.4,1.9c0.5,1.5,1.6,3.6,3.6,5.3
					c1.9,1.7,4.2,2.5,5.8,2.7c0.8,0.1,1.5,0.2,1.9,0.2c0.4,0,0.7,0,0.7,0s-0.2-0.1-0.6-0.3c-0.4-0.2-1-0.4-1.7-0.8
					c-1.4-0.7-3.1-1.8-4.8-3.3c-1.7-1.5-3.1-3-4-4.3C747.9,133.1,747.6,132.6,747.4,132.2z"/>
				<path class="st2" d="M885.7,101.7c0.1,0.3,0.1,0.5,0.1,0.5s0.1-0.2,0.2-0.5c0.1-0.3,0.2-0.8,0.3-1.5c0.1-1.3,0-3.1-1-4.9
					c-0.9-1.8-2.4-2.9-3.5-3.5c-0.6-0.3-1-0.5-1.4-0.6c-0.3-0.1-0.5-0.1-0.5-0.1s0.1,0.1,0.4,0.4c0.2,0.2,0.6,0.6,1,1.1
					c0.8,0.9,1.6,2.2,2.5,3.7c0.8,1.5,1.4,2.9,1.7,4.1C885.5,100.9,885.7,101.4,885.7,101.7z"/>
				<path class="st2" d="M838.6,93.1c0,0,0.1,0.2,0.3,0.7c0.2,0.4,0.6,1,1.1,1.8c1,1.4,2.8,3.2,5.1,4.5c2.4,1.3,4.8,1.8,6.6,1.9
					c0.9,0,1.6,0,2.1,0c0.5-0.1,0.7-0.1,0.7-0.1s-0.3-0.1-0.7-0.2c-0.5-0.1-1.1-0.3-1.9-0.6c-1.6-0.5-3.7-1.4-5.9-2.6
					s-4.1-2.5-5.4-3.5c-0.7-0.5-1.2-1-1.5-1.3C838.8,93.3,838.6,93.1,838.6,93.1z"/>
				<path class="st2" d="M931.7,114.6c-0.4-0.4-0.7-0.7-1-0.9c-0.6-0.5-0.9-0.7-0.9-0.7s0.2,0.3,0.7,0.9c0.2,0.3,0.5,0.6,0.8,1.1
					c0.3,0.4,0.6,0.9,0.9,1.5c0.7,1.1,1.4,2.4,2.1,4c0.4,1,0.9,2.1,1.3,3.2c-0.9-1.8-2.1-3.3-3.1-4.3c-0.6-0.6-1.2-1.1-1.6-1.3
					c-0.4-0.3-0.6-0.4-0.6-0.4s0.1,0.2,0.4,0.6s0.6,1,1.1,1.7c0.9,1.5,1.9,3.5,2.8,5.9c0.9,2.3,1.5,4.6,1.8,6.2
					c0.2,0.8,0.3,1.5,0.3,2c0.1,0.5,0.1,0.8,0.1,0.8s0.1-0.3,0.2-0.7c0.1-0.5,0.2-1.2,0.3-2.1c0.1-0.7,0.1-1.5,0-2.3
					c0.1,0.4,0.2,0.8,0.2,1.2c0.3,1.7,0.4,3.2,0.5,4.4c0.1,0.6,0,1.2,0,1.7s0,1,0,1.3c0,0.7,0,1.1,0,1.1s0.1-0.4,0.3-1.1
					c0.1-0.4,0.2-0.8,0.3-1.3c0.1-0.5,0.2-1.1,0.3-1.8c0.2-1.3,0.3-2.9,0.2-4.7s-0.4-3.7-1-5.7c-0.6-2-1.4-3.7-2.3-5.3
					c-0.9-1.5-1.9-2.8-2.7-3.8C932.5,115.4,932,115,931.7,114.6z"/>
				<path class="st2" d="M941,118.7c0,0,0.3,0.9,0.7,2.4c0.4,1.5,0.8,3.4,1.2,5.6c0.4,2.2,0.6,4.2,0.8,5.7c0.1,1.5,0.2,2.5,0.2,2.5
					s0.1-0.2,0.2-0.6c0.2-0.4,0.3-1,0.5-1.8c0.4-1.5,0.6-3.7,0.2-6.1c-0.4-2.4-1.4-4.4-2.2-5.7c-0.4-0.7-0.8-1.2-1.1-1.5
					C941.1,118.9,941,118.7,941,118.7z"/>
				<path class="st2" d="M938.5,125.1c0.7,2.5,1.2,4.8,1.5,6.5c0.3,1.7,0.5,2.8,0.5,2.8s0.1-0.3,0.2-0.8c0.1-0.5,0.2-1.2,0.3-2.1
					c0.2-1.8,0.1-4.3-0.6-7s-2-4.9-3-6.3c-0.5-0.7-1-1.3-1.3-1.7c-0.3-0.4-0.5-0.6-0.5-0.6s0.4,1.1,1,2.7
					C937,120.3,937.8,122.6,938.5,125.1z"/>
				<path class="st2" d="M931.2,123.1c-0.6-0.5-1.1-0.9-1.4-1.1c-0.4-0.2-0.6-0.3-0.6-0.3s0.1,0.2,0.4,0.5c0.2,0.3,0.5,0.8,0.9,1.5
					c0.7,1.2,1.6,3,2.3,4.9c0.7,2,1.2,3.8,1.5,5.3c0.1,0.7,0.2,1.3,0.3,1.7s0.1,0.6,0.1,0.6s0.1-0.2,0.2-0.6c0.1-0.4,0.3-1,0.4-1.7
					c0.2-1.5,0.2-3.7-0.6-5.9C933.7,125.7,932.3,124.1,931.2,123.1z"/>
				<path class="st2" d="M937.3,161c1.8-2.2,2.8-4.8,3-6.7c0.1-0.9,0.1-1.7,0.1-2.2s-0.1-0.8-0.1-0.8s-0.1,0.3-0.2,0.8
					c-0.1,0.5-0.4,1.2-0.7,2c-0.4,0.9-0.9,1.8-1.5,2.8c0.8-1.4,1.7-3.5,2.1-5.9c0.4-2.5,0.3-4.8,0-6.4c-0.3-1.6-0.6-2.6-0.6-2.6
					s-0.1,1-0.3,2.6s-0.5,3.7-0.9,6c-0.4,2.3-0.8,4.4-1.2,6c-0.3,1.2-0.5,2-0.6,2.4c-0.2,0.2-0.4,0.5-0.6,0.7
					c-1.7,2.1-3.4,3.8-4.6,5.2c-1.2,1.3-2,2.2-2,2.2s1-0.5,2.6-1.5C933.4,164.7,935.5,163.2,937.3,161z"/>
				<path class="st2" d="M932.6,174.5c1.7-0.8,4-2.4,5.9-4.6c1.9-2.3,3-4.8,3.6-6.6c0.3-0.9,0.4-1.7,0.5-2.2
					c0.1-0.5,0.1-0.8,0.1-0.8s-0.1,0.3-0.4,0.7c-0.2,0.5-0.6,1.1-1.1,1.9c-0.9,1.6-2.4,3.7-4.1,5.8c-1.8,2.1-3.6,3.9-5,5.1
					c-0.7,0.6-1.3,1.1-1.7,1.4c-0.4,0.3-0.7,0.5-0.7,0.5s0.3-0.1,0.8-0.2C931,175.2,931.7,174.9,932.6,174.5z"/>
				<path class="st2" d="M910.8,201c-0.4,0.3-0.6,0.5-0.6,0.5s0.3-0.1,0.7-0.3c0.5-0.2,1.1-0.5,1.9-0.9c1.5-0.9,3.5-2.4,5.1-4.6
					c1.6-2.2,2.3-4.6,2.6-6.4c0.1-0.9,0.2-1.6,0.2-2.1s0-0.8,0-0.8s-0.1,0.3-0.3,0.7s-0.4,1-0.8,1.7c0.4-1.8,0.3-3.5,0.1-4.7
					c-0.1-0.8-0.3-1.4-0.5-1.8c-0.2-0.4-0.3-0.6-0.3-0.6s0,0.3,0,0.7s-0.1,1.1-0.2,1.8c-0.2,1.5-0.6,3.5-1.4,5.6s-1.7,3.9-2.5,5.2
					c-0.4,0.6-0.8,1.2-1,1.5c-0.3,0.4-0.4,0.6-0.4,0.6s0.2-0.1,0.6-0.3c0.3-0.2,0.7-0.4,1.2-0.8c-1.1,1.4-2.2,2.6-3.1,3.5
					C911.7,200.2,911.2,200.7,910.8,201z"/>
				<path class="st2" d="M913.9,202.9c1.4-0.6,3.4-1.8,4.9-3.7c1.6-1.9,2.4-4,2.8-5.5c0.2-0.8,0.3-1.4,0.3-1.8c0-0.4,0-0.7,0-0.7
					s-0.1,0.2-0.3,0.6c-0.2,0.4-0.5,0.9-0.9,1.6c-0.8,1.3-1.9,2.9-3.4,4.6c-1.4,1.7-2.9,3.1-4,4.1c-0.6,0.5-1,0.9-1.4,1.2
					c-0.3,0.3-0.5,0.4-0.5,0.4s0.2-0.1,0.7-0.2C912.6,203.4,913.2,203.2,913.9,202.9z"/>
				<path class="st2" d="M916.7,214.1c0,0-0.3,0-0.9,0.1c-0.6,0.1-1.4,0.4-2.3,0.9c-0.3,0.2-0.7,0.4-1,0.7c0.2-0.2,0.4-0.5,0.6-0.7
					c0.7-0.8,1.4-1.4,1.9-1.9c0.5-0.4,0.8-0.6,0.8-0.6s-0.4,0-1,0.1c-0.4,0-0.8,0.2-1.4,0.3c0.4-0.5,0.7-1,1-1.4
					c1-1.3,1.7-2.1,1.7-2.1s-0.2,0.1-0.6,0.3c-0.4,0.2-1,0.6-1.7,1.1c-1.2,0.9-2.7,2.2-4,4c-1.7,1.3-3.3,3.3-4.2,5.9
					c-1.3,3.7-0.8,7.3-0.1,9.6c0.3,1.2,0.7,2.1,1,2.7c0.3,0.6,0.5,0.9,0.5,0.9s0-0.4,0.1-1c0.1-0.7,0.2-1.6,0.3-2.7
					c0.1-1.1,0.3-2.4,0.6-3.7c0,1.2,0.2,2.3,0.3,3.2c0.4,2,0.8,3.2,0.8,3.2s0.1-1.3,0.2-3.3c0.1-2,0.3-4.8,1.2-7.5
					c0.8-2.8,2.3-5,3.7-6.3c0.7-0.7,1.4-1.1,1.9-1.4C916.4,214.3,916.7,214.1,916.7,214.1z"/>
				<path class="st2" d="M931.7,265c1.3-0.4,3-1.4,4.1-3.2c1.1-1.8,1.3-3.8,1.2-5.1c-0.1-0.7-0.2-1.2-0.3-1.5s-0.2-0.5-0.2-0.5
					s0,0.2-0.1,0.6c-0.1,0.3-0.2,0.8-0.3,1.4c-0.3,1.2-0.9,2.7-1.8,4.1c-0.9,1.4-2,2.6-3,3.4c-0.5,0.4-0.9,0.7-1.2,0.9
					c-0.3,0.2-0.5,0.3-0.5,0.3s0.2,0,0.6,0C930.5,265.3,931.1,265.2,931.7,265z"/>
				<path class="st2" d="M931.5,212.2c0.2-0.5,0.5-1.2,1-2.1c0.4-0.9,1-1.9,1.7-2.9s1.6-2.1,2.5-3.2c1-1.1,1.9-2.3,2.6-3.5
					s1.1-2.4,1.3-3.4c0.2-1,0.1-1.9,0-2.4c-0.1-0.6-0.2-0.8-0.2-0.8s0,0.3-0.1,0.9c-0.1,0.5-0.3,1.3-0.7,2.2s-1,1.8-1.8,2.8
					s-1.7,2-2.7,3.1s-1.9,2.4-2.5,3.6c-0.6,1.2-1,2.4-1.2,3.4s-0.3,1.8-0.4,2.4c0,0.6,0,0.9,0,0.9S931.3,212.8,931.5,212.2z"/>
				<path class="st2" d="M948.9,157.7c0.3-0.6,0.5-0.9,0.5-0.9s-0.3,0.2-0.7,0.7c-0.5,0.4-1.1,1.1-1.8,2c-1.4,1.8-3.1,4.5-4.3,7.8
					s-1.5,6.5-1.5,8.8c0,1.1,0.1,2.1,0.1,2.7c0.1,0.6,0.1,1,0.1,1s0.1-0.3,0.2-1c0.1-0.6,0.3-1.5,0.5-2.6c0.5-2.2,1.2-5.1,2.3-8.2
					c1.1-3.1,2.3-5.9,3.3-7.9C948.1,159.1,948.6,158.3,948.9,157.7z"/>
				<path class="st2" d="M940.9,180.9c-0.6-1.6-1-3.1-1.3-4.2c-0.1-0.6-0.2-1-0.3-1.4c-0.1-0.3-0.1-0.5-0.1-0.5s-0.1,0.2-0.2,0.5
					c-0.1,0.3-0.2,0.8-0.4,1.4c-0.2,1.2-0.2,3,0.4,4.8c0.6,1.8,1.8,3.2,2.7,4c0.5,0.4,0.9,0.7,1.2,0.9c0.3,0.2,0.5,0.3,0.5,0.3
					s-0.1-0.2-0.2-0.5c-0.2-0.3-0.4-0.7-0.6-1.2C942,183.9,941.4,182.5,940.9,180.9z"/>
				<path class="st2" d="M947.1,179.5c0.4-3.1,0.4-6,0.2-8.1s-0.5-3.3-0.5-3.3s-0.7,5.1-1.5,11.2c-0.2,1.4-0.4,2.8-0.6,4
					c0-1.3,0.1-2.7,0.1-4.2c0.1-2.6,0.3-4.9,0.5-6.6c0.2-1.7,0.4-2.8,0.4-2.8s-0.1,0.2-0.4,0.7c-0.2,0.4-0.6,1.1-0.9,1.9
					c-0.7,1.6-1.4,4-1.5,6.8c-0.1,2.7,0.3,5.2,0.8,6.9c0.1,0.5,0.3,0.9,0.4,1.2c-0.3,2.1-0.5,3.3-0.5,3.3s0.4-0.8,1-2.1
					c0.1,0.1,0.1,0.2,0.1,0.2s0-0.2,0-0.4c0.1-0.2,0.2-0.5,0.3-0.8C945.8,185.4,946.6,182.7,947.1,179.5z"/>
				<path class="st2" d="M940.2,207.5c0.7-0.6,1.7-1.5,2.7-2.9s1.9-3.1,2.8-5.1c0.8-2,1.6-4.2,2.5-6.6c1.7-4.7,2.8-9.1,3.2-12.4
					c0.2-1.6,0.2-3,0.2-3.9s-0.1-1.4-0.1-1.4s-0.1,0.5-0.2,1.4c-0.2,0.9-0.4,2.2-0.8,3.7c-0.8,3.1-2.4,7.3-4,11.9
					c-0.8,2.3-1.5,4.6-2.2,6.6s-1.3,3.8-2.1,5.2c-0.7,1.4-1.5,2.5-2.1,3.1c-0.3,0.3-0.5,0.6-0.7,0.8s-0.3,0.3-0.3,0.3
					s0.1-0.1,0.3-0.2C939.5,208,939.8,207.8,940.2,207.5z"/>
				<path class="st2" d="M942.3,118.7c0,0,0.1,0.3,0.3,0.8c0.2,0.5,0.5,1.3,0.9,2.2c0.7,1.9,1.5,4.5,2.1,7.4
					c0.6,2.9,0.9,5.6,1.1,7.6c0.1,1,0.1,1.8,0.1,2.4c0,0.6,0,0.9,0,0.9s0.1-0.3,0.3-0.8c0.2-0.5,0.4-1.4,0.6-2.4
					c0.4-2,0.5-4.9-0.2-8c-0.7-3.1-2-5.7-3.2-7.4c-0.6-0.9-1.1-1.5-1.5-1.9C942.5,118.9,942.3,118.7,942.3,118.7z"/>
				<path class="st2" d="M944.9,120.4c-0.4-0.3-0.6-0.5-0.6-0.5s0.1,0.2,0.3,0.7c0.2,0.4,0.5,1.1,0.9,1.9c0.7,1.6,1.5,3.7,2.2,6.2
					c0.6,2.5,1,4.8,1.1,6.5c0.1,0.9,0.1,1.6,0.1,2.1s0,0.8,0,0.8s0.1-0.3,0.3-0.7c0.2-0.5,0.4-1.2,0.5-2c0.3-1.8,0.4-4.3-0.2-7
					c-0.7-2.7-2-4.9-3.2-6.2C945.7,121.2,945.2,120.7,944.9,120.4z"/>
				<path class="st2" d="M955,132.4c0-1.6-0.3-4-1.6-6.2c-1.3-2.2-3.1-3.7-4.6-4.5c-0.7-0.4-1.3-0.7-1.8-0.8
					c-0.4-0.1-0.7-0.2-0.7-0.2s0.2,0.2,0.5,0.5s0.8,0.7,1.3,1.3c1.1,1.1,2.4,2.8,3.5,4.7c1.1,2,1.9,3.9,2.3,5.4
					c0.2,0.7,0.4,1.4,0.4,1.8c0.1,0.4,0.1,0.7,0.1,0.7s0.1-0.2,0.2-0.7C954.9,133.9,955,133.3,955,132.4z"/>
				<path class="st2" d="M954.3,140.3c0.3-1.5,0.5-3.6,0-5.9c-0.5-2.3-1.6-4.2-2.5-5.3c-0.5-0.6-0.9-1-1.2-1.3
					c-0.3-0.3-0.5-0.4-0.5-0.4s0.1,0.2,0.2,0.6c0.2,0.4,0.4,0.9,0.6,1.6c0.5,1.4,1,3.2,1.5,5.3c0.4,2.1,0.7,4,0.9,5.4
					c0.1,0.7,0.1,1.3,0.1,1.7s0,0.6,0,0.6s0.1-0.2,0.2-0.6C954,141.6,954.1,141,954.3,140.3z"/>
				<path class="st2" d="M953.6,145.2c0-3-0.8-5.6-1.5-7.3c-0.4-0.9-0.8-1.5-1-2c-0.3-0.4-0.4-0.7-0.4-0.7s0.1,0.3,0.2,0.8
					c0.1,0.5,0.3,1.3,0.4,2.2c0.3,1.8,0.5,4.3,0.6,7c0,2.7-0.2,5.2-0.5,7c-0.1,0.9-0.3,1.7-0.4,2.2c-0.1,0.5-0.2,0.8-0.2,0.8
					s0.2-0.3,0.4-0.7c0.3-0.4,0.7-1.1,1-2C952.9,150.8,953.6,148.2,953.6,145.2z"/>
				<path class="st2" d="M773.3,103.6c0.1,0.4,0.2,0.6,0.2,0.6s0-0.2,0.1-0.6c0-0.4,0.1-1,0.2-1.7c0.2-1.4,0.5-3.3,1-5.3
					s1-3.8,1.5-5.1c0.2-0.7,0.4-1.2,0.6-1.6c0.1-0.4,0.2-0.6,0.2-0.6s-0.2,0.2-0.5,0.4c-0.3,0.3-0.7,0.7-1.2,1.3
					c-0.9,1.1-2,2.9-2.5,5.2c-0.5,2.2-0.4,4.3-0.1,5.7C772.9,102.6,773.1,103.2,773.3,103.6z"/>
				<path class="st2" d="M794,96.8c-0.7-0.8-1.5-1.8-2.2-2.9s-1.3-2.1-1.8-3.1s-0.8-2-1.1-2.8s-0.4-1.5-0.5-2
					c-0.1-0.5-0.2-0.8-0.2-0.8s0,0.3-0.1,0.8c-0.1,0.5-0.1,1.2-0.1,2.2c0,0.9,0.2,2,0.5,3.2c0.4,1.2,0.9,2.4,1.7,3.6s1.7,2.2,2.7,3
					s1.9,1.3,2.7,1.7c0.8,0.4,1.5,0.6,2,0.7s0.8,0.2,0.8,0.2s-0.2-0.2-0.6-0.4c-0.4-0.3-1-0.7-1.6-1.3
					C795.5,98.4,794.7,97.7,794,96.8z"/>
				<path class="st2" d="M783.8,101.1c-0.9-2.5-1.4-4.9-1.5-6.7c-0.1-0.9-0.1-1.6-0.1-2.1s0-0.8,0-0.8s-0.1,0.3-0.3,0.8
					s-0.4,1.2-0.5,2.2c-0.2,0.9-0.2,2.1-0.1,3.3c0.1,1.3,0.4,2.6,0.8,4c0.5,1.4,1.2,2.6,1.9,3.6c0.7,1,1.5,1.9,2.2,2.5
					s1.3,1.1,1.8,1.3c0.4,0.3,0.7,0.4,0.7,0.4s-0.2-0.2-0.5-0.6s-0.8-1-1.2-1.7C785.8,105.7,784.7,103.5,783.8,101.1z"/>
				<path class="st2" d="M800.2,91.2c-1.3-2.2-2-4.4-2.3-6.1c-0.2-0.9-0.2-1.6-0.3-2.1c0-0.5,0-0.8,0-0.8s-0.1,0.3-0.3,0.7
					c-0.1,0.5-0.3,1.2-0.4,2.1c-0.2,1.8,0.1,4.5,1.6,7.1c1.5,2.5,3.7,4.1,5.4,4.8c0.8,0.4,1.6,0.6,2.1,0.7s0.8,0.1,0.8,0.1
					s-0.2-0.2-0.7-0.4c-0.4-0.3-1-0.7-1.7-1.2C803.1,95.1,801.5,93.3,800.2,91.2z"/>
				<path class="st2" d="M815.9,92.2c-1.4-0.8-3.2-2-5-3.6c-1.7-1.6-3.1-3.3-4-4.7c-0.4-0.7-0.8-1.2-1-1.7c-0.2-0.4-0.3-0.6-0.3-0.6
					s0,0.3,0.1,0.7c0,0.5,0.2,1.1,0.4,2c0.5,1.6,1.6,3.8,3.5,5.6c2,1.8,4.3,2.7,5.9,3.1c0.8,0.2,1.5,0.3,2,0.3s0.7,0,0.7,0
					s-0.2-0.1-0.7-0.3C817.2,92.9,816.6,92.6,815.9,92.2z"/>
				<path class="st2" d="M828.8,92.2c0.3,0.3,0.5,0.5,0.5,0.5s-0.1-0.2-0.3-0.7c-0.2-0.4-0.5-1-0.8-1.7c-0.7-1.5-1.4-3.5-2.1-5.8
					s-1.2-4.4-1.5-6c-0.1-0.8-0.3-1.4-0.3-1.9c-0.1-0.5-0.1-0.7-0.1-0.7s-0.1,0.3-0.2,0.7c-0.1,0.5-0.2,1.1-0.3,1.9
					c-0.2,1.7-0.1,4,0.6,6.5c0.8,2.5,2.1,4.5,3.2,5.7C827.9,91.4,828.4,91.9,828.8,92.2z"/>
				<path class="st2" d="M757.3,123c0.5,0.3,0.7,0.5,0.7,0.5s-0.2-0.3-0.5-0.7c-0.3-0.5-0.8-1.2-1.3-2c-1-1.7-2.3-4.2-3.3-7.1
					c-1-2.8-1.6-5.5-2-7.5c-0.2-1-0.3-1.8-0.3-2.4c-0.1-0.6-0.1-0.9-0.1-0.9s-0.1,0.3-0.2,0.9c-0.1,0.6-0.3,1.4-0.3,2.5
					c-0.2,2.1,0,5.1,1.1,8.2c1.1,3.1,2.9,5.5,4.3,7C756.2,122.1,756.8,122.7,757.3,123z"/>
				<path class="st2" d="M742.4,122.8c-0.2-1.8-0.3-3.5-0.4-4.7c-0.1-1.2-0.1-2.1-0.1-2.1s-0.4,0.7-0.8,1.9c-0.4,1.2-0.7,3-0.6,5
					c0.2,2,0.9,3.7,1.5,4.8c0.6,1.1,1.2,1.8,1.2,1.8s-0.1-0.8-0.3-2C742.8,126.3,742.6,124.7,742.4,122.8z"/>
				<path class="st2" d="M867.7,72.1c0,0-0.2,0.3-0.4,0.9c-0.3,0.6-0.5,1.5-0.6,2.6c-0.2,2.3,0.7,5.7,3.3,8.3
					c2.5,2.6,5.5,3.7,7.6,4.4c1.1,0.3,1.9,0.5,2.5,0.7c0.6,0.1,0.9,0.2,0.9,0.2s-1.2-0.7-3.1-1.7c-1.9-1.1-4.5-2.6-6.7-4.8
					c-2.2-2.2-3.4-4.9-3.7-7c-0.2-1-0.1-1.9,0-2.5C867.7,72.5,867.7,72.1,867.7,72.1z"/>
				<path class="st2" d="M863.2,88.1c-1-1.4-2.3-3.4-3.4-5.7c-1.1-2.3-1.9-4.5-2.3-6.2c-0.2-0.8-0.4-1.5-0.5-2
					c-0.1-0.5-0.2-0.8-0.2-0.8s0,0.3-0.1,0.8c-0.1,0.5-0.2,1.2-0.2,2.1c0,1.8,0.3,4.3,1.6,6.9c1.2,2.5,3,4.4,4.4,5.5
					c0.7,0.6,1.3,1,1.8,1.2c0.4,0.2,0.7,0.4,0.7,0.4s-0.2-0.2-0.5-0.6C864.1,89.3,863.7,88.8,863.2,88.1z"/>
				<path class="st2" d="M841.8,73.3c0.2-0.6,0.3-0.9,0.3-0.9s-0.2,0.3-0.6,0.8c-0.3,0.5-0.8,1.3-1.2,2.3c-0.8,2-1.3,5.2-0.2,8.6
					c1.1,3.3,3.5,5.6,5.3,6.7c0.9,0.6,1.7,0.9,2.3,1.1c0.6,0.2,0.9,0.3,0.9,0.3s-0.3-0.2-0.8-0.5s-1.1-0.9-1.9-1.6
					c-1.5-1.4-3.2-3.7-4.1-6.6c-0.9-2.9-1-5.7-0.6-7.7C841.5,74.7,841.7,73.8,841.8,73.3z"/>
				<path class="st2" d="M885.5,79c-0.5-0.9-0.9-1.7-1.1-2.2c-0.3-0.5-0.4-0.8-0.4-0.8s0,0.3,0.1,0.9c0.1,0.6,0.2,1.5,0.5,2.5
					c0.3,1.1,0.8,2.3,1.4,3.6c0.7,1.3,1.5,2.6,2.6,3.9c1.1,1.3,2.3,2.3,3.5,3.2c1.2,0.8,2.3,1.5,3.3,1.9s1.8,0.7,2.4,0.9
					c0.6,0.1,0.9,0.2,0.9,0.2s-0.3-0.2-0.8-0.5s-1.2-0.8-2.1-1.4c-1.7-1.2-3.8-3.1-5.9-5.5C888,83.2,886.5,80.8,885.5,79z"/>
				<path class="st2" d="M898.5,81.2c0.7,1.8,2.1,4.2,4.1,6.4c2.1,2.2,4.4,3.6,6.2,4.5c0.9,0.4,1.6,0.7,2.1,0.9
					c0.5,0.2,0.8,0.3,0.8,0.3s-0.2-0.2-0.7-0.5c-0.4-0.3-1-0.8-1.8-1.4c-1.5-1.2-3.4-2.9-5.3-5c-1.9-2-3.5-4-4.7-5.6
					c-0.6-0.8-1-1.4-1.3-1.8s-0.5-0.7-0.5-0.7s0.1,0.3,0.2,0.8C897.9,79.5,898.1,80.3,898.5,81.2z"/>
				<path class="st2" d="M902.8,78.1c0,0,1.7,3.9,4.7,8.1s6.3,7,6.3,7s-1.7-3.9-4.7-8.1C906,80.9,902.8,78.1,902.8,78.1z"/>
				<path class="st2" d="M910.1,80.6c-0.6-0.6-1.2-1.1-1.5-1.4c-0.4-0.3-0.6-0.4-0.6-0.4s0.1,0.2,0.4,0.6s0.6,1,1,1.7
					c0.8,1.5,1.8,3.5,2.8,5.8c0.9,2.3,1.6,4.5,2,6.1c0.2,0.8,0.4,1.5,0.5,1.9c0.1,0.5,0.2,0.7,0.2,0.7s0-0.3,0.1-0.7
					c0.1-0.5,0.2-1.2,0.2-2c0-1.7-0.2-4.2-1.2-6.7C912.8,83.8,911.3,81.8,910.1,80.6z"/>
				<path class="st2" d="M943.7,101c1.9,0.4,3.1,0.7,3.1,0.7s-1-0.7-2.8-1.6s-4.3-1.8-7.3-2.3s-5.7-0.4-7.6-0.2
					c-1.9,0.2-3.1,0.6-3.1,0.6s1.2,0.2,3.1,0.4c1.9,0.2,4.5,0.6,7.3,1.1C939.3,100.1,941.8,100.6,943.7,101z"/>
				<path class="st2" d="M950.7,107.6c0.5,0.2,0.8,0.4,0.8,0.4s-0.2-0.2-0.7-0.6c-0.4-0.4-1.1-0.9-1.9-1.6c-1.7-1.2-4.2-2.7-7.3-3.6
					s-6-1.1-8.1-1.1c-1,0-1.9,0.1-2.5,0.2c-0.6,0.1-0.9,0.1-0.9,0.1s0.3,0.1,0.9,0.2c0.6,0.1,1.4,0.2,2.4,0.4c2,0.4,4.7,1.1,7.6,1.9
					c2.9,0.9,5.5,1.9,7.4,2.7C949.4,107.1,950.2,107.4,950.7,107.6z"/>
				<path class="st2" d="M938.6,93.2c-1.7-0.5-3.2-0.8-4.5-0.9c-0.6-0.1-1.2-0.1-1.7-0.1s-1,0-1.3,0c-0.7,0-1.1,0.1-1.1,0.1
					s0.4,0.1,1.1,0.2c0.4,0.1,0.8,0.1,1.3,0.3l0,0c-0.2,0-0.4,0-0.6,0c-1.6,0-3,0.1-4.2,0.3c-1.2,0.2-2.1,0.4-2.7,0.6
					c-0.6,0.2-1,0.3-1,0.3s0.4,0,1,0c0.7,0,1.6,0,2.7,0c0.5,0,1.1,0.1,1.7,0.1c-2,0.3-3.7,0.8-5,1.4c-0.8,0.4-1.5,0.7-1.9,1
					c-0.4,0.3-0.7,0.4-0.7,0.4s0.3-0.1,0.8-0.1c0.5-0.1,1.2-0.2,2.1-0.3c1.7-0.3,4.1-0.5,6.7-0.6c2.6,0,5,0.1,6.7,0.3
					c0.5,0.1,0.9,0.1,1.2,0.1c0.6,0.2,1.2,0.4,1.7,0.6c1.4,0.6,2.6,1.1,3.7,1.6c0.6,0.3,1.2,0.6,1.7,0.9c0.3,0.2,0.6,0.5,0.9,0.7
					c1.3,1,2.4,2,3.3,2.9c0.5,0.4,0.8,0.9,1.2,1.2c0.4,0.4,0.6,0.7,0.9,1c0.5,0.5,0.7,0.8,0.7,0.8s-0.2-0.4-0.5-1
					c-0.2-0.3-0.4-0.7-0.6-1.2c-0.3-0.4-0.5-1-0.9-1.5c-0.7-1.1-1.7-2.3-2.9-3.5s-2.7-2.4-4.5-3.4C942.1,94.4,940.3,93.7,938.6,93.2
					z"/>
				<path class="st2" d="M922.1,91.9c5.8-2.8,12.8-2.4,18.9-0.3c1.7,0.6,3.3,1.3,4.9,2.1c-5.2-4.6-12.4-7.3-21.5-3.7
					c0,0-2.4-3.3-6.5-7.1c-1.2-0.8-2.5-1.5-3.7-2.4c-1.1-0.9-2.2-1.9-3.3-2.7c-0.6-0.4-1.2-0.7-1.8-1.1c-3.5-1.9-7.4-3.7-11.4-3.2
					c2.3,0.5,4.5,1.2,6.6,2.1C911.8,78.7,919.5,83.8,922.1,91.9z"/>
				<path class="st2" d="M962.5,132.5c-2.5-4.5-5.8-8.7-8.9-12.8c-0.5-0.7-5.4-7.9-6.1-7.7c0,0,2.4-3.9,7.4-1.8
					c-0.5-0.2-1-0.4-1.6-0.6c-3.8-1.1-7.8-1.1-11.2,1.1c1.3,0.5,2.7,1,3.8,1.9c0.9,0.7,1.6,1.6,2.3,2.5c3.9,5.2,7.9,10.4,10.8,16.2
					c1.1,2.2,2.1,4.6,2.3,7.1c0.3,3,0.3,6.8-0.9,9.6c-1.2,2.6-3.5,4.5-5.2,6.9c-4,5.7-3.9,13.3-3.3,20.2c0.6,7,1.3,14.4-1.9,20.5
					c-0.7,1.4-1.6,2.6-2.3,4c-0.9,1.8-1.6,3.9-2.2,5.9c-0.4,0.5-0.9,1-1.4,1.5c1.1-1.5,1.5-3.1,1.7-4.3c0.1-0.6,0.1-1.1,0.1-1.4
					c0-0.3,0-0.5,0-0.5s-0.4,0.7-0.9,1.6c-0.6,1-1.4,2.2-2.4,3.5s-1.9,2.5-2.6,3.4c-0.7,0.8-1.2,1.4-1.2,1.4s0.2,0,0.5-0.1
					s0.7-0.2,1.1-0.4c0.1,0,0.1,0,0.2,0c0.3,0,0.7,0.1,1.2,0c0.7-0.1,1.6-0.3,2.4-0.8c-1,1.6-2.5,2.9-3.8,4.2
					c-1.6,1.8-3.1,3.8-3.5,6.2c1.6-2.3,3.7-4.1,6.2-5.3c-2,4.2-4,8.4-6.8,12.1c-1.2,1.2-2.6,2.6-3.8,4.3c-0.9,1.3-1.8,2.8-2.3,4.6
					c-0.3,0.9-0.4,1.8-0.4,2.8c0,0.4,0,0.7,0,1.1c-0.3-0.8-0.5-1.4-0.6-1.9c-0.2-0.8-0.4-1.2-0.4-1.2s-0.1,0.4-0.2,1.2
					c0,0.1,0,0.1,0,0.2c-0.1-0.3-0.2-0.6-0.2-0.8c-0.2-0.6-0.3-0.9-0.3-0.9s0,0.3,0,0.9c0,0.6,0,1.4,0,2.4c-0.1,2.1-0.4,4.8-1,7.8
					c-0.6,3-1.4,5.7-2.1,7.6c-0.4,1-0.7,1.7-0.9,2.3c-0.2,0.5-0.4,0.8-0.4,0.8s0.2-0.2,0.6-0.7c0.4-0.4,0.9-1.1,1.5-2
					c1.1-1.7,2.4-4.3,3.1-7.3v0.1c0,0.4-0.1,0.9-0.1,1.3c-0.3,2.3-0.7,4.4-1.1,5.9c-0.2,0.8-0.4,1.4-0.5,1.8
					c-0.1,0.4-0.2,0.7-0.2,0.7s0.2-0.2,0.5-0.5c0,0,0-0.1,0.1-0.1c-0.4,1.1-0.9,2.2-1.4,3.1c-0.7,1-1.3,1.8-1.8,2.5
					c-0.8,1.1-1.2,1.6-1.2,1.6s0.1-0.1,0.3-0.3c-0.2,0.2-0.3,0.3-0.3,0.3s0.4-0.1,1.2-0.5l0,0l0,0c0,0,0.2-0.1,0.7-0.3
					c0.4-0.2,1-0.5,1.7-0.9c0.3-0.2,0.6-0.4,0.9-0.7h0.1c0.4-0.1,0.9-0.4,1.6-0.7c1.3-0.7,3-2,4.2-4c1.2-1.9,1.7-4,1.8-5.5
					c0.1-0.7,0-1.3,0-1.7s-0.1-0.6-0.1-0.6s-0.1,0.2-0.2,0.6c-0.1,0.4-0.4,0.9-0.6,1.6c-0.5,1.1-1.2,2.6-2.2,4.1
					c0.5-1.4,0.8-2.8,0.8-3.9c0-0.8,0-1.5,0-2c-0.1-0.5-0.1-0.7-0.1-0.7s0,0.1-0.1,0.3c0,0,0,0,0-0.1c0.2-1.1,0.3-2.2,0.3-3.3
					c-0.1-1.8-0.6-3.6-0.9-5.3s-0.4-3.3,0.1-4.8c0.4-1.5,1.1-2.9,1.9-4.2c1.6-2.5,3.6-4.6,5.1-6.4c0.1-0.1,0.1-0.2,0.2-0.3
					c2.7-2,5.1-4.4,6-7.7c-0.2,1.7-1,3.3-1.2,5c-0.2,1.6,0.5,3.4,2,4c-1.1,1.8-2.8,3.7-4.8,5.8c-2.4,2.5-4.5,5.1-5.5,7.3
					c-0.5,1.1-0.8,2-1,2.6c-0.1,0.6-0.2,1-0.2,1s0.2-0.3,0.5-0.9c0.3-0.6,0.8-1.3,1.5-2.2c1.3-1.8,3.6-3.9,6-6.5
					c2-2.1,3.5-4.3,4.3-6.3c0,0.1,0,0.2,0,0.2c-0.3,4.2-1.9,8.3-4.3,11.8c-2.4,3.4-5.6,6.2-5.9,10.6c-0.1,2.3,0.6,4.6,1,6.9
					c0.3,1.8,0.3,3.6,0.1,5.4c-0.4,0.5-0.9,1.2-1.5,2.1c-0.6,0.9-1.2,2-1.9,3.3c-0.7,1.2-1.3,2.7-1.9,3.8c-0.6,1.2-1.3,1.9-2.2,2.6
					s-2,1.1-2.9,1.4c-1,0.3-1.8,0.5-2.4,0.7c-0.6,0.2-0.9,0.2-0.9,0.2s0.3,0.1,0.9,0.4c0.6,0.2,1.5,0.5,2.6,0.6
					c0.4,0,0.8,0.1,1.2,0.1c0.4,0.2,1,0.5,2,0.8c0.7,0.2,1.6,0.4,2.6,0.3c1,0,2.2-0.3,3.3-0.9s2-1.5,2.6-2.5c0.6-1,0.8-2,0.8-2.8
					s-0.2-1.4-0.3-1.8c1-2.2,1.1-4.5,1.2-6.9c0-1,0.1-2,0.2-3c1.2-10.9,7-20.4,11.3-30.2c3.6-8.3,6.2-17,8.1-25.9
					c1.8-8.9,2.5-17.9,3.4-26.9c0.8-7.7,1.4-15.4,1.8-23.1C966,146.6,966.3,139.6,962.5,132.5z"/>
				<path class="st2" d="M858.9,238.4c-0.3,0.8-0.5,1.5-0.7,2.4c-0.1,0.9-0.2,2,0.3,3.1c0.3,0.6,0.7,1.1,1.1,1.5
					c0.5,0.4,1,0.6,1.4,0.7c0.9,0.3,1.7,0.3,2.4,0.3c2.6,0.1,4.9-0.5,6.6-1.2c1.4-0.3,2.8-0.7,4-1.4c3.7-2,6.2-6.2,6.5-10.4
					c0.3-4.3-1.4-8.5-4.3-11.7c-0.8-0.8-1.7-1.6-2.4-2.5c-0.7-0.9-1.3-2-1.3-3.1c0.1,1.5,0.3,3,1,4.3c0.4,0.9,1.1,1.6,1.7,2.4
					c2.1,2.5,4,5.2,4.4,8.4c0.5,3.7-1.2,7.5-4,9.9c-0.3,0.3-0.6,0.5-1,0.7c-0.1,0.1-0.3,0.1-0.4,0.2c-1,0.4-2.4,0.9-4.2,1.3
					c-1.8,0.3-4,0.4-6.2,0.1c-0.6-0.1-1.1-0.2-1.5-0.4c-0.4-0.2-0.4-0.3-0.4-0.4c0-0.1-0.1-0.5,0-1c0.1-0.5,0.3-1.1,0.6-1.7
					c0.5-1.2,1.1-2.5,1.6-3.9s0.9-3,0.7-4.6c0-0.1,0-0.1,0-0.1c0-0.5-0.2-1.1-0.3-1.6c-0.2-0.8-0.6-1.6-0.9-2.2
					c-0.5-1.1-1.1-1.9-1.5-2.8c-0.9-1.6-1.3-3-1.3-4.1c0-0.5,0.1-0.9,0.1-1.2c0.1-0.3,0.1-0.4,0.1-0.4s-0.1,0.1-0.3,0.3
					c-0.1,0.1-0.2,0.3-0.3,0.4c0-0.1,0-0.1,0-0.2c-0.7,0.9-0.8,2.1-0.6,3.3c0,0.7,0.1,1.6,0.4,2.4c0.5,2,1.5,4.1,1.4,6.1
					c-0.1,1-0.4,2-0.9,3.1C860.2,235.6,859.5,236.9,858.9,238.4z"/>
				<path class="st2" d="M889.2,177.5c0.1,0.8,0.1,1.2,0.1,1.2s0.2-0.4,0.5-1.2s0.7-1.9,0.8-3.4c0.2-1.5,0.2-3.3-0.2-5.3
					c-0.4-2-1.2-4.1-2.6-6c-0.7-1-1.5-1.8-2.2-2.6c-0.8-0.7-1.6-1.3-2.4-1.9c-1.5-1.1-2.8-1.9-3.8-2.8c-1-0.8-1.7-1.7-2.1-2.3
					c-0.4-0.6-0.6-1.1-0.6-1.1s-0.1,0.4,0,1.3c0.1,0.6,0.3,1.5,0.8,2.5c-0.2-0.2-0.3-0.4-0.5-0.5c-1.1-1.3-1.9-2.4-2.4-3.3
					c-0.5-0.8-0.8-1.3-0.8-1.3s0.1,0.5,0.5,1.4c0.4,0.9,1,2.2,1.9,3.7c1,1.5,2.4,3.1,4.1,4.7c1.6,1.6,3.5,3.3,4.7,5.4
					c1.2,2.1,1.5,4.5,2,6.8c0.4,2.2,0.8,4.3,1,6c0.5,3.4,0.8,5.6,0.8,5.6s0.2-2.2,0.1-5.6c0-1.4-0.1-3.1-0.3-4.9
					c0,0.1,0.1,0.2,0.1,0.3C889,175.6,889.1,176.7,889.2,177.5z"/>
				<path class="st2" d="M735.1,127.1c-0.1,0.1-0.1,0.3-0.1,0.5c0,0.1,0,0.3-0.1,0.4c-0.1,0.8,0,1.7,0.2,2.7
					c1.6,6.9,10.9,16.9,18.1,16.5c0,0-0.4,11.6-3.3,20.8c1-2,1.4-4.1,2.2-6.2c0.7-2.1,1.8-4.1,3.2-5.8c0.7-1,1.6-1.9,1.9-3
					c0.2-1,0-2-0.4-2.9c-0.2-0.5-0.4-1-0.6-1.5c-0.1-0.2-0.4-1.3-0.5-1.3c1.9,0.6,3.9,0.6,5.8,0.2c1.9-0.4,3.7-1.3,5.3-2.3
					c-1.4,0.6-3,0.7-4.5,0.7c-3,0.1-6.2,0-9.2-0.6c-2.6-0.5-5.3-1.9-7.5-3.3c-1.4-0.9-2.7-1.9-3.8-3.1c-0.6-0.6-1.2-1.2-1.8-1.9
					c-0.3-0.4-1.5-1.4-1.5-1.9c0-0.1,0-0.2,0-0.4c0,0.1,0.1,0.1,0.1,0.2c1.1,1.4,2.4,2.4,3.4,2.9c1,0.6,1.7,0.8,1.7,0.8
					s-1.4-1.8-3-4c0.3,0.2,0.6,0.4,0.9,0.5c0.8,0.4,1.3,0.5,1.3,0.5c0.3,0.1,0.6,0.3,0.9,0.3c1,0.3,1.6,0.3,1.6,0.3
					s-0.4-0.4-1.1-1.1c-0.7-0.7-1.6-1.5-2.6-2.4c-0.7-0.6-1.4-1.2-2-1.7c-0.1-0.1-0.2-0.2-0.4-0.4c0.5,0.2,1,0.2,1.3,0.2
					c0.7,0,1.1-0.1,1.1-0.1s-0.4-0.1-1-0.5c-0.6-0.3-1.3-1-1.9-1.9c-2.5-3.8-0.6-8.8,1.1-12.4c0.1-0.1,0.1-0.2,0.2-0.3
					c0.3-0.6,0.6-1.3,1-1.8c0.5-0.7,1.3-1.3,2.2-1.3c1,0,1.9,0.6,2.6,1.2c0.3,0.2,0.6,0.4,0.8,0.7c0.2,0.3,0.2,0.9,0.2,1.2
					c0.3,1.9,0.6,3.8,1.4,5.5s2,3.3,3.7,4.2c-2.8-3.1-4.7-7.2-4.4-11.4c0.1-1.7,0.6-3.4,1.4-4.9c-1,0.8-1.5,1.8-1.7,3.1
					c0-0.1-0.9-0.9-1-1.1c-0.3-0.4-0.6-0.9-0.7-1.4c-0.5-1.8-0.1-3.7,0.4-5.5c1-3.5,2.9-6.9,5.9-9l0.3-0.2c0.2,4.2,1.8,8.3,4.3,11.6
					c1.6,2.2,3.6,4.1,5.9,5.6c-0.3-0.2-0.6-1-0.8-1.4c-0.3-0.5-0.5-1-0.7-1.5c-0.4-1-0.8-2-1-3.1c-0.9-4-0.3-8.5,2-11.9
					c1-1.5,2.4-2.9,3.9-3.9c1.8-1.1,3.5-2.1,5.5-2.9c-1.1,1.1-2,2.3-2.6,3.5c-0.7,1.6-1,3-1,4.3c0,1,0.1,1.9,0.2,2.5
					c-0.1,1,0,1.9,0.1,2.7c0.1,1.1,0.4,2,0.5,2.6c0.2,0.6,0.3,0.9,0.3,0.9s0-0.4,0-1s0-1.5,0.1-2.6c0.2-2,0.6-4.1,1.5-5.9
					c0.8-1.7,2-3.2,3.5-4.4c2.2-1.8,4.9-3.1,7.8-3.6c0.8-0.1,1.5-0.2,2.1-0.2c0.1,0,0.3,0,0.4,0c0,0-0.1,0-0.1-0.1
					c0.1,0,0.1,0,0.2,0c0.7,0,1,0,1,0s-0.3-0.2-0.9-0.6c-0.6-0.3-1.5-0.8-2.7-1.1c-0.2,0-0.4-0.1-0.6-0.1c3.3-0.4,7,1.2,10-0.2
					c1.6-0.7,2.7-2,3.7-3.5c-0.7,0.5-1.4,0.9-2.3,1.1c0.9-1.2,1.7-2.5,2.4-3.8c3.1-3,7.1-5.2,11.3-6.2c-3.4,1.4-6.1,4.4-7.2,7.9
					c2.8-1,5.5-2,8.3-3c-1.4,0.7-2.6,1.8-3.5,3c5.9-2.3,11.1-6.2,17.3-7.7c2.1-0.5,4.3-0.7,6.5-0.6c-2,0.6-3.7,1.8-5.1,3.3
					c1.7-0.7,3.4-1.3,5.2-1.8c1.5-0.4,3.1-0.7,4.6-1.3c2.9-1.2,5.2-3.3,8.1-4.5c2.4-1,5.2-1.1,7.7-0.3c2.5,0.8,4.7,2.6,5.9,4.9
					c0.5-1,1.1-2.1,2-2.7c0.8-0.6,2.1-0.7,3-0.7c2.2,0,4.5,0.8,6.2,2.2c-0.3-0.8-0.9-1.5-1.6-2c0.6-1.2,2.3-1.7,3.6-1.4
					c1.4,0.3,2.5,1.1,3.7,2c0.7,0.5,1.4,1,2.1,1.5c-0.4-0.6-0.1-1.4,0.5-1.8c0.5-0.4,1.3-0.6,2-0.7c3.8-0.5,7.6-0.4,11.4,0.4
					c1.4,0.3,2.8,0.7,4.2,1.2c-2.5-1.8-8.5-4.9-19.8-2.1c0,0-6.9-5-9.3,0.5c0,0-3.8-4-8.1,1.4c0,0-4.5-10.7-24,0.2
					c0,0-12.4-2.1-24.5,5.5c0.3-0.3,4.8-4.8,7.6-5.3c-4.9-0.1-18,3.7-26.1,11c0,0-0.5,0.1-1.3,0.2c-0.1,0-0.3,0-0.4,0.1
					c-0.1,0-0.1,0-0.2,0c-0.2,0-0.4,0.1-0.7,0.1c-0.4,0.1-0.8,0.1-1.2,0.2c-0.3,0-0.6,0.1-0.9,0.2c-1.2,0.2-2.6,0.6-4.1,0.9
					c-0.4,0.1-0.7,0.2-1.1,0.3c-0.8,0.2-1.5,0.4-2.3,0.7c0,0,0,0-0.1,0c-0.3,0.1-0.7,0.2-1,0.3c0,0-0.1,0-0.2,0.1
					c-0.7,0.2-1.4,0.5-2.1,0.8c-0.1,0-0.2,0.1-0.2,0.1c-0.3,0.1-0.6,0.2-0.8,0.3c-0.1,0-0.1,0-0.2,0.1c-0.3,0.1-0.6,0.3-1,0.4
					c-0.1,0-0.1,0.1-0.2,0.1c-0.2,0.1-0.5,0.2-0.7,0.4c-0.1,0-0.2,0.1-0.3,0.1c-0.3,0.2-0.6,0.3-0.9,0.5c-2.2,1.2-3.9,2.7-4.7,4.4
					c-0.2-0.5-0.3-0.9-0.3-1.3c-0.4-2.1,0.1-3.2,0.1-3.2s-2.2,2.9-3.8,6.7c-0.9,2.3-1.7,4.8-1.7,7.3c0,0-2.2-3.6-1.9-7.6
					c0.1-1.2,0.4-2.5,1.1-3.7c-3.4,1-8.4,5.7-11.2,15.3l0,0c-0.5,2-1,4-1.3,6c-0.7-0.1-1.6-0.1-2.6,0.3c-1.4,0.6-2.6,1.8-3.6,3.2
					c-1,1.3-2,3-2.6,5c-0.6,2-0.6,4.2,0,6C734.7,126.2,734.9,126.7,735.1,127.1z"/>
				<path class="st2" d="M924.7,219.9c0.2-0.5,0.3-0.8,0.3-0.8s-0.3,0.1-0.7,0.4c-0.5,0.3-1.1,0.7-1.9,1.4c-0.3,0.3-0.7,0.6-1.1,1
					c0.6-1.3,1.1-2.6,1.6-3.6s0.8-1.8,1.1-2.4c0.3-0.6,0.4-0.9,0.4-0.9s-0.3,0.2-0.9,0.5c-0.6,0.3-1.3,0.9-2.2,1.7
					c-1.8,1.5-3.9,4-5.3,7.4c-1.4,3.3-1.6,6.6-1.4,9c0.1,1.2,0.2,2.1,0.4,2.7c0.1,0.6,0.3,1,0.3,1s0.1-0.3,0.3-0.9
					c0.2-0.5,0.4-1.3,0.8-2.2c0,0.1,0,0.2,0,0.3c0,1,0.2,1.8,0.3,2.3s0.2,0.8,0.2,0.8s0.2-0.3,0.4-0.8c0.2-0.5,0.6-1.2,1-2
					c0.8-1.7,1.9-3.8,3-6.3c1.1-2.4,1.9-4.7,2.6-6.4C924.3,221.1,924.6,220.4,924.7,219.9z"/>
				<path class="st2" d="M870.3,114c0-0.4,0.1-0.7,0.1-0.7s-0.2,0.1-0.6,0.4c-0.4,0.3-0.9,0.7-1.4,1.2c-0.6,0.6-1.2,1.5-1.8,2.6
					c-0.1-1.3-0.1-2.1-0.1-2.1s-0.4,0.7-0.9,2.1c-0.4,1.3-0.8,3.2-0.6,5.3c0.2,2.1,0.9,3.9,1.6,5.1c0.7,1.2,1.2,1.9,1.2,1.9
					s-0.1-0.6-0.2-1.6c0.1,0.2,0.2,0.3,0.2,0.3v-0.1c0,0.1,0.1,0.1,0.1,0.1s0.1-0.2,0.3-0.6c0.2-0.4,0.5-0.9,0.8-1.6
					c0.6-1.3,1.5-3,2.3-4.8s1.4-3.6,1.9-5c0.3-0.7,0.5-1.3,0.6-1.7c0.2-0.4,0.2-0.7,0.2-0.7s-0.2,0.1-0.7,0.2
					c-0.4,0.2-1,0.4-1.7,0.9c-0.6,0.4-1.2,0.8-1.8,1.4c0-0.3,0.1-0.6,0.1-0.9C870.2,115,870.3,114.4,870.3,114z"/>
			</g>
		</g>
	</g>
</g>
<g id="Back">
	<g id="back">
		<g id="reference">
			
				<image style="overflow:visible;opacity:0.29;" width="1000" height="875" xlink:href="9223CA15.jpg"  transform="matrix(0.5696 0 0 0.5696 -28.7864 6.8119)">
			</image>
		</g>
		<g id="text">
		</g>
		<g id="face">
			<g id="shadow">
				<g>
					<path d="M129.1,279.3c5.3-1.4-2.4-14-5.3-20c-2.2-4.4,0.3-9.2,2.1-11.6c-0.2,0.1-0.4,0.2-0.7,0.4c-0.2,0.1-0.4,0.3-0.6,0.6
						c-5.2,6.9-0.9,15.5,3,21.8C131.1,276,129.2,279.1,129.1,279.3z"/>
					<path d="M133.2,265.8c0.1-5.6,6-10.6,6.7-11.2c-2.7,1.6-5.8,5-6.6,7.2c-1.1,3-1.7,10.6-1.7,10.6S133,271.9,133.2,265.8z"/>
					<path d="M134.9,271.9c-1.2,2.7-1.5,6-1.5,7.7c0.2-5.9,4.2-8.9,7.6-10.8c3.6-2,4.3-15,1.5-15.1c-0.3,0-0.6,0.1-1,0.2
						c0.1,0,1.2-0.2,1.5,0.6c0.3,0.8,0.7,7.5-0.8,9.9C140.8,266.7,136.6,268.3,134.9,271.9z"/>
					<path d="M144.5,279.6c-0.9,6.1-5,9.2-6.2,8.5c-1.2-0.7,0.3-2.3,2-4.6c1.7-2.3,1.1-3.5,1.1-3.5c-0.4,3.1-3.4,5.5-4.5,7.7
						c-1.1,2.2,1.1,1.2,1.1,1.2c0,1.9,1.8,1.3,1.8,1.3C143.3,287.3,144.6,282.9,144.5,279.6z"/>
					<path d="M119.7,282.1c1.7,0.7,3.6,0.4,5.4,0.4c0,0,1.9,0.2,2.9,0.7c0.9,0.5,0.7,4.2-1.9,4.3c-2.6,0.1-2.8-2.8-2.8-2.8
						s-1,4,2,4.5c3,0.6,3.1-1.1,3.1-1.1s1.5,0.4,1.7,3c0.1,0.9,0.6,1.5,1.3,1.8c0.1,1,0.1,2.6-0.5,3.3c-0.9,1.2-2.4,0.2-2.4,0.2
						c-2.9-2.5-5.3-1.7-5.3-1.7c3.9,0.3,4.1,2.6,4.1,2.6s-1.4,0.4-4.3-0.4c-2.9-0.8-3.9-1.6-5.4-1.3c2.1,0.1,4.4,1.8,5.9,2.3
						c1.5,0.6,6,0.7,7.8,1.4c1.8,0.7,1.6,1.8,2.9,2.4s1.6-1.6,0.6-1.8c-0.4-0.1-0.5-0.4-0.6-0.7c-0.1-0.5-0.1-0.9-0.1-1.4
						c0-0.3,0.1-0.7,0-1c-0.1-0.3-0.3-0.5-0.6-0.4c0,0-0.1,0-0.1,0c0,0,0-0.1-0.1-0.1c0-0.2-0.1-0.3-0.1-0.5c-0.1-0.7-0.1-1.3,0-2
						c0-0.2,0.1-0.4,0.1-0.7c0.5,0,0.8,0,0.8,0c-0.3,2,1.6,2.2,1.6,2.2s0.3,4.9,0.8,6.4c0.5,1.5,3.2,0.6,3.2,0.6
						c-0.2,2.1,2.7,2.5,2.7,2.5s0.4,1.9,0.6,3.4c0.1,1.4,2.1,2.4,2.3,2.5c-0.2-0.2-2-1.6-1.8-4c0.2-2.6,2.5-2.4,2.4,0.6
						c-0.1,2.9,1.6,2.2,1.8,2.2c0-0.9,0.3-2.9,3.1-5.9c3.7-4.2,3.2-7.6,3-12c0-0.2,0-0.5,0-0.7c-0.1,3.2-2,8.8-3.4,10.6
						c-1.4,1.9-2.1-1.8-1.6-4.4c0.4-2.5,2.5-6.5,2.8-6.9c-0.3,0.5-3,4.4-3.6,7c-0.6,2.8-2.3,2.5-2.8,0.2c-0.4-2,0.8-4.6,1.2-5.4
						c-2,3.5-2,7.5-2,7.7c0,0,0,0,0,0c1.1,1.2-0.4,4.3-2.7,3.2c-2.2-1-0.5-3-0.4-3.2c-0.9,0.5-1.4,1.3-1.4,1.3c-1.1,0.2-1.6,0-1.6,0
						c-1.2-2-1.4-6.3-1.4-6.3c3.5,0.2,2.7-4.9,2.7-4.9c0.3,3-4.9,3.3-5.6,0.5c-0.7-2.9,0.4-6.2,0.4-6.2c3,0.7,1.7-1.7,3.6-4.4
						c1.8-2.7,4-3.3,4-3.3c-1.9-0.1-5.5,3.9-5.5,3.9c0.3-1.1,0-1.4,0-1.4c0.1,0.9-0.2,1.7-2,2.8c-1.5,0.8-1.4-0.9-1.3-1.5
						c0-0.1,0-0.1,0-0.1c0-0.1,0-0.1,0-0.1c0,0,0,0,0,0s0,0,0,0.1c-0.3,0.5-1.7,3.4-1,3.8c0.8,0.5,0.3,5.2,0.3,6.1
						c0,0.9-2-1.2-2.3-4c-0.3-2.8-2.9-4.2-2.9-4.2c-6.4-2.2-12.3-9.2-12.3-9.2c0.8,2.1,7.9,7.5,7.9,7.5s-1.1,0.6-4.9-1.2
						c-3.8-1.8-5-10.8-5-10.8c-0.1,0.4-0.2,0.8-0.2,1.3C112.8,274.6,115.1,280.2,119.7,282.1z"/>
					<path d="M120.1,293.1c0.2,0,0.3,0.1,0.3,0.1c1.1,0.3,5.1,0.3,5.6,0.3c-3.4-0.2-9.5-2.9-11.5-4.2c-1.9-1.3-0.2-2.6,0.1-2.8
						c-1,0.6-1.6,1.4-1.2,2.4c0.8,2.5,5.2,3.9,6.6,4.2C120,293.1,120,293.1,120.1,293.1z"/>
					<path d="M123.5,289.8c-4-1.5-6.7-0.8-6.5-0.8c1.9,0.1,3.7,0.4,5.5,1c1.8,0.6,3.6,1.4,5.5,1.7c0.3,0,0.7,0,1,0.1
						C129,291.8,127.6,291.3,123.5,289.8z"/>
					<path d="M124.4,307.5c3.1,0.6,3.3-4,3.3-4c3.9-0.9,8.5,2.1,8.7,2.3c-3.7-4-8.9-5-11.2-5c-2.3,0-6-1-8.6-2.6
						c-2.6-1.7-0.7-3.6-0.7-3.6c-0.6,0.5-1,1.1-1,1.9c0.1,2.9,7.3,5.9,7.3,5.9S121.3,306.9,124.4,307.5z M123.2,302.8
						c0,0,1.6,0.5,2.5,0.5c0,0-0.1,2.9-1.4,2.1C123,304.6,123.2,302.8,123.2,302.8z"/>
					<path d="M137.3,323.2c0,0,0.7-0.5,1.4-1.2c-0.1,0.3-0.2,0.5-0.2,0.8c0,1.4,1.4,2.6,3,2.6c1.7,0,3-0.8,3-2.3
						c0-0.6-0.2-1.1-0.6-1.6c0,0.1,0,0.3,0,0.4c0,1.2-1.1,1.8-2.5,1.8s-2.5-1-2.5-2.1c0-0.1,0-0.1,0-0.2c0.4-0.5,0.7-1,0.8-1.6
						c0,0-2.1,3-5.9,2.7c-3.8-0.3-11.2,0.3-8.3-3.8c-0.8,0.7-1.5,1.6-1.7,2.5C123.2,324.5,137.5,323.2,137.3,323.2z"/>
					<path d="M138.3,315.2c-1.8,0.1-7.9,0-12.9-1.1c-4.5-1-3.6-3.4-3.3-4c-2.8,5.1,8.6,5.9,8.6,5.9C135,316,138.3,315.2,138.3,315.2
						z"/>
					<path d="M157.1,308.1c2.2,1.5,1.5,4.8,1.5,4.8c0.7,2.5-2.3,4.8-3.7,2.8c-1.4-2,1.2-3.2,1.2-3.2c0.3-0.4,0.5-0.8,0.5-1.2l0,0
						c0,0-0.6,1.8-3.7,2.1c-2.9,0.2-2-2.9-1.8-3.2c-1,1.8-0.1,4,0,4.2c1.1,1.5,2.3,0.8,2.3,0.8c1.3,8,5.7,2.4,5.7,2.4
						c-0.6,4.2,3.8,3.9,3.8,3.9s2.3-2.6,1.1-4.8c-0.1-0.1-0.1-0.2-0.2-0.3l0,0c0.1,0.7-0.2,1.8-2.5,2.3c-2.3,0.5-1.1-2.8-1.1-2.8
						l1.9-3.6c0,0,4-0.4,8.3-2.3c3-1.4,4.3-5.8,4.2-9.1l-0.2-1.9c-1,11.5-10.7,11.6-10.7,11.6c4.6-4.4,4-13.2,4-13.2
						c-0.4,9.7-5.7,12.8-5.7,12.8s-0.5-3.6,0.5-7.7c1-4.1-0.1-7.4-0.1-7.4c0.5,4.5-1.2,8.4-2,11.7c-0.3,1.4-0.3,2.5-0.2,3.2
						c-0.6-1-1.6-2-2.7-5c-1.6-4.3,2.9-12.7,3.1-13.1c-1,0.9-1.9,2.4-2.9,4.1C154.7,301.4,154.8,306.6,157.1,308.1z"/>
					<path d="M197.3,336.3c0.2,0,0-1.5,0-1.5s-1.1,0-2.1,0c-0.7,0-0.9-1.4-0.9-2.2c0,0.8-0.2,2.2-1,2.5c-1,0.3-0.7-1.6-0.7-2
						c-0.1,0.3-0.5,1-2,1.5c-1.9,0.5-1.8-1.3-1.8-1.3s-1,1-2.7,1.5c-1.4,0.3-1.7-0.4-1.7-0.7c0.1,1.2-3.1,2-3.8,1.2
						c-0.7-0.8-0.1-3.2-0.1-3.2c-0.9,1.5-0.1,4.1-2,3.9c-1.8-0.2-0.5-4.1-0.8-3.7c0,0-0.1,0.1-0.1,0.2c-0.3,0.6-0.4,1.7-0.4,1.7
						c-0.5-0.5-1-2.5-1.2-3.1c0-0.1,0-0.2,0-0.2s0,0,0,0c-0.2,0.2-2.5,0.6-3,0c-0.4-0.6,0.6-2.2,0.8-2.5c-0.2,0.2-1,0.9-3.3,1.2
						c-2.7,0.4-1.3-4.1-1.3-4.1c-3.8,0-1.9-3.9-1.8-4.2c-1.5,0.8-1.8,2.4-1.8,2.4l-0.7-0.6c3.7,4.9,0.2,4.3-3.3,3
						c-3.3-2.1-6.7-5.5-8.6-7.3c-2.5-2.4-5.4-2.3-5.4-2.3s0-2.1-1.1-2.8c-1.1-0.7-3.9-3-5.5-4.6c-1.5-1.5-2.8-1.2-2.7-0.5
						c0.1,0.7-1.8,2-3.5,0.6c-1.6-1.4,0-3.1,0.1-3.2c0,0,0,0,0,0l-1.5-0.7l-1.8,1.5c0,0,1.7,0.4,1.5,1.6c-0.2,1.1,0,2.1,0,2.1
						c-3.9-0.7-6.9,0.5-6.9,0.5c3.3-0.4,7.2,0.4,7.2,0.4c1.7,2.7,7.3,1.2,7.3,1.2c0.9,2.1,3.5,1.2,4.9,2.1c1.4,0.9,0.5,2.3,0.5,2.3
						c0-0.5-0.8-0.7-0.8-0.7c0,0.8-1.8,1.2-3.4,1.2c-1.6,0-1.6-2.4-1.6-2.4c-0.5,0.5-0.8,1.2-0.8,1.2c-4.8,0.2-8.1,3.3-8.1,3.3
						c4.1-2.1,8.2-1,8.2-1c2,2.5,6.3,1,6.6,1c-0.1,0.2-0.8,2.1-0.4,3.1c0.3,0.8,3.8,0.8,4.3,0.8c-0.1,0-0.5,0-1.1,0.1
						c-3.8,0.2-9.3,3.4-11.4,5c-2,1.5-4.7,1.6-4.9,1.6c4,0.8,7.7-2,11.3-3.7c3.6-1.7,4.5-1.5,4.5-1.5c-2.2,2.9-7.9,5.5-10,6.7
						c-2.2,1.2-8.4,0.3-9.4-0.3c-0.9-0.5,0.1-2,0.3-2.2c-0.6,0.6-1,1.3-1.3,1.8c-1.4,3.2,8,2.5,8,2.5c3.9,0.3,7-2.3,7.3-2.7
						c-1.6,1.5-3,5.1-3.1,5.6c1.6-2.9,6.7-7.5,6.7-7.5s0,0,0,0c0.2-0.3,3.2-3.5,4.4-4.7c0.8-0.8,4.3,0.6,7,1.8c0,0,0,0,0,0
						c0.2,0.1,0.5,0.2,0.7,0.3c0.1,0,0.1,0.1,0.2,0.1c0.2,0.1,0.3,0.2,0.5,0.2c0.1,0,0.2,0.1,0.3,0.1c0.1,0.1,0.2,0.1,0.3,0.2
						c0.1,0.1,0.3,0.1,0.4,0.2c0,0,0.1,0,0.1,0.1c0.2,0.1,0.3,0.1,0.4,0.2c0.1,0,0.2,0.1,0.2,0.1c0,0,0,0,0,0
						c-0.6-0.1-1.2,0-1.9,0.1c3.5-0.4,3.7,3.9,3.5,4.8c-0.2,0.9-3.1,1-4.2,0.7c-1-0.3-1.5-2.2-1.5-2.2c-0.6,1,1.1,2.7,1.4,3.7
						c0.3,1.1-2.4,1.2-3.4,0.7c-1-0.5-1-2.5-1-2.5c-0.8,2.2,2,4.4,2,4.4c0,0-2.5,0.9-3.4-1.3c-0.8-1.9,1.6-5.2,2.2-5.9
						c-1.8,1.6-3.1,3.7-3.3,5.1c-0.4,2.9,4.3,3.2,4.3,3.2s0,0,0,0v0c0,0.1-0.1,0.1-0.2,0.2c-0.5,0.7-1.5,2.8-0.5,4.6
						c1.2,2.3,5.9,1.2,5.9,1.2c0,0.2-0.1,0.3-0.1,0.5c-0.6,3.8,1.2,3.8,3.2,4c2,0.3,9.1-6.5,9.1-6.5s5.3,6.2,6.6,13.2
						c1.2,7,5.3,14.5,7.6,14.8c2.3,0.3,5.7-3,5.2-5.7c0-0.2-0.1-0.3-0.1-0.5c0,1.1-4.5,3.7-5.2,2.5c-0.7-1.3,3.5-2.7,3.5-2.7
						c-0.9-0.3-2.7,0.9-4.6,1.3c-1.9,0.4-4.6-5.3-5-8.8c-0.4-3.4-1.5-7-4.5-11.3c-0.4-0.6-0.8-1.1-1-1.7l0,0c-1.1-3-0.7-3.5-0.7-5.3
						c0-1.9,3.1,1.6,3.1,1.6s2.1,0.6,2.3,0.6c0.2,0,16-1.6,16-1.6l0.3-1.6c0,0-18.8,1.9-17.9,0.2
						C180.2,335.9,197.1,336.3,197.3,336.3z M170.3,344.1c-1.3,0.5-3.8-2.8-4.1-3.1c0.1,0.2,1.1,2.1,2.1,3.1
						c1.1,1.1-0.4,1.2-0.4,1.2c-2.7,0.3-3.9-3-3.9-3c-0.4,2.2,2.9,4.1,2.9,4.1s-3,1-4-0.2c-0.9-1.2,0.4-3.5,0.4-3.5c0,0,0,0-0.1,0
						c0.9-1,2.1-1.4,2.6-2.5c0.6-1.2,3.4-2.5,4.4-1.8C171.5,339.2,171.7,343.6,170.3,344.1z M171.5,334.2c-1.3,1.7-6.2,1.3-6.2,1.3
						c0,1.4-0.5,4.5-2.4,3.8c-1.9-0.7-2.8-2.7-2.8-2.7c0.1,1.4,4,6.3,1.2,5.3c-2.8-1-2.9-4.1-2.9-4.1c-0.8,2,2.2,4.8,2.2,4.8
						s-1.2,1.6-3.5,0.3c-1.9-1-1.1-3.5-0.9-4.1c0,0,0,0,0,0c2.7-2.7,8.2-5.5,10-6.4C168.5,331.1,172.8,332.5,171.5,334.2z"/>
				</g>
			</g>
			<path class="st3" d="M385.5,296.2v3.5l7.8-2.4l-2.6,11.8l-2.1-2.4l-4.6,10.2l-2.9-3.6l-19.6,15.3c0,0,2,1.4,1.1,3.7s-3.6,3-3.6,3
				s2.5,0.6,1.6,4c-0.9,3.4-5.1,2.8-5.1,2.8s2.1,2.8,0.4,4.2c-1.7,1.4-3.8,1.5-3.8,1.5l-1.1,9.9l2,2l-0.3,12.9l-3.5-1.5l-4.1,2
				l-0.8-2.8c0,0-2,0.5-4.4,0.3c-2.4-0.2-2.9-0.2-2.9-0.2l-2.7-2.2c0,0-1.7,0.6-3.9,0.3c-2.2-0.3-3.5-1.3-3.5-1.3l-0.5-1.6
				c0,0-1,0.5-2.2-0.9c-1.2-1.3-1.2-2.3-1.2-2.3l-0.9-1l-1.4-0.5c0,0-1.4-0.5,0-2.4c1.4-1.9,7.8-9.5,7.8-9.5l5.2-0.3l6.2-7.8
				l-1.1-2.3l-20-0.4c0,0-2.5,8.8-14.2,1.8c0,0-8.3,1.2-10.4-4.9c0,0-4.9,1.2-6.7-4.9c0,0-5.3-0.2-5.9-4.6c0,0-2.5,4.8-5,6.6
				c0,0,1.8,9.9-2.5,8.6l0.3,2.2c0,0,6.5,0.9,14.2,11.7c7.7,10.8,11.8,23.2,1.6,18.4c0,0,1.3,3.7-1.6,5c-2.8,1.2-5.2,0.1-5.4,0
				c0,0.2,1.7,6.1-0.9,6.6c-2.7,0.5-7.6-1.6-7.6-1.6s0.9,9.3-3,8.1c-3.9-1.2-7.8-6.2-7.8-6.2s-1.2,11.9-7,11.9
				c-5.8-0.1-7.9-11.3-7.9-11.3s-5.8,8.1-9.3,4.3c-3.5-3.8-3.1-6.8-3.1-6.8s-4.5,5.6-7.7,4c-3-1.5-1.7-6.2-1.6-6.5
				c-0.3,0.1-5.6,2.1-6.1-0.3c-0.5-2.4,0.2-8.2,0.2-8.2s-6.6,2.1-6.9-2.2c-0.3-4.4,6.6-15.7,21-27.5c0,0-2.4-2.4-0.2-9.8
				c0,0-2-1.9-3.2-3c0,0-2.8,7.2-6.8,5.6c-3.8-1.5-3.9-3.3-3.9-3.5c-0.1,0.2-2.6,9.4-10.6,6.5c0,0-1.4,3.9-6.8,1.2
				c0,0-3.9,6.1-7.2-0.3c0,0-17.3-0.2-17.9,0.5c-0.6,0.6,0.8,1.5,2,2.8c1.2,1.3,4.1,14.3,6.1,16.6c1.8,2.1,5.3,3.2,6.1,5.5
				c0,0,0,0,0,0c0.1,0.2,0.1,0.3,0.1,0.5c0.4,2.7-2.9,6-5.2,5.7c-2.3-0.3-6.3-7.8-7.6-14.8c-1.2-6.9-6.6-13.2-6.6-13.2
				s-7,6.8-9.1,6.5c-2-0.3-3.8-0.2-3.2-4c0-0.2,0-0.3,0.1-0.5c0,0-4.6,1.2-5.9-1.2c-1-1.9,0.1-3.9,0.5-4.6c0.1-0.1,0.1-0.2,0.2-0.2
				v0c0,0,0,0,0,0s-4.6-0.3-4.3-3.2c0.2-1.4,1.5-3.5,3.3-5.1l0,0c1.3-1.2,2.8-2.1,4.3-2.5c0.6-0.1,1.2-0.2,1.9-0.1c0,0,0,0,0,0
				c-0.2-0.1-2.9-1.5-5.4-2.5c-2.1-0.8-4.1-1.4-4.7-0.8c-1.2,1.2-4.1,4.4-4.4,4.7c0,0,0,0,0,0s2.6,1.9,1.2,3.6
				c-1.3,1.7-8.1,9.8-11.4,9.7c-3.3-0.1-0.7-8.7-0.7-8.7s-9.4,0.7-8-2.5c0.2-0.6,0.7-1.2,1.3-1.8c0,0,0,0,0,0c2.5-2.8,7.2-5.8,7.7-6
				c0,0,0,0,0,0c0.3,0-14.1,1.2-13.4-1.9c0.2-0.9,0.9-1.8,1.7-2.5c2-1.8,5.1-2.9,5.1-2.9s-11.4-0.8-8.6-5.9c0,0,0-0.1,0-0.1
				c0,0,0,0,0,0c1.4-2.3,6.2-2.3,11.1-1.6c0,0,0.6-1.8,1.8-2.4c0,0,0,0,0,0c0.4-0.2,0.9-0.3,1.4-0.1c0,0,0,0,0,0
				c-0.2-0.2-4.8-3.3-8.7-2.3c0,0-0.2,4.6-3.3,4c-3.1-0.6-2.1-5.2-2.1-5.2s-7.2-3-7.3-5.9c0-0.8,0.4-1.4,1-1.9v0
				c1.5-1.2,4.4-1.3,4.4-1.3s-0.1,0-0.3-0.1c0,0-0.1,0-0.2,0c-1.4-0.4-5.8-1.8-6.6-4.2c-0.3-1,0.2-1.8,1.2-2.4c0,0,0,0,0,0
				c2-1.1,5.6-1.5,8.7-1.7c0,0-0.9-1.9,1.6-2.2c0.1,0,0.2,0,0.3,0c-1.8,0-3.7,0.3-5.4-0.4c-4.6-2-6.9-7.5-6.7-12.3
				c0-0.5,0.1-0.9,0.2-1.3c0.6-2,2.2-2.9,4.5-1.9c2.9,1.3,5.1,3.9,7.2,6.3c0.9,1,1.8,2.1,2.5,3.3c0.2,0.3,1.6,2.3,1.7,3
				c0,0,0,0.1,0,0.1c0.1-0.2,2-3.3-1.4-8.8c-3.9-6.3-8.2-15-3-21.8c0.2-0.2,0.4-0.4,0.6-0.6c0.2-0.2,0.4-0.3,0.7-0.4
				c3.2-1.2,6.4,7,6.7,9c0.5,3.9-2.2,8.8-2,11.4c0.3,2.6,1,4.4,1,4.4s0.6-7.6,1.7-10.6c0.8-2.2,3.9-5.6,6.6-7.2c0,0,0,0,0.1,0
				c0.6-0.3,1.1-0.6,1.6-0.7c0,0,0,0,0,0c0.4-0.1,0.7-0.2,1-0.2c2.8,0.1,2,13.1-1.5,15.1c-3.4,1.9-7.3,4.9-7.6,10.8
				c0,0.3,0,0.6,0,0.9v0.1c0-0.1,0-0.1,0-0.1v0c0,0,0,0,0,0c0.2-0.7,0.8-2.8,3.2-1.9c0,0,3.2-4.3,5.9-3.6c1.1,0.3,2,2.2,2,4.7
				c0.1,3.3-1.2,7.7-4.8,10.7c0,0,0.8,5.1-2.7,4.9c0,0,0.3,4.3,1.4,6.3c0,0,0.5,0.2,1.6,0c0,0,0.5-0.8,1.4-1.3c0,0,0,0,0,0
				c0.8-0.4,1.8-0.7,3-0.1c0,0,0,0,0,0c0-0.2,0-4.2,2-7.7c0,0,0-0.1,0.1-0.1c0,0,0-0.1,0.1-0.1v0c0.6-1,1.4-2,2.3-2.8
				c4.3-3.6,4.7-2.1,4.9,1.9v0.1c0,0.2,0,0.4,0,0.7c0.2,4.5,0.7,7.8-3,12c-2.8,3.1-3.1,5.1-3.1,5.9c0,0.3,0.1,0.5,0.1,0.5
				s0.1,2.3,3.3,4.1c-0.1-0.2-1-2.5,0-4.2c0,0,0,0,0,0c0.2-0.4,0.6-0.8,1.2-1.2c2.3-1.4,4.7,0.4,4.4,2.4c-0.1,0.4-0.2,0.8-0.5,1.2
				c0,0,0,0,0,0c0.2-0.1,1.5-0.8,2.4,0.4c0,0,0.7-3.3-1.5-4.8c-2.2-1.5-2.3-6.7,0.6-12.1c1-1.8,1.9-3.2,2.9-4.1c0,0,0,0,0,0
				c2.1-1.9,4.3-1.1,7.1,5.5c0,0,4.2-1.7,6.1,0.3c0.3,0.3,0.5,0.8,0.7,1.4c0.1,0.6,0.2,1.2,0.2,1.9c0.1,3.3-1.3,7.7-4.2,9.1
				c-4.3,2-8.3,2.3-8.3,2.3l-1.9,3.6c0,0,0.1-0.1,0.3-0.1c0.7-0.3,2.3-0.8,3.3,0.7l0,0c0.1,0.1,0.1,0.2,0.2,0.3
				c1.2,2.2-1.1,4.8-1.1,4.8l1.9,1.5l0,0l0.7,0.6c0,0,0.3-1.6,1.8-2.4c0,0,0,0,0,0c0.4-0.2,0.9-0.3,1.5-0.4c2.8-0.2,5.4,1.6,4.9,3.6
				c0,0,2,0.5,1.4,2.5c-0.3,1-0.9,1.3-1.4,1.3c0.9,0.2,2.1,0.9,2.2,2.5l21-0.9c0,0,0-8.5,5.3-14.3c5.3-5.7,19.8-6.6,19.8-6.6
				s-2.8-7.5-4-13.5c0,0-2.2,6-5.1,4.4c-2.9-1.6-2.3-7.3-2.3-7.3s-3.6,7.8-6.5,7.8c-2.9-0.1-2-11.2-2-11.2s-4.5,7.5-8.4,6.9
				c-3.8-0.6-2.1-7.5-2.1-7.5s-3.7,3.6-5.7,3c-2-0.5-1.2-8.1-1.2-8.1s-2.7,2.8-6.7,1.5c-3.9-1.3,0.4-8.2,0.5-8.5
				c-0.3,0.1-4.7,2.5-7.3,1.3c-2.7-1.2,0.5-6.3,0.5-6.3s-5.7,1.1-6.7-1.1c-1-2.1,2-5.3,2-5.3s-5.3,0.5-5.6-1.8
				c-0.3-2.3,0.5-4.3,2.7-5.1c0,0-4.8,0.2-5.7-3.2c-0.9-3.4,3.6-4.8,3.6-4.8s-6.4,0.4-6.3-4.9c0.1-4.7,2.5-4.7,3-4.6
				c-0.8-0.2-5-1.6-3.9-6c0.9-3.9,5.5-3.6,7.2-3.3c-1.9-0.4-7.7-2-7.3-5.8c0.3-3.5,4.4-3.2,6.3-2.8c-1.7-0.5-4.9-1.6-5.8-4.2
				c-1.2-3.6,5.6-3.6,5.6-3.6s-7.2-0.2-7.2-4.3s7.3-4.1,7.3-4.1s-11.3-5.1-15.5-9.9c-3.8-4.3,1.9-6,5.9-4.5
				c-3.2-1.6-11.6-6.1-13.4-9.7c-2.3-4.5-0.9-8.1,5.3-6.1c0,0-9.8-6.4-11.7-11.9c-1.9-5.5,8.6-2.9,14.1-0.4
				c5.4,2.4,24.8,12.6,38.1,24c13.3,11.4,20.1,19.3,23.4,26.1c3.3,6.8-1.1,10.5-5,18.1c-2.2,4.3-2.7,9-2.6,12.3c0,2.5,1,4.9,2.8,6.6
				c3.5,3.4,10.2,9.2,16.8,10c0,0,0.3-4.5,0.9-7.8c0.6-3.3,2.4,0.3,10.8,0.2c0,0-0.7-5.5,4.9-10.7c0,0,1.4-5.4,5.6-8.2
				c0,0,1.8-5.4,5.4-6.1c0,0,3.1-3.6,5.2-3.3c0,0,2.5-4.8,0-6c-2.5-1.2-7.7-3-7.7-3s-1.2,1.9-4.1,3.7s-4.4,6.8-7,7.4
				c-2.7,0.6-7.5,5-8.5,5.8c-1,0.8-2-1.6-0.1-3.8c2-2.2,4.9-2.7,7-5.2c2.1-2.5,4.1-5.3,6.5-6.3c2.4-1,3-5.3,3-5.3s-3.9-1.5-4.9-0.6
				c-1,0.9-2.6,4.1-3.9,2.9c-1.3-1.2-3.8-7.1-0.7-10.7c3.1-3.6,6.8-5.1,10.7-4.9c0,0,3.7-0.9,5.2-2.7c1.4-1.8,9.9-1.6,14.1,0.9
				c4.2,2.5,9.7,3.8,9.7,3.8s-1.1,1.7-3.2,1.2c0,0,5.9,1.7,6.7,8.2c0.8,6.5-1.6,16.2,0,19.6c1.6,3.4,0.6,8,0.6,8s2.8-0.3,3.1,3.3
				c0.4,3.6,0.7,5.9,1.8,6.4c0,0,2.1-0.7,6.2,3.9c0,0,3.6,0,6.1-0.8c2.5-0.8,3.1,3.5,3.1,8.8c0,0,16.8-2.2,17.9-12.5
				c1.2-10.2-2-17.5-6.9-23.7c-4.9-6.2,6.6-22.5,16.8-31.5s35.8-24.8,45-28.8s17.1-5.4,18.4-2.4c1.3,3-24.8,20-25.6,20.5
				c0.6-0.3,11.7-5.6,16.3-3.5c4.5,2-12.2,12.2-13.6,13c0.7-0.3,4.8-1.9,6,1.4c1.2,3.5-8,9.7-16.8,11c0.8-0.1,5.3-0.6,5.7,2.2
				c0.5,3-4.8,6.6-4.8,6.6s3.7-0.4,5.9,3.3c2.2,3.7-8.6,6-8.6,6s6.2,0.7,7,2.9c0.8,2.2-7.1,5.7-7.5,5.9c0.3-0.1,3.9-1,7.2,3.3
				c3.4,4.3-6.5,5.1-7.3,5.2c0.5,0,6.5,0.1,7.6,3.7c1.2,3.8-5.6,5.3-5.6,5.3s4.2,0.7,4.2,3.2c0,2.5-3.7,5.6-7.5,5.3
				c0,0,3.3,1.4,3.1,4.9c-0.2,3.5-8.8,2.5-8.8,2.5s3,2.5,3.5,5.3c0.5,2.8-5.8,2-5.8,2s2.7,5.4,0.4,6.2c-2.2,0.8-4.5-0.3-4.5-0.3
				s2.5,7.5-0.8,7.7c-3.3,0.2-7.2-2-7.2-2s2.5,9.4,0.3,10.2c-2.2,0.8-8.6-1.8-8.6-1.8s0.9,7.5-2.3,7.3c-3.2-0.2-5.4-5.2-5.4-5.2
				s-1.2,7.9-3.5,7.8c-2.3-0.2-6.6-6.7-6.6-6.7s0,6.9-2.5,7c-2.5,0.1-4.7-2.2-4.7-2.2s-0.3,4.3-3.1,8.4c0.2-0.2,4.1-3.6,12.9,5.9
				c0,0,7.4,2.1,11.1,15.6c0,0,17.7,1.8,22.6,1.7c0,0-2-8.9,2.5-8.3c4.5,0.5,6.6,3.3,6.6,3.3l4.4-31.2l-3.6-0.2l6.6-8.1l4,8.5
				l-4.3-0.3l-4.6,28.7l3.3-1l4.3-8.8l4.8-25.7h-2.6l3.1-4.9h-3.7l8.1-10.3l1.2,3.2l1.1-1.3l0.6,6.8l2.5-2.5l4.7-13.1l-3.8-1.2
				l9.9-8.2v8.9l9.1-5.2l-1.3,14.2l-4.3-2.5l-4.8,7.8l8.3-4.1l-0.5,9.1l6.4-2.2l-3.7,13.5l-3.7-3.7L385.5,296.2z"/>
		</g>
	</g>
</g>
</svg>
